<svg version="1.1" id="Layer_1" xmlns="http://www.w3.org/2000/svg" xmlns:xlink="http://www.w3.org/1999/xlink" x="0px" y="0px"
	 width="100%" viewBox="0 0 2250 2250" enable-background="new 0 0 2250 2250" xml:space="preserve">
<path fill="#000000" opacity="1.000000" stroke="none" 
	d="
M1328.000000,2252.000000 
	C885.382263,2252.000000 443.764557,2252.000000 2.073408,2252.000000 
	C2.073408,1502.132080 2.073408,752.264099 2.073408,2.198064 
	C751.784790,2.198064 1501.569580,2.198064 2251.677246,2.198064 
	C2251.677246,751.999878 2251.677246,1501.999878 2251.677246,2252.000000 
	C1944.263184,2252.000000 1636.631592,2252.000000 1328.000000,2252.000000 
M906.999878,2154.329102 
	C1045.311768,2154.329102 1183.623901,2154.415527 1321.935669,2154.304932 
	C1460.242554,2154.194336 1598.549438,2153.921875 1736.855835,2153.578369 
	C1745.137573,2153.557861 1753.513794,2152.856689 1761.680420,2151.485107 
	C1820.555542,2141.600098 1866.128540,2087.590820 1866.315308,2027.465210 
	C1866.825806,1863.188110 1867.595337,1698.910645 1867.574463,1534.633301 
	C1867.550537,1346.692139 1866.636475,1158.751221 1866.387329,970.809814 
	C1866.170410,807.163330 1866.364014,643.516357 1866.322876,479.869568 
	C1866.312500,438.928314 1849.887451,405.609406 1818.424561,379.818451 
	C1795.172607,360.758301 1768.181641,351.633850 1738.068970,351.656769 
	C1671.743652,351.707275 1605.418457,351.681671 1539.093140,351.643372 
	C1534.912231,351.640961 1530.731567,351.262146 1525.673096,351.015686 
	C1525.673096,346.156921 1525.674072,342.530426 1525.672974,338.903961 
	C1525.669556,327.572021 1525.804199,316.237915 1525.629517,304.908600 
	C1525.360840,287.487640 1515.224731,275.112762 1498.312012,271.743073 
	C1493.462891,270.776947 1488.421875,270.398926 1483.467896,270.391754 
	C1422.142212,270.303131 1360.816284,270.346558 1299.490479,270.302917 
	C1295.306641,270.299927 1291.123047,269.873077 1287.009033,269.647156 
	C1289.487061,167.579178 1211.434937,103.601402 1133.985229,101.797745 
	C1097.042969,100.937424 1063.344849,111.385918 1034.240845,134.008347 
	C990.466248,168.034134 970.684937,213.907944 972.054749,269.729370 
	C966.762695,269.961243 962.524353,270.306213 958.285767,270.308685 
	C897.293152,270.344269 836.300537,270.298706 775.308105,270.396118 
	C770.020386,270.404572 764.677551,270.946899 759.457947,271.822723 
	C744.870300,274.270264 732.807373,289.180542 733.533875,302.985199 
	C734.181152,315.282715 733.716064,327.642090 733.622253,339.973206 
	C733.595398,343.502563 733.152893,347.028687 732.821533,351.670105 
	C727.584534,351.670105 723.328674,351.670074 719.072876,351.670105 
	C653.414185,351.670502 587.755310,351.587982 522.097107,351.768463 
	C513.152161,351.793060 504.069031,352.364594 495.290558,353.986053 
	C434.800964,365.159027 392.694092,419.361969 392.421570,475.103119 
	C391.887177,584.411377 391.745239,693.722229 391.689087,803.032104 
	C391.585022,1005.674072 391.572113,1208.316162 391.683655,1410.958252 
	C391.796631,1616.256348 392.073334,1821.554565 392.443665,2026.852417 
	C392.459167,2035.439819 393.472595,2044.160522 395.169647,2052.587646 
	C406.064972,2106.691162 455.010223,2153.485596 521.076111,2153.653320 
	C625.386841,2153.918213 729.697632,2154.116943 834.008423,2154.322510 
	C857.672180,2154.369141 881.335999,2154.329102 906.999878,2154.329102 
z"/>
<path fill="#169A39" opacity="1.000000" stroke="none" 
	d="
M905.999878,2154.329102 
	C881.335999,2154.329102 857.672180,2154.369141 834.008423,2154.322510 
	C729.697632,2154.116943 625.386841,2153.918213 521.076111,2153.653320 
	C455.010223,2153.485596 406.064972,2106.691162 395.169647,2052.587646 
	C393.472595,2044.160522 392.459167,2035.439819 392.443665,2026.852417 
	C392.073334,1821.554565 391.796631,1616.256348 391.683655,1410.958252 
	C391.572113,1208.316162 391.585022,1005.674072 391.689087,803.032104 
	C391.745239,693.722229 391.887177,584.411377 392.421570,475.103119 
	C392.694092,419.361969 434.800964,365.159027 495.290558,353.986053 
	C504.069031,352.364594 513.152161,351.793060 522.097107,351.768463 
	C587.755310,351.587982 653.414185,351.670502 719.072876,351.670105 
	C723.328674,351.670074 727.584534,351.670105 732.821533,351.670105 
	C733.152893,347.028687 733.595398,343.502563 733.622253,339.973206 
	C733.716064,327.642090 734.181152,315.282715 733.533875,302.985199 
	C732.807373,289.180542 744.870300,274.270264 759.457947,271.822723 
	C764.677551,270.946899 770.020386,270.404572 775.308105,270.396118 
	C836.300537,270.298706 897.293152,270.344269 958.285767,270.308685 
	C962.524353,270.306213 966.762695,269.961243 972.054749,269.729370 
	C970.684937,213.907944 990.466248,168.034134 1034.240845,134.008347 
	C1063.344849,111.385918 1097.042969,100.937424 1133.985229,101.797745 
	C1211.434937,103.601402 1289.487061,167.579178 1287.009033,269.647156 
	C1291.123047,269.873077 1295.306641,270.299927 1299.490479,270.302917 
	C1360.816284,270.346558 1422.142212,270.303131 1483.467896,270.391754 
	C1488.421875,270.398926 1493.462891,270.776947 1498.312012,271.743073 
	C1515.224731,275.112762 1525.360840,287.487640 1525.629517,304.908600 
	C1525.804199,316.237915 1525.669556,327.572021 1525.672974,338.903961 
	C1525.674072,342.530426 1525.673096,346.156921 1525.673096,351.015686 
	C1530.731567,351.262146 1534.912231,351.640961 1539.093140,351.643372 
	C1605.418457,351.681671 1671.743652,351.707275 1738.068970,351.656769 
	C1768.181641,351.633850 1795.172607,360.758301 1818.424561,379.818451 
	C1849.887451,405.609406 1866.312500,438.928314 1866.322876,479.869568 
	C1866.364014,643.516357 1866.170410,807.163330 1866.387329,970.809814 
	C1866.636475,1158.751221 1867.550537,1346.692139 1867.574463,1534.633301 
	C1867.595337,1698.910645 1866.825806,1863.188110 1866.315308,2027.465210 
	C1866.128540,2087.590820 1820.555542,2141.600098 1761.680420,2151.485107 
	C1753.513794,2152.856689 1745.137573,2153.557861 1736.855835,2153.578369 
	C1598.549438,2153.921875 1460.242554,2154.194336 1321.935669,2154.304932 
	C1183.623901,2154.415527 1045.311768,2154.329102 905.999878,2154.329102 
M1470.997681,2075.672363 
	C1560.288818,2075.224854 1649.579956,2074.777100 1738.871094,2074.328125 
	C1740.204224,2074.321289 1741.543457,2074.373779 1742.869385,2074.267334 
	C1758.423218,2073.019043 1770.782593,2066.222168 1779.586914,2053.179932 
	C1786.228882,2043.341187 1787.629761,2032.225464 1787.656494,2020.761841 
	C1787.884033,1923.444336 1788.028564,1826.126465 1788.347168,1728.809326 
	C1788.703857,1619.851074 1789.645752,1510.893066 1789.572754,1401.935425 
	C1789.412476,1162.318115 1788.795044,922.701050 1788.316040,683.083923 
	C1788.183350,616.763977 1787.881958,550.444397 1787.657471,484.124664 
	C1787.652954,482.791443 1787.685547,481.456207 1787.625244,480.125336 
	C1786.569336,456.793152 1775.071655,439.714661 1755.020996,433.487366 
	C1747.856201,431.262177 1739.986572,430.486328 1732.433594,430.460144 
	C1667.104858,430.233826 1601.774902,430.329590 1536.445312,430.329407 
	C1532.859497,430.329376 1529.273682,430.329407 1525.471558,430.329407 
	C1523.439575,436.722229 1521.805054,442.091461 1520.029663,447.413635 
	C1508.084473,483.222046 1470.677368,511.807922 1430.016846,511.763611 
	C1229.695190,511.545349 1029.373169,511.666016 829.051208,511.651520 
	C825.389282,511.651276 821.660461,511.871552 818.075562,511.292084 
	C776.191040,504.521820 748.986633,480.733795 736.265564,440.311066 
	C735.289062,437.208344 734.440247,434.065460 733.353882,430.328217 
	C728.469666,430.328217 724.171448,430.328217 719.873291,430.328217 
	C656.876892,430.328186 593.880371,430.294037 530.884094,430.383545 
	C524.922668,430.392029 518.968079,431.411316 513.000366,431.559052 
	C491.174988,432.099609 471.401276,454.576385 471.459137,478.414215 
	C471.625702,547.039612 470.634369,615.666931 470.377075,684.294495 
	C470.010986,781.945251 469.674774,879.596985 469.711151,977.248230 
	C469.819916,1269.221436 470.052155,1561.194702 470.393646,1853.167603 
	C470.461029,1910.795410 471.670105,1968.423950 471.476990,2026.049194 
	C471.389984,2052.002686 492.258728,2074.583496 520.219421,2074.539795 
	C604.177490,2074.408936 688.136536,2075.358154 772.096008,2075.637207 
	C880.079529,2075.995850 988.063843,2076.297363 1096.047852,2076.286377 
	C1220.364258,2076.273926 1344.680542,2075.893066 1470.997681,2075.672363 
M1200.923828,295.701477 
	C1213.499878,270.688019 1213.465088,245.440720 1200.435547,220.912369 
	C1178.681396,179.959991 1129.003906,165.695145 1088.821045,189.012177 
	C1061.879761,204.645386 1048.002197,229.129486 1048.641479,260.159851 
	C1049.175659,286.092224 1060.505371,307.879364 1081.612793,323.465363 
	C1098.217896,335.726837 1117.105469,341.540253 1137.976807,338.864685 
	C1165.663696,335.315430 1186.146973,320.893158 1200.923828,295.701477 
z"/>
<path fill="#000000" opacity="1.000000" stroke="none" 
	d="
M1469.997314,2075.672363 
	C1344.680542,2075.893066 1220.364258,2076.273926 1096.047852,2076.286377 
	C988.063843,2076.297363 880.079529,2075.995850 772.096008,2075.637207 
	C688.136536,2075.358154 604.177490,2074.408936 520.219421,2074.539795 
	C492.258728,2074.583496 471.389984,2052.002686 471.476990,2026.049194 
	C471.670105,1968.423950 470.461029,1910.795410 470.393646,1853.167603 
	C470.052155,1561.194702 469.819916,1269.221436 469.711151,977.248230 
	C469.674774,879.596985 470.010986,781.945251 470.377075,684.294495 
	C470.634369,615.666931 471.625702,547.039612 471.459137,478.414215 
	C471.401276,454.576385 491.174988,432.099609 513.000366,431.559052 
	C518.968079,431.411316 524.922668,430.392029 530.884094,430.383545 
	C593.880371,430.294037 656.876892,430.328186 719.873291,430.328217 
	C724.171448,430.328217 728.469666,430.328217 733.353882,430.328217 
	C734.440247,434.065460 735.289062,437.208344 736.265564,440.311066 
	C748.986633,480.733795 776.191040,504.521820 818.075562,511.292084 
	C821.660461,511.871552 825.389282,511.651276 829.051208,511.651520 
	C1029.373169,511.666016 1229.695190,511.545349 1430.016846,511.763611 
	C1470.677368,511.807922 1508.084473,483.222046 1520.029663,447.413635 
	C1521.805054,442.091461 1523.439575,436.722229 1525.471558,430.329407 
	C1529.273682,430.329407 1532.859497,430.329376 1536.445312,430.329407 
	C1601.774902,430.329590 1667.104858,430.233826 1732.433594,430.460144 
	C1739.986572,430.486328 1747.856201,431.262177 1755.020996,433.487366 
	C1775.071655,439.714661 1786.569336,456.793152 1787.625244,480.125336 
	C1787.685547,481.456207 1787.652954,482.791443 1787.657471,484.124664 
	C1787.881958,550.444397 1788.183350,616.763977 1788.316040,683.083923 
	C1788.795044,922.701050 1789.412476,1162.318115 1789.572754,1401.935425 
	C1789.645752,1510.893066 1788.703857,1619.851074 1788.347168,1728.809326 
	C1788.028564,1826.126465 1787.884033,1923.444336 1787.656494,2020.761841 
	C1787.629761,2032.225464 1786.228882,2043.341187 1779.586914,2053.179932 
	C1770.782593,2066.222168 1758.423218,2073.019043 1742.869385,2074.267334 
	C1741.543457,2074.373779 1740.204224,2074.321289 1738.871094,2074.328125 
	C1649.579956,2074.777100 1560.288818,2075.224854 1469.997314,2075.672363 
M1389.000122,1152.324219 
	C1289.069336,1152.324219 1189.138550,1152.323608 1089.207764,1152.324829 
	C1076.216797,1152.324951 1063.224487,1152.226440 1050.235107,1152.375366 
	C1041.082642,1152.480347 1039.784058,1153.739624 1039.705566,1162.816284 
	C1039.561523,1179.470215 1039.648193,1196.126099 1039.652466,1212.781250 
	C1039.656738,1229.662109 1039.663940,1229.673462 1056.678101,1229.673706 
	C1253.541748,1229.676514 1450.405273,1229.675659 1647.268921,1229.675171 
	C1649.267578,1229.675171 1651.266968,1229.703979 1653.264648,1229.658936 
	C1663.257568,1229.433716 1664.245239,1228.600708 1664.307739,1218.829712 
	C1664.420654,1201.176025 1664.376587,1183.520996 1664.336914,1165.866699 
	C1664.307617,1152.836426 1663.841309,1152.411011 1650.820312,1152.328613 
	C1648.488647,1152.313843 1646.156860,1152.324463 1643.825073,1152.324463 
	C1559.550171,1152.324341 1475.275146,1152.324219 1389.000122,1152.324219 
M1321.000122,1814.324219 
	C1231.715454,1814.325073 1142.430908,1814.315430 1053.146240,1814.338867 
	C1040.353271,1814.342285 1039.706543,1815.025269 1039.664917,1827.994629 
	C1039.614746,1843.652588 1039.707031,1859.311157 1039.636108,1874.968872 
	C1039.553467,1893.180176 1039.553223,1891.670654 1056.723022,1891.671265 
	C1250.283936,1891.677856 1443.844971,1891.675781 1637.405884,1891.675415 
	C1642.736328,1891.675415 1648.067749,1891.733521 1653.396973,1891.653564 
	C1663.541992,1891.501587 1664.239014,1890.912842 1664.308838,1880.841919 
	C1664.424438,1864.185181 1664.354614,1847.527100 1664.347046,1830.869507 
	C1664.339600,1814.343506 1664.331055,1814.327881 1647.822876,1814.327148 
	C1539.548706,1814.322144 1431.274414,1814.324341 1321.000122,1814.324219 
M1039.812012,827.724365 
	C1039.763794,845.384460 1039.721436,863.044556 1039.665771,880.704651 
	C1039.607666,899.132874 1038.825562,898.331665 1056.924438,898.330322 
	C1253.526978,898.315735 1450.129395,898.321289 1646.731934,898.321045 
	C1648.731323,898.321045 1650.730957,898.341431 1652.729858,898.310242 
	C1663.439453,898.143433 1664.233887,897.475769 1664.297729,887.046143 
	C1664.397705,870.718750 1664.321533,854.390320 1664.334595,838.062317 
	C1664.348267,820.805603 1665.084961,821.677795 1648.009521,821.677917 
	C1450.740601,821.679382 1253.471558,821.678162 1056.202637,821.683716 
	C1052.871094,821.683838 1049.431519,821.266113 1046.244873,821.965576 
	C1044.015137,822.455078 1042.130981,824.518616 1039.812012,827.724365 
M1388.999878,1560.321533 
	C1408.325195,1560.321533 1427.650391,1560.322021 1446.975708,1560.321411 
	C1515.613403,1560.319336 1584.251099,1560.338745 1652.888794,1560.291870 
	C1663.718384,1560.284546 1664.242065,1559.729248 1664.301514,1549.056885 
	C1664.392456,1532.730957 1664.337891,1516.404053 1664.330078,1500.077637 
	C1664.322266,1483.696533 1664.314087,1483.681396 1647.859985,1483.681152 
	C1450.943115,1483.677490 1254.026123,1483.678711 1057.109253,1483.679321 
	C1054.776855,1483.679321 1052.443237,1483.638672 1050.112427,1483.701538 
	C1040.790405,1483.953003 1039.791016,1484.796021 1039.718384,1494.110718 
	C1039.585938,1511.102539 1039.659912,1528.096191 1039.671753,1545.088989 
	C1039.682373,1560.295654 1039.696655,1560.316650 1055.139771,1560.317627 
	C1165.759766,1560.324097 1276.379761,1560.321289 1388.999878,1560.321533 
M848.759521,1711.758179 
	C817.329102,1741.510376 785.896240,1771.260132 754.469971,1801.016602 
	C747.137146,1807.959717 745.951904,1807.989868 737.776733,1801.259644 
	C722.611755,1788.774658 707.467712,1776.264160 692.266602,1763.823608 
	C689.748657,1761.763062 686.984680,1760.003174 684.181152,1757.994629 
	C682.058044,1759.469116 680.223572,1760.348145 678.903809,1761.721558 
	C667.371338,1773.723633 655.758118,1785.656128 644.528320,1797.937988 
	C637.875061,1805.214355 638.170410,1806.601196 645.851562,1812.991455 
	C676.562195,1838.541382 707.314819,1864.040894 738.093689,1889.508545 
	C745.508484,1895.643799 747.122192,1895.905640 754.141479,1889.291382 
	C777.161316,1867.599731 799.911560,1845.621826 822.762512,1823.751099 
	C845.614624,1801.879395 868.471191,1780.012451 891.308655,1758.125610 
	C900.444580,1749.369873 909.599426,1740.632202 918.618164,1731.756714 
	C923.096680,1727.349487 923.152710,1725.255127 918.643921,1721.041748 
	C907.458374,1710.588989 896.222473,1700.182129 884.747070,1690.051147 
	C878.212891,1684.282471 877.428772,1684.486572 871.453369,1690.089111 
	C864.166565,1696.921265 856.984680,1703.865356 848.759521,1711.758179 
M643.059326,1468.406982 
	C638.647156,1475.631226 638.593811,1475.852051 645.174744,1481.302490 
	C674.374023,1505.485107 703.743896,1529.463379 732.798523,1553.817871 
	C748.561340,1567.030762 746.256592,1566.146118 760.011963,1553.184814 
	C792.213989,1522.842041 823.693726,1491.733521 855.539856,1461.011719 
	C867.267273,1449.698242 879.236328,1438.635620 891.033325,1427.393799 
	C900.185608,1418.672363 909.295410,1409.904907 918.319031,1401.050659 
	C923.206299,1396.255249 923.223877,1394.316406 918.247437,1389.628662 
	C910.988098,1382.790161 903.531677,1376.160889 896.148132,1369.454590 
	C890.524902,1364.347168 884.884399,1359.258789 878.728271,1353.688477 
	C875.821899,1355.868164 873.358887,1357.448486 871.210815,1359.379395 
	C866.018433,1364.046509 860.938232,1368.840332 855.874268,1373.647949 
	C822.586731,1405.250366 789.309387,1436.863647 756.043030,1468.488403 
	C746.855591,1477.222168 746.820862,1477.315186 736.725830,1469.088135 
	C721.514160,1456.691040 706.449524,1444.113159 691.203491,1431.758911 
	C684.422974,1426.264648 683.113464,1426.285522 677.005432,1432.574707 
	C665.885010,1444.024902 655.031067,1455.733765 643.059326,1468.406982 
M669.748962,839.248901 
	C692.801392,858.341675 715.796204,877.504639 738.940613,896.485291 
	C746.074829,902.336121 748.048096,902.175049 754.225586,896.245422 
	C780.865967,870.673950 807.449341,845.043091 834.050110,819.430420 
	C845.074524,808.815491 856.094299,798.195801 867.109192,787.570984 
	C884.348572,770.942261 901.609497,754.335754 918.770874,737.626831 
	C920.317932,736.120544 921.205017,733.936340 922.791687,731.451233 
	C907.765991,717.854065 893.953247,703.702881 877.590759,691.263977 
	C864.648926,703.392883 852.473450,714.650879 840.467896,726.087341 
	C816.623596,748.801636 792.882263,771.623962 769.076721,794.378967 
	C763.547180,799.664429 757.893860,804.820496 752.367249,810.108948 
	C748.655518,813.660583 745.011841,814.281982 741.038757,810.508667 
	C739.113892,808.680481 736.971863,807.079773 734.914978,805.392212 
	C720.258118,793.367737 705.646973,781.286743 690.917053,769.352356 
	C683.902039,763.668579 682.190979,763.969788 676.102051,770.676453 
	C672.749939,774.368530 669.310486,777.982056 665.878479,781.600769 
	C658.783020,789.082520 651.552734,796.440186 644.591248,804.044189 
	C638.077393,811.159180 638.300903,813.211731 645.587708,819.259277 
	C653.266357,825.632141 661.001160,831.937439 669.748962,839.248901 
M683.147766,1096.248169 
	C679.299988,1099.799194 675.298584,1103.199463 671.634827,1106.931274 
	C662.542603,1116.192017 653.483582,1125.491577 644.644165,1134.992310 
	C638.058350,1142.070801 638.209473,1144.385864 645.387939,1150.365112 
	C676.571838,1176.339844 707.796631,1202.265869 739.079468,1228.121216 
	C745.577942,1233.492188 747.713074,1233.382935 753.602234,1227.812134 
	C768.346436,1213.865112 783.055237,1199.879517 797.661682,1185.788574 
	C819.936829,1164.299561 842.063416,1142.656616 864.353455,1121.183228 
	C875.612427,1110.336792 887.199585,1099.830444 898.436218,1088.961304 
	C906.736633,1080.932373 914.710022,1072.565186 922.523499,1064.657959 
	C921.651917,1062.530029 921.526062,1061.360718 920.875366,1060.761353 
	C908.405273,1049.276367 896.018188,1037.693726 883.279907,1026.511597 
	C878.501099,1022.316528 876.926758,1022.849670 871.452332,1028.071411 
	C848.820190,1049.658325 826.278137,1071.340210 803.601562,1092.880493 
	C786.718994,1108.917114 769.714905,1124.826416 752.689941,1140.712158 
	C747.797791,1145.276978 746.099915,1145.364990 740.692383,1141.151245 
	C733.345764,1135.426514 726.266174,1129.360596 718.979187,1123.557739 
	C707.551025,1114.457153 696.045288,1105.453979 683.147766,1096.248169 
z"/>
<path fill="#000100" opacity="1.000000" stroke="none" 
	d="
M1200.579590,296.365570 
	C1186.146973,320.893158 1165.663696,335.315430 1137.976807,338.864685 
	C1117.105469,341.540253 1098.217896,335.726837 1081.612793,323.465363 
	C1060.505371,307.879364 1049.175659,286.092224 1048.641479,260.159851 
	C1048.002197,229.129486 1061.879761,204.645386 1088.821045,189.012177 
	C1129.003906,165.695145 1178.681396,179.959991 1200.435547,220.912369 
	C1213.465088,245.440720 1213.499878,270.688019 1200.579590,296.365570 
z"/>
<path fill="#169938" opacity="1.000000" stroke="none" 
	d="
M1390.000244,1152.324219 
	C1475.275146,1152.324219 1559.550171,1152.324341 1643.825073,1152.324463 
	C1646.156860,1152.324463 1648.488647,1152.313843 1650.820312,1152.328613 
	C1663.841309,1152.411011 1664.307617,1152.836426 1664.336914,1165.866699 
	C1664.376587,1183.520996 1664.420654,1201.176025 1664.307739,1218.829712 
	C1664.245239,1228.600708 1663.257568,1229.433716 1653.264648,1229.658936 
	C1651.266968,1229.703979 1649.267578,1229.675171 1647.268921,1229.675171 
	C1450.405273,1229.675659 1253.541748,1229.676514 1056.678101,1229.673706 
	C1039.663940,1229.673462 1039.656738,1229.662109 1039.652466,1212.781250 
	C1039.648193,1196.126099 1039.561523,1179.470215 1039.705566,1162.816284 
	C1039.784058,1153.739624 1041.082642,1152.480347 1050.235107,1152.375366 
	C1063.224487,1152.226440 1076.216797,1152.324951 1089.207764,1152.324829 
	C1189.138550,1152.323608 1289.069336,1152.324219 1390.000244,1152.324219 
z"/>
<path fill="#169938" opacity="1.000000" stroke="none" 
	d="
M1322.000244,1814.324219 
	C1431.274414,1814.324341 1539.548706,1814.322144 1647.822876,1814.327148 
	C1664.331055,1814.327881 1664.339600,1814.343506 1664.347046,1830.869507 
	C1664.354614,1847.527100 1664.424438,1864.185181 1664.308838,1880.841919 
	C1664.239014,1890.912842 1663.541992,1891.501587 1653.396973,1891.653564 
	C1648.067749,1891.733521 1642.736328,1891.675415 1637.405884,1891.675415 
	C1443.844971,1891.675781 1250.283936,1891.677856 1056.723022,1891.671265 
	C1039.553223,1891.670654 1039.553467,1893.180176 1039.636108,1874.968872 
	C1039.707031,1859.311157 1039.614746,1843.652588 1039.664917,1827.994629 
	C1039.706543,1815.025269 1040.353271,1814.342285 1053.146240,1814.338867 
	C1142.430908,1814.315430 1231.715454,1814.325073 1322.000244,1814.324219 
z"/>
<path fill="#169B39" opacity="1.000000" stroke="none" 
	d="
M1039.952148,826.801697 
	C1042.130981,824.518616 1044.015137,822.455078 1046.244873,821.965576 
	C1049.431519,821.266113 1052.871094,821.683838 1056.202637,821.683716 
	C1253.471558,821.678162 1450.740601,821.679382 1648.009521,821.677917 
	C1665.084961,821.677795 1664.348267,820.805603 1664.334595,838.062317 
	C1664.321533,854.390320 1664.397705,870.718750 1664.297729,887.046143 
	C1664.233887,897.475769 1663.439453,898.143433 1652.729858,898.310242 
	C1650.730957,898.341431 1648.731323,898.321045 1646.731934,898.321045 
	C1450.129395,898.321289 1253.526978,898.315735 1056.924438,898.330322 
	C1038.825562,898.331665 1039.607666,899.132874 1039.665771,880.704651 
	C1039.721436,863.044556 1039.763794,845.384460 1039.952148,826.801697 
z"/>
<path fill="#169B39" opacity="1.000000" stroke="none" 
	d="
M1387.999756,1560.321533 
	C1276.379761,1560.321289 1165.759766,1560.324097 1055.139771,1560.317627 
	C1039.696655,1560.316650 1039.682373,1560.295654 1039.671753,1545.088989 
	C1039.659912,1528.096191 1039.585938,1511.102539 1039.718384,1494.110718 
	C1039.791016,1484.796021 1040.790405,1483.953003 1050.112427,1483.701538 
	C1052.443237,1483.638672 1054.776855,1483.679321 1057.109253,1483.679321 
	C1254.026123,1483.678711 1450.943115,1483.677490 1647.859985,1483.681152 
	C1664.314087,1483.681396 1664.322266,1483.696533 1664.330078,1500.077637 
	C1664.337891,1516.404053 1664.392456,1532.730957 1664.301514,1549.056885 
	C1664.242065,1559.729248 1663.718384,1560.284546 1652.888794,1560.291870 
	C1584.251099,1560.338745 1515.613403,1560.319336 1446.975708,1560.321411 
	C1427.650391,1560.322021 1408.325195,1560.321533 1387.999756,1560.321533 
z"/>
<path fill="#169A38" opacity="1.000000" stroke="none" 
	d="
M849.258423,1711.259521 
	C856.984680,1703.865356 864.166565,1696.921265 871.453369,1690.089111 
	C877.428772,1684.486572 878.212891,1684.282471 884.747070,1690.051147 
	C896.222473,1700.182129 907.458374,1710.588989 918.643921,1721.041748 
	C923.152710,1725.255127 923.096680,1727.349487 918.618164,1731.756714 
	C909.599426,1740.632202 900.444580,1749.369873 891.308655,1758.125610 
	C868.471191,1780.012451 845.614624,1801.879395 822.762512,1823.751099 
	C799.911560,1845.621826 777.161316,1867.599731 754.141479,1889.291382 
	C747.122192,1895.905640 745.508484,1895.643799 738.093689,1889.508545 
	C707.314819,1864.040894 676.562195,1838.541382 645.851562,1812.991455 
	C638.170410,1806.601196 637.875061,1805.214355 644.528320,1797.937988 
	C655.758118,1785.656128 667.371338,1773.723633 678.903809,1761.721558 
	C680.223572,1760.348145 682.058044,1759.469116 684.181152,1757.994629 
	C686.984680,1760.003174 689.748657,1761.763062 692.266602,1763.823608 
	C707.467712,1776.264160 722.611755,1788.774658 737.776733,1801.259644 
	C745.951904,1807.989868 747.137146,1807.959717 754.469971,1801.016602 
	C785.896240,1771.260132 817.329102,1741.510376 849.258423,1711.259521 
z"/>
<path fill="#169938" opacity="1.000000" stroke="none" 
	d="
M643.562622,1467.870850 
	C655.031067,1455.733765 665.885010,1444.024902 677.005432,1432.574707 
	C683.113464,1426.285522 684.422974,1426.264648 691.203491,1431.758911 
	C706.449524,1444.113159 721.514160,1456.691040 736.725830,1469.088135 
	C746.820862,1477.315186 746.855591,1477.222168 756.043030,1468.488403 
	C789.309387,1436.863647 822.586731,1405.250366 855.874268,1373.647949 
	C860.938232,1368.840332 866.018433,1364.046509 871.210815,1359.379395 
	C873.358887,1357.448486 875.821899,1355.868164 878.728271,1353.688477 
	C884.884399,1359.258789 890.524902,1364.347168 896.148132,1369.454590 
	C903.531677,1376.160889 910.988098,1382.790161 918.247437,1389.628662 
	C923.223877,1394.316406 923.206299,1396.255249 918.319031,1401.050659 
	C909.295410,1409.904907 900.185608,1418.672363 891.033325,1427.393799 
	C879.236328,1438.635620 867.267273,1449.698242 855.539856,1461.011719 
	C823.693726,1491.733521 792.213989,1522.842041 760.011963,1553.184814 
	C746.256592,1566.146118 748.561340,1567.030762 732.798523,1553.817871 
	C703.743896,1529.463379 674.374023,1505.485107 645.174744,1481.302490 
	C638.593811,1475.852051 638.647156,1475.631226 643.562622,1467.870850 
z"/>
<path fill="#169938" opacity="1.000000" stroke="none" 
	d="
M669.230164,838.760620 
	C661.001160,831.937439 653.266357,825.632141 645.587708,819.259277 
	C638.300903,813.211731 638.077393,811.159180 644.591248,804.044189 
	C651.552734,796.440186 658.783020,789.082520 665.878479,781.600769 
	C669.310486,777.982056 672.749939,774.368530 676.102051,770.676453 
	C682.190979,763.969788 683.902039,763.668579 690.917053,769.352356 
	C705.646973,781.286743 720.258118,793.367737 734.914978,805.392212 
	C736.971863,807.079773 739.113892,808.680481 741.038757,810.508667 
	C745.011841,814.281982 748.655518,813.660583 752.367249,810.108948 
	C757.893860,804.820496 763.547180,799.664429 769.076721,794.378967 
	C792.882263,771.623962 816.623596,748.801636 840.467896,726.087341 
	C852.473450,714.650879 864.648926,703.392883 877.590759,691.263977 
	C893.953247,703.702881 907.765991,717.854065 922.791687,731.451233 
	C921.205017,733.936340 920.317932,736.120544 918.770874,737.626831 
	C901.609497,754.335754 884.348572,770.942261 867.109192,787.570984 
	C856.094299,798.195801 845.074524,808.815491 834.050110,819.430420 
	C807.449341,845.043091 780.865967,870.673950 754.225586,896.245422 
	C748.048096,902.175049 746.074829,902.336121 738.940613,896.485291 
	C715.796204,877.504639 692.801392,858.341675 669.230164,838.760620 
z"/>
<path fill="#169A38" opacity="1.000000" stroke="none" 
	d="
M683.860107,1096.328857 
	C696.045288,1105.453979 707.551025,1114.457153 718.979187,1123.557739 
	C726.266174,1129.360596 733.345764,1135.426514 740.692383,1141.151245 
	C746.099915,1145.364990 747.797791,1145.276978 752.689941,1140.712158 
	C769.714905,1124.826416 786.718994,1108.917114 803.601562,1092.880493 
	C826.278137,1071.340210 848.820190,1049.658325 871.452332,1028.071411 
	C876.926758,1022.849670 878.501099,1022.316528 883.279907,1026.511597 
	C896.018188,1037.693726 908.405273,1049.276367 920.875366,1060.761353 
	C921.526062,1061.360718 921.651917,1062.530029 922.523499,1064.657959 
	C914.710022,1072.565186 906.736633,1080.932373 898.436218,1088.961304 
	C887.199585,1099.830444 875.612427,1110.336792 864.353455,1121.183228 
	C842.063416,1142.656616 819.936829,1164.299561 797.661682,1185.788574 
	C783.055237,1199.879517 768.346436,1213.865112 753.602234,1227.812134 
	C747.713074,1233.382935 745.577942,1233.492188 739.079468,1228.121216 
	C707.796631,1202.265869 676.571838,1176.339844 645.387939,1150.365112 
	C638.209473,1144.385864 638.058350,1142.070801 644.644165,1134.992310 
	C653.483582,1125.491577 662.542603,1116.192017 671.634827,1106.931274 
	C675.298584,1103.199463 679.299988,1099.799194 683.860107,1096.328857 
z"/>
</svg>