<?xml version="1.0" standalone="no"?>
<!DOCTYPE svg PUBLIC "-//W3C//DTD SVG 20010904//EN"
 "http://www.w3.org/TR/2001/REC-SVG-20010904/DTD/svg10.dtd">
<svg version="1.0" xmlns="http://www.w3.org/2000/svg"
 width="2250.000000pt" height="2250.000000pt" viewBox="0 0 2250.000000 2250.000000"
 preserveAspectRatio="xMidYMid meet">

<g transform="translate(0.000000,2250.000000) scale(0.100000,-0.100000)"
fill="#000000" stroke="none">
<path d="M7790 20243 c-165 -29 -294 -81 -415 -167 -27 -20 -1155 -1141 -2506
-2492 -2410 -2410 -2458 -2458 -2504 -2542 -30 -56 -58 -127 -78 -202 l-32
-115 0 -3480 0 -3480 33 -114 c38 -130 76 -214 132 -286 22 -27 1141 -1151
2487 -2497 1675 -1674 2465 -2457 2503 -2480 75 -47 136 -71 260 -105 l105
-28 3475 0 3475 0 115 32 c73 19 149 49 205 79 l90 48 2453 2450 c1349 1348
2470 2474 2492 2501 56 72 94 156 132 286 l33 114 0 3480 0 3480 -32 115 c-20
75 -48 146 -78 202 -46 84 -94 132 -2505 2543 -1352 1352 -2476 2469 -2499
2484 -153 98 -192 117 -291 146 l-105 30 -3460 1 c-1903 1 -3471 -1 -3485 -3z
m7035 -39 c88 -24 132 -44 219 -96 l109 -66 2463 -2463 c2433 -2432 2463
-2464 2509 -2548 28 -53 59 -131 78 -201 l32 -115 0 -3465 0 -3465 -33 -118
c-37 -135 -75 -218 -131 -291 -22 -28 -1144 -1154 -2493 -2502 l-2453 -2450
-90 -48 c-54 -28 -136 -60 -205 -79 l-115 -32 -3460 0 -3460 0 -110 28 c-122
32 -207 66 -275 110 -51 34 -4919 4894 -4981 4973 -56 73 -94 156 -131 291
l-33 118 0 3465 0 3465 32 115 c19 70 50 148 78 201 46 84 76 116 2509 2549
2512 2511 2501 2501 2646 2575 42 21 216 69 285 78 17 2 1576 4 3465 3 l3435
-1 110 -31z"/>
<path d="M5532 16967 l-2372 -2372 0 -3345 0 -3345 2373 -2373 2372 -2372
3345 0 3345 0 2373 2373 2372 2372 0 3345 0 3345 -2373 2373 -2372 2372 -3345
0 -3345 0 -2373 -2373z m743 -2550 c186 -47 335 -111 480 -205 354 -228 606
-611 685 -1042 24 -129 37 -383 26 -503 l-8 -77 -451 0 -452 0 0 193 c0 200
-10 284 -48 387 -90 248 -361 406 -642 372 -162 -19 -260 -67 -366 -180 -79
-84 -123 -164 -156 -289 -25 -92 -27 -112 -26 -313 0 -385 33 -499 184 -648
115 -113 269 -189 649 -317 301 -102 422 -159 630 -298 289 -193 485 -447 593
-768 64 -191 83 -336 93 -744 18 -760 -97 -1139 -454 -1487 -194 -190 -349
-285 -588 -364 -202 -66 -285 -78 -524 -79 -189 0 -227 3 -318 23 -319 72
-571 210 -785 432 -210 217 -340 466 -409 785 -19 86 -22 133 -22 335 -1 129
2 243 6 253 7 16 38 17 446 17 l439 0 -5 -157 c-3 -132 -1 -174 16 -256 46
-222 177 -401 357 -486 91 -44 157 -56 285 -55 213 3 360 63 495 206 83 87
126 163 157 277 18 67 20 108 22 356 1 229 -2 297 -17 375 -54 290 -151 482
-301 594 -42 31 -106 61 -239 111 -734 275 -966 400 -1203 647 -188 196 -325
476 -374 762 -85 501 -27 1033 149 1384 61 121 115 194 236 315 205 206 441
349 696 423 166 48 218 54 439 50 180 -3 217 -7 305 -29z m6827 3 c464 -98
837 -388 1047 -813 97 -196 141 -356 161 -586 7 -76 10 -695 7 -1816 -4 -1826
-5 -1854 -55 -2030 -54 -184 -149 -381 -255 -524 -209 -283 -579 -513 -932
-578 -132 -25 -460 -24 -572 0 -198 44 -405 133 -576 249 -120 81 -314 275
-394 393 -111 165 -189 346 -230 537 -17 78 -18 193 -18 2018 l0 1935 53 155
c141 414 332 664 665 868 164 100 375 180 537 202 41 5 89 12 105 14 77 11
363 -4 457 -24z m3458 6 c855 -94 1343 -447 1508 -1093 36 -141 45 -199 69
-443 22 -231 24 -722 5 -885 -91 -755 -462 -1215 -1110 -1380 -209 -53 -275
-59 -609 -60 l-313 0 -2 -1230 -3 -1230 -450 0 -450 0 -3 3139 c-1 1727 1
3143 5 3147 9 9 327 38 538 49 207 12 652 4 815 -14z m-5732 -453 l2 -423
-532 -2 -533 -3 -3 -2722 -2 -2723 -450 0 -450 0 -2 2723 -3 2722 -532 3 -533
2 0 418 c0 230 3 422 7 425 3 4 686 6 1517 5 l1511 -3 3 -422z"/>
<path d="M12643 13531 c-174 -43 -306 -149 -396 -317 -81 -152 -77 -43 -77
-1945 0 -1064 4 -1706 10 -1762 17 -144 63 -249 158 -357 54 -62 166 -137 251
-168 183 -67 444 -21 600 106 59 48 155 179 179 244 44 119 44 124 40 1973
l-3 1760 -27 75 c-109 298 -426 467 -735 391z"/>
<path d="M16173 13553 l-63 -4 0 -1063 0 -1063 32 -7 c17 -3 111 -9 207 -12
434 -16 692 70 829 276 42 63 94 203 112 305 23 132 31 356 20 610 -14 337
-24 426 -60 538 -54 168 -150 277 -311 351 -130 59 -194 69 -464 71 -132 1
-268 0 -302 -2z"/>
</g>
</svg>
