<svg xmlns="http://www.w3.org/2000/svg" xmlns:xlink="http://www.w3.org/1999/xlink" width="720" zoomAndPan="magnify" viewBox="0 0 540 540.000001" height="720" preserveAspectRatio="xMidYMid meet" version="1.0"><defs><clipPath id="7481b45535"><path d="M 14.371094 13.871094 L 525.671875 13.871094 L 525.671875 525.175781 L 14.371094 525.175781 Z M 14.371094 13.871094 " clip-rule="nonzero"/></clipPath></defs><g clip-path="url(#7481b45535)"><path fill="#d61317" d="M 147.328125 341.144531 L 152.203125 341.144531 C 163.589844 341.144531 172.925781 350.433594 172.925781 361.871094 L 172.925781 374.347656 C 172.925781 378.902344 169.234375 382.59375 164.679688 382.59375 L 22.617188 382.59375 C 18.0625 382.59375 14.371094 378.902344 14.371094 374.347656 L 14.371094 361.871094 C 14.371094 350.4375 23.691406 341.144531 35.125 341.144531 L 37.902344 341.144531 L 28.171875 181.214844 C 27.960938 179.394531 27.851562 177.539062 27.851562 175.660156 C 27.851562 158.046875 37.496094 142.675781 51.792969 134.542969 L 232.367188 23.636719 C 238.6875 17.585938 247.261719 13.871094 256.710938 13.871094 C 274.152344 13.871094 288.660156 26.578125 291.460938 43.257812 L 346.414062 106.125 C 362.789062 106.992188 375.796875 120.546875 375.796875 137.132812 C 375.796875 144.621094 373.15625 151.480469 368.761719 156.84375 C 389.277344 166.039062 403.578125 186.644531 403.578125 210.59375 C 403.578125 232.835938 391.230469 252.207031 372.992188 262.234375 C 370.4375 263.636719 367.332031 263.589844 364.824219 262.105469 C 362.3125 260.621094 360.777344 257.921875 360.777344 255.007812 L 360.777344 214.617188 L 344.210938 205.050781 L 327.644531 214.617188 L 327.644531 254.417969 C 327.644531 257.367188 326.070312 260.089844 323.515625 261.5625 C 320.960938 263.035156 317.816406 263.03125 315.265625 261.550781 C 297.675781 251.355469 285.871094 232.359375 285.871094 210.59375 C 285.871094 186.648438 300.167969 166.042969 320.691406 156.847656 C 316.625 151.886719 314.0625 145.644531 313.699219 138.808594 L 250.835938 83.882812 C 250.296875 83.792969 249.765625 83.691406 249.234375 83.574219 L 111.980469 206.058594 Z M 54.421875 341.144531 L 130.28125 341.144531 L 97.832031 217.128906 C 91.089844 220.828125 83.351562 222.933594 75.121094 222.933594 C 64.433594 222.933594 54.574219 219.386719 46.652344 213.40625 Z M 89.628906 130.65625 C 108.335938 136.6875 121.960938 154.066406 122.382812 174.675781 L 233.425781 75.578125 C 226.222656 69.230469 221.636719 59.984375 221.480469 49.675781 Z M 44.601562 179.679688 C 46.570312 194.789062 59.492188 206.441406 75.121094 206.441406 C 92.113281 206.441406 105.902344 192.675781 105.902344 175.660156 C 105.902344 158.667969 92.113281 144.878906 75.121094 144.878906 C 58.207031 144.878906 44.46875 158.539062 44.34375 175.425781 Z M 231.828125 24.160156 C 231.660156 24.320312 231.496094 24.484375 231.34375 24.65625 C 231.503906 24.488281 231.664062 24.324219 231.828125 24.160156 Z M 288.316406 64.71875 C 284.882812 71.65625 279.234375 77.304688 272.300781 80.734375 L 318.246094 120.878906 C 320.804688 116.726562 324.3125 113.214844 328.476562 110.660156 Z M 344.738281 151.726562 C 352.785156 151.726562 359.304688 145.199219 359.304688 137.132812 C 359.304688 129.089844 352.78125 122.570312 344.738281 122.570312 C 336.675781 122.570312 330.148438 129.089844 330.148438 137.132812 C 330.148438 145.203125 336.671875 151.726562 344.738281 151.726562 Z M 344.738281 168.21875 C 321.335938 168.21875 302.363281 187.1875 302.363281 210.59375 C 302.363281 220.320312 305.640625 229.277344 311.152344 236.429688 L 311.152344 209.859375 C 311.152344 206.914062 312.722656 204.191406 315.277344 202.71875 L 340.085938 188.386719 C 342.636719 186.910156 345.78125 186.910156 348.335938 188.386719 L 373.144531 202.71875 C 375.695312 204.191406 377.269531 206.914062 377.269531 209.859375 C 377.269531 209.859375 377.269531 237.707031 377.265625 237.710938 C 383.398438 230.359375 387.085938 220.90625 387.085938 210.59375 C 387.085938 187.191406 368.121094 168.21875 344.738281 168.21875 Z M 30.863281 366.101562 L 156.433594 366.101562 L 156.433594 361.871094 C 156.433594 359.535156 154.527344 357.636719 152.203125 357.636719 L 35.125 357.636719 C 32.78125 357.636719 30.863281 359.527344 30.863281 361.871094 Z M 256.710938 30.363281 C 246.347656 30.363281 237.96875 38.769531 237.96875 49.136719 C 237.96875 59.476562 246.351562 67.878906 256.710938 67.878906 C 267.054688 67.878906 275.453125 59.476562 275.453125 49.136719 C 275.453125 38.769531 267.058594 30.363281 256.710938 30.363281 Z M 226.261719 337.316406 L 209.882812 337.316406 C 205.328125 337.316406 201.636719 333.621094 201.636719 329.070312 C 201.636719 324.519531 205.328125 320.824219 209.882812 320.824219 L 226.261719 320.824219 L 226.261719 312.734375 C 226.261719 308.179688 229.953125 304.488281 234.507812 304.488281 L 242.597656 304.488281 L 242.597656 288.105469 C 242.597656 283.554688 246.292969 279.859375 250.84375 279.859375 C 255.394531 279.859375 259.089844 283.554688 259.089844 288.105469 L 259.089844 304.488281 L 267.746094 304.488281 L 267.746094 288.105469 C 267.746094 283.554688 271.441406 279.859375 275.992188 279.859375 C 280.542969 279.859375 284.238281 283.554688 284.238281 288.105469 L 284.238281 304.488281 L 292.890625 304.488281 L 292.890625 288.105469 C 292.890625 283.554688 296.585938 279.859375 301.136719 279.859375 C 305.691406 279.859375 309.382812 283.554688 309.382812 288.105469 L 309.382812 304.488281 L 318.039062 304.488281 L 318.039062 288.105469 C 318.039062 283.554688 321.734375 279.859375 326.285156 279.859375 C 330.835938 279.859375 334.53125 283.554688 334.53125 288.105469 L 334.53125 304.488281 L 342.621094 304.488281 C 347.175781 304.488281 350.867188 308.179688 350.867188 312.734375 L 350.867188 320.824219 L 367.246094 320.824219 C 371.800781 320.824219 375.492188 324.519531 375.492188 329.070312 C 375.492188 333.621094 371.800781 337.316406 367.246094 337.316406 L 350.867188 337.316406 L 350.867188 345.96875 L 367.246094 345.96875 C 371.800781 345.96875 375.492188 349.664062 375.492188 354.214844 C 375.492188 358.765625 371.800781 362.460938 367.246094 362.460938 L 350.867188 362.460938 L 350.867188 371.117188 L 367.246094 371.117188 C 371.800781 371.117188 375.492188 374.8125 375.492188 379.363281 C 375.492188 383.914062 371.800781 387.609375 367.246094 387.609375 L 350.867188 387.609375 L 350.867188 396.265625 L 367.246094 396.265625 C 371.800781 396.265625 375.492188 399.960938 375.492188 404.511719 C 375.492188 409.0625 371.800781 412.757812 367.246094 412.757812 L 350.867188 412.757812 L 350.867188 420.847656 C 350.867188 425.402344 347.175781 429.09375 342.621094 429.09375 L 334.53125 429.09375 L 334.53125 445.472656 C 334.53125 450.023438 330.835938 453.71875 326.285156 453.71875 C 321.734375 453.71875 318.039062 450.023438 318.039062 445.472656 L 318.039062 429.09375 L 309.382812 429.09375 L 309.382812 445.472656 C 309.382812 450.023438 305.691406 453.71875 301.136719 453.71875 C 296.585938 453.71875 292.890625 450.023438 292.890625 445.472656 L 292.890625 429.09375 L 284.238281 429.09375 L 284.238281 445.472656 C 284.238281 450.023438 280.542969 453.71875 275.992188 453.71875 C 271.441406 453.71875 267.746094 450.023438 267.746094 445.472656 L 267.746094 429.09375 L 259.089844 429.09375 L 259.089844 445.472656 C 259.089844 450.023438 255.394531 453.71875 250.84375 453.71875 C 246.292969 453.71875 242.597656 450.023438 242.597656 445.472656 L 242.597656 429.09375 L 234.507812 429.09375 C 229.953125 429.09375 226.261719 425.402344 226.261719 420.847656 L 226.261719 412.757812 L 209.882812 412.757812 C 205.328125 412.757812 201.636719 409.0625 201.636719 404.511719 C 201.636719 399.960938 205.328125 396.265625 209.882812 396.265625 L 226.261719 396.265625 L 226.261719 387.609375 L 209.882812 387.609375 C 205.328125 387.609375 201.636719 383.914062 201.636719 379.363281 C 201.636719 374.8125 205.328125 371.117188 209.882812 371.117188 L 226.261719 371.117188 L 226.261719 362.460938 L 209.882812 362.460938 C 205.328125 362.460938 201.636719 358.765625 201.636719 354.214844 C 201.636719 349.664062 205.328125 345.96875 209.882812 345.96875 L 226.261719 345.96875 Z M 326.285156 320.980469 L 242.753906 320.980469 L 242.753906 412.601562 L 334.375 412.601562 L 334.375 320.980469 Z M 258.242188 326.160156 C 263.929688 326.160156 268.546875 330.777344 268.546875 336.464844 C 268.546875 342.15625 263.929688 346.773438 258.242188 346.773438 C 252.550781 346.773438 247.933594 342.15625 247.933594 336.464844 C 247.933594 330.777344 252.550781 326.160156 258.242188 326.160156 Z M 459.058594 299.449219 L 511.195312 329.546875 C 513.746094 331.019531 515.320312 333.742188 515.320312 336.691406 L 515.320312 396.890625 C 515.320312 399.835938 513.746094 402.558594 511.195312 404.03125 L 459.058594 434.132812 C 456.507812 435.605469 453.367188 435.605469 450.8125 434.132812 L 398.679688 404.03125 C 396.128906 402.558594 394.554688 399.835938 394.554688 396.890625 L 394.554688 336.691406 C 394.554688 333.742188 396.128906 331.019531 398.679688 329.546875 L 450.8125 299.449219 C 453.367188 297.976562 456.507812 297.976562 459.058594 299.449219 Z M 454.9375 316.109375 L 411.046875 341.449219 L 411.046875 392.128906 L 454.9375 417.46875 L 498.828125 392.128906 L 498.828125 341.449219 Z M 454.9375 333.214844 C 473.46875 333.214844 488.511719 348.261719 488.511719 366.789062 C 488.511719 385.320312 473.46875 400.363281 454.9375 400.363281 C 436.40625 400.363281 421.363281 385.320312 421.363281 366.789062 C 421.363281 348.261719 436.40625 333.214844 454.9375 333.214844 Z M 454.9375 349.707031 C 445.511719 349.707031 437.855469 357.363281 437.855469 366.789062 C 437.855469 376.21875 445.511719 383.871094 454.9375 383.871094 C 464.367188 383.871094 472.019531 376.21875 472.019531 366.789062 C 472.019531 357.363281 464.367188 349.707031 454.9375 349.707031 Z M 525.625 497.851562 C 525.625 512.90625 513.402344 525.128906 498.351562 525.128906 L 196.667969 525.128906 C 181.613281 525.128906 169.394531 512.90625 169.394531 497.851562 C 169.394531 482.796875 181.613281 470.574219 196.667969 470.574219 L 498.351562 470.574219 C 513.402344 470.574219 525.625 482.796875 525.625 497.851562 Z M 509.132812 497.851562 C 509.132812 491.898438 504.300781 487.066406 498.351562 487.066406 L 196.667969 487.066406 C 190.71875 487.066406 185.886719 491.898438 185.886719 497.851562 C 185.886719 503.804688 190.71875 508.636719 196.667969 508.636719 L 498.351562 508.636719 C 504.300781 508.636719 509.132812 503.804688 509.132812 497.851562 Z M 509.132812 497.851562 " fill-opacity="1" fill-rule="evenodd"/></g></svg>