<?xml version="1.0" encoding="UTF-8"?>
<!DOCTYPE svg PUBLIC "-//W3C//DTD SVG 1.1//EN" "http://www.w3.org/Graphics/SVG/1.1/DTD/svg11.dtd">
<svg xmlns="http://www.w3.org/2000/svg" version="1.1" width="2250px" height="2250px" style="shape-rendering:geometricPrecision; text-rendering:geometricPrecision; image-rendering:optimizeQuality; fill-rule:evenodd; clip-rule:evenodd" xmlns:xlink="http://www.w3.org/1999/xlink">
<g><path style="opacity:0.999" fill="#2d71b3" d="M 1092.5,73.5 C 1363.42,69.7338 1602.09,154.234 1808.5,327C 1984.3,479.976 2098.13,670.809 2150,899.5C 2201.92,1149.36 2169.59,1387.69 2053,1614.5C 1918.63,1861.18 1718.46,2030.35 1452.5,2122C 1214.71,2197.46 979.047,2191.46 745.5,2104C 514.569,2012.06 336.402,1858.89 211,1644.5C 88.9405,1424.82 48.2739,1190.82 89,942.5C 135.49,694.588 253.323,488.421 442.5,324C 630.211,167.384 846.878,83.8845 1092.5,73.5 Z"/></g>
<g><path style="opacity:1" fill="#fdfdfd" d="M 1555.5,587.5 C 1566.94,585.589 1576.11,589.255 1583,598.5C 1602.75,632.997 1622.75,667.331 1643,701.5C 1646.08,711.681 1643.91,720.514 1636.5,728C 1367,884.253 1097.33,1040.25 827.5,1196C 818.203,1199.12 810.037,1197.29 803,1190.5C 739.333,1093.83 675.667,997.167 612,900.5C 604.668,887.12 606.501,875.286 617.5,865C 651.997,845.252 686.331,825.252 720.5,805C 732.309,800.988 742.142,803.822 750,813.5C 789.277,870.443 828.944,927.11 869,983.5C 1097.98,851.599 1326.81,719.599 1555.5,587.5 Z"/></g>
<g><path style="opacity:1" fill="#fdfdfd" d="M 1691.5,901.5 C 1700.91,899.891 1709.08,902.224 1716,908.5C 1742.25,953.337 1768.25,998.337 1794,1043.5C 1796.86,1052.97 1795.02,1061.47 1788.5,1069C 1448.16,1266.51 1107.49,1463.51 766.5,1660C 755.925,1663.53 746.759,1661.37 739,1653.5C 645.333,1530.5 551.667,1407.5 458,1284.5C 452.444,1275.37 452.111,1266.04 457,1256.5C 458.5,1255 460,1253.5 461.5,1252C 506.539,1225.48 551.873,1199.48 597.5,1174C 607.327,1172.83 615.493,1176 622,1183.5C 684.667,1256.83 747.333,1330.17 810,1403.5C 811.389,1405.23 813.056,1406.56 815,1407.5C 1107.3,1238.94 1399.46,1070.27 1691.5,901.5 Z"/></g>
</svg>
