<svg xmlns="http://www.w3.org/2000/svg" xmlns:xlink="http://www.w3.org/1999/xlink" width="720" zoomAndPan="magnify" viewBox="0 0 540 540.000001" height="720" preserveAspectRatio="xMidYMid meet" version="1.0"><defs><clipPath id="edf7d83777"><path d="M 93.941406 20 L 445.789062 20 L 445.789062 519 L 93.941406 519 Z M 93.941406 20 " clip-rule="nonzero"/></clipPath></defs><path fill="#37a8c8" d="M 270.039062 183.816406 C 307.171875 183.816406 337.378906 153.609375 337.378906 116.476562 C 337.378906 79.34375 307.167969 49.136719 270.039062 49.136719 C 232.910156 49.136719 202.699219 79.34375 202.699219 116.476562 C 202.699219 153.609375 232.90625 183.816406 270.039062 183.816406 Z M 270.039062 57.039062 C 302.8125 57.039062 329.476562 83.703125 329.476562 116.476562 C 329.476562 149.25 302.8125 175.914062 270.039062 175.914062 C 237.265625 175.914062 210.601562 149.25 210.601562 116.476562 C 210.601562 83.703125 237.265625 57.039062 270.039062 57.039062 Z M 270.039062 57.039062 " fill-opacity="1" fill-rule="nonzero"/><path fill="#37a8c8" d="M 270.039062 142.003906 C 262.542969 142.003906 256.445312 148.085938 256.445312 155.5625 C 256.445312 163.058594 262.542969 169.15625 270.039062 169.15625 C 277.535156 169.15625 283.632812 163.058594 283.632812 155.5625 C 283.632812 148.085938 277.535156 142.003906 270.039062 142.003906 Z M 270.039062 142.003906 " fill-opacity="1" fill-rule="nonzero"/><path fill="#37a8c8" d="M 270.039062 134.0625 C 277.621094 134.0625 283.789062 127.863281 284.371094 119.636719 L 286.816406 85.085938 C 286.871094 84.554688 286.875 84.03125 286.875 83.554688 C 286.875 73.398438 279.320312 65.140625 270.039062 65.140625 C 265.601562 65.140625 261.410156 67.011719 258.253906 70.40625 C 254.691406 74.226562 252.871094 79.542969 253.253906 84.984375 L 255.703125 119.644531 C 256.289062 127.863281 262.453125 134.0625 270.039062 134.0625 Z M 270.039062 134.0625 " fill-opacity="1" fill-rule="nonzero"/><g clip-path="url(#edf7d83777)"><path fill="#37a8c8" d="M 445.871094 447.765625 C 445.992188 447.425781 446.0625 447.078125 446.082031 446.71875 C 446.085938 446.632812 446.132812 446.558594 446.132812 446.46875 L 446.132812 24.476562 C 446.132812 22.292969 444.367188 20.523438 442.179688 20.523438 L 97.890625 20.523438 C 95.707031 20.523438 93.941406 22.292969 93.941406 24.476562 L 93.941406 514.515625 C 93.941406 516.699219 95.707031 518.46875 97.890625 518.46875 L 366.503906 518.46875 C 367.007812 518.46875 367.5 518.359375 367.972656 518.171875 C 368.171875 518.085938 368.335938 517.949219 368.519531 517.835938 C 368.730469 517.707031 368.964844 517.621094 369.148438 517.453125 L 444.824219 449.398438 C 444.851562 449.371094 444.867188 449.335938 444.894531 449.3125 C 444.992188 449.222656 445.054688 449.113281 445.136719 449.015625 C 445.363281 448.753906 445.550781 448.480469 445.699219 448.183594 C 445.769531 448.046875 445.820312 447.910156 445.871094 447.765625 Z M 101.84375 28.425781 L 438.230469 28.425781 L 438.230469 442.511719 L 366.503906 442.511719 C 364.320312 442.511719 362.554688 444.277344 362.554688 446.460938 L 362.554688 510.5625 L 101.84375 510.5625 Z M 101.84375 28.425781 " fill-opacity="1" fill-rule="nonzero"/></g><path fill="#37a8c8" d="M 133.816406 221.398438 L 295.882812 221.398438 C 298.070312 221.398438 299.835938 219.628906 299.835938 217.449219 C 299.835938 215.265625 298.070312 213.496094 295.882812 213.496094 L 133.816406 213.496094 C 131.628906 213.496094 129.863281 215.265625 129.863281 217.449219 C 129.863281 219.628906 131.628906 221.398438 133.816406 221.398438 Z M 133.816406 221.398438 " fill-opacity="1" fill-rule="nonzero"/><path fill="#37a8c8" d="M 133.816406 254.675781 L 398.710938 254.675781 C 400.894531 254.675781 402.660156 252.90625 402.660156 250.722656 C 402.660156 248.542969 400.894531 246.773438 398.710938 246.773438 L 133.816406 246.773438 C 131.628906 246.773438 129.863281 248.542969 129.863281 250.722656 C 129.863281 252.90625 131.628906 254.675781 133.816406 254.675781 Z M 133.816406 254.675781 " fill-opacity="1" fill-rule="nonzero"/><path fill="#37a8c8" d="M 133.816406 300.753906 L 398.710938 300.753906 C 400.894531 300.753906 402.660156 298.988281 402.660156 296.804688 C 402.660156 294.617188 400.894531 292.851562 398.710938 292.851562 L 133.816406 292.851562 C 131.628906 292.851562 129.863281 294.617188 129.863281 296.804688 C 129.863281 298.988281 131.628906 300.753906 133.816406 300.753906 Z M 133.816406 300.753906 " fill-opacity="1" fill-rule="nonzero"/><path fill="#37a8c8" d="M 247.035156 343.792969 L 151.359375 343.792969 C 149.171875 343.792969 147.40625 345.558594 147.40625 347.742188 C 147.40625 349.929688 149.171875 351.695312 151.359375 351.695312 L 247.035156 351.695312 C 249.21875 351.695312 250.988281 349.929688 250.988281 347.742188 C 250.988281 345.558594 249.21875 343.792969 247.035156 343.792969 Z M 247.035156 343.792969 " fill-opacity="1" fill-rule="nonzero"/><path fill="#37a8c8" d="M 247.035156 378.171875 L 151.359375 378.171875 C 149.171875 378.171875 147.40625 379.941406 147.40625 382.125 C 147.40625 384.3125 149.171875 386.078125 151.359375 386.078125 L 247.035156 386.078125 C 249.21875 386.078125 250.988281 384.3125 250.988281 382.125 C 250.988281 379.941406 249.21875 378.171875 247.035156 378.171875 Z M 247.035156 378.171875 " fill-opacity="1" fill-rule="nonzero"/><path fill="#37a8c8" d="M 247.035156 412.59375 L 151.359375 412.59375 C 149.171875 412.59375 147.40625 414.359375 147.40625 416.546875 C 147.40625 418.730469 149.171875 420.5 151.359375 420.5 L 247.035156 420.5 C 249.21875 420.5 250.988281 418.730469 250.988281 416.546875 C 250.988281 414.359375 249.21875 412.59375 247.035156 412.59375 Z M 247.035156 412.59375 " fill-opacity="1" fill-rule="nonzero"/><path fill="#37a8c8" d="M 326 450.730469 L 133.816406 450.730469 C 131.628906 450.730469 129.863281 452.496094 129.863281 454.683594 C 129.863281 456.867188 131.628906 458.636719 133.816406 458.636719 L 326 458.636719 C 328.183594 458.636719 329.949219 456.867188 329.949219 454.683594 C 329.949219 452.496094 328.179688 450.730469 326 450.730469 Z M 326 450.730469 " fill-opacity="1" fill-rule="nonzero"/></svg>