<?xml version="1.0" encoding="UTF-8"?>
<!DOCTYPE svg PUBLIC "-//W3C//DTD SVG 1.1//EN" "http://www.w3.org/Graphics/SVG/1.1/DTD/svg11.dtd">
<svg xmlns="http://www.w3.org/2000/svg" version="1.1" width="2250px" height="2250px" style="shape-rendering:geometricPrecision; text-rendering:geometricPrecision; image-rendering:optimizeQuality; fill-rule:evenodd; clip-rule:evenodd" xmlns:xlink="http://www.w3.org/1999/xlink">
<g><path style="opacity:0.99" fill="#883580" d="M 1038.5,464.5 C 1095.5,464.5 1152.5,464.5 1209.5,464.5C 1209.67,525.168 1209.5,585.834 1209,646.5C 1202.15,684.686 1179.98,708.852 1142.5,719C 1103.74,725.206 1073.24,712.372 1051,680.5C 1044.44,669.709 1040.44,658.043 1039,645.5C 1038.5,585.168 1038.33,524.834 1038.5,464.5 Z"/></g>
<g><path style="opacity:0.993" fill="#883580" d="M 200.5,677.5 C 453.501,677.167 706.501,677.5 959.5,678.5C 979.736,744.57 1023.4,785.737 1090.5,802C 1161.14,813.022 1218.31,790.522 1262,734.5C 1273.98,717.408 1282.82,698.742 1288.5,678.5C 1541.5,677.333 1794.5,677.167 2047.5,678C 2094.77,685.935 2120.6,713.768 2125,761.5C 2125.67,1075.5 2125.67,1389.5 2125,1703.5C 2119.21,1749.63 2093.37,1776.46 2047.5,1784C 1431.83,1784.67 816.167,1784.67 200.5,1784C 158.118,1777.62 132.618,1753.45 124,1711.5C 123.333,1390.83 123.333,1070.17 124,749.5C 133.234,708.097 158.734,684.097 200.5,677.5 Z M 244.5,763.5 C 433.5,763.333 622.5,763.5 811.5,764C 829.897,768.064 841.397,779.23 846,797.5C 846.667,1015.83 846.667,1234.17 846,1452.5C 841.384,1470.78 829.884,1481.95 811.5,1486C 622.5,1486.67 433.5,1486.67 244.5,1486C 226.089,1481.92 214.589,1470.76 210,1452.5C 209.333,1233.83 209.333,1015.17 210,796.5C 215.196,778.802 226.696,767.802 244.5,763.5 Z M 1351.5,763.5 C 1568.83,763.333 1786.17,763.5 2003.5,764C 2025.53,769.37 2037.53,783.37 2039.5,806C 2037.26,827.239 2025.93,840.905 2005.5,847C 1786.83,847.667 1568.17,847.667 1349.5,847C 1324.95,839.07 1314.11,822.236 1317,796.5C 1322.2,778.802 1333.7,767.802 1351.5,763.5 Z M 1442.5,933.5 C 1627.5,933.333 1812.5,933.5 1997.5,934C 2023.04,936.703 2037.04,950.869 2039.5,976.5C 2036.8,1000.69 2023.47,1014.53 1999.5,1018C 1813.17,1018.67 1626.83,1018.67 1440.5,1018C 1421.72,1015.55 1409.22,1005.39 1403,987.5C 1398.11,962.77 1407.28,945.604 1430.5,936C 1434.64,935.161 1438.64,934.327 1442.5,933.5 Z M 1562.5,1104.5 C 1710.17,1104.33 1857.83,1104.5 2005.5,1105C 2033.46,1114.76 2043.63,1133.93 2036,1162.5C 2029.53,1176.64 2018.7,1185.14 2003.5,1188C 1857.17,1188.67 1710.83,1188.67 1564.5,1188C 1542.5,1182.84 1530.83,1169 1529.5,1146.5C 1530.8,1124.87 1541.8,1110.87 1562.5,1104.5 Z M 1694.5,1274.5 C 1796.83,1274.33 1899.17,1274.5 2001.5,1275C 2024.6,1279.44 2037.27,1293.44 2039.5,1317C 2037.26,1338.24 2025.93,1351.91 2005.5,1358C 1900.5,1358.67 1795.5,1358.67 1690.5,1358C 1669.47,1351.97 1658.13,1337.97 1656.5,1316C 1659.33,1293 1672,1279.17 1694.5,1274.5 Z M 1181.5,1443.5 C 1455.5,1443.33 1729.5,1443.5 2003.5,1444C 2024.94,1449.1 2036.77,1462.6 2039,1484.5C 2039.97,1544.86 2039.64,1605.19 2038,1665.5C 2032.35,1684.9 2019.52,1695.73 1999.5,1698C 1728.17,1698.67 1456.83,1698.67 1185.5,1698C 1162.33,1694.83 1149.17,1681.67 1146,1658.5C 1145.33,1599.5 1145.33,1540.5 1146,1481.5C 1149.79,1461.21 1161.62,1448.55 1181.5,1443.5 Z"/></g>
<g><path style="opacity:0.996" fill="#883580" d="M 293.5,847.5 C 449.833,847.5 606.167,847.5 762.5,847.5C 762.5,1032.5 762.5,1217.5 762.5,1402.5C 606.167,1402.5 449.833,1402.5 293.5,1402.5C 293.5,1217.5 293.5,1032.5 293.5,847.5 Z"/></g>
<g><path style="opacity:0.991" fill="#883580" d="M 1230.5,1527.5 C 1471.83,1527.5 1713.17,1527.5 1954.5,1527.5C 1954.5,1556.17 1954.5,1584.83 1954.5,1613.5C 1713.17,1613.5 1471.83,1613.5 1230.5,1613.5C 1230.5,1584.83 1230.5,1556.17 1230.5,1527.5 Z"/></g>
</svg>
