<?xml version="1.0" standalone="no"?>
<!DOCTYPE svg PUBLIC "-//W3C//DTD SVG 20010904//EN"
 "http://www.w3.org/TR/2001/REC-SVG-20010904/DTD/svg10.dtd">
<svg version="1.0" xmlns="http://www.w3.org/2000/svg"
 width="2250.000000pt" height="2250.000000pt" viewBox="0 0 2250.000000 2250.000000"
 preserveAspectRatio="xMidYMid meet">

<g transform="translate(0.000000,2250.000000) scale(0.100000,-0.100000)"
fill="#000000" stroke="none">
<path d="M11163 19843 c-24 -8 -63 -33 -88 -56 -40 -38 -65 -87 -266 -522
-122 -264 -232 -495 -246 -513 -28 -37 -92 -81 -137 -93 -17 -4 -247 -40 -511
-79 -264 -38 -504 -77 -534 -86 -68 -20 -132 -78 -161 -146 -27 -63 -24 -152
8 -213 11 -23 190 -213 407 -435 416 -424 435 -448 435 -543 0 -26 -40 -290
-90 -587 -60 -358 -88 -549 -83 -572 17 -88 76 -165 151 -198 66 -29 156 -29
218 2 27 13 233 126 458 252 224 126 425 235 445 242 46 17 118 17 162 2 19
-6 223 -117 454 -246 231 -129 440 -244 464 -255 93 -41 216 -15 289 61 37 39
72 116 72 162 1 14 -41 275 -92 581 -87 524 -92 560 -80 605 7 27 23 63 35 80
12 18 194 208 405 423 266 272 389 404 402 433 13 28 20 66 20 109 0 107 -47
181 -147 233 -21 10 -219 44 -545 92 -463 68 -519 79 -575 105 -35 17 -74 44
-87 62 -14 18 -114 226 -224 463 -110 237 -212 456 -226 487 -65 136 -201 197
-333 150z"/>
<path d="M6533 18451 c-48 -12 -120 -58 -147 -94 -13 -17 -122 -245 -242 -506
-236 -509 -255 -542 -341 -579 -33 -14 -205 -44 -563 -97 -283 -42 -529 -83
-546 -90 -51 -21 -110 -81 -134 -137 -27 -62 -25 -151 5 -213 12 -25 164 -187
405 -433 212 -217 396 -411 408 -433 44 -73 41 -107 -58 -699 -97 -582 -97
-579 -55 -660 54 -104 192 -163 298 -127 25 8 244 126 485 261 281 157 457
249 488 256 97 22 110 16 591 -252 246 -138 465 -257 487 -264 60 -22 114 -17
182 15 88 42 152 132 153 219 1 18 -40 277 -90 575 -62 370 -89 555 -85 585 3
23 15 61 27 84 13 25 171 194 403 430 263 268 390 404 409 439 30 57 36 132
15 201 -15 52 -88 132 -137 151 -22 9 -268 50 -548 92 -279 41 -528 82 -552
91 -94 35 -107 57 -351 584 -150 323 -236 497 -258 522 -58 64 -168 99 -249
79z"/>
<path d="M15854 18442 c-62 -22 -104 -54 -136 -107 -14 -22 -121 -249 -239
-504 -229 -497 -240 -516 -330 -559 -33 -15 -175 -40 -557 -96 -282 -42 -528
-83 -547 -91 -58 -23 -100 -62 -130 -117 -39 -71 -40 -160 -4 -230 16 -32 150
-175 407 -438 210 -215 391 -405 402 -422 11 -18 24 -55 30 -84 10 -45 2 -105
-80 -592 -49 -298 -90 -559 -90 -581 0 -53 39 -138 81 -178 65 -61 174 -88
250 -61 19 6 221 116 449 243 228 128 433 241 455 253 54 27 120 36 177 23 29
-7 218 -107 488 -257 243 -136 458 -253 478 -260 87 -31 194 -2 261 71 51 56
71 103 71 172 0 29 -38 283 -85 563 -47 280 -85 534 -85 565 0 39 7 70 24 103
17 32 146 171 405 435 211 215 393 408 408 435 24 39 28 58 28 117 -1 114 -56
197 -158 240 -20 8 -250 47 -509 85 -260 39 -498 75 -527 81 -63 13 -114 42
-156 90 -17 20 -127 243 -255 519 -164 352 -234 493 -258 517 -72 73 -176 98
-268 65z"/>
<path d="M2614 15326 c-96 -44 -102 -55 -339 -571 -200 -434 -225 -483 -270
-530 -31 -33 -67 -58 -95 -68 -25 -9 -189 -37 -365 -62 -765 -110 -749 -107
-815 -181 -46 -53 -60 -93 -60 -173 0 -56 5 -78 27 -120 19 -35 146 -171 409
-439 218 -222 390 -405 402 -428 39 -77 38 -89 -58 -661 -49 -298 -90 -558
-90 -577 0 -53 36 -138 72 -173 74 -69 196 -96 279 -61 19 9 234 127 478 263
420 235 446 248 504 252 39 3 77 0 102 -9 22 -8 238 -125 480 -260 242 -135
456 -250 475 -255 43 -12 132 -2 181 20 79 35 141 137 140 231 0 23 -38 271
-85 553 -47 282 -86 537 -86 568 0 101 11 115 432 543 268 274 395 410 410
441 31 63 31 169 1 227 -28 53 -89 107 -144 127 -24 9 -266 48 -536 87 -271
39 -507 75 -525 80 -44 13 -102 53 -131 92 -14 18 -124 247 -244 508 -190 411
-226 481 -264 521 -77 79 -188 100 -285 55z"/>
<path d="M19684 15326 c-95 -44 -102 -55 -339 -571 -200 -434 -225 -483 -270
-530 -31 -33 -67 -58 -95 -68 -25 -9 -250 -46 -500 -82 -553 -80 -565 -82
-611 -105 -53 -28 -107 -96 -125 -159 -19 -64 -8 -141 29 -202 12 -21 194
-213 403 -427 217 -221 390 -405 402 -428 39 -77 38 -89 -58 -661 -49 -298
-90 -557 -90 -576 0 -88 59 -181 141 -222 59 -30 155 -36 210 -12 20 8 236
127 480 264 l444 248 81 0 80 0 430 -240 c549 -307 510 -287 587 -286 146 2
258 109 259 246 0 28 -39 282 -87 565 -92 546 -96 599 -60 673 11 23 176 200
406 434 270 275 396 410 411 442 31 63 31 168 1 227 -28 53 -89 107 -144 127
-24 9 -235 44 -469 77 -234 34 -465 68 -515 76 -100 17 -158 45 -202 98 -15
19 -127 250 -248 512 -193 419 -226 484 -265 524 -78 80 -189 101 -286 56z"/>
<path d="M11590 13685 c-86 -14 -231 -60 -305 -98 -171 -86 -356 -275 -430
-439 -139 -308 -304 -691 -310 -718 -11 -52 -80 -232 -200 -525 -160 -391
-515 -1086 -705 -1378 -266 -411 -438 -729 -553 -1022 -84 -215 -97 -261 -183
-670 -12 -60 -14 -340 -12 -2055 l3 -1985 32 -120 c40 -147 128 -330 211 -441
155 -206 374 -365 613 -445 205 -68 -31 -63 2764 -66 1791 -3 2559 0 2630 7
323 36 622 178 788 375 180 214 206 475 70 707 -73 125 -234 267 -385 338 -67
32 -67 32 34 54 207 47 447 190 568 339 174 213 197 478 62 702 -77 128 -239
268 -395 340 l-71 33 60 12 c191 39 447 191 569 338 104 124 174 302 175 440
0 88 -28 201 -76 299 -95 199 -336 391 -586 469 l-58 18 116 47 c280 116 502
331 578 559 68 205 33 441 -95 626 -132 192 -378 357 -654 438 -221 64 -82 59
-1847 63 -1510 3 -1607 5 -1612 21 -45 162 -42 700 10 1742 45 887 17 1207
-131 1526 -133 287 -324 459 -530 476 -33 3 -98 0 -145 -7z"/>
<path d="M6064 9438 c-54 -17 -125 -80 -158 -138 l-31 -55 -3 -2750 c-2 -3036
-7 -2808 61 -2896 17 -23 57 -56 87 -73 l55 -31 994 -3 c1113 -3 1049 -7 1135
69 25 22 56 63 71 92 l25 52 -2 2775 -3 2775 -22 40 c-29 54 -88 109 -143 134
-44 20 -60 21 -1040 20 -639 -1 -1006 -5 -1026 -11z"/>
</g>
</svg>
