<?xml version="1.0" encoding="UTF-8"?>
<!DOCTYPE svg PUBLIC "-//W3C//DTD SVG 1.1//EN" "http://www.w3.org/Graphics/SVG/1.1/DTD/svg11.dtd">
<svg xmlns="http://www.w3.org/2000/svg" version="1.1" width="2250px" height="2250px" style="shape-rendering:geometricPrecision; text-rendering:geometricPrecision; image-rendering:optimizeQuality; fill-rule:evenodd; clip-rule:evenodd" xmlns:xlink="http://www.w3.org/1999/xlink">
<g><path style="opacity:0.993" fill="#37a161" d="M 1131.5,388.5 C 1190.5,388.5 1249.5,388.5 1308.5,388.5C 1306.33,451.166 1304.5,513.833 1303,576.5C 1335.33,555.833 1367.67,535.167 1400,514.5C 1403.19,472.491 1406.36,430.491 1409.5,388.5C 1463.55,389.513 1517.55,391.513 1571.5,394.5C 1563.43,464.475 1555.43,534.475 1547.5,604.5C 1545.1,606.885 1542.43,609.051 1539.5,611C 1520.4,622.535 1501.74,634.535 1483.5,647C 1510.42,741.189 1537.42,835.356 1564.5,929.5C 1560.79,942.12 1556.79,954.62 1552.5,967C 1508.66,980.506 1464.66,993.173 1420.5,1005C 1397.05,913.369 1373.22,821.869 1349,730.5C 1331.6,742.228 1313.94,753.561 1296,764.5C 1293,838.166 1290.17,911.833 1287.5,985.5C 1233.84,990.899 1180.17,996.233 1126.5,1001.5C 1128.08,797.165 1129.75,592.832 1131.5,388.5 Z"/></g>
<g><path style="opacity:0.994" fill="#37a161" d="M 941.5,390.5 C 981.501,390.333 1021.5,390.5 1061.5,391C 1072,402.167 1082.5,413.333 1093,424.5C 1095.13,426.803 1096.63,429.469 1097.5,432.5C 1095.4,604.798 1093.23,777.131 1091,949.5C 1081.96,967.079 1072.79,984.579 1063.5,1002C 947.841,1003.84 832.174,1004.51 716.5,1004C 700.665,994.248 684.665,984.748 668.5,975.5C 666.437,794.145 664.937,612.811 664,431.5C 672.042,418.582 680.208,405.749 688.5,393C 772.998,392.164 857.332,391.331 941.5,390.5 Z M 825.5,520.5 C 861.833,523.167 898.167,525.833 934.5,528.5C 934.083,645.506 933.416,762.506 932.5,879.5C 898.503,877.456 864.503,875.456 830.5,873.5C 829.035,755.827 827.368,638.16 825.5,520.5 Z"/></g>
<g><path style="opacity:0.993" fill="#37a161" d="M 1965.5,391.5 C 1973.86,391.169 1982.19,391.502 1990.5,392.5C 2005.67,414.833 2020.83,437.167 2036,459.5C 2040.21,640.493 2044.04,821.493 2047.5,1002.5C 1994.17,1003.8 1940.84,1004.8 1887.5,1005.5C 1886.04,941.822 1884.38,878.155 1882.5,814.5C 1842.19,817.373 1801.86,820.04 1761.5,822.5C 1757.95,880.847 1754.12,939.18 1750,997.5C 1749.78,998.938 1749.28,1000.27 1748.5,1001.5C 1699.21,1003.5 1649.88,1004.17 1600.5,1003.5C 1608.78,816.203 1616.94,628.87 1625,441.5C 1634.83,429.667 1644.67,417.833 1654.5,406C 1758.32,401.175 1861.99,396.341 1965.5,391.5 Z M 1867.5,546.5 C 1871.17,546.5 1874.83,546.5 1878.5,546.5C 1879.43,596.544 1880.76,646.544 1882.5,696.5C 1845.17,695.024 1807.83,692.691 1770.5,689.5C 1772.87,644.79 1775.54,600.124 1778.5,555.5C 1808.24,552.107 1837.91,549.107 1867.5,546.5 Z"/></g>
<g><path style="opacity:0.994" fill="#37a161" d="M 201.5,392.5 C 335.518,400.001 469.518,407.834 603.5,416C 613.279,425.779 623.113,435.613 633,445.5C 633.779,566.167 634.112,686.833 634,807.5C 623.618,819.76 613.118,831.927 602.5,844C 523.189,847.316 443.856,850.15 364.5,852.5C 362.266,899.507 359.933,946.507 357.5,993.5C 305.5,997.833 253.5,1002.17 201.5,1006.5C 201.5,801.833 201.5,597.167 201.5,392.5 Z M 372.5,527.5 C 405.803,531.097 439.136,534.43 472.5,537.5C 472.373,593.835 472.04,650.168 471.5,706.5C 437.142,708.502 402.809,710.835 368.5,713.5C 369.647,651.493 370.98,589.493 372.5,527.5 Z"/></g>
<g><path style="opacity:0.992" fill="#37a161" d="M 525.5,1081.5 C 573.025,1097.56 620.358,1114.23 667.5,1131.5C 668.281,1132.73 668.781,1134.06 669,1135.5C 669.833,1149.83 670.667,1164.17 671.5,1178.5C 671.537,1182.26 671.037,1185.92 670,1189.5C 598.667,1360.83 527.333,1532.17 456,1703.5C 455.586,1703.96 455.086,1704.29 454.5,1704.5C 407.858,1694.27 361.191,1684.1 314.5,1674C 313.342,1672.99 312.675,1671.66 312.5,1670C 311.112,1659.95 309.445,1649.95 307.5,1640C 332.172,1566.65 356.839,1493.32 381.5,1420C 333.56,1316.79 285.893,1213.45 238.5,1110C 289.364,1099.96 340.364,1090.96 391.5,1083C 417.127,1131.09 442.627,1179.25 468,1227.5C 487.853,1179.11 507.02,1130.44 525.5,1081.5 Z"/></g>
<g><path style="opacity:0.993" fill="#37a161" d="M 1446.5,1082.5 C 1500.5,1084.48 1554.5,1086.48 1608.5,1088.5C 1601,1159.2 1593.16,1229.86 1585,1300.5C 1563.58,1314.13 1542.08,1327.63 1520.5,1341C 1547.41,1434.12 1574.24,1527.28 1601,1620.5C 1601.67,1622.83 1601.67,1625.17 1601,1627.5C 1597.19,1639.1 1593.69,1650.76 1590.5,1662.5C 1546.43,1674.85 1502.43,1687.52 1458.5,1700.5C 1434.51,1608.89 1410.68,1517.22 1387,1425.5C 1369.25,1436.96 1351.42,1448.29 1333.5,1459.5C 1330.37,1533.15 1327.71,1606.82 1325.5,1680.5C 1271.88,1685.96 1218.22,1690.96 1164.5,1695.5C 1165.79,1491.5 1167.13,1287.5 1168.5,1083.5C 1227.83,1083.5 1287.17,1083.5 1346.5,1083.5C 1343.57,1145.8 1341.9,1208.13 1341.5,1270.5C 1373.42,1250.29 1405.25,1229.96 1437,1209.5C 1440.92,1167.24 1444.09,1124.9 1446.5,1082.5 Z"/></g>
<g><path style="opacity:0.993" fill="#37a161" d="M 1638.5,1083.5 C 1758.65,1087.02 1878.65,1091.18 1998.5,1096C 1996.36,1142.76 1994.69,1189.59 1993.5,1236.5C 1928.13,1235.66 1862.8,1234.66 1797.5,1233.5C 1796.5,1258.82 1796.17,1284.16 1796.5,1309.5C 1838.81,1312.19 1881.15,1314.52 1923.5,1316.5C 1923.5,1361.5 1923.5,1406.5 1923.5,1451.5C 1880.81,1449.03 1838.15,1446.36 1795.5,1443.5C 1795.75,1478.18 1795.41,1512.84 1794.5,1547.5C 1863.49,1551.54 1932.49,1555.54 2001.5,1559.5C 2004.5,1605.51 2007.5,1651.51 2010.5,1697.5C 1886.5,1697.5 1762.5,1697.5 1638.5,1697.5C 1638.5,1492.83 1638.5,1288.17 1638.5,1083.5 Z"/></g>
<g><path style="opacity:0.993" fill="#37a161" d="M 933.5,1085.5 C 988.834,1085.33 1044.17,1085.5 1099.5,1086C 1110.88,1098.59 1122.38,1111.09 1134,1123.5C 1132.82,1296.83 1131.15,1470.17 1129,1643.5C 1119.88,1661.57 1110.38,1679.4 1100.5,1697C 985.17,1698.48 869.837,1699.15 754.5,1699C 738.665,1689.25 722.665,1679.75 706.5,1670.5C 705.668,1659.18 705.168,1647.85 705,1636.5C 703.653,1465.83 702.653,1295.17 702,1124.5C 710.207,1112.59 718.041,1100.42 725.5,1088C 794.995,1087.01 864.329,1086.17 933.5,1085.5 Z M 863.5,1214.5 C 899.45,1217.83 935.45,1220.83 971.5,1223.5C 971.469,1340.5 971.136,1457.5 970.5,1574.5C 936.132,1572.48 901.799,1570.14 867.5,1567.5C 866.403,1449.83 865.07,1332.16 863.5,1214.5 Z"/></g>
</svg>
