<?xml version="1.0" encoding="UTF-8"?>
<!DOCTYPE svg PUBLIC "-//W3C//DTD SVG 1.1//EN" "http://www.w3.org/Graphics/SVG/1.1/DTD/svg11.dtd">
<svg xmlns="http://www.w3.org/2000/svg" version="1.1" width="600px" height="576px" style="shape-rendering:geometricPrecision; text-rendering:geometricPrecision; image-rendering:optimizeQuality; fill-rule:evenodd; clip-rule:evenodd" xmlns:xlink="http://www.w3.org/1999/xlink">
<g><path style="opacity:0.4" fill="#070411" d="M 277.5,63.5 C 269.304,65.1432 260.971,66.4765 252.5,67.5C 260.522,64.9971 268.855,63.6638 277.5,63.5 Z"/></g>
<g><path style="opacity:0.997" fill="#27216a" d="M 277.5,63.5 C 318.893,60.3432 358.56,67.0099 396.5,83.5C 400.151,84.6589 403.485,86.3256 406.5,88.5C 409.008,90.9236 412.008,92.5903 415.5,93.5C 417.629,95.9501 420.296,97.6167 423.5,98.5C 425.853,99.3403 427.853,100.674 429.5,102.5C 431.296,104.9 433.63,106.567 436.5,107.5C 437.585,109.587 439.251,110.92 441.5,111.5C 442.585,113.587 444.251,114.92 446.5,115.5C 448.569,118.573 451.236,120.906 454.5,122.5C 455.5,122.833 456.167,123.5 456.5,124.5C 459.167,127.833 462.167,130.833 465.5,133.5C 467.766,137.436 470.766,140.769 474.5,143.5C 483.38,152.717 490.713,163.05 496.5,174.5C 497.079,177.331 498.412,179.664 500.5,181.5C 501.338,181.842 501.672,182.508 501.5,183.5C 502.659,187.151 504.326,190.485 506.5,193.5C 507.338,193.842 507.672,194.508 507.5,195.5C 509.264,201.473 511.597,207.14 514.5,212.5C 515.261,216.784 516.595,220.784 518.5,224.5C 518.41,227.152 519.076,229.485 520.5,231.5C 531.982,279.977 529.315,327.644 512.5,374.5C 512.598,376.553 511.931,378.22 510.5,379.5C 508.375,382.088 507.042,385.088 506.5,388.5C 505.668,392.309 504.001,395.643 501.5,398.5C 497.414,403.665 494.08,409.332 491.5,415.5C 487.934,422.064 483.601,428.064 478.5,433.5C 476.413,434.585 475.08,436.251 474.5,438.5C 474.5,439.167 474.167,439.5 473.5,439.5C 470.427,441.569 468.094,444.236 466.5,447.5C 463.167,451.5 459.5,455.167 455.5,458.5C 452.236,460.094 449.569,462.427 447.5,465.5C 444.911,466.419 442.911,468.086 441.5,470.5C 439.2,472.984 436.533,474.984 433.5,476.5C 427.976,479.092 422.976,482.425 418.5,486.5C 417.341,488.25 415.674,489.25 413.5,489.5C 401.217,495.478 388.884,501.144 376.5,506.5C 341.967,517.587 306.634,521.254 270.5,517.5C 265.223,515.127 259.556,514.127 253.5,514.5C 243.31,511.365 232.977,508.365 222.5,505.5C 219.47,503.597 216.137,502.263 212.5,501.5C 209.202,499.017 205.535,497.351 201.5,496.5C 199.847,496.34 198.514,495.674 197.5,494.5C 194.992,492.076 191.992,490.41 188.5,489.5C 183.657,487.582 179.323,484.916 175.5,481.5C 175.047,480.542 174.381,479.708 173.5,479C 173.833,478.667 174.167,478.333 174.5,478C 170.078,474.91 165.411,472.41 160.5,470.5C 159.089,468.086 157.089,466.419 154.5,465.5C 151.769,461.766 148.436,458.766 144.5,456.5C 142.5,453.833 140.167,451.5 137.5,449.5C 136.167,448.833 135.167,447.833 134.5,446.5C 132.906,443.236 130.573,440.569 127.5,438.5C 126.92,436.251 125.587,434.585 123.5,433.5C 122.92,431.251 121.587,429.585 119.5,428.5C 118.567,425.63 116.9,423.296 114.5,421.5C 110.719,417.376 107.719,412.709 105.5,407.5C 104.921,404.669 103.588,402.336 101.5,400.5C 76.1262,350.82 68.4595,298.486 78.5,243.5C 80.435,238.427 81.7683,233.094 82.5,227.5C 85.072,221.784 87.072,215.784 88.5,209.5C 88.4021,207.447 89.0687,205.78 90.5,204.5C 92.2927,202.574 93.2927,200.241 93.5,197.5C 97.0078,191.818 100.008,185.818 102.5,179.5C 105,176.506 107,173.173 108.5,169.5C 111.66,165.852 114.327,161.852 116.5,157.5C 116.738,155.596 117.738,154.262 119.5,153.5C 124.982,147.239 130.482,140.905 136,134.5C 145.729,125.265 155.563,116.265 165.5,107.5C 167.296,105.1 169.63,103.433 172.5,102.5C 174.044,102.297 175.378,101.63 176.5,100.5C 180.974,100.23 184.307,97.8966 186.5,93.5C 189.331,92.9213 191.664,91.588 193.5,89.5C 193.842,88.6618 194.508,88.3284 195.5,88.5C 199.151,87.3411 202.485,85.6744 205.5,83.5C 209.691,80.5422 214.358,78.5422 219.5,77.5C 226.784,75.7387 233.784,73.4054 240.5,70.5C 244.761,70.1016 248.761,69.1016 252.5,67.5C 260.971,66.4765 269.304,65.1432 277.5,63.5 Z M 283.5,92.5 C 366.586,88.9507 429.752,122.284 473,192.5C 499.835,242.52 505.502,294.853 490,349.5C 486.714,360.193 482.547,370.526 477.5,380.5C 359.833,381.833 242.167,381.833 124.5,380.5C 98.5928,325.325 96.7594,269.325 119,212.5C 151.824,142.337 206.657,102.337 283.5,92.5 Z M 301.5,112.5 C 304.969,111.887 306.969,113.221 307.5,116.5C 305.143,116.663 302.81,116.497 300.5,116C 301.337,114.989 301.67,113.822 301.5,112.5 Z M 282.5,113.5 C 284.977,113.051 286.977,113.717 288.5,115.5C 286.977,117.283 284.977,117.949 282.5,117.5C 282.5,116.167 282.5,114.833 282.5,113.5 Z M 322.5,114.5 C 328.997,114.18 331.164,117.18 329,123.5C 326.718,127.041 324.051,127.374 321,124.5C 320.037,120.851 320.537,117.518 322.5,114.5 Z M 254.5,118.5 C 259.665,117.608 262.332,119.775 262.5,125C 261.841,129.082 259.508,130.416 255.5,129C 252.066,125.702 251.733,122.202 254.5,118.5 Z M 343.5,118.5 C 348.766,118.541 350.599,121.208 349,126.5C 347.622,130.442 345.122,131.442 341.5,129.5C 342.008,125.803 342.674,122.136 343.5,118.5 Z M 231.5,122.5 C 231.843,120.775 232.843,120.275 234.5,121C 233.473,121.513 232.473,122.013 231.5,122.5 Z M 236.5,127.5 C 239.508,129.346 239.674,131.013 237,132.5C 236.506,130.866 236.34,129.199 236.5,127.5 Z M 416.5,160.5 C 417.239,160.369 417.906,160.536 418.5,161C 417.61,164.292 415.943,164.959 413.5,163C 414.942,162.623 415.942,161.79 416.5,160.5 Z M 337.5,177.5 C 344.381,176.592 350.714,177.926 356.5,181.5C 363.464,189.143 361.798,192.143 351.5,190.5C 350.699,185.877 347.866,183.543 343,183.5C 338.927,183.541 336.093,185.375 334.5,189C 334.78,190.395 335.447,191.562 336.5,192.5C 342.007,194.794 347.674,196.627 353.5,198C 360.453,201.41 362.953,206.91 361,214.5C 357.546,221.4 351.879,224.733 344,224.5C 333.424,224.745 327.258,219.745 325.5,209.5C 328.167,209.167 330.833,208.833 333.5,208.5C 334.348,214.51 337.848,217.51 344,217.5C 349.283,217.922 352.45,215.589 353.5,210.5C 353.124,208.617 352.124,207.117 350.5,206C 344.404,204.309 338.404,202.309 332.5,200C 326.516,195.068 325.35,189.234 329,182.5C 331.682,180.415 334.516,178.748 337.5,177.5 Z M 237.5,179.5 C 246.657,178.342 255.991,178.176 265.5,179C 275.78,185.265 276.114,192.098 266.5,199.5C 273.993,201.816 276.826,206.816 275,214.5C 273.283,219.551 269.783,222.385 264.5,223C 255.5,223.667 246.5,223.667 237.5,223C 238.83,208.402 238.83,193.902 237.5,179.5 Z M 284.5,178.5 C 293.173,178.334 301.84,178.5 310.5,179C 318.042,182.939 320.542,189.105 318,197.5C 316.75,200.171 314.917,202.337 312.5,204C 305.924,205.377 299.257,205.877 292.5,205.5C 292.5,211.5 292.5,217.5 292.5,223.5C 289.833,223.5 287.167,223.5 284.5,223.5C 284.5,208.5 284.5,193.5 284.5,178.5 Z M 444.5,191.5 C 449.547,191.376 451.38,193.709 450,198.5C 445.844,203.952 442.344,203.786 439.5,198C 440.242,195.095 441.909,192.928 444.5,191.5 Z M 139.5,222.5 C 139.56,221.957 139.893,221.624 140.5,221.5C 142.115,222.154 143.782,222.654 145.5,223C 144.953,223.925 144.287,224.758 143.5,225.5C 142.148,224.476 140.815,223.476 139.5,222.5 Z M 458.5,228.5 C 459.946,227.387 461.613,227.22 463.5,228C 461.83,230.886 460.163,231.052 458.5,228.5 Z M 268.5,279.5 C 277.582,279.086 286.582,279.586 295.5,281C 300.292,283.748 302.626,287.915 302.5,293.5C 302.619,300.1 299.619,304.6 293.5,307C 285.213,308.238 276.88,308.738 268.5,308.5C 268.5,298.833 268.5,289.167 268.5,279.5 Z M 228.5,411.5 C 213.232,404.975 202.398,409.308 196,424.5C 194.954,433.074 197.787,440.074 204.5,445.5C 196.227,440.55 193.06,433.217 195,423.5C 199.483,411.005 208.317,405.839 221.5,408C 224.445,408.139 226.779,409.306 228.5,411.5 Z M 228.5,411.5 C 231.5,412.5 233.5,414.5 234.5,417.5C 232.167,415.833 230.167,413.833 228.5,411.5 Z M 204.5,420.5 C 205.031,418.456 206.198,416.789 208,415.5C 207.923,417.772 206.757,419.438 204.5,420.5 Z M 228.5,419.5 C 227.184,422.087 226.517,425.087 226.5,428.5C 226.517,431.913 227.184,434.913 228.5,437.5C 227.878,438.627 227.045,439.627 226,440.5C 225.503,438.19 225.337,435.857 225.5,433.5C 219.833,433.5 214.167,433.5 208.5,433.5C 208.768,435.099 208.434,436.432 207.5,437.5C 207.037,430.062 207.37,425.395 208.5,423.5C 214.167,423.5 219.833,423.5 225.5,423.5C 225.337,421.143 225.503,418.81 226,416.5C 227.045,417.373 227.878,418.373 228.5,419.5 Z M 234.5,417.5 C 235.79,418.058 236.623,419.058 237,420.5C 239.133,425.727 238.967,430.727 236.5,435.5C 238.016,429.26 237.349,423.26 234.5,417.5 Z M 230.5,422.5 C 231.94,423.946 232.607,425.779 232.5,428C 232.486,429.385 232.152,430.551 231.5,431.5C 231.492,428.455 231.159,425.455 230.5,422.5 Z M 202.5,423.5 C 202.15,428.031 202.817,432.364 204.5,436.5C 203.21,435.942 202.377,434.942 202,433.5C 201.192,429.973 201.359,426.64 202.5,423.5 Z M 231.5,431.5 C 231.539,434.089 230.539,436.089 228.5,437.5C 228.992,435.181 229.992,433.181 231.5,431.5 Z M 236.5,435.5 C 235.276,441.058 231.943,444.725 226.5,446.5C 230.544,443.457 233.877,439.791 236.5,435.5 Z M 205.5,437.5 C 206.167,437.5 206.833,437.5 207.5,437.5C 207.5,438.167 207.5,438.833 207.5,439.5C 206.5,439.167 205.833,438.5 205.5,437.5 Z M 226.5,446.5 C 223.627,448.677 220.294,449.677 216.5,449.5C 213.514,449.618 210.848,448.952 208.5,447.5C 214.584,448.87 220.584,448.536 226.5,446.5 Z"/></g>
<g><path style="opacity:0.338" fill="#000002" d="M 252.5,67.5 C 248.761,69.1016 244.761,70.1016 240.5,70.5C 244.163,68.5841 248.163,67.5841 252.5,67.5 Z"/></g>
<g><path style="opacity:0.482" fill="#010109" d="M 240.5,70.5 C 233.784,73.4054 226.784,75.7387 219.5,77.5C 226.085,74.1937 233.085,71.8604 240.5,70.5 Z"/></g>
<g><path style="opacity:0.442" fill="#02010c" d="M 277.5,63.5 C 319.106,58.601 358.772,65.2676 396.5,83.5C 358.56,67.0099 318.893,60.3432 277.5,63.5 Z"/></g>
<g><path style="opacity:0.253" fill="#000002" d="M 205.5,83.5 C 202.485,85.6744 199.151,87.3411 195.5,88.5C 198.247,85.7933 201.58,84.1266 205.5,83.5 Z"/></g>
<g><path style="opacity:0.449" fill="#010007" d="M 406.5,88.5 C 409.992,89.4097 412.992,91.0764 415.5,93.5C 412.008,92.5903 409.008,90.9236 406.5,88.5 Z"/></g>
<g><path style="opacity:0.929" fill="#010108" d="M 193.5,89.5 C 191.664,91.588 189.331,92.9213 186.5,93.5C 188.336,91.412 190.669,90.0787 193.5,89.5 Z"/></g>
<g><path style="opacity:0.469" fill="#03010c" d="M 415.5,93.5 C 418.704,94.3833 421.371,96.0499 423.5,98.5C 420.296,97.6167 417.629,95.9501 415.5,93.5 Z"/></g>
<g><path style="opacity:1" fill="#1b163d" d="M 186.5,93.5 C 184.307,97.8966 180.974,100.23 176.5,100.5C 175.378,101.63 174.044,102.297 172.5,102.5C 176.479,98.5058 181.145,95.5058 186.5,93.5 Z"/></g>
<g><path style="opacity:0.46" fill="#020109" d="M 429.5,102.5 C 432.37,103.433 434.704,105.1 436.5,107.5C 433.63,106.567 431.296,104.9 429.5,102.5 Z"/></g>
<g><path style="opacity:0.478" fill="#03010d" d="M 436.5,107.5 C 438.749,108.08 440.415,109.413 441.5,111.5C 439.251,110.92 437.585,109.587 436.5,107.5 Z"/></g>
<g><path style="opacity:0.792" fill="#000000" d="M 296.5,108.5 C 300.514,108.334 304.514,108.501 308.5,109C 312.213,110.691 313.379,113.525 312,117.5C 311.097,118.701 309.931,119.535 308.5,120C 310.363,122.364 312.029,124.864 313.5,127.5C 311.926,128.631 310.259,128.798 308.5,128C 306.833,125.667 305.167,123.333 303.5,121C 302.552,120.517 301.552,120.351 300.5,120.5C 300.5,123.167 300.5,125.833 300.5,128.5C 298.833,128.5 297.167,128.5 295.5,128.5C 296.276,121.863 296.609,115.196 296.5,108.5 Z M 301.5,112.5 C 301.67,113.822 301.337,114.989 300.5,116C 302.81,116.497 305.143,116.663 307.5,116.5C 306.969,113.221 304.969,111.887 301.5,112.5 Z"/></g>
<g><path style="opacity:0.768" fill="#000000" d="M 277.5,109.5 C 281.846,109.334 286.179,109.501 290.5,110C 295.191,117.776 292.857,121.942 283.5,122.5C 283.5,124.833 283.5,127.167 283.5,129.5C 281.833,129.5 280.167,129.5 278.5,129.5C 278.167,122.833 277.833,116.167 277.5,109.5 Z M 282.5,113.5 C 282.5,114.833 282.5,116.167 282.5,117.5C 284.977,117.949 286.977,117.283 288.5,115.5C 286.977,113.717 284.977,113.051 282.5,113.5 Z"/></g>
<g><path style="opacity:0.776" fill="#000000" d="M 323.5,109.5 C 332.898,110.281 336.398,115.281 334,124.5C 328.492,132.092 322.492,132.425 316,125.5C 314.024,117.792 316.524,112.459 323.5,109.5 Z M 322.5,114.5 C 320.537,117.518 320.037,120.851 321,124.5C 324.051,127.374 326.718,127.041 329,123.5C 331.164,117.18 328.997,114.18 322.5,114.5 Z"/></g>
<g><path style="opacity:0.459" fill="#03010d" d="M 441.5,111.5 C 443.749,112.08 445.415,113.413 446.5,115.5C 444.251,114.92 442.585,113.587 441.5,111.5 Z"/></g>
<g><path style="opacity:0.761" fill="#000000" d="M 340.5,112.5 C 353.601,113.38 357.434,119.713 352,131.5C 351.097,132.701 349.931,133.535 348.5,134C 344.096,134.258 339.762,133.758 335.5,132.5C 336.858,125.733 338.525,119.067 340.5,112.5 Z M 343.5,118.5 C 342.674,122.136 342.008,125.803 341.5,129.5C 345.122,131.442 347.622,130.442 349,126.5C 350.599,121.208 348.766,118.541 343.5,118.5 Z"/></g>
<g><path style="opacity:0.761" fill="#000000" d="M 254.5,113.5 C 264.239,113.746 268.406,118.746 267,128.5C 263.469,134.182 258.635,135.682 252.5,133C 245.313,125.488 245.98,118.988 254.5,113.5 Z M 254.5,118.5 C 251.733,122.202 252.066,125.702 255.5,129C 259.508,130.416 261.841,129.082 262.5,125C 262.332,119.775 259.665,117.608 254.5,118.5 Z"/></g>
<g><path style="opacity:0.736" fill="#000000" d="M 231.5,122.5 C 230.5,122.5 229.5,122.5 228.5,122.5C 228.297,120.61 228.963,119.11 230.5,118C 232.78,117.767 234.78,116.934 236.5,115.5C 237.331,117.473 237.498,119.473 237,121.5C 241.709,126.041 246.209,130.708 250.5,135.5C 247.549,138.195 244.882,137.862 242.5,134.5C 240.677,135.747 238.677,136.414 236.5,136.5C 237.32,140.145 235.987,142.478 232.5,143.5C 231.503,136.532 231.17,129.532 231.5,122.5 Z M 231.5,122.5 C 232.473,122.013 233.473,121.513 234.5,121C 232.843,120.275 231.843,120.775 231.5,122.5 Z M 236.5,127.5 C 236.34,129.199 236.506,130.866 237,132.5C 239.674,131.013 239.508,129.346 236.5,127.5 Z"/></g>
<g><path style="opacity:0.482" fill="#03010d" d="M 446.5,115.5 C 449.764,117.094 452.431,119.427 454.5,122.5C 451.236,120.906 448.569,118.573 446.5,115.5 Z"/></g>
<g><path style="opacity:0.756" fill="#000000" d="M 360.5,118.5 C 362.311,118.572 363.644,119.405 364.5,121C 363.162,125.013 361.829,129.013 360.5,133C 361.056,136.439 362.889,137.272 366,135.5C 367.549,131.01 369.383,126.677 371.5,122.5C 372.931,122.977 374.264,123.643 375.5,124.5C 373.625,129.624 371.459,134.624 369,139.5C 363.985,142.192 359.652,141.192 356,136.5C 355.95,130.142 357.45,124.142 360.5,118.5 Z"/></g>
<g><path style="opacity:0.444" fill="#000000" d="M 456.5,124.5 C 460.5,126.5 463.5,129.5 465.5,133.5C 462.167,130.833 459.167,127.833 456.5,124.5 Z"/></g>
<g><path style="opacity:0.752" fill="#000000" d="M 378.5,126.5 C 383.618,128.225 388.285,130.725 392.5,134C 392.387,135.28 391.72,136.113 390.5,136.5C 388.831,135.11 387.164,134.777 385.5,135.5C 383.421,139.993 381.088,144.326 378.5,148.5C 376.77,147.974 375.436,146.974 374.5,145.5C 377.088,141.326 379.421,136.993 381.5,132.5C 379.947,131.561 378.613,130.394 377.5,129C 377.743,128.098 378.077,127.265 378.5,126.5 Z"/></g>
<g><path style="opacity:0.727" fill="#000000" d="M 216.5,128.5 C 220.122,127.924 223.122,128.924 225.5,131.5C 224.833,132.833 223.833,133.833 222.5,134.5C 215.208,132.97 213.542,135.637 217.5,142.5C 222.585,145.979 224.918,144.646 224.5,138.5C 226.144,138.714 227.644,138.38 229,137.5C 229.978,140.669 229.478,143.503 227.5,146C 228.574,146.739 229.241,147.739 229.5,149C 228.346,151.487 226.513,153.321 224,154.5C 222.206,152.536 222.706,151.036 225.5,150C 219.038,150.594 214.204,147.427 211,140.5C 209.873,135.089 211.707,131.089 216.5,128.5 Z"/></g>
<g><path style="opacity:0.732" fill="#000000" d="M 394.5,135.5 C 396.714,135.291 398.381,136.124 399.5,138C 396.011,143.648 392.345,149.148 388.5,154.5C 387.167,153.833 386.167,152.833 385.5,151.5C 389.031,146.436 392.031,141.103 394.5,135.5 Z"/></g>
<g><path style="opacity:0.763" fill="#000000" d="M 199.5,151.5 C 201.325,153.803 203.158,156.136 205,158.5C 205.688,159.332 205.521,159.998 204.5,160.5C 203.522,160.977 202.689,161.643 202,162.5C 197.973,157.306 194.14,151.973 190.5,146.5C 191.436,145.026 192.77,144.026 194.5,143.5C 197.629,145.4 200.963,146.733 204.5,147.5C 203.356,144.553 201.689,141.887 199.5,139.5C 200.968,137.667 202.635,137.334 204.5,138.5C 207.178,143.188 210.344,147.521 214,151.5C 214.521,154.118 213.354,155.451 210.5,155.5C 206.925,153.878 203.259,152.544 199.5,151.5 Z"/></g>
<g><path style="opacity:0.769" fill="#000000" d="M 400.5,139.5 C 402.567,139.532 403.9,140.532 404.5,142.5C 403.32,146.51 402.487,150.51 402,154.5C 405.333,151.833 408.667,149.167 412,146.5C 413.487,147.155 414.653,148.155 415.5,149.5C 410.433,154.063 404.933,158.063 399,161.5C 396.942,160.942 395.775,159.609 395.5,157.5C 397.174,151.465 398.841,145.465 400.5,139.5 Z"/></g>
<g><path style="opacity:0.494" fill="#060311" d="M 465.5,133.5 C 469.234,136.231 472.234,139.564 474.5,143.5C 470.766,140.769 467.766,137.436 465.5,133.5 Z"/></g>
<g><path style="opacity:0.477" fill="#04020e" d="M 165.5,107.5 C 155.563,116.265 145.729,125.265 136,134.5C 130.482,140.905 124.982,147.239 119.5,153.5C 131.833,135.167 147.167,119.833 165.5,107.5 Z"/></g>
<g><path style="opacity:0.997" fill="#26216a" d="M 291.5,143.5 C 345.617,142.642 388.451,163.976 420,207.5C 426.554,217.942 432.054,228.942 436.5,240.5C 345.167,241.833 253.833,241.833 162.5,240.5C 186.336,182.662 229.336,150.329 291.5,143.5 Z M 337.5,177.5 C 334.516,178.748 331.682,180.415 329,182.5C 325.35,189.234 326.516,195.068 332.5,200C 338.404,202.309 344.404,204.309 350.5,206C 352.124,207.117 353.124,208.617 353.5,210.5C 352.45,215.589 349.283,217.922 344,217.5C 337.848,217.51 334.348,214.51 333.5,208.5C 330.833,208.833 328.167,209.167 325.5,209.5C 327.258,219.745 333.424,224.745 344,224.5C 351.879,224.733 357.546,221.4 361,214.5C 362.953,206.91 360.453,201.41 353.5,198C 347.674,196.627 342.007,194.794 336.5,192.5C 335.447,191.562 334.78,190.395 334.5,189C 336.093,185.375 338.927,183.541 343,183.5C 347.866,183.543 350.699,185.877 351.5,190.5C 361.798,192.143 363.464,189.143 356.5,181.5C 350.714,177.926 344.381,176.592 337.5,177.5 Z M 237.5,179.5 C 238.83,193.902 238.83,208.402 237.5,223C 246.5,223.667 255.5,223.667 264.5,223C 269.783,222.385 273.283,219.551 275,214.5C 276.826,206.816 273.993,201.816 266.5,199.5C 276.114,192.098 275.78,185.265 265.5,179C 255.991,178.176 246.657,178.342 237.5,179.5 Z M 284.5,178.5 C 284.5,193.5 284.5,208.5 284.5,223.5C 287.167,223.5 289.833,223.5 292.5,223.5C 292.5,217.5 292.5,211.5 292.5,205.5C 299.257,205.877 305.924,205.377 312.5,204C 314.917,202.337 316.75,200.171 318,197.5C 320.542,189.105 318.042,182.939 310.5,179C 301.84,178.5 293.173,178.334 284.5,178.5 Z"/></g>
<g><path style="opacity:0.769" fill="#000000" d="M 185.5,149.5 C 187.384,149.712 188.717,150.712 189.5,152.5C 186.978,154.856 184.312,157.023 181.5,159C 182.333,159.833 183.167,160.667 184,161.5C 186.039,159.126 188.372,157.126 191,155.5C 192.022,156.354 192.855,157.354 193.5,158.5C 190.634,160.518 188.468,162.852 187,165.5C 187.689,166.357 188.522,167.023 189.5,167.5C 191.867,165.296 194.367,163.296 197,161.5C 198.5,161.667 199.333,162.5 199.5,164C 196.239,167.631 192.572,170.798 188.5,173.5C 183.822,168.821 179.489,163.821 175.5,158.5C 179.284,155.951 182.617,152.951 185.5,149.5 Z"/></g>
<g><path style="opacity:0.766" fill="#000000" d="M 418.5,154.5 C 421.278,154.022 423.278,155.022 424.5,157.5C 422.012,163.793 419.679,170.126 417.5,176.5C 413.177,175.368 412.51,173.201 415.5,170C 412.933,165.927 409.766,165.094 406,167.5C 404.926,166.382 403.76,165.382 402.5,164.5C 407.861,161.156 413.195,157.822 418.5,154.5 Z M 416.5,160.5 C 415.942,161.79 414.942,162.623 413.5,163C 415.943,164.959 417.61,164.292 418.5,161C 417.906,160.536 417.239,160.369 416.5,160.5 Z"/></g>
<g><path style="opacity:0.506" fill="#02010c" d="M 116.5,157.5 C 114.327,161.852 111.66,165.852 108.5,169.5C 110.178,164.803 112.844,160.803 116.5,157.5 Z"/></g>
<g><path style="opacity:0.728" fill="#000000" d="M 172.5,161.5 C 174.384,161.712 175.717,162.712 176.5,164.5C 175.019,165.48 173.685,166.647 172.5,168C 176.349,171.682 180.016,175.515 183.5,179.5C 182.5,180.5 181.5,181.5 180.5,182.5C 176.515,179.016 172.682,175.349 169,171.5C 167.647,172.685 166.48,174.019 165.5,175.5C 164.167,174.833 163.167,173.833 162.5,172.5C 165.855,168.813 169.189,165.147 172.5,161.5 Z"/></g>
<g><path style="opacity:0.743" fill="#000000" d="M 435.5,169.5 C 439.133,173.353 442.8,177.353 446.5,181.5C 445.833,182.833 444.833,183.833 443.5,184.5C 442.5,182.833 441.167,181.5 439.5,180.5C 435.5,183.5 431.5,186.5 427.5,189.5C 426.167,188.833 425.167,187.833 424.5,186.5C 428.5,183.167 432.5,179.833 436.5,176.5C 435.5,175.167 434.5,173.833 433.5,172.5C 434.193,171.482 434.859,170.482 435.5,169.5 Z"/></g>
<g><path style="opacity:0.47" fill="#02010b" d="M 108.5,169.5 C 107,173.173 105,176.506 102.5,179.5C 103.498,175.495 105.498,172.161 108.5,169.5 Z"/></g>
<g><path style="opacity:0.331" fill="#010008" d="M 496.5,174.5 C 498.588,176.336 499.921,178.669 500.5,181.5C 498.412,179.664 497.079,177.331 496.5,174.5 Z"/></g>
<g><path style="opacity:0.764" fill="#000000" d="M 158.5,176.5 C 163.902,179.299 168.735,182.965 173,187.5C 173.379,192.13 171.546,195.63 167.5,198C 165.029,198.706 162.695,198.373 160.5,197C 157.135,194.325 153.802,191.658 150.5,189C 150.93,187.566 151.764,186.399 153,185.5C 156.412,188.123 159.912,190.623 163.5,193C 167.325,193.836 168.825,192.336 168,188.5C 164.244,185.707 160.411,183.04 156.5,180.5C 157.63,179.378 158.297,178.044 158.5,176.5 Z"/></g>
<g><path style="opacity:0.468" fill="#000002" d="M 501.5,183.5 C 504.207,186.247 505.873,189.58 506.5,193.5C 504.326,190.485 502.659,187.151 501.5,183.5 Z"/></g>
<g><path style="opacity:0.958" fill="#26216a" d="M 292.5,184.5 C 298.352,183.861 303.852,184.861 309,187.5C 311.462,191.869 310.629,195.369 306.5,198C 301.915,199.225 297.248,199.725 292.5,199.5C 292.5,194.5 292.5,189.5 292.5,184.5 Z"/></g>
<g><path style="opacity:0.977" fill="#26216a" d="M 246.5,184.5 C 251.179,184.334 255.845,184.501 260.5,185C 265.391,186.709 266.558,189.875 264,194.5C 263.25,195.126 262.416,195.626 261.5,196C 256.511,196.499 251.511,196.666 246.5,196.5C 246.5,192.5 246.5,188.5 246.5,184.5 Z"/></g>
<g><path style="opacity:0.768" fill="#000000" d="M 443.5,186.5 C 452.954,187.422 456.454,192.422 454,201.5C 448.26,208.951 442.26,209.284 436,202.5C 434.121,199.134 434.121,195.8 436,192.5C 438.114,189.879 440.614,187.879 443.5,186.5 Z M 444.5,191.5 C 441.909,192.928 440.242,195.095 439.5,198C 442.344,203.786 445.844,203.952 450,198.5C 451.38,193.709 449.547,191.376 444.5,191.5 Z"/></g>
<g><path style="opacity:0.376" fill="#000004" d="M 102.5,179.5 C 100.008,185.818 97.0078,191.818 93.5,197.5C 95.4596,190.914 98.4596,184.914 102.5,179.5 Z"/></g>
<g><path style="opacity:0.766" fill="#000000" d="M 155.5,217.5 C 150.657,213.663 145.323,210.663 139.5,208.5C 139.297,206.61 139.963,205.11 141.5,204C 145.833,203.667 150.167,203.333 154.5,203C 151.298,201.237 148.298,199.237 145.5,197C 146.102,193.374 147.768,192.707 150.5,195C 155,198.085 159.667,200.918 164.5,203.5C 163.96,204.748 163.293,205.915 162.5,207C 158.167,207.333 153.833,207.667 149.5,208C 152.702,209.763 155.702,211.763 158.5,214C 158.022,215.642 157.022,216.809 155.5,217.5 Z"/></g>
<g><path style="opacity:0.451" fill="#010007" d="M 507.5,195.5 C 510.793,200.699 513.127,206.365 514.5,212.5C 511.597,207.14 509.264,201.473 507.5,195.5 Z"/></g>
<g><path style="opacity:0.495" fill="#010005" d="M 93.5,197.5 C 93.2927,200.241 92.2927,202.574 90.5,204.5C 90.7073,201.759 91.7073,199.426 93.5,197.5 Z"/></g>
<g><path style="opacity:0.737" fill="#000000" d="M 457.5,202.5 C 458.496,202.414 459.329,202.748 460,203.5C 462.866,207.557 464.866,211.89 466,216.5C 464.951,217.517 463.784,217.684 462.5,217C 461.845,215.513 460.845,214.347 459.5,213.5C 455.414,215.96 451.247,218.293 447,220.5C 445.916,219.335 445.083,218.002 444.5,216.5C 448.5,214.167 452.5,211.833 456.5,209.5C 457.666,207.635 457.333,205.968 455.5,204.5C 456.243,203.818 456.909,203.151 457.5,202.5 Z"/></g>
<g><path style="opacity:0.998" fill="#26216a" d="M 246.5,203.5 C 251.844,203.334 257.177,203.501 262.5,204C 268.31,207.597 268.643,211.597 263.5,216C 257.843,216.499 252.176,216.666 246.5,216.5C 246.5,212.167 246.5,207.833 246.5,203.5 Z"/></g>
<g><path style="opacity:0.43" fill="#000006" d="M 88.5,209.5 C 87.072,215.784 85.072,221.784 82.5,227.5C 83.5271,221.085 85.5271,215.085 88.5,209.5 Z"/></g>
<g><path style="opacity:0.781" fill="#000000" d="M 155.5,217.5 C 156.501,218.789 156.334,220.122 155,221.5C 153.175,222.103 151.341,222.77 149.5,223.5C 148.627,225.413 147.627,227.247 146.5,229C 149.863,230.901 150.363,233.401 148,236.5C 142.787,231.623 137.954,226.456 133.5,221C 133.888,219.049 134.888,217.549 136.5,216.5C 142.773,217.46 149.107,217.793 155.5,217.5 Z M 139.5,222.5 C 140.815,223.476 142.148,224.476 143.5,225.5C 144.287,224.758 144.953,223.925 145.5,223C 143.782,222.654 142.115,222.154 140.5,221.5C 139.893,221.624 139.56,221.957 139.5,222.5 Z"/></g>
<g><path style="opacity:0.331" fill="#000002" d="M 514.5,212.5 C 516.806,216.085 518.139,220.085 518.5,224.5C 516.595,220.784 515.261,216.784 514.5,212.5 Z"/></g>
<g><path style="opacity:0.756" fill="#000000" d="M 448.5,222.5 C 455.419,222.391 462.419,222.725 469.5,223.5C 470.485,225.098 470.651,226.765 470,228.5C 465.018,232.648 460.184,236.981 455.5,241.5C 454.643,240.264 453.977,238.931 453.5,237.5C 457.135,234.958 457.468,231.958 454.5,228.5C 450.428,229.102 448.428,227.102 448.5,222.5 Z M 458.5,228.5 C 460.163,231.052 461.83,230.886 463.5,228C 461.613,227.22 459.946,227.387 458.5,228.5 Z"/></g>
<g><path style="opacity:0.365" fill="#000003" d="M 518.5,224.5 C 519.924,226.515 520.59,228.848 520.5,231.5C 519.076,229.485 518.41,227.152 518.5,224.5 Z"/></g>
<g><path style="opacity:0.435" fill="#000005" d="M 82.5,227.5 C 81.7683,233.094 80.435,238.427 78.5,243.5C 78.9174,237.83 80.2507,232.497 82.5,227.5 Z"/></g>
<g><path style="opacity:0.768" fill="#000000" d="M 137.5,239.5 C 139.608,241.059 141.941,242.392 144.5,243.5C 145.881,245.966 145.381,247.966 143,249.5C 140.263,248.39 137.429,248.223 134.5,249C 137.264,249.532 139.93,250.366 142.5,251.5C 143.429,252.689 143.762,254.022 143.5,255.5C 136.354,254.719 129.688,252.719 123.5,249.5C 124.074,247.941 124.74,246.441 125.5,245C 137.901,245.782 138.901,243.948 128.5,239.5C 126.906,236.447 127.573,234.114 130.5,232.5C 135.833,234 141.167,235.5 146.5,237C 147.38,238.356 147.714,239.856 147.5,241.5C 144.123,241.041 140.789,240.374 137.5,239.5 Z"/></g>
<g><path style="opacity:0.729" fill="#000000" d="M 472.5,237.5 C 475.119,238.403 475.786,240.069 474.5,242.5C 469.797,243.901 465.13,245.401 460.5,247C 462.002,250.005 463.002,253.171 463.5,256.5C 461.856,256.714 460.356,256.38 459,255.5C 457.724,251.177 456.558,246.844 455.5,242.5C 461.439,241.406 467.106,239.739 472.5,237.5 Z"/></g>
<g><path style="opacity:0.924" fill="#000000" d="M 156.5,259.5 C 182.333,260.829 208.167,260.829 234,259.5C 235.458,265.988 235.958,272.655 235.5,279.5C 225.494,279.334 215.494,279.5 205.5,280C 206.495,309.093 206.829,338.26 206.5,367.5C 199.167,367.5 191.833,367.5 184.5,367.5C 184.171,338.26 184.505,309.093 185.5,280C 175.506,279.5 165.506,279.334 155.5,279.5C 155.207,272.745 155.54,266.078 156.5,259.5 Z"/></g>
<g><path style="opacity:0.953" fill="#000000" d="M 248.5,259.5 C 267.47,260.053 286.47,260.886 305.5,262C 320.87,270.245 327.037,283.078 324,300.5C 321.792,313.706 314.292,322.206 301.5,326C 290.54,327.285 279.54,327.785 268.5,327.5C 268.5,340.833 268.5,354.167 268.5,367.5C 261.5,367.5 254.5,367.5 247.5,367.5C 247.174,331.427 247.507,295.427 248.5,259.5 Z M 268.5,279.5 C 268.5,289.167 268.5,298.833 268.5,308.5C 276.88,308.738 285.213,308.238 293.5,307C 299.619,304.6 302.619,300.1 302.5,293.5C 302.626,287.915 300.292,283.748 295.5,281C 286.582,279.586 277.582,279.086 268.5,279.5 Z"/></g>
<g><path style="opacity:0.939" fill="#000000" d="M 340.5,259.5 C 350,260.821 359.5,260.821 369,259.5C 369.667,260.167 370.333,260.833 371,261.5C 376.509,284.537 382.176,307.537 388,330.5C 393.824,307.537 399.491,284.537 405,261.5C 405.667,260.833 406.333,260.167 407,259.5C 416.794,260.46 426.461,260.793 436,260.5C 436.5,296.165 436.667,331.832 436.5,367.5C 429.833,367.5 423.167,367.5 416.5,367.5C 416.667,341.831 416.5,316.165 416,290.5C 410.005,316.147 404.171,341.813 398.5,367.5C 391.5,367.5 384.5,367.5 377.5,367.5C 371.829,341.813 365.995,316.147 360,290.5C 359.5,316.165 359.333,341.831 359.5,367.5C 352.833,367.5 346.167,367.5 339.5,367.5C 339.174,331.427 339.507,295.427 340.5,259.5 Z"/></g>
<g><path style="opacity:0.414" fill="#010008" d="M 520.5,231.5 C 524.488,244.077 526.988,257.077 528,270.5C 530.074,296.499 528.074,322.165 522,347.5C 519.581,356.891 516.414,365.891 512.5,374.5C 529.315,327.644 531.982,279.977 520.5,231.5 Z"/></g>
<g><path style="opacity:0.407" fill="#010005" d="M 78.5,243.5 C 68.4595,298.486 76.1262,350.82 101.5,400.5C 85.8687,373.343 76.702,344.009 74,312.5C 73.3333,297.833 73.3333,283.167 74,268.5C 74.7252,259.889 76.2252,251.555 78.5,243.5 Z"/></g>
<g><path style="opacity:0.463" fill="#010007" d="M 510.5,379.5 C 509.958,382.912 508.625,385.912 506.5,388.5C 507.042,385.088 508.375,382.088 510.5,379.5 Z"/></g>
<g><path style="opacity:0.349" fill="#000005" d="M 101.5,400.5 C 103.588,402.336 104.921,404.669 105.5,407.5C 103.412,405.664 102.079,403.331 101.5,400.5 Z"/></g>
<g><path style="opacity:0.976" fill="#262169" d="M 228.5,411.5 C 230.167,413.833 232.167,415.833 234.5,417.5C 237.349,423.26 238.016,429.26 236.5,435.5C 233.877,439.791 230.544,443.457 226.5,446.5C 220.584,448.536 214.584,448.87 208.5,447.5C 208.158,446.662 207.492,446.328 206.5,446.5C 206.158,445.662 205.492,445.328 204.5,445.5C 197.787,440.074 194.954,433.074 196,424.5C 202.398,409.308 213.232,404.975 228.5,411.5 Z M 204.5,420.5 C 206.757,419.438 207.923,417.772 208,415.5C 206.198,416.789 205.031,418.456 204.5,420.5 Z M 228.5,419.5 C 227.184,422.087 226.517,425.087 226.5,428.5C 226.517,431.913 227.184,434.913 228.5,437.5C 227.878,438.627 227.045,439.627 226,440.5C 225.503,438.19 225.337,435.857 225.5,433.5C 219.833,433.5 214.167,433.5 208.5,433.5C 208.768,435.099 208.434,436.432 207.5,437.5C 207.037,430.062 207.37,425.395 208.5,423.5C 214.167,423.5 219.833,423.5 225.5,423.5C 225.337,421.143 225.503,418.81 226,416.5C 227.045,417.373 227.878,418.373 228.5,419.5 Z M 230.5,422.5 C 231.94,423.946 232.607,425.779 232.5,428C 232.486,429.385 232.152,430.551 231.5,431.5C 231.492,428.455 231.159,425.455 230.5,422.5 Z M 202.5,423.5 C 202.15,428.031 202.817,432.364 204.5,436.5C 203.21,435.942 202.377,434.942 202,433.5C 201.192,429.973 201.359,426.64 202.5,423.5 Z M 231.5,431.5 C 231.539,434.089 230.539,436.089 228.5,437.5C 228.992,435.181 229.992,433.181 231.5,431.5 Z M 205.5,437.5 C 206.167,437.5 206.833,437.5 207.5,437.5C 207.5,438.167 207.5,438.833 207.5,439.5C 206.5,439.167 205.833,438.5 205.5,437.5 Z"/></g>
<g><path style="opacity:0.439" fill="#010009" d="M 501.5,398.5 C 498.956,404.692 495.623,410.359 491.5,415.5C 494.08,409.332 497.414,403.665 501.5,398.5 Z"/></g>
<g><path style="opacity:1" fill="#fc161e" d="M 261.5,414.5 C 268.284,414.08 274.95,414.58 281.5,416C 284.122,419.798 284.122,423.632 281.5,427.5C 287.147,433.112 286.481,437.946 279.5,442C 273.509,442.499 267.509,442.666 261.5,442.5C 261.5,433.167 261.5,423.833 261.5,414.5 Z"/></g>
<g><path style="opacity:1" fill="#f81720" d="M 296.5,413.5 C 312.91,412.959 318.743,420.626 314,436.5C 308.448,443.568 301.614,445.068 293.5,441C 291.383,439.269 289.883,437.102 289,434.5C 286.359,425.448 288.859,418.448 296.5,413.5 Z"/></g>
<g><path style="opacity:1" fill="#f71720" d="M 324.5,413.5 C 330.039,412.638 334.872,413.972 339,417.5C 340.009,419.025 340.509,420.692 340.5,422.5C 335.614,421.133 330.614,420.133 325.5,419.5C 325.33,420.822 325.663,421.989 326.5,423C 331.594,424.026 336.094,426.193 340,429.5C 340.667,432.5 340.667,435.5 340,438.5C 338.786,440.049 337.286,441.215 335.5,442C 331.5,442.667 327.5,442.667 323.5,442C 319.865,439.904 317.865,436.737 317.5,432.5C 319.833,432.5 322.167,432.5 324.5,432.5C 325.174,437.151 327.841,438.651 332.5,437C 334.527,435.604 334.86,433.938 333.5,432C 327.441,431.722 322.608,429.222 319,424.5C 318.176,419.482 320.009,415.815 324.5,413.5 Z"/></g>
<g><path style="opacity:1" fill="#f9161f" d="M 352.5,413.5 C 357.08,413.113 361.414,413.947 365.5,416C 367.219,417.87 368.219,420.037 368.5,422.5C 366.94,422.519 365.44,422.852 364,423.5C 361.434,419.788 357.934,418.622 353.5,420C 349.904,424.89 349.57,430.057 352.5,435.5C 357.763,438.904 361.43,437.571 363.5,431.5C 369.687,433.643 370.02,436.809 364.5,441C 355.748,445.539 349.248,443.372 345,434.5C 342.359,425.448 344.859,418.448 352.5,413.5 Z"/></g>
<g><path style="opacity:1" fill="#f41722" d="M 389.5,413.5 C 391.5,413.5 393.5,413.5 395.5,413.5C 395.5,423.167 395.5,432.833 395.5,442.5C 393.5,442.5 391.5,442.5 389.5,442.5C 389.5,438.5 389.5,434.5 389.5,430.5C 386.167,430.5 382.833,430.5 379.5,430.5C 379.5,434.5 379.5,438.5 379.5,442.5C 377.167,442.5 374.833,442.5 372.5,442.5C 372.5,433.167 372.5,423.833 372.5,414.5C 374.833,414.5 377.167,414.5 379.5,414.5C 379.5,417.833 379.5,421.167 379.5,424.5C 382.833,424.5 386.167,424.5 389.5,424.5C 389.5,420.833 389.5,417.167 389.5,413.5 Z"/></g>
<g><path style="opacity:1" fill="#29226b" d="M 298.5,419.5 C 302.287,418.814 305.454,419.814 308,422.5C 308.667,426.167 308.667,429.833 308,433.5C 305.839,437.124 302.672,438.291 298.5,437C 293.182,431.052 293.182,425.218 298.5,419.5 Z"/></g>
<g><path style="opacity:0.995" fill="#231f68" d="M 228.5,419.5 C 228.5,420.167 228.833,420.5 229.5,420.5C 229.328,421.492 229.662,422.158 230.5,422.5C 231.159,425.455 231.492,428.455 231.5,431.5C 229.992,433.181 228.992,435.181 228.5,437.5C 227.184,434.913 226.517,431.913 226.5,428.5C 226.517,425.087 227.184,422.087 228.5,419.5 Z"/></g>
<g><path style="opacity:1" fill="#37226b" d="M 267.5,419.5 C 270.518,419.335 273.518,419.502 276.5,420C 277.86,421.938 277.527,423.604 275.5,425C 272.854,425.497 270.187,425.664 267.5,425.5C 267.5,423.5 267.5,421.5 267.5,419.5 Z"/></g>
<g><path style="opacity:0.483" fill="#010108" d="M 114.5,421.5 C 116.9,423.296 118.567,425.63 119.5,428.5C 117.1,426.704 115.433,424.37 114.5,421.5 Z"/></g>
<g><path style="opacity:0.942" fill="#27226a" d="M 208.5,424.5 C 214.167,424.5 219.833,424.5 225.5,424.5C 225.5,427.167 225.5,429.833 225.5,432.5C 219.833,432.5 214.167,432.5 208.5,432.5C 208.5,429.833 208.5,427.167 208.5,424.5 Z"/></g>
<g><path style="opacity:0.494" fill="#03010c" d="M 119.5,428.5 C 121.587,429.585 122.92,431.251 123.5,433.5C 121.413,432.415 120.08,430.749 119.5,428.5 Z"/></g>
<g><path style="opacity:1" fill="#35226a" d="M 267.5,430.5 C 270.518,430.335 273.518,430.502 276.5,431C 279.033,432.916 279.033,434.916 276.5,437C 273.518,437.498 270.518,437.665 267.5,437.5C 267.5,435.167 267.5,432.833 267.5,430.5 Z"/></g>
<g><path style="opacity:0.544" fill="#02010b" d="M 123.5,433.5 C 125.587,434.585 126.92,436.251 127.5,438.5C 125.413,437.415 124.08,435.749 123.5,433.5 Z"/></g>
<g><path style="opacity:0.456" fill="#000004" d="M 478.5,433.5 C 477.92,435.749 476.587,437.415 474.5,438.5C 475.08,436.251 476.413,434.585 478.5,433.5 Z"/></g>
<g><path style="opacity:0.478" fill="#02010b" d="M 127.5,438.5 C 130.573,440.569 132.906,443.236 134.5,446.5C 131.427,444.431 129.094,441.764 127.5,438.5 Z"/></g>
<g><path style="opacity:0.384" fill="#02010a" d="M 473.5,439.5 C 471.906,442.764 469.573,445.431 466.5,447.5C 468.094,444.236 470.427,441.569 473.5,439.5 Z"/></g>
<g><path style="opacity:0.429" fill="#000000" d="M 137.5,449.5 C 140.167,451.5 142.5,453.833 144.5,456.5C 141.167,455.167 138.833,452.833 137.5,449.5 Z"/></g>
<g><path style="opacity:0.457" fill="#010006" d="M 455.5,458.5 C 453.431,461.573 450.764,463.906 447.5,465.5C 449.569,462.427 452.236,460.094 455.5,458.5 Z"/></g>
<g><path style="opacity:0.482" fill="#070313" d="M 144.5,456.5 C 148.436,458.766 151.769,461.766 154.5,465.5C 150.564,463.234 147.231,460.234 144.5,456.5 Z"/></g>
<g><path style="opacity:0.49" fill="#04010f" d="M 154.5,465.5 C 157.089,466.419 159.089,468.086 160.5,470.5C 157.911,469.581 155.911,467.914 154.5,465.5 Z"/></g>
<g><path style="opacity:0.416" fill="#010005" d="M 447.5,465.5 C 446.089,467.914 444.089,469.581 441.5,470.5C 442.911,468.086 444.911,466.419 447.5,465.5 Z"/></g>
<g><path style="opacity:1" fill="#191538" d="M 160.5,470.5 C 165.411,472.41 170.078,474.91 174.5,478C 174.167,478.333 173.833,478.667 173.5,479C 174.381,479.708 175.047,480.542 175.5,481.5C 169.959,478.564 164.959,474.897 160.5,470.5 Z"/></g>
<g><path style="opacity:0.438" fill="#02010b" d="M 433.5,476.5 C 429.049,480.61 424.049,483.944 418.5,486.5C 422.976,482.425 427.976,479.092 433.5,476.5 Z"/></g>
<g><path style="opacity:0.449" fill="#02010b" d="M 188.5,489.5 C 191.992,490.41 194.992,492.076 197.5,494.5C 194.008,493.59 191.008,491.924 188.5,489.5 Z"/></g>
<g><path style="opacity:0.478" fill="#02010b" d="M 413.5,489.5 C 402.092,497.035 389.759,502.702 376.5,506.5C 388.884,501.144 401.217,495.478 413.5,489.5 Z"/></g>
<g><path style="opacity:0.398" fill="#080514" d="M 201.5,496.5 C 205.535,497.351 209.202,499.017 212.5,501.5C 208.418,500.624 204.751,498.957 201.5,496.5 Z"/></g>
<g><path style="opacity:0.331" fill="#000005" d="M 212.5,501.5 C 216.137,502.263 219.47,503.597 222.5,505.5C 218.703,505.128 215.37,503.794 212.5,501.5 Z"/></g>
<g><path style="opacity:0.385" fill="#000005" d="M 222.5,505.5 C 232.977,508.365 243.31,511.365 253.5,514.5C 242.663,512.884 232.33,509.884 222.5,505.5 Z"/></g>
<g><path style="opacity:0.46" fill="#010109" d="M 376.5,506.5 C 359.238,513.257 341.238,517.423 322.5,519C 307.833,519.667 293.167,519.667 278.5,519C 275.635,518.817 272.969,518.317 270.5,517.5C 306.634,521.254 341.967,517.587 376.5,506.5 Z"/></g>
<g><path style="opacity:0.401" fill="#0a0514" d="M 253.5,514.5 C 259.556,514.127 265.223,515.127 270.5,517.5C 264.556,517.375 258.89,516.375 253.5,514.5 Z"/></g>
</svg>
