<?xml version="1.0" encoding="UTF-8"?>
<!DOCTYPE svg PUBLIC "-//W3C//DTD SVG 1.1//EN" "http://www.w3.org/Graphics/SVG/1.1/DTD/svg11.dtd">
<svg xmlns="http://www.w3.org/2000/svg" version="1.1" width="2250px" height="2250px" style="shape-rendering:geometricPrecision; text-rendering:geometricPrecision; image-rendering:optimizeQuality; fill-rule:evenodd; clip-rule:evenodd" xmlns:xlink="http://www.w3.org/1999/xlink">
<g><path style="opacity:0.993" fill="#47acc5" d="M 1388.5,291.5 C 1390.03,291.517 1390.53,292.184 1390,293.5C 1365.71,331.916 1341.54,370.416 1317.5,409C 1222.14,422.814 1126.8,436.814 1031.5,451C 1025.77,453.392 1021.27,457.226 1018,462.5C 991.882,512.571 965.382,562.405 938.5,612C 808.488,629.835 678.488,647.668 548.5,665.5C 548.167,665 547.833,664.5 547.5,664C 535.638,583.135 523.638,502.302 511.5,421.5C 803.959,378.149 1096.29,334.816 1388.5,291.5 Z"/></g>
<g><path style="opacity:0.978" fill="#47acc5" d="M 1472.5,382.5 C 1474.12,382.36 1475.29,383.027 1476,384.5C 1485.5,449.667 1495,514.833 1504.5,580C 1504.32,581.658 1503.66,582.991 1502.5,584C 1486.55,586.589 1470.55,588.755 1454.5,590.5C 1445.27,523.762 1435.6,457.096 1425.5,390.5C 1441.27,387.705 1456.94,385.038 1472.5,382.5 Z"/></g>
<g><path style="opacity:0.992" fill="#47acc5" d="M 1376.5,408.5 C 1391.18,487.598 1405.35,566.931 1419,646.5C 1421.04,670.444 1410.54,685.611 1387.5,692C 1267.85,709.427 1148.18,726.76 1028.5,744C 1027.34,745.009 1026.68,746.342 1026.5,748C 1029.68,766.572 1032.01,785.239 1033.5,804C 1032.36,838.951 1015.36,862.117 982.5,873.5C 974.715,928.497 966.881,983.497 959,1038.5C 956.725,1054.89 948.558,1067.39 934.5,1076C 837.833,1128 741.167,1180 644.5,1232C 655.873,1253.25 667.373,1274.41 679,1295.5C 685.12,1312.54 680.953,1326.37 666.5,1337C 638.167,1352.17 609.833,1367.33 581.5,1382.5C 533.111,1293.56 485.111,1204.39 437.5,1115C 438.952,1113.44 440.619,1112.1 442.5,1111C 470.008,1096.08 497.675,1081.41 525.5,1067C 540.195,1062.88 552.362,1066.71 562,1078.5C 574,1100.5 586,1122.5 598,1144.5C 686.087,1096.87 774.254,1049.37 862.5,1002C 869.42,961.976 875.754,921.81 881.5,881.5C 881.167,880.167 880.833,878.833 880.5,877.5C 859.219,867.709 845.719,851.376 840,828.5C 837.118,809.827 834.285,791.161 831.5,772.5C 719.853,788.711 608.187,804.878 496.5,821C 472.783,824.897 456.616,815.73 448,793.5C 433.058,706.85 418.225,620.184 403.5,533.5C 404.576,520.833 410.909,511.999 422.5,507C 439.474,504.266 456.474,501.766 473.5,499.5C 482.765,565.523 492.265,631.523 502,697.5C 505.526,710.525 514.026,717.525 527.5,718.5C 672.49,698.716 817.49,678.883 962.5,659C 968.226,656.608 972.726,652.774 976,647.5C 1002.63,597.746 1029.13,547.913 1055.5,498C 1151.16,483.668 1246.82,469.335 1342.5,455C 1346.58,452.925 1350.08,450.092 1353,446.5C 1360.59,433.638 1368.43,420.971 1376.5,408.5 Z"/></g>
<g><path style="opacity:0.994" fill="#47acc5" d="M 1220.5,810.5 C 1390.5,810.333 1560.5,810.5 1730.5,811C 1782.68,819.844 1814.84,850.011 1827,901.5C 1828.02,907.793 1828.69,914.126 1829,920.5C 1829.67,992.833 1829.67,1065.17 1829,1137.5C 1828.49,1143.68 1825.32,1147.84 1819.5,1150C 1782.17,1150.67 1744.83,1150.67 1707.5,1150C 1706,1148.5 1704.5,1147 1703,1145.5C 1699.76,1048.46 1655.6,977.291 1570.5,932C 1497.87,899.785 1426.53,902.452 1356.5,940C 1281.43,986.262 1242.6,1053.76 1240,1142.5C 1239.11,1146.11 1236.94,1148.61 1233.5,1150C 1199.5,1150.67 1165.5,1150.67 1131.5,1150C 1127.33,1148.5 1124.5,1145.67 1123,1141.5C 1122.8,1137.25 1122.3,1133.08 1121.5,1129C 1122.23,1058.19 1122.23,988.352 1121.5,919.5C 1127.7,858.636 1160.7,822.303 1220.5,810.5 Z"/></g>
<g><path style="opacity:0.993" fill="#47acc5" d="M 1454.5,973.5 C 1526.32,969.988 1580.82,998.655 1618,1059.5C 1645.61,1114.35 1645.27,1169.02 1617,1223.5C 1579.23,1284.3 1524.39,1312.14 1452.5,1307C 1381.71,1296.2 1334.54,1257.04 1311,1189.5C 1293.34,1119.82 1310.84,1060.65 1363.5,1012C 1390.08,990.307 1420.41,977.473 1454.5,973.5 Z"/></g>
<g><path style="opacity:0.991" fill="#47acc5" d="M 319.5,1004.5 C 321.624,1005.03 323.124,1006.36 324,1008.5C 419.039,1185.41 514.206,1362.25 609.5,1539C 565.384,1563.81 520.884,1587.98 476,1611.5C 474.779,1610.73 473.779,1609.73 473,1608.5C 377.699,1431.4 282.532,1254.23 187.5,1077C 189.627,1075.1 191.96,1073.43 194.5,1072C 236.547,1049.98 278.214,1027.48 319.5,1004.5 Z"/></g>
<g><path style="opacity:0.986" fill="#47acc5" d="M 1243.5,1330.5 C 1252.47,1329.7 1261.14,1330.87 1269.5,1334C 1282.54,1345.38 1295.88,1356.38 1309.5,1367C 1387.32,1420.06 1471.32,1432.39 1561.5,1404C 1600.51,1390.34 1634.84,1369.34 1664.5,1341C 1683.65,1330.34 1700.81,1332.84 1716,1348.5C 1726.54,1365.34 1725.88,1381.67 1714,1397.5C 1623.16,1479.32 1517.32,1508.82 1396.5,1486C 1328.35,1470.85 1269.85,1438.69 1221,1389.5C 1209.52,1368.61 1213.02,1350.77 1231.5,1336C 1235.48,1333.84 1239.48,1332 1243.5,1330.5 Z"/></g>
<g><path style="opacity:0.986" fill="#47acc5" d="M 1115.5,1464.5 C 1124.28,1463.65 1132.62,1465.15 1140.5,1469C 1263.31,1584.92 1407.98,1626.59 1574.5,1594C 1657.92,1574.3 1730.59,1535.3 1792.5,1477C 1811.51,1467.33 1828.35,1470.16 1843,1485.5C 1854.75,1505.06 1852.58,1522.89 1836.5,1539C 1709.18,1651.27 1560.85,1696.61 1391.5,1675C 1275.86,1656.93 1176.36,1607.43 1093,1526.5C 1079.76,1505.8 1082.26,1487.3 1100.5,1471C 1105.14,1467.74 1110.14,1465.57 1115.5,1464.5 Z"/></g>
<g><path style="opacity:0.986" fill="#47acc5" d="M 987.5,1596.5 C 1001.56,1595.02 1013.56,1599.18 1023.5,1609C 1148.66,1726.98 1297.82,1787.15 1471,1789.5C 1642.18,1786.94 1790.34,1728.11 1915.5,1613C 1935.61,1601.38 1953.44,1604.21 1969,1621.5C 1978.2,1637.33 1977.53,1652.66 1967,1667.5C 1844.49,1781.48 1699.32,1846.31 1531.5,1862C 1325.81,1875.99 1145.48,1815.99 990.5,1682C 981.363,1673.86 972.53,1665.36 964,1656.5C 955.05,1640.98 955.383,1625.64 965,1610.5C 971.08,1603.39 978.58,1598.72 987.5,1596.5 Z"/></g>
<g><path style="opacity:0.986" fill="#47acc5" d="M 860.5,1728.5 C 872.026,1727.23 882.36,1730.07 891.5,1737C 1019.24,1860.57 1171.57,1936.24 1348.5,1964C 1566.02,1993.45 1765.36,1946.78 1946.5,1824C 1979.15,1800.82 2010.15,1775.49 2039.5,1748C 2055.17,1738 2070.83,1738 2086.5,1748C 2101.73,1762.33 2104.56,1778.83 2095,1797.5C 2090.53,1802.97 2085.7,1808.13 2080.5,1813C 1893.23,1978.55 1673.9,2056.55 1422.5,2047C 1195.71,2032.31 1000.88,1946.81 838,1790.5C 826.078,1772.73 826.911,1755.56 840.5,1739C 846.276,1733.61 852.943,1730.11 860.5,1728.5 Z"/></g>
</svg>
