<?xml version="1.0" encoding="UTF-8"?>
<!DOCTYPE svg PUBLIC "-//W3C//DTD SVG 1.1//EN" "http://www.w3.org/Graphics/SVG/1.1/DTD/svg11.dtd">
<svg xmlns="http://www.w3.org/2000/svg" version="1.1" width="2250px" height="2250px" style="shape-rendering:geometricPrecision; text-rendering:geometricPrecision; image-rendering:optimizeQuality; fill-rule:evenodd; clip-rule:evenodd" xmlns:xlink="http://www.w3.org/1999/xlink">
<g><path style="opacity:0.993" fill="#533b8f" d="M 474.5,674.5 C 534.499,670.618 592.499,679.452 648.5,701C 747.946,745.338 795.446,822.172 791,931.5C 785.591,991.845 759.757,1041.34 713.5,1080C 705.167,1086.33 696.833,1092.67 688.5,1099C 664.664,1113.75 640.998,1128.75 617.5,1144C 600.333,1155.83 585.833,1170.33 574,1187.5C 564.091,1205.21 558.925,1224.21 558.5,1244.5C 559.475,1254.45 559.808,1264.45 559.5,1274.5C 505.5,1274.5 451.5,1274.5 397.5,1274.5C 395.303,1246.5 395.136,1218.5 397,1190.5C 403.217,1146.23 423.384,1109.73 457.5,1081C 464.32,1075.42 471.32,1070.09 478.5,1065C 503.343,1050.08 527.677,1034.41 551.5,1018C 566.667,1006.83 579.833,993.667 591,978.5C 609.341,946.087 612.008,912.42 599,877.5C 584.944,851.12 563.444,833.953 534.5,826C 500.796,817.077 467.796,819.077 435.5,832C 401.601,849.259 381.434,876.759 375,914.5C 373.858,922.125 373.358,929.792 373.5,937.5C 318.5,937.5 263.5,937.5 208.5,937.5C 207.055,876.221 224.555,821.221 261,772.5C 301.664,725.275 352.831,695.442 414.5,683C 434.486,679.004 454.486,676.171 474.5,674.5 Z"/></g>
<g><path style="opacity:0.993" fill="#533b8f" d="M 1100.5,674.5 C 1159.74,670.57 1217.07,679.07 1272.5,700C 1378.44,747.026 1426.27,828.526 1416,944.5C 1407.47,999.98 1381.64,1045.48 1338.5,1081C 1330.17,1087.33 1321.83,1093.67 1313.5,1100C 1289.33,1114.25 1265.66,1129.25 1242.5,1145C 1230.38,1154.12 1219.22,1164.28 1209,1175.5C 1195.28,1192.32 1187.61,1211.66 1186,1233.5C 1185.5,1247.16 1185.33,1260.83 1185.5,1274.5C 1131.5,1274.5 1077.5,1274.5 1023.5,1274.5C 1022.88,1257.17 1022.21,1239.83 1021.5,1222.5C 1019.95,1163.91 1041.62,1116.07 1086.5,1079C 1094.89,1072.28 1103.55,1065.95 1112.5,1060C 1140.04,1044.07 1166.37,1026.4 1191.5,1007C 1227.93,976.155 1240.76,937.322 1230,890.5C 1222.84,867.016 1208.67,849.183 1187.5,837C 1158.84,822.168 1128.51,817.168 1096.5,822C 1041.96,831.207 1010.13,863.04 1001,917.5C 1000.5,924.158 1000.33,930.825 1000.5,937.5C 945.167,937.5 889.833,937.5 834.5,937.5C 837.555,804.298 903.221,720.132 1031.5,685C 1054.41,679.932 1077.41,676.432 1100.5,674.5 Z"/></g>
<g><path style="opacity:0.994" fill="#533b8f" d="M 1727.5,674.5 C 1788.3,670.494 1846.97,679.661 1903.5,702C 1994.4,742.75 2041.4,813.084 2044.5,913C 2044.03,979.606 2018.69,1034.61 1968.5,1078C 1958.78,1086.05 1948.78,1093.72 1938.5,1101C 1914.33,1115.25 1890.66,1130.25 1867.5,1146C 1850.58,1158.25 1836.41,1173.08 1825,1190.5C 1817,1205.49 1812.67,1221.49 1812,1238.5C 1811.5,1250.5 1811.33,1262.5 1811.5,1274.5C 1757.83,1274.83 1704.16,1274.5 1650.5,1273.5C 1647.86,1248.22 1647.36,1222.89 1649,1197.5C 1653.71,1149.57 1674.54,1110.41 1711.5,1080C 1734.08,1062.76 1757.75,1047.1 1782.5,1033C 1800.89,1021.54 1817.72,1008.04 1833,992.5C 1858,962.191 1865.66,927.858 1856,889.5C 1844.45,856.292 1821.62,835.125 1787.5,826C 1754.61,817.355 1722.27,819.021 1690.5,831C 1653.05,849.137 1631.89,878.97 1627,920.5C 1626.5,926.157 1626.33,931.824 1626.5,937.5C 1571.5,937.5 1516.5,937.5 1461.5,937.5C 1459.43,862.183 1485.1,798.35 1538.5,746C 1582.03,709.018 1632.37,686.684 1689.5,679C 1702.29,677.29 1714.96,675.79 1727.5,674.5 Z"/></g>
<g><path style="opacity:0.99" fill="#533b8f" d="M 470.5,1386.5 C 496.128,1384.51 520.128,1389.68 542.5,1402C 566.013,1418.17 578.846,1440.67 581,1469.5C 584.187,1496.42 577.853,1520.76 562,1542.5C 544.706,1561.43 523.206,1571.93 497.5,1574C 465.926,1578.27 437.259,1571.27 411.5,1553C 390.385,1533.34 380.385,1509.01 381.5,1480C 382.197,1430.64 406.531,1400.31 454.5,1389C 460.005,1388.34 465.338,1387.51 470.5,1386.5 Z"/></g>
<g><path style="opacity:0.99" fill="#533b8f" d="M 1097.5,1386.5 C 1127.47,1383.91 1154.47,1391.41 1178.5,1409C 1198.92,1429.06 1208.92,1453.56 1208.5,1482.5C 1206.32,1532.84 1180.65,1563.01 1131.5,1573C 1102.78,1577.95 1075.45,1573.95 1049.5,1561C 1028.62,1548.12 1015.46,1529.62 1010,1505.5C 1003.52,1476.15 1008.19,1448.82 1024,1423.5C 1043.05,1400.39 1067.55,1388.06 1097.5,1386.5 Z"/></g>
<g><path style="opacity:0.99" fill="#533b8f" d="M 1723.5,1386.5 C 1750.45,1384.32 1775.45,1390.16 1798.5,1404C 1823.28,1424.08 1835.28,1450.25 1834.5,1482.5C 1832.06,1536.44 1804.06,1566.94 1750.5,1574C 1725.76,1576.95 1702.09,1573.28 1679.5,1563C 1647.67,1544.21 1632.34,1516.04 1633.5,1478.5C 1637.6,1422.4 1667.6,1391.73 1723.5,1386.5 Z"/></g>
</svg>
