<?xml version="1.0" encoding="UTF-8"?>
<!DOCTYPE svg PUBLIC "-//W3C//DTD SVG 1.1//EN" "http://www.w3.org/Graphics/SVG/1.1/DTD/svg11.dtd">
<svg xmlns="http://www.w3.org/2000/svg" version="1.1" width="2250px" height="2250px" style="shape-rendering:geometricPrecision; text-rendering:geometricPrecision; image-rendering:optimizeQuality; fill-rule:evenodd; clip-rule:evenodd" xmlns:xlink="http://www.w3.org/1999/xlink">
<g><path style="opacity:0.995" fill="#213781" d="M 996.5,121.5 C 1026.92,128.217 1057.25,135.384 1087.5,143C 1090.39,174.075 1092.89,205.242 1095,236.5C 1121.87,251.029 1146.2,269.029 1168,290.5C 1197.97,282.675 1227.97,275.008 1258,267.5C 1275,294.166 1291.5,321.166 1307.5,348.5C 1289.47,369.875 1270.97,390.875 1252,411.5C 1249.71,414.104 1247.88,416.937 1246.5,420C 1255.17,448.858 1259.67,478.358 1260,508.5C 1284.08,523.126 1308.25,537.626 1332.5,552C 1335.19,553.698 1337.52,555.698 1339.5,558C 1331.93,588.123 1324.59,618.29 1317.5,648.5C 1286.22,650.098 1255.05,652.432 1224,655.5C 1209.96,682.746 1192.12,707.246 1170.5,729C 1178.06,758.409 1185.39,787.909 1192.5,817.5C 1166.16,834.765 1139.32,851.431 1112,867.5C 1088.85,846.931 1065.52,826.597 1042,806.5C 1012.58,815.704 982.414,820.537 951.5,821C 935.698,847.447 919.531,873.614 903,899.5C 872.812,892.078 842.646,884.578 812.5,877C 810.067,846.577 807.9,816.077 806,785.5C 778.514,770.587 753.514,752.254 731,730.5C 701.732,737.984 672.399,745.317 643,752.5C 625.627,726.264 609.127,699.431 593.5,672C 611.406,650.384 629.906,629.217 649,608.5C 650.959,606.223 652.459,603.723 653.5,601C 644.806,571.812 640.306,541.979 640,511.5C 613.834,496.085 587.834,480.418 562,464.5C 568.205,433.677 575.371,403.01 583.5,372.5C 613.472,370.002 643.472,367.835 673.5,366C 674.766,365.691 675.933,365.191 677,364.5C 690.856,338.307 708.189,314.64 729,293.5C 728.993,288.787 728.327,284.12 727,279.5C 720.597,254.389 714.431,229.222 708.5,204C 708.585,202.893 708.919,201.893 709.5,201C 735.434,184.783 761.6,168.95 788,153.5C 789.225,153.862 790.391,154.362 791.5,155C 812.833,174 834.167,193 855.5,212C 857.01,212.85 858.51,213.683 860,214.5C 888.85,205.775 918.35,201.108 948.5,200.5C 964.527,174.149 980.527,147.816 996.5,121.5 Z M 931.5,306.5 C 1001.98,302.674 1060.48,327.008 1107,379.5C 1158.32,446.096 1167.99,518.43 1136,596.5C 1097.4,671.855 1035.57,711.522 950.5,715.5C 872.784,713.079 813.617,679.079 773,613.5C 736.699,545.732 736.366,477.732 772,409.5C 808.675,349.897 861.841,315.563 931.5,306.5 Z"/></g>
<g><path style="opacity:0.993" fill="#213781" d="M 1645.5,1089.5 C 1600.27,1090.04 1555.61,1096.04 1511.5,1107.5C 1510.58,1107.46 1509.92,1107.12 1509.5,1106.5C 1559.05,1079.06 1587.55,1037.06 1595,980.5C 1599,903.634 1566.84,848.134 1498.5,814C 1438.65,790.606 1382.98,797.939 1331.5,836C 1280.81,880.075 1261.97,935.241 1275,1001.5C 1291.64,1060.14 1328.8,1099.3 1386.5,1119C 1409.14,1125.3 1432.14,1127.13 1455.5,1124.5C 1413.34,1142.08 1373.68,1164.08 1336.5,1190.5C 1327.62,1186.06 1318.62,1181.56 1309.5,1177C 1298.52,1169.93 1287.68,1162.77 1277,1155.5C 1254.18,1163.11 1231.51,1171.11 1209,1179.5C 1193.47,1159.6 1178.3,1139.44 1163.5,1119C 1177.88,1099.06 1191.88,1078.89 1205.5,1058.5C 1196.38,1036.35 1190.55,1013.35 1188,989.5C 1165.57,978.701 1143.41,967.535 1121.5,956C 1125.09,931.856 1128.59,907.689 1132,883.5C 1132.5,883 1133,882.5 1133.5,882C 1157.22,878.324 1180.89,874.324 1204.5,870C 1213.82,847.713 1225.98,827.213 1241,808.5C 1233.8,785.232 1225.97,762.066 1217.5,739C 1219.53,736.46 1221.87,734.127 1224.5,732C 1242.28,719.218 1259.78,706.051 1277,692.5C 1297.34,706.848 1317.68,721.181 1338,735.5C 1359.89,725.989 1382.72,720.156 1406.5,718C 1417.99,695.512 1429.33,673.012 1440.5,650.5C 1464.84,654.085 1489.18,657.751 1513.5,661.5C 1518.16,685.773 1522.49,710.107 1526.5,734.5C 1548.71,744.18 1569.21,756.513 1588,771.5C 1611.38,762.708 1634.88,754.541 1658.5,747C 1673.69,766.692 1688.69,786.525 1703.5,806.5C 1688.92,826.658 1674.59,846.991 1660.5,867.5C 1669.63,889.695 1675.8,912.695 1679,936.5C 1700.88,947.439 1722.88,958.106 1745,968.5C 1741.98,993.475 1738.81,1018.48 1735.5,1043.5C 1711.3,1047.27 1687.13,1051.27 1663,1055.5C 1656.91,1066.67 1651.08,1078 1645.5,1089.5 Z"/></g>
<g><path style="opacity:0.997" fill="#213781" d="M 1219.5,1308.5 C 1181.25,1363.71 1154.09,1424.04 1138,1489.5C 1134.43,1507.18 1130.93,1524.85 1127.5,1542.5C 1127.5,1543.17 1127.5,1543.83 1127.5,1544.5C 1126.83,1544.5 1126.5,1544.83 1126.5,1545.5C 1116.12,1579.1 1101.79,1610.93 1083.5,1641C 1103.48,1679.8 1123.81,1718.3 1144.5,1756.5C 1144.33,1757.49 1144.66,1758.16 1145.5,1758.5C 1146.5,1761.17 1147.5,1763.84 1148.5,1766.5C 1114.52,1800.15 1080.52,1833.81 1046.5,1867.5C 1005.17,1845.83 963.833,1824.17 922.5,1802.5C 882.257,1826.86 839.257,1844.7 793.5,1856C 778.328,1900.51 763.995,1945.34 750.5,1990.5C 702.499,1990.67 654.499,1990.5 606.5,1990C 592.407,1945.89 578.407,1901.72 564.5,1857.5C 518.487,1845.08 474.987,1826.74 434,1802.5C 392.537,1824.98 350.704,1846.48 308.5,1867C 275.279,1833.78 242.113,1800.61 209,1767.5C 208.833,1766.83 208.667,1766.17 208.5,1765.5C 229.951,1724.1 251.284,1682.6 272.5,1641C 248.947,1600.68 231.447,1557.85 220,1512.5C 175.569,1497.08 130.736,1482.75 85.5,1469.5C 85.5,1421.17 85.5,1372.83 85.5,1324.5C 130.494,1311 175.328,1297 220,1282.5C 231.899,1237.29 249.733,1194.62 273.5,1154.5C 251.953,1112.57 230.287,1070.74 208.5,1029C 241.373,993.794 275.206,959.628 310,926.5C 351.931,948.883 394.097,970.883 436.5,992.5C 476.261,968.798 518.595,951.131 563.5,939.5C 577.74,894.281 592.073,849.114 606.5,804C 654.499,803.5 702.499,803.333 750.5,803.5C 764.534,849.101 778.867,894.601 793.5,940C 838.388,951.448 880.722,968.948 920.5,992.5C 962.791,970.702 1004.96,948.702 1047,926.5C 1080.67,960.167 1114.33,993.833 1148,1027.5C 1127.52,1069.46 1106.19,1111.12 1084,1152.5C 1083.33,1153.83 1083.33,1155.17 1084,1156.5C 1107.65,1195.48 1124.99,1237.15 1136,1281.5C 1163.61,1290.98 1191.45,1299.98 1219.5,1308.5 Z M 665.5,1085.5 C 774.313,1084.5 862.146,1126.5 929,1211.5C 989.037,1296.38 1005.04,1389.05 977,1489.5C 946.941,1581.23 887.775,1646.73 799.5,1686C 706.675,1722.61 616.009,1717.94 527.5,1672C 435.896,1618.64 382.729,1539.14 368,1433.5C 358.4,1311.23 402.566,1213.73 500.5,1141C 550.385,1107.21 605.385,1088.71 665.5,1085.5 Z"/></g>
<g><path style="opacity:1" fill="#1a3983" d="M 1645.5,1089.5 C 1801.13,1092.94 1930.97,1151.94 2035,1266.5C 2107.05,1349.65 2148.89,1446.32 2160.5,1556.5C 2102.03,1498.53 2043.7,1440.37 1985.5,1382C 1984.91,1381.54 1984.24,1381.37 1983.5,1381.5C 1962.16,1354.07 1934.49,1344.57 1900.5,1353C 1893.28,1355.28 1886.61,1358.61 1880.5,1363C 1770.35,1472.32 1660.35,1581.82 1550.5,1691.5C 1507.25,1648.91 1464.25,1605.91 1421.5,1562.5C 1396.27,1536.29 1366.61,1529.79 1332.5,1543C 1298.56,1562.73 1285.72,1591.9 1294,1630.5C 1297.03,1639.56 1301.36,1647.89 1307,1655.5C 1373.73,1722.4 1440.56,1789.06 1507.5,1855.5C 1592.72,1941.22 1678.22,2026.89 1764,2112.5C 1764.46,2113.09 1764.63,2113.76 1764.5,2114.5C 1614.38,2148.15 1475.38,2122.31 1347.5,2037C 1251.13,1969.15 1184.79,1878.99 1148.5,1766.5C 1147.5,1763.84 1146.5,1761.17 1145.5,1758.5C 1145.67,1757.51 1145.34,1756.84 1144.5,1756.5C 1125.5,1687.13 1119.5,1616.8 1126.5,1545.5C 1126.5,1544.83 1126.83,1544.5 1127.5,1544.5C 1128.83,1543.83 1128.83,1543.17 1127.5,1542.5C 1130.93,1524.85 1134.43,1507.18 1138,1489.5C 1154.09,1424.04 1181.25,1363.71 1219.5,1308.5C 1252.43,1263.23 1291.43,1223.9 1336.5,1190.5C 1373.68,1164.08 1413.34,1142.08 1455.5,1124.5C 1473.46,1118.29 1491.46,1112.29 1509.5,1106.5C 1509.92,1107.12 1510.58,1107.46 1511.5,1107.5C 1555.61,1096.04 1600.27,1090.04 1645.5,1089.5 Z"/></g>
<g><path style="opacity:1" fill="#fefefe" d="M 1983.5,1381.5 C 1997.44,1402.33 2000.27,1424.66 1992,1448.5C 1989.36,1455.78 1985.7,1462.44 1981,1468.5C 1854.86,1595.64 1728.36,1722.47 1601.5,1849C 1579.1,1867.85 1553.77,1873.18 1525.5,1865C 1519.31,1862.08 1513.31,1858.91 1507.5,1855.5C 1440.56,1789.06 1373.73,1722.4 1307,1655.5C 1301.36,1647.89 1297.03,1639.56 1294,1630.5C 1285.72,1591.9 1298.56,1562.73 1332.5,1543C 1366.61,1529.79 1396.27,1536.29 1421.5,1562.5C 1464.25,1605.91 1507.25,1648.91 1550.5,1691.5C 1660.35,1581.82 1770.35,1472.32 1880.5,1363C 1886.61,1358.61 1893.28,1355.28 1900.5,1353C 1934.49,1344.57 1962.16,1354.07 1983.5,1381.5 Z"/></g>
<g><path style="opacity:1" fill="#024895" d="M 1983.5,1381.5 C 1984.24,1381.37 1984.91,1381.54 1985.5,1382C 2043.7,1440.37 2102.03,1498.53 2160.5,1556.5C 2173.95,1706.97 2131.78,1839.3 2034,1953.5C 1961.37,2035.42 1871.54,2089.09 1764.5,2114.5C 1764.63,2113.76 1764.46,2113.09 1764,2112.5C 1678.22,2026.89 1592.72,1941.22 1507.5,1855.5C 1513.31,1858.91 1519.31,1862.08 1525.5,1865C 1553.77,1873.18 1579.1,1867.85 1601.5,1849C 1728.36,1722.47 1854.86,1595.64 1981,1468.5C 1985.7,1462.44 1989.36,1455.78 1992,1448.5C 2000.27,1424.66 1997.44,1402.33 1983.5,1381.5 Z"/></g>
</svg>
