<?xml version="1.0" encoding="UTF-8"?>
<!DOCTYPE svg PUBLIC "-//W3C//DTD SVG 1.1//EN" "http://www.w3.org/Graphics/SVG/1.1/DTD/svg11.dtd">
<svg xmlns="http://www.w3.org/2000/svg" version="1.1" width="2250px" height="2250px" style="shape-rendering:geometricPrecision; text-rendering:geometricPrecision; image-rendering:optimizeQuality; fill-rule:evenodd; clip-rule:evenodd" xmlns:xlink="http://www.w3.org/1999/xlink">
<g><path style="opacity:0.995" fill="#88347c" d="M 1315.5,139.5 C 1547.73,136.421 1744.56,217.421 1906,382.5C 2054.58,543.836 2125.25,734.836 2118,955.5C 2103.24,1174.84 2014.41,1357.34 1851.5,1503C 1693.35,1637.06 1510.02,1700.39 1301.5,1693C 1088.65,1678.81 910.154,1593.98 766,1438.5C 619.486,1271.97 553.153,1077.31 567,854.5C 586.925,646.148 674.092,472.315 828.5,333C 968.065,212.597 1130.4,148.097 1315.5,139.5 Z M 1310.5,327.5 C 1512.97,322.677 1678.14,398.01 1806,553.5C 1908.16,688.777 1947.49,840.777 1924,1009.5C 1896.64,1163.69 1821.81,1288.85 1699.5,1385C 1567.06,1483.2 1418.73,1521.53 1254.5,1500C 1093.1,1473.09 963.596,1394.59 866,1264.5C 764.182,1119.42 731.182,959.755 767,785.5C 801.197,645.183 875.364,531.35 989.5,444C 1084.99,374 1191.99,335.166 1310.5,327.5 Z"/></g>
<g><path style="opacity:0.969" fill="#88347c" d="M 1262.5,703.5 C 1274.61,702.108 1281.78,707.441 1284,719.5C 1315,831.167 1346,942.833 1377,1054.5C 1409.33,939.833 1441.67,825.167 1474,710.5C 1481.25,702.726 1489.42,701.559 1498.5,707C 1499.21,708.255 1500.04,709.421 1501,710.5C 1536.5,790.833 1572,871.167 1607.5,951.5C 1655.83,952.333 1704.16,952.833 1752.5,953C 1760.73,955.226 1765.39,960.56 1766.5,969C 1765.81,976.683 1761.81,981.683 1754.5,984C 1701.17,984.667 1647.83,984.667 1594.5,984C 1589.26,983.1 1585.43,980.266 1583,975.5C 1552.61,905.716 1521.94,836.049 1491,766.5C 1458,884.5 1425,1002.5 1392,1120.5C 1386.46,1129.85 1378.62,1132.35 1368.5,1128C 1364.34,1124.85 1361.84,1120.68 1361,1115.5C 1330.05,1003.33 1298.72,891.33 1267,779.5C 1235.28,894.368 1202.95,1009.03 1170,1123.5C 1159.59,1133.32 1150.25,1132.32 1142,1120.5C 1116.55,1075.09 1090.71,1029.92 1064.5,985C 1019.5,984.667 974.5,984.333 929.5,984C 919.717,979.934 916.217,972.767 919,962.5C 921.565,957.293 925.732,954.126 931.5,953C 980.879,952.019 1030.21,952.352 1079.5,954C 1082.56,955.061 1085.06,956.894 1087,959.5C 1108.67,997.5 1130.33,1035.5 1152,1073.5C 1185,955.167 1218,836.833 1251,718.5C 1252.47,711.504 1256.3,706.504 1262.5,703.5 Z"/></g>
<g><path style="opacity:0.996" fill="#88347c" d="M 587.5,1284.5 C 588.376,1284.37 589.043,1284.7 589.5,1285.5C 671.326,1448.66 792.66,1573.33 953.5,1659.5C 920.68,1692.82 887.68,1725.99 854.5,1759C 841.518,1767.66 828.518,1767.66 815.5,1759C 804,1747.5 792.5,1736 781,1724.5C 668.806,1836.36 556.973,1948.53 445.5,2061C 397.119,2104.52 340.786,2120.18 276.5,2108C 227.231,2096.13 188.397,2069.29 160,2027.5C 126.336,1971.19 121.669,1912.52 146,1851.5C 153.69,1834.83 163.357,1819.5 175,1805.5C 289.5,1691 404,1576.5 518.5,1462C 505.269,1449.44 492.769,1436.27 481,1422.5C 475.53,1410.06 476.864,1398.39 485,1387.5C 519.368,1353.3 553.535,1318.97 587.5,1284.5 Z"/></g>
</svg>
