<?xml version="1.0" standalone="no"?>
<!DOCTYPE svg PUBLIC "-//W3C//DTD SVG 20010904//EN"
 "http://www.w3.org/TR/2001/REC-SVG-20010904/DTD/svg10.dtd">
<svg version="1.0" xmlns="http://www.w3.org/2000/svg"
 width="2250.000000pt" height="2250.000000pt" viewBox="0 0 2250.000000 2250.000000"
 preserveAspectRatio="xMidYMid meet">

<g transform="translate(0.000000,2250.000000) scale(0.100000,-0.100000)"
fill="#000000" stroke="none">
<path d="M14153 19677 l-1473 -891 0 -1283 c0 -1273 0 -1283 -20 -1283 -11 0
-115 -7 -232 -15 -117 -8 -292 -20 -388 -25 -96 -6 -193 -12 -215 -15 -22 -2
-107 -9 -190 -15 -82 -6 -179 -15 -215 -20 -36 -5 -119 -14 -185 -20 -66 -6
-149 -15 -185 -20 -75 -11 -161 -22 -385 -50 -275 -34 -405 -51 -555 -71 -80
-10 -215 -28 -300 -39 -85 -12 -173 -25 -195 -30 -31 -7 -62 -3 -150 20 -60
15 -146 34 -190 40 -96 15 -392 15 -473 1 -31 -6 -100 -18 -152 -26 -134 -21
-166 -32 -206 -67 -31 -28 -134 -168 -134 -183 0 -12 -46 -75 -58 -80 -8 -3
-28 1 -45 9 -146 65 -346 106 -527 106 -116 0 -199 -11 -410 -57 -225 -48
-336 -70 -420 -83 -278 -41 -395 -113 -487 -302 -56 -113 -62 -131 -69 -193
-4 -30 -14 -61 -23 -69 -9 -8 -61 -22 -116 -31 -55 -9 -140 -25 -190 -35 -49
-11 -148 -26 -220 -34 -215 -25 -299 -60 -407 -167 -38 -38 -87 -102 -114
-149 -39 -66 -56 -86 -86 -100 -38 -17 -38 -17 -18 -35 11 -10 20 -24 20 -32
0 -7 18 -20 40 -29 22 -9 37 -20 34 -25 -8 -13 -62 -11 -70 2 -3 6 -25 19 -48
29 -34 15 -70 18 -204 19 -139 0 -179 -4 -270 -25 -59 -13 -168 -33 -242 -45
-158 -23 -175 -28 -140 -39 14 -4 49 -16 79 -25 53 -16 111 -40 180 -74 18 -9
58 -37 88 -63 52 -46 83 -57 111 -39 16 9 89 -13 114 -35 11 -10 18 -12 23 -5
3 6 21 11 38 11 38 0 50 7 66 38 13 24 40 30 42 10 1 -7 2 -20 3 -28 0 -9 10
-14 23 -13 18 2 21 -2 20 -24 -3 -34 13 -39 43 -13 26 22 40 26 40 9 0 -6 -9
-13 -20 -16 -31 -8 -40 -73 -10 -73 10 0 67 55 100 98 14 17 30 32 36 32 7 0
14 9 17 21 3 12 11 19 18 17 22 -7 21 -26 0 -33 -12 -3 -21 -10 -21 -15 0 -11
-48 -60 -58 -60 -12 0 -72 -82 -72 -97 0 -8 7 -16 15 -19 8 -4 15 -17 15 -31
0 -17 7 -27 20 -30 17 -5 19 -11 14 -39 -5 -30 -4 -34 15 -34 18 0 20 -4 14
-31 -5 -25 -2 -31 16 -36 24 -6 26 -14 10 -30 -16 -16 -4 -41 22 -45 29 -4 35
-24 9 -31 -12 -3 -20 -13 -20 -26 0 -17 6 -21 29 -21 39 0 47 -14 16 -28 -14
-7 -25 -20 -25 -31 0 -30 -25 -43 -81 -43 -48 1 -52 -1 -62 -29 -11 -29 -33
-42 -72 -43 -27 -1 -37 -72 -28 -206 4 -58 6 -211 5 -340 -3 -243 -11 -299
-59 -430 -45 -120 -156 -257 -256 -313 l-32 -19 30 7 c17 3 59 20 95 36 36 17
78 32 94 35 15 2 33 8 40 13 6 5 42 19 80 31 55 18 70 20 76 9 5 -7 6 -17 4
-21 -9 -14 38 -9 108 11 131 38 282 138 327 218 8 15 10 15 26 -1 17 -17 19
-16 40 9 19 25 22 26 37 11 23 -23 43 -20 58 9 15 29 32 33 28 8 -2 -12 4 -19
20 -21 12 -2 22 -7 22 -12 0 -15 -111 -110 -136 -116 -29 -7 -31 -20 -5 -29
11 -3 22 -14 26 -23 8 -27 113 -98 195 -133 88 -37 184 -59 260 -59 76 0 246
45 294 78 40 28 51 35 106 67 18 11 41 27 50 36 24 22 155 32 171 12 7 -7 20
-11 30 -8 26 9 74 -29 56 -43 -14 -12 -122 -44 -222 -67 -76 -17 -150 -42
-177 -60 -15 -10 -11 -19 40 -88 32 -42 63 -74 70 -72 6 2 12 0 12 -6 0 -13
59 -91 78 -102 7 -5 35 -27 61 -50 81 -71 104 -87 138 -93 26 -5 38 -15 53
-43 10 -21 34 -49 52 -63 18 -14 58 -48 88 -76 59 -56 70 -61 70 -36 0 14 3
14 15 4 10 -8 12 -16 6 -19 -6 -4 -6 -12 -2 -20 7 -11 10 -11 17 2 8 13 15 12
50 -13 35 -23 64 -38 94 -45 8 -2 92 -44 120 -59 61 -34 149 -76 160 -76 6 0
26 -11 43 -24 18 -13 48 -27 67 -31 19 -4 67 -22 105 -40 129 -61 187 -85 206
-85 11 0 50 -15 87 -34 37 -18 80 -36 95 -40 35 -8 107 -55 107 -69 0 -6 8
-19 17 -29 13 -14 15 -23 7 -36 -13 -20 -7 -42 9 -42 15 0 97 -78 97 -92 0 -5
9 -21 20 -35 11 -14 20 -34 20 -44 0 -11 7 -19 15 -19 8 0 24 -6 35 -12 17
-11 22 -10 30 2 8 12 13 11 39 -8 26 -19 43 -22 118 -22 48 -1 106 -4 128 -8
40 -8 269 9 315 24 14 4 28 12 32 18 5 8 8 7 8 -1 0 -19 17 -16 40 7 17 17 23
18 40 8 15 -9 23 -10 28 -2 4 6 15 13 25 17 20 7 22 23 5 33 -7 4 -18 -2 -26
-14 -18 -27 -32 -28 -32 -2 0 13 -7 20 -20 20 -11 0 -20 5 -20 10 0 14 23 13
38 -2 10 -10 17 -10 32 0 28 17 51 15 44 -3 -4 -10 0 -15 11 -15 11 0 15 5 11
15 -3 10 1 15 13 15 10 0 24 6 30 14 7 8 21 12 31 9 11 -3 26 0 34 6 10 9 16
9 21 1 4 -6 5 -12 4 -14 -2 -1 -39 -30 -82 -64 -44 -35 -94 -69 -113 -77 -19
-8 -34 -19 -34 -26 0 -18 168 -4 255 20 91 26 160 49 210 69 46 20 43 19 120
22 33 1 54 4 47 7 -28 11 2 22 48 16 34 -4 50 -2 50 6 0 7 19 11 48 11 42 0
218 33 395 74 34 8 89 19 122 26 33 7 106 23 162 36 57 13 120 24 141 24 22 0
81 9 133 21 52 11 130 24 174 30 71 9 82 8 105 -9 32 -24 39 -62 12 -62 -27 0
-44 -24 -41 -57 1 -15 -1 -35 -5 -44 -4 -8 -2 -26 3 -40 5 -13 10 -18 10 -11
1 17 21 15 21 -3 0 -23 49 -65 75 -65 13 0 39 -9 57 -19 37 -21 105 -38 189
-46 96 -10 88 28 94 -465 7 -517 7 -526 45 -578 36 -51 168 -145 295 -212 55
-29 109 -59 120 -66 11 -7 50 -20 86 -30 64 -17 69 -17 113 0 105 40 106 46
91 386 -8 171 6 422 27 492 12 41 41 53 88 36 33 -11 43 -46 33 -113 -3 -27
-2 -45 4 -45 5 0 10 -6 10 -12 2 -25 21 -93 22 -75 1 9 5 17 10 17 16 0 23
-38 20 -104 -3 -42 1 -69 10 -79 10 -12 11 -24 3 -45 -6 -18 -6 -35 0 -45 9
-18 6 -92 -5 -103 -3 -3 -2 -17 4 -31 21 -57 1 -123 -39 -123 -7 0 -13 -7 -13
-15 -1 -8 -2 -21 -3 -27 0 -7 -14 -19 -31 -27 -16 -8 -36 -23 -43 -33 -7 -10
-21 -18 -31 -18 -10 0 -49 -16 -87 -36 -74 -39 -136 -47 -223 -30 l-44 8 7
-77 c32 -352 51 -530 76 -705 37 -255 40 -273 56 -405 23 -186 11 -260 -66
-420 -32 -66 -74 -147 -93 -180 -19 -33 -44 -78 -57 -100 -44 -78 -108 -211
-131 -275 -19 -53 -24 -84 -23 -170 0 -96 3 -111 31 -172 44 -95 99 -150 200
-198 108 -53 206 -72 353 -69 144 2 140 3 140 -20 0 -18 -54 -70 -251 -244
-148 -130 -230 -238 -324 -424 -67 -134 -107 -256 -130 -397 -15 -94 -16 -118
-5 -180 17 -95 42 -146 100 -200 60 -56 109 -77 180 -78 122 -2 239 69 468
283 176 165 298 271 332 289 29 15 56 4 69 -29 7 -16 30 -37 54 -50 23 -12 53
-29 67 -37 17 -10 44 -14 81 -11 46 2 67 11 127 51 93 62 112 89 112 159 0 31
-5 59 -11 63 -7 4 -9 23 -4 53 3 25 6 56 5 69 -2 39 -1 104 3 217 4 95 2 113
-14 134 -16 20 -18 34 -12 97 4 51 2 78 -6 88 -8 10 -10 37 -5 88 5 60 3 81
-10 107 -14 26 -15 39 -7 63 19 55 14 112 -13 137 -14 13 -26 18 -30 13 -16
-27 -226 -75 -226 -53 0 6 4 11 9 11 6 0 38 17 73 37 35 21 72 43 83 49 52 31
183 94 194 94 7 0 10 4 7 8 -3 5 10 19 27 33 49 37 134 126 150 157 7 15 26
48 41 75 25 44 80 180 111 272 49 147 165 577 201 745 45 209 52 239 58 249 4
6 7 45 8 88 0 58 5 84 19 103 12 16 27 78 43 180 32 199 66 424 86 570 5 36
13 101 20 145 31 229 86 751 101 970 15 229 -5 792 -40 1105 -6 46 -9 86 -7
88 2 2 93 -91 202 -207 l198 -210 70 4 c39 3 571 12 1181 21 611 8 1147 19
1192 22 l81 7 866 965 866 965 0 145 c0 410 -72 5316 -78 5322 -13 13 -3253
1968 -3260 1967 -4 0 -670 -401 -1479 -892z m1809 -1758 c546 -177 995 -323
996 -324 4 -4 -237 -4828 -241 -4832 -6 -5 -1023 247 -1045 259 -13 7 -175
252 -372 562 l-350 549 0 2054 c0 1305 3 2053 10 2053 5 0 456 -144 1002 -321z
m-6756 -2187 c5 -5 27 -14 50 -20 33 -10 48 -23 80 -69 21 -32 41 -62 43 -67
4 -9 84 -120 120 -168 26 -33 26 -44 1 -51 -11 -3 -20 -13 -20 -22 0 -21 53
-75 74 -75 20 0 21 -34 1 -50 -22 -18 -18 -32 5 -20 11 6 20 19 20 29 0 24 27
18 85 -16 22 -13 48 -26 58 -30 9 -3 17 -11 17 -18 0 -7 22 -17 50 -22 l50
-10 0 27 c0 21 -7 31 -27 39 -16 6 -41 20 -58 31 -16 11 -40 24 -52 29 -20 9
-40 31 -28 31 12 0 160 -74 163 -82 2 -4 13 -8 25 -8 12 0 30 -6 39 -14 18
-14 118 -216 118 -240 0 -15 -21 -26 -49 -26 -10 0 -26 -8 -35 -19 -17 -19
-76 -38 -206 -65 -168 -35 -319 -65 -380 -76 -36 -6 -84 -16 -107 -22 -38 -9
-81 -12 -164 -9 -20 1 -30 9 -40 33 -29 75 -94 206 -124 253 -18 28 -76 95
-129 150 -54 55 -105 111 -114 123 -19 29 -9 37 57 47 25 3 114 20 196 37 215
44 296 58 333 58 22 0 32 5 32 15 0 10 -10 15 -31 15 -19 0 -28 4 -24 11 4 6
13 8 21 5 21 -8 17 28 -6 49 -16 15 -33 17 -122 12 -57 -3 -139 -12 -183 -20
-44 -9 -104 -18 -134 -21 -55 -6 -149 -44 -169 -68 -22 -27 -25 -65 -5 -77 25
-14 -2 -14 -30 1 -12 6 -47 33 -77 60 l-55 49 0 62 c0 58 -1 62 -25 65 l-24 4
23 13 c16 8 48 11 90 8 48 -3 62 -2 51 6 -12 8 -8 11 18 11 45 0 172 20 197
30 11 5 38 11 60 15 22 3 57 8 78 11 20 4 40 10 43 15 3 5 25 9 50 9 24 0 44
5 44 10 0 6 18 10 39 10 22 0 43 5 46 10 8 12 28 13 41 2z m359 -33 c4 -6 5
-12 2 -15 -7 -7 -37 7 -37 17 0 13 27 11 35 -2z m88 -56 c-5 -14 -1 -15 26
-10 19 4 30 3 26 -3 -3 -5 12 -18 34 -30 22 -11 44 -26 48 -34 4 -7 22 -20 38
-29 17 -8 41 -27 54 -41 14 -14 30 -26 37 -26 7 0 19 -12 26 -27 8 -17 26 -32
45 -38 18 -6 44 -21 58 -35 23 -22 25 -22 25 -4 0 23 18 44 37 44 8 0 13 -12
13 -29 0 -27 3 -30 33 -29 18 0 42 10 55 21 37 34 106 29 172 -13 71 -45 106
-65 155 -88 38 -18 135 -114 135 -134 0 -5 -16 -6 -35 -2 -33 6 -35 5 -36 -22
-1 -16 -1 -44 0 -61 3 -41 -21 -45 -45 -9 -22 34 -41 23 -49 -30 -7 -48 -15
-53 -45 -27 -24 21 -26 33 -5 33 8 0 15 7 15 15 0 16 -32 14 -75 -6 -11 -5
-32 -13 -47 -19 -16 -5 -28 -17 -28 -27 0 -10 -9 -32 -20 -50 -17 -29 -18 -33
-3 -41 18 -11 10 -17 -33 -26 -27 -6 -32 -4 -39 16 -4 13 -6 35 -5 51 1 15 -4
27 -10 27 -6 0 -9 4 -6 8 3 5 -5 19 -17 33 -12 13 -39 59 -61 102 -34 70 -58
98 -210 251 -94 94 -186 182 -203 195 -18 13 -52 41 -75 63 -33 30 -38 38 -20
33 12 -4 22 -3 21 2 -3 17 1 24 11 18 5 -3 6 -13 3 -22z m-1293 -83 c0 -5 -7
-10 -15 -10 -8 0 -15 5 -15 10 0 6 7 10 15 10 8 0 15 -4 15 -10z m4320 -269
l0 -190 -57 -11 c-32 -7 -87 -20 -123 -30 -36 -10 -85 -21 -110 -24 -54 -8
-239 -47 -405 -87 -66 -15 -172 -40 -235 -54 -63 -14 -171 -39 -240 -54 -270
-62 -323 -66 -345 -31 -4 6 -42 28 -85 49 -51 25 -112 67 -175 122 -118 102
-177 151 -201 165 -38 22 -9 40 92 54 55 8 103 13 108 12 5 -2 30 2 55 7 25 6
96 18 156 26 61 9 135 20 165 25 30 5 82 12 115 16 32 3 63 8 68 11 5 3 25 6
45 8 20 1 69 7 107 13 170 27 287 42 326 42 44 0 114 11 229 35 36 8 106 19
155 25 168 20 314 45 323 55 3 3 11 5 19 5 10 0 13 -38 13 -189z m-4975 -78
c6 -8 30 -17 54 -20 35 -5 47 -2 57 11 8 11 14 13 19 6 3 -5 10 -8 15 -5 5 3
18 0 29 -7 16 -10 27 -10 53 0 18 7 36 8 42 3 9 -7 60 -17 164 -32 18 -3 32 2
47 17 13 14 21 15 41 5 37 -17 111 -14 118 4 6 18 47 19 96 4 53 -17 111 -11
127 12 10 13 26 19 52 19 39 0 63 -20 221 -190 73 -78 87 -105 130 -235 60
-186 62 -203 28 -235 -26 -24 -61 -26 -82 -4 -15 14 -17 14 -32 0 -8 -9 -19
-16 -24 -16 -5 0 -15 -12 -22 -27 -10 -21 -21 -29 -48 -31 -19 -2 -45 -13 -58
-25 -32 -30 -91 -48 -114 -36 -28 15 -51 3 -88 -46 -37 -49 -45 -53 -71 -29
-14 13 -26 14 -75 5 -32 -6 -61 -16 -65 -22 -9 -14 -35 0 -70 38 -25 26 -99
147 -99 160 0 14 -127 233 -178 308 -82 120 -134 183 -252 308 -88 93 -90 95
-90 101 0 8 65 -27 75 -41z m-1338 -179 c-3 -3 -12 -4 -19 -1 -8 3 -5 6 6 6
11 1 17 -2 13 -5z m753 -186 c26 16 45 15 60 -3 8 -9 21 -13 32 -9 26 8 78 -5
78 -20 0 -7 11 -18 25 -24 23 -11 24 -10 13 13 -32 70 39 63 109 -12 117 -124
230 -300 262 -408 7 -22 17 -49 23 -61 13 -28 6 -79 -11 -79 -12 0 -29 26 -66
102 -8 18 -20 36 -27 40 -15 9 -33 37 -48 71 -5 13 -14 20 -20 17 -16 -10 -12
-24 16 -60 24 -32 25 -37 15 -87 -10 -49 -6 -93 13 -139 5 -11 -9 -29 -43 -59
-47 -42 -50 -46 -36 -66 14 -21 13 -22 -18 -21 -20 0 -45 -9 -65 -23 -36 -26
-44 -61 -13 -53 10 3 22 0 26 -6 9 -15 -24 -26 -38 -12 -6 6 -23 11 -37 11
-15 0 -35 9 -45 20 -10 11 -23 20 -29 20 -6 0 -28 -9 -49 -20 -28 -15 -56 -20
-121 -20 -71 0 -87 -3 -112 -22 -16 -13 -38 -21 -52 -19 -25 3 -66 -14 -90
-36 -7 -7 -17 -13 -22 -13 -4 0 -7 -8 -6 -17 1 -14 -6 -18 -28 -16 -17 1 -36
-2 -42 -8 -7 -6 -18 -8 -25 -4 -8 6 -8 10 2 16 25 15 0 22 -31 9 -26 -11 -30
-17 -26 -37 7 -27 -1 -29 -30 -9 -20 14 -66 113 -94 201 -31 99 -163 348 -238
450 -16 22 -35 51 -42 65 -12 24 -43 61 -136 164 -24 26 -44 52 -44 57 0 17
45 4 64 -19 14 -18 24 -22 45 -17 42 12 200 6 221 -8 25 -15 55 1 55 29 0 15
10 20 45 25 25 4 69 11 99 17 39 7 65 6 96 -4 48 -14 80 -7 149 34 39 23 65
22 86 -3 7 -8 24 -15 39 -14 25 1 25 1 3 7 -13 4 -23 10 -23 15 1 4 1 11 1 17
0 5 12 16 26 23 21 11 34 12 56 3 21 -8 33 -7 48 2z m-1064 -52 c7 -8 19 -16
26 -19 7 -2 10 -8 6 -12 -4 -4 -21 4 -38 19 -17 14 -26 26 -20 26 6 0 18 -6
26 -14z m4222 -77 c73 -88 66 -94 -158 -128 -74 -12 -151 -25 -170 -30 -45
-12 -247 -56 -325 -71 -33 -6 -96 -20 -140 -30 -44 -10 -100 -21 -125 -24 -25
-4 -84 -16 -131 -28 -108 -26 -119 -23 -112 34 12 103 9 100 108 120 50 10
117 22 150 28 64 11 144 26 185 34 14 3 63 13 110 22 47 8 108 22 135 29 50
15 116 27 210 41 28 4 55 9 60 10 6 2 28 7 50 12 22 5 49 14 60 20 34 20 49
13 93 -39z m-4710 -285 c23 -7 31 -34 10 -34 -15 1 -48 24 -48 34 0 7 8 7 38
0z m166 -23 c3 -5 -1 -14 -9 -21 -13 -10 -15 -9 -15 9 0 21 14 28 24 12z m76
-15 c0 -3 -4 -8 -10 -11 -5 -3 -10 -1 -10 4 0 6 5 11 10 11 6 0 10 -2 10 -4z
m-185 -36 c-5 -23 -3 -30 9 -30 8 0 18 5 21 10 4 6 11 7 17 4 6 -4 6 -10 -1
-17 -6 -6 -11 -15 -11 -19 0 -14 29 -8 47 10 48 47 71 63 77 53 4 -5 -7 -22
-23 -38 -16 -15 -37 -40 -46 -55 -15 -25 -16 -28 -1 -28 16 0 114 81 130 108
7 12 10 12 16 1 10 -14 -27 -59 -48 -59 -8 0 -12 -5 -10 -11 2 -7 -9 -24 -24
-40 -27 -26 -37 -59 -20 -59 5 0 37 27 71 60 35 33 66 60 70 60 23 0 13 -18
-45 -77 -42 -44 -64 -75 -64 -90 l0 -24 35 28 c19 15 35 31 35 35 0 10 72 77
83 78 19 0 2 -30 -47 -80 -60 -63 -80 -95 -72 -117 5 -13 11 -11 31 11 13 14
29 26 35 26 5 0 10 6 10 13 0 7 8 20 18 29 9 9 22 23 29 30 7 7 19 19 28 26
12 11 15 10 15 -4 0 -9 -20 -37 -45 -62 -25 -24 -45 -48 -45 -53 0 -5 -8 -13
-19 -18 -27 -15 -34 -62 -10 -68 14 -4 19 -14 19 -39 0 -23 6 -37 20 -44 17
-9 18 -14 9 -31 -9 -17 -6 -24 16 -41 25 -19 25 -21 9 -40 -17 -18 -17 -19 3
-24 26 -7 39 -34 21 -46 -24 -14 -38 -8 -43 20 -4 15 -10 35 -16 44 -5 10 -9
26 -9 37 0 10 -7 24 -15 31 -8 7 -15 18 -15 25 0 13 -59 130 -96 191 -10 18
-34 58 -53 90 -19 33 -41 63 -48 67 -7 4 -13 14 -13 22 0 8 -9 20 -20 27 -11
7 -20 17 -20 21 0 5 -10 17 -21 26 -18 15 -20 21 -10 39 6 12 19 22 27 22 12
0 14 -7 9 -30z m72 24 c-3 -3 -12 -4 -19 -1 -8 3 -5 6 6 6 11 1 17 -2 13 -5z
m-667 -34 c0 -5 -4 -10 -9 -10 -5 0 -39 -30 -75 -66 -41 -42 -66 -60 -66 -50
0 18 18 37 90 99 45 38 60 45 60 27z m-213 -27 c-9 -9 -20 -13 -24 -9 -4 4 1
14 11 22 25 18 35 8 13 -13z m113 16 c0 -6 -9 -13 -20 -16 -11 -3 -20 -10 -20
-15 0 -13 -43 -47 -52 -41 -10 6 24 52 38 53 6 0 17 7 24 15 15 18 30 20 30 4z
m323 -6 c-7 -2 -19 -2 -25 0 -7 3 -2 5 12 5 14 0 19 -2 13 -5z m-170 -9 c4 -4
-14 -25 -40 -48 -26 -23 -64 -58 -84 -79 -24 -23 -40 -33 -44 -26 -7 10 49 69
108 114 14 11 26 26 27 33 0 13 22 17 33 6z m57 -49 c0 -8 -4 -15 -8 -15 -8 0
-56 -38 -110 -87 -30 -27 -32 -28 -32 -7 0 9 9 18 20 21 11 3 20 9 20 14 0 13
83 89 97 89 7 0 13 -7 13 -15z m48 -42 c2 -7 -3 -13 -12 -13 -9 0 -21 -9 -28
-20 -7 -11 -18 -20 -24 -20 -7 0 -14 -7 -18 -15 -5 -14 -36 -22 -36 -10 0 3
19 26 43 50 41 44 66 53 75 28z m468 -58 c99 -129 220 -397 241 -534 5 -33 5
-33 -26 -26 -23 5 -33 3 -37 -9 -6 -15 -58 -38 -68 -29 -5 5 32 63 48 75 11 7
-22 67 -46 82 -30 18 -33 -3 -5 -32 26 -27 36 -62 18 -62 -4 0 -21 10 -36 22
-16 12 -30 18 -32 13 -13 -38 -21 -38 -58 -7 -39 35 -61 41 -51 16 3 -9 6 -20
6 -24 0 -16 47 -60 64 -60 9 0 19 7 22 15 9 22 44 19 44 -3 0 -15 -14 -21 -67
-33 -38 -7 -70 -14 -72 -14 -6 0 -33 52 -55 105 -20 47 -140 294 -156 320 -34
56 -80 143 -80 151 0 5 9 9 19 9 11 0 21 5 23 11 2 6 28 13 58 15 209 15 201
13 193 42 -6 24 -5 25 8 12 8 -9 28 -33 45 -55z m-426 10 c0 -8 -8 -15 -19
-15 -10 0 -21 -9 -24 -20 -3 -11 -12 -20 -21 -20 -22 0 -20 7 11 41 30 32 53
38 53 14z m800 -48 c0 -22 -41 -60 -52 -49 -7 7 -1 19 18 36 34 30 34 30 34
13z m-965 -18 c-8 -12 -35 -12 -35 0 0 11 22 20 33 14 4 -2 5 -9 2 -14z m85
-8 c0 -14 -18 -23 -30 -16 -6 4 -8 11 -5 16 8 12 35 12 35 0z m160 -36 c0 -8
-9 -17 -20 -20 -11 -3 -20 -13 -20 -21 0 -8 -4 -14 -10 -14 -5 0 -18 -9 -29
-21 -11 -12 -25 -19 -32 -17 -9 3 -6 10 8 24 11 10 32 36 47 56 27 36 56 42
56 13z m757 -3 c-10 -10 -17 -23 -17 -28 0 -6 -11 -20 -25 -32 -14 -12 -25
-26 -25 -32 0 -5 -7 -10 -15 -10 -22 0 -18 31 5 37 11 3 20 12 20 21 0 9 15
28 33 43 35 30 50 30 24 1z m-111 -34 c-9 -5 -16 -15 -16 -22 0 -13 -21 -26
-41 -26 -17 0 -9 29 11 40 11 6 20 17 20 25 0 18 34 24 39 6 1 -8 -4 -18 -13
-23z m-608 -21 c2 -10 -3 -17 -11 -17 -8 0 -22 -11 -31 -25 -9 -14 -23 -25
-30 -25 -8 0 -16 -10 -20 -22 -4 -18 -8 -20 -18 -10 -9 9 -8 16 5 29 9 10 31
35 48 56 32 39 51 43 57 14z m752 -6 c0 -6 -4 -13 -10 -16 -5 -3 -10 1 -10 9
0 9 5 16 10 16 6 0 10 -4 10 -9z m-722 -49 c3 -17 -2 -22 -18 -22 -16 0 -20 4
-16 16 3 9 6 20 6 26 0 19 25 1 28 -20z m692 3 c0 -8 -7 -15 -15 -15 -16 0
-20 12 -8 23 11 12 23 8 23 -8z m-885 -5 c3 -6 -1 -13 -10 -16 -19 -8 -30 0
-20 15 8 14 22 14 30 1z m782 -16 c5 -15 -28 -27 -40 -15 -5 5 -6 14 -2 21 8
13 37 9 42 -6z m-627 -29 c0 -16 -27 -32 -37 -21 -7 7 16 36 28 36 5 0 9 -7 9
-15z m695 6 c3 -5 1 -13 -5 -16 -15 -9 -43 3 -35 15 8 13 32 13 40 1z m-634
-34 c-13 -13 -26 -3 -16 12 3 6 11 8 17 5 6 -4 6 -10 -1 -17z m-191 -2 c0 -8
-7 -15 -15 -15 -9 0 -12 6 -9 15 4 8 10 15 15 15 5 0 9 -7 9 -15z m890 0 c0
-8 -4 -15 -9 -15 -5 0 -14 7 -21 15 -10 13 -9 15 9 15 12 0 21 -6 21 -15z
m-806 -4 c6 -10 -49 -71 -64 -71 -17 0 -11 19 10 30 11 6 20 17 20 25 0 7 6
16 13 18 6 3 13 6 14 6 1 1 4 -3 7 -8z m702 -2 c3 -6 1 -16 -4 -21 -13 -13
-45 8 -36 23 7 12 31 11 40 -2z m154 -3 c0 -3 -4 -8 -10 -11 -5 -3 -10 -1 -10
4 0 6 5 11 10 11 6 0 10 -2 10 -4z m2160 -6 c0 -5 -4 -10 -10 -10 -5 0 -10 5
-10 10 0 6 5 10 10 10 6 0 10 -4 10 -10z m-2937 -6 c11 -11 -5 -34 -24 -34
-17 0 -18 3 -9 20 11 20 22 25 33 14z m685 -21 c2 -8 -5 -13 -17 -13 -12 0
-21 6 -21 16 0 18 31 15 38 -3z m-618 -18 c0 -8 -7 -15 -15 -15 -8 0 -15 7
-15 15 0 8 7 15 15 15 8 0 15 -7 15 -15z m680 -5 c0 -5 -4 -10 -9 -10 -6 0
-13 5 -16 10 -3 6 1 10 9 10 9 0 16 -4 16 -10z m-785 -9 c3 -6 -3 -15 -14 -21
-24 -12 -42 7 -20 21 18 11 26 11 34 0z m689 -17 c5 -12 0 -15 -21 -12 -14 2
-28 9 -31 16 -6 18 45 15 52 -4z m-620 -3 c7 -10 -22 -37 -30 -28 -9 8 3 37
15 37 5 0 12 -4 15 -9z m2790 3 c24 -9 22 -74 -1 -73 -11 0 -13 3 -5 6 20 8
14 40 -9 46 -12 3 -18 10 -14 16 7 13 8 13 29 5z m-2114 -19 c10 -13 9 -15 -9
-15 -12 0 -21 6 -21 15 0 8 4 15 9 15 5 0 14 -7 21 -15z m-790 -14 c0 -10 -30
-24 -37 -17 -3 3 -2 9 2 15 8 13 35 15 35 2z m190 1 c0 -10 -22 -32 -32 -32
-4 0 -8 9 -8 20 0 13 7 20 20 20 11 0 20 -4 20 -8z m2805 -12 c3 -5 -1 -10
-10 -10 -9 0 -13 5 -10 10 3 6 8 10 10 10 2 0 7 -4 10 -10z m-2925 -9 c0 -15
-28 -33 -40 -26 -8 5 -8 11 1 21 13 15 39 19 39 5z m790 -1 c0 -5 -6 -10 -14
-10 -8 0 -18 5 -21 10 -3 6 3 10 14 10 12 0 21 -4 21 -10z m-116 -15 c8 -8 23
-15 34 -15 11 0 25 -7 32 -15 10 -13 9 -15 -9 -15 -11 0 -21 5 -21 10 0 6 -9
10 -21 10 -28 0 -61 19 -54 31 9 13 21 11 39 -6z m166 -5 c0 -5 -2 -10 -4 -10
-3 0 -8 5 -11 10 -3 6 -1 10 4 10 6 0 11 -4 11 -10z m2130 -3 c0 -18 -21 -37
-41 -37 -24 0 -29 22 -10 37 21 16 51 16 51 0z m-2900 -7 c0 -12 -28 -25 -36
-17 -9 9 6 27 22 27 8 0 14 -5 14 -10z m-112 -27 c-4 -22 -48 -31 -48 -10 0
19 10 27 32 27 13 0 18 -6 16 -17z m176 8 c3 -5 -1 -14 -8 -20 -16 -13 -32 2
-21 19 8 12 22 13 29 1z m503 -17 c2 -7 -8 -15 -22 -18 -20 -5 -26 -12 -23
-29 2 -14 10 -22 23 -23 37 -2 40 -5 16 -15 -18 -7 -22 -14 -17 -32 34 -111
57 -408 41 -514 -11 -74 -22 -35 -34 122 -7 77 -16 160 -21 185 -54 263 -56
289 -20 319 26 22 51 24 57 5z m2153 0 c0 -17 -22 -14 -28 4 -2 7 3 12 12 12
9 0 16 -7 16 -16z m-2771 -20 c-6 -8 -15 -14 -20 -14 -14 0 -11 28 4 33 20 7
29 -4 16 -19z m781 16 c0 -5 -8 -10 -17 -10 -15 0 -16 2 -3 10 19 12 20 12 20
0z m-106 -26 c4 -11 0 -15 -16 -12 -12 2 -23 9 -26 16 -6 18 35 15 42 -4z
m2063 -11 c7 8 43 -21 43 -35 0 -16 -20 -8 -21 10 0 16 -1 16 -7 0 -10 -25
-82 -63 -82 -44 0 8 5 18 10 21 6 3 7 18 4 32 -8 32 15 50 33 26 7 -9 16 -13
20 -10z m-2666 2 c0 -6 -9 -16 -20 -24 -19 -12 -21 -11 -21 7 0 19 15 33 33
28 5 -1 8 -6 8 -11z m769 5 c0 -5 -4 -10 -10 -10 -5 0 -10 5 -10 10 0 6 5 10
10 10 6 0 10 -4 10 -10z m-870 -35 c0 -16 -35 -29 -50 -20 -17 10 -11 25 13
34 25 10 37 6 37 -14z m755 15 c3 -5 -1 -10 -10 -10 -9 0 -13 5 -10 10 3 6 8
10 10 10 2 0 7 -4 10 -10z m-585 -14 c0 -8 -9 -18 -20 -21 -11 -3 -20 -12 -20
-19 0 -20 -24 -36 -39 -27 -15 10 -6 31 13 31 7 0 18 11 24 25 12 27 42 34 42
11z m2730 4 c0 -5 -4 -10 -10 -10 -5 0 -10 5 -10 10 0 6 5 10 10 10 6 0 10 -4
10 -10z m-2850 -40 c-19 -12 -40 -13 -40 0 0 5 8 13 18 19 22 13 44 -5 22 -19z
m770 20 c0 -5 -4 -10 -10 -10 -5 0 -10 5 -10 10 0 6 5 10 10 10 6 0 10 -4 10
-10z m-105 -20 c3 -5 -1 -10 -9 -10 -9 0 -16 5 -16 10 0 6 4 10 9 10 6 0 13
-4 16 -10z m164 -21 c-16 -10 -23 -4 -14 10 3 6 11 8 17 5 6 -4 5 -9 -3 -15z
m-879 -24 c-7 -8 -19 -15 -26 -15 -8 0 -14 7 -14 15 0 10 10 15 26 15 22 0 25
-2 14 -15z m190 5 c0 -12 -28 -25 -36 -17 -9 9 6 27 22 27 8 0 14 -5 14 -10z
m2580 0 c8 12 30 6 30 -9 0 -11 -70 -42 -81 -36 -10 7 -12 38 -3 48 4 3 16 1
27 -4 14 -8 22 -8 27 1z m-2690 -23 c0 -8 -11 -19 -24 -25 -13 -6 -27 -20 -31
-31 -3 -12 -15 -21 -26 -21 -26 0 -24 16 6 36 13 9 27 24 30 35 7 21 45 26 45
6z m750 3 c0 -5 -2 -10 -4 -10 -3 0 -8 5 -11 10 -3 6 -1 10 4 10 6 0 11 -4 11
-10z m-870 -24 c0 -8 -9 -17 -20 -21 -21 -7 -40 0 -40 15 0 7 10 11 53 19 4 0
7 -5 7 -13z m190 -6 c0 -11 -40 -34 -47 -26 -3 3 -3 12 0 21 7 16 47 21 47 5z
m50 -29 c0 -13 -65 -81 -78 -81 -21 0 -13 18 18 40 17 12 30 28 30 36 0 8 7
14 15 14 8 0 15 -4 15 -9z m-100 -18 c0 -12 -33 -43 -47 -43 -7 0 -13 -7 -13
-15 0 -8 -9 -19 -20 -25 -27 -14 -28 13 -2 32 11 7 24 23 31 36 10 20 51 32
51 15z m745 -13 c-3 -5 -10 -10 -16 -10 -5 0 -9 5 -9 10 0 6 7 10 16 10 8 0
12 -4 9 -10z m1905 -45 c0 -31 -5 -55 -10 -55 -6 0 -10 12 -10 28 1 15 -2 39
-6 55 -5 21 -3 27 10 27 13 0 16 -11 16 -55z m-2770 31 c0 -18 -27 -29 -36
-14 -4 5 0 14 7 19 20 13 29 11 29 -5z m229 -52 c-6 -8 -15 -14 -20 -14 -14 0
-11 28 4 33 20 7 29 -4 16 -19z m5602 16 c73 -20 130 -102 144 -207 9 -66 -23
-184 -67 -251 -60 -91 -161 -146 -225 -121 -89 34 -143 124 -143 239 0 129 36
219 117 290 63 55 109 68 174 50z m-5701 -20 c0 -5 -11 -17 -25 -26 -14 -9
-25 -22 -25 -30 0 -13 -38 -39 -46 -31 -9 9 9 36 27 42 10 4 19 13 19 20 0 8
8 19 18 24 22 13 32 14 32 1z m1247 -52 c-2 -13 -4 -5 -4 17 -1 22 1 32 4 23
2 -10 2 -28 0 -40z m-1367 22 c0 -11 -7 -20 -15 -20 -27 0 -18 30 13 39 1 1 2
-8 2 -19z m180 -4 c0 -14 -29 -31 -38 -21 -6 6 18 35 29 35 5 0 9 -6 9 -14z
m630 -26 c0 -5 -4 -10 -10 -10 -5 0 -10 5 -10 10 0 6 5 10 10 10 6 0 10 -4 10
-10z m-580 -15 c-7 -8 -17 -15 -22 -15 -6 0 -5 7 2 15 7 8 17 15 22 15 6 0 5
-7 -2 -15z m2526 -12 c-10 -10 -19 5 -10 18 6 11 8 11 12 0 2 -7 1 -15 -2 -18z
m-2633 -8 c-5 -16 -33 -21 -33 -7 0 13 22 32 31 26 5 -2 6 -11 2 -19z m-113
-20 c0 -8 -4 -15 -10 -15 -5 0 -10 7 -10 15 0 8 5 15 10 15 6 0 10 -7 10 -15z
m170 -4 c0 -5 -7 -11 -14 -14 -10 -4 -13 -1 -9 9 6 15 23 19 23 5z m-110 -25
c0 -18 -17 -29 -30 -21 -8 5 -7 11 1 21 15 18 29 18 29 0z m177 -12 c-3 -3
-12 -4 -19 -1 -8 3 -5 6 6 6 11 1 17 -2 13 -5z m-117 -18 c0 -16 -18 -31 -27
-22 -8 8 5 36 17 36 5 0 10 -6 10 -14z m747 -2 c-3 -3 -12 -4 -19 -1 -8 3 -5
6 6 6 11 1 17 -2 13 -5z m-797 -49 c0 -9 -9 -15 -22 -15 -22 1 -23 1 -4 15 25
19 26 19 26 0z m7468 -80 c2 -17 1 -67 -3 -112 -5 -61 -11 -83 -23 -88 -8 -3
-18 -1 -22 5 -7 12 -2 194 6 218 8 25 39 8 42 -23z m-87 -61 c12 -15 16 -131
4 -142 -3 -3 -21 -11 -40 -18 -27 -9 -40 -9 -59 1 -21 11 -25 11 -29 -7 -4
-12 -12 -18 -24 -16 -14 2 -19 15 -23 58 -5 50 -6 53 -17 33 -7 -12 -13 -40
-13 -62 0 -22 -5 -43 -10 -46 -16 -10 -40 14 -40 39 0 18 -2 17 -15 -8 -43
-81 -121 -73 -138 15 -2 13 -5 -2 -6 -33 -1 -51 -3 -58 -21 -58 -11 0 -23 6
-26 14 -4 10 -13 6 -34 -15 -29 -30 -67 -38 -87 -18 -7 7 -18 3 -37 -16 -33
-33 -79 -32 -84 3 -3 18 1 22 22 22 33 0 33 13 0 30 -22 12 -27 12 -35 0 -5
-8 -8 -25 -6 -38 5 -24 -35 -72 -60 -72 -25 0 -63 47 -63 80 0 16 -4 30 -10
30 -5 0 -10 -24 -10 -54 0 -36 -5 -58 -15 -66 -26 -22 -35 1 -37 96 -2 101 15
144 58 144 26 0 33 -27 12 -48 -8 -8 -8 -15 2 -26 11 -14 16 -13 42 9 37 32
53 31 74 0 l17 -26 15 31 c16 32 55 55 79 46 15 -6 18 -46 3 -46 -15 0 -11
-12 13 -41 19 -23 26 -25 47 -17 l25 10 -23 9 c-28 11 -43 48 -29 71 13 20 50
38 77 38 24 0 28 -38 5 -46 -12 -5 -10 -10 8 -24 27 -22 37 -11 37 43 0 20 5
37 10 37 6 0 4 11 -5 23 -14 22 -14 25 4 41 28 25 44 11 38 -31 -9 -54 14 -89
28 -43 4 11 20 27 36 36 28 14 33 14 55 -1 13 -8 24 -22 24 -31 0 -8 5 -12 10
-9 6 3 10 18 10 34 0 23 6 28 45 39 25 7 49 12 54 12 9 0 28 -42 33 -73 3 -17
6 -16 25 7 17 20 19 26 8 26 -9 0 -15 9 -15 24 0 17 8 27 28 34 39 15 48 14
63 -4z m-1169 -229 c12 -27 19 -30 34 -16 16 15 72 23 79 11 5 -8 13 -5 26 9
57 61 133 -24 91 -101 -10 -18 -31 -39 -46 -46 -23 -12 -31 -11 -52 2 -19 13
-24 25 -24 56 0 22 -4 40 -8 40 -19 0 -32 -27 -32 -65 0 -49 -18 -79 -42 -70
-14 5 -16 16 -11 54 3 31 1 51 -6 55 -6 4 -11 1 -11 -8 0 -9 -18 -27 -39 -41
-31 -19 -40 -32 -43 -57 -2 -25 -8 -34 -25 -36 -26 -4 -26 -8 -23 113 2 95 8
111 43 118 57 11 77 7 89 -18z m714 -114 c-4 -6 -14 -11 -22 -11 -18 0 -18
-29 1 -36 12 -5 11 -9 -5 -26 -21 -22 -18 -38 6 -38 8 0 14 -4 14 -10 0 -12
-45 -24 -60 -15 -6 4 -17 1 -25 -5 -12 -10 -15 -9 -15 8 0 11 -7 23 -16 26
-21 8 -27 2 -29 -26 -1 -12 -7 -24 -13 -26 -17 -5 -16 109 1 130 19 23 43 28
65 12 19 -13 21 -12 27 5 3 11 18 24 33 29 29 10 49 1 38 -17z m-236 -60 c16
-31 12 -71 -11 -107 -22 -37 -40 -42 -59 -19 -16 19 -30 19 -30 0 0 -23 -46
-41 -65 -25 -11 9 -18 10 -29 1 -16 -13 -76 -3 -75 13 2 21 54 109 64 108 6
-1 10 -15 11 -30 1 -46 20 -70 49 -64 31 5 31 37 0 37 -16 0 -20 6 -18 29 3
46 10 56 38 56 28 0 34 -17 10 -27 -14 -5 -14 -8 1 -24 18 -20 34 -17 34 7 0
25 31 64 51 64 10 0 23 -9 29 -19z m-314 -125 c2 -48 -8 -66 -46 -86 -20 -11
-50 -4 -50 11 0 6 -12 -2 -27 -16 -31 -28 -43 -31 -60 -14 -8 8 -21 4 -47 -16
-28 -21 -39 -24 -54 -16 -37 20 -42 69 -13 118 23 36 59 52 72 32 14 -22 10
-29 -15 -29 -13 0 -29 -6 -35 -14 -18 -22 -10 -70 13 -74 15 -3 18 1 14 23 -7
36 13 42 51 14 29 -21 61 -21 61 1 0 6 -11 15 -25 20 -14 5 -28 16 -31 24 -9
23 26 67 49 64 31 -5 31 -23 0 -34 l-28 -10 32 -17 c18 -9 34 -17 37 -17 3 0
6 19 8 42 2 34 8 45 28 55 39 19 63 -2 66 -61z m877 -83 c-7 -2 -19 -2 -25 0
-7 3 -2 5 12 5 14 0 19 -2 13 -5z m-6875 -48 c-7 -7 -110 -45 -121 -45 -24 0
9 19 43 25 22 4 42 11 46 16 3 5 12 9 21 9 9 0 14 -2 11 -5z m6741 -18 c-32
-21 -91 -47 -105 -47 -12 0 -6 6 16 16 19 9 46 22 60 29 14 8 27 12 29 9 2 -2
2 -5 0 -7z m-172 -83 c-3 -3 -12 -4 -19 -1 -8 3 -5 6 6 6 11 1 17 -2 13 -5z
m-210 -110 c-3 -3 -12 -4 -19 -1 -8 3 -5 6 6 6 11 1 17 -2 13 -5z m-223 -109
c-10 -8 -23 -15 -28 -15 -6 0 -1 7 10 15 10 8 23 15 28 15 6 0 1 -7 -10 -15z
m-287 -141 c-3 -3 -12 -4 -19 -1 -8 3 -5 6 6 6 11 1 17 -2 13 -5z m1435 -996
c-40 -69 -116 -112 -312 -178 -36 -13 -78 -35 -95 -50 -16 -16 -57 -41 -90
-56 -33 -15 -71 -36 -85 -46 -14 -9 -63 -27 -110 -38 -47 -12 -96 -28 -109
-37 -54 -35 -328 28 -358 82 -8 13 -14 14 -34 5 -28 -13 -90 -2 -96 16 -2 6 8
16 22 22 28 13 34 46 10 56 -17 6 -20 26 -4 26 6 0 22 -9 36 -20 14 -11 32
-20 40 -20 8 0 48 -16 89 -35 40 -19 78 -35 84 -35 6 0 28 -11 50 -25 22 -14
51 -25 65 -25 21 0 25 4 25 32 0 17 -3 28 -6 25 -4 -4 -23 6 -43 22 -20 15
-45 33 -56 39 -17 9 -11 11 30 9 28 -1 50 -7 50 -12 0 -6 4 -16 9 -24 7 -11
10 -11 18 3 5 9 19 16 32 16 15 0 33 13 50 34 20 26 40 38 83 51 32 8 96 29
143 46 47 17 105 36 130 43 125 36 293 88 355 110 64 23 71 24 82 9 10 -13 9
-22 -5 -45z m-3436 -116 c6 -4 16 -17 23 -29 6 -13 18 -23 26 -23 19 0 19 -16
0 -24 -9 -3 -15 0 -15 8 0 7 -23 24 -50 38 -37 19 -46 28 -33 31 28 7 37 7 49
-1z m-86 -6 c0 -8 -71 -12 -76 -4 -3 4 13 8 35 8 23 0 41 -2 41 -4z m2414 -32
c9 -24 4 -25 -24 -4 -24 19 -24 20 -4 20 12 0 25 -7 28 -16z m60 -46 c-3 -4
-9 -8 -15 -8 -5 0 -9 4 -9 8 0 5 7 9 15 9 8 0 12 -4 9 -9z m-2960 -14 c23 -9
9 -24 -21 -24 -21 0 -24 2 -13 15 14 17 13 17 34 9z m3383 -516 c-3 -7 -5 -2
-5 12 0 14 2 19 5 13 2 -7 2 -19 0 -25z m-57 -4200 c5 -13 11 -39 15 -59 8
-52 28 -66 68 -50 66 28 89 24 136 -19 l44 -40 -17 -38 c-9 -20 -20 -59 -25
-85 -9 -52 -9 -52 52 -71 21 -6 22 -34 2 -60 -11 -14 -28 -19 -66 -20 -50 -1
-53 -3 -90 -51 -21 -28 -39 -54 -39 -59 0 -17 -43 -56 -61 -56 -9 0 -42 -12
-73 -26 -55 -25 -96 -26 -96 -1 0 6 -12 23 -26 39 l-27 27 17 54 c9 29 18 66
19 82 2 28 -1 30 -63 44 -87 20 -101 41 -55 86 22 22 32 25 105 25 78 0 81 1
111 33 l30 32 -6 107 c-4 59 -4 112 0 118 11 18 35 11 45 -12z"/>
<path d="M9464 15266 c-4 -10 -2 -22 4 -28 8 -8 13 -7 18 6 4 10 2 22 -4 28
-8 8 -13 7 -18 -6z"/>
<path d="M9851 15104 c0 -11 3 -14 6 -6 3 7 2 16 -1 19 -3 4 -6 -2 -5 -13z"/>
<path d="M10530 15130 c0 -5 5 -10 11 -10 5 0 7 5 4 10 -3 6 -8 10 -11 10 -2
0 -4 -4 -4 -10z"/>
<path d="M8601 14758 c0 -7 17 -51 37 -98 31 -71 43 -88 72 -102 19 -9 48 -17
63 -18 24 0 28 4 25 22 -2 16 -15 25 -56 37 -54 16 -54 16 -89 93 -33 71 -54
98 -52 66z"/>
<path d="M8888 14689 c-96 -13 -123 -23 -123 -45 0 -12 8 -20 23 -22 12 -2 22
1 22 7 0 7 23 11 56 11 60 0 94 13 94 35 0 20 -9 22 -72 14z"/>
<path d="M7485 14570 c3 -5 10 -10 16 -10 5 0 9 5 9 10 0 6 -7 10 -16 10 -8 0
-12 -4 -9 -10z"/>
<path d="M5565 13905 c39 -31 175 -115 185 -115 5 0 10 4 10 10 0 10 -117 87
-163 108 -38 17 -55 15 -32 -3z"/>
<path d="M5615 13760 c3 -5 13 -10 21 -10 8 0 14 -4 14 -10 0 -13 38 -32 51
-24 18 11 -32 54 -63 54 -17 0 -27 -4 -23 -10z"/>
<path d="M11054 13325 c-44 -20 -90 -69 -121 -129 -22 -44 -26 -64 -27 -141 0
-97 12 -134 62 -187 103 -111 285 37 300 243 5 76 -8 126 -45 170 -48 57 -105
72 -169 44z m168 -100 c40 -73 39 -152 -3 -231 -43 -83 -72 -95 -67 -29 3 45
-3 49 -49 35 -83 -27 -83 -27 -83 -69 0 -54 -18 -62 -51 -21 -55 66 -60 185
-10 275 33 62 49 67 53 18 3 -38 3 -38 43 -36 22 2 52 8 68 14 23 10 27 17 27
49 0 69 33 67 72 -5z"/>
<path d="M11190 13120 c0 -27 5 -50 10 -50 6 0 10 23 10 50 0 28 -4 50 -10 50
-5 0 -10 -22 -10 -50z"/>
<path d="M10969 13123 c0 -10 -3 -36 -5 -59 -3 -22 0 -51 5 -65 8 -18 10 -5
10 59 1 45 -1 82 -4 82 -3 0 -5 -8 -6 -17z"/>
<path d="M11073 13122 c-50 -14 -53 -17 -53 -49 0 -42 12 -46 75 -30 49 13 50
14 53 55 4 47 4 47 -75 24z"/>
<path d="M12467 12873 c-4 -3 -7 -19 -7 -35 0 -40 24 -31 28 10 3 30 -6 41
-21 25z"/>
<path d="M12025 12720 c-3 -5 -2 -10 4 -10 5 0 13 5 16 10 3 6 2 10 -4 10 -5
0 -13 -4 -16 -10z"/>
<path d="M11562 12718 c-7 -7 -12 -18 -12 -25 0 -18 29 -16 37 3 8 21 -10 37
-25 22z"/>
<path d="M11796 12714 c-10 -27 -7 -56 7 -52 14 5 23 68 9 68 -6 0 -13 -7 -16
-16z"/>
<path d="M12200 12585 c0 -17 2 -18 24 -9 18 7 12 24 -10 24 -8 0 -14 -7 -14
-15z"/>
<path d="M12257 12584 c-10 -11 -9 -52 2 -59 13 -8 24 32 14 50 -5 9 -12 12
-16 9z"/>
<path d="M12057 12553 c-4 -3 -7 -21 -7 -40 0 -40 26 -46 36 -8 10 39 -8 69
-29 48z"/>
<path d="M11735 12481 c-6 -11 9 -23 19 -14 9 9 7 23 -3 23 -6 0 -12 -4 -16
-9z"/>
<path d="M11727 12424 c-14 -14 -7 -25 13 -22 12 2 21 8 21 13 0 12 -24 18
-34 9z"/>
<path d="M12805 10755 l-30 -14 26 -1 c15 0 32 7 39 15 15 18 5 18 -35 0z"/>
<path d="M12730 10715 c-20 -11 -21 -14 -7 -15 10 0 25 7 33 15 19 19 7 19
-26 0z"/>
<path d="M4032 14228 c-6 -18 -16 -57 -22 -86 -7 -28 -19 -56 -28 -61 -15 -9
-15 -11 2 -30 10 -11 15 -24 12 -30 -4 -6 -2 -20 4 -32 10 -17 8 -25 -11 -45
-33 -36 -54 -27 -55 21 -1 49 -13 192 -20 223 -2 13 -9 20 -14 17 -6 -3 -10
-55 -10 -116 l0 -109 -25 0 c-15 0 -28 -7 -32 -17 -16 -42 -36 -54 -82 -47
-31 5 -42 4 -37 -5 4 -6 14 -11 23 -11 33 0 -8 -28 -51 -34 -49 -8 -79 1 -72
19 5 14 -23 25 -66 25 -31 0 -47 -17 -24 -26 33 -13 17 -34 -26 -34 -24 -1
-63 -6 -88 -12 -25 -6 -75 -10 -111 -9 l-66 2 -28 -53 c-15 -29 -47 -78 -72
-109 -41 -53 -46 -56 -86 -55 -25 0 -61 -9 -91 -23 -43 -22 -52 -31 -84 -100
-45 -96 -86 -280 -65 -288 8 -3 12 -12 8 -20 -4 -13 4 -14 52 -8 31 4 67 11
81 16 31 12 79 12 67 0 -13 -12 -221 -88 -324 -117 -8 -3 -11 -7 -8 -10 3 -4
30 1 59 9 68 20 289 71 395 92 100 20 112 15 144 -60 20 -47 27 -55 44 -49 11
3 40 9 65 13 40 5 45 9 48 33 5 38 -66 195 -137 305 -49 76 -57 93 -47 109 6
11 52 59 102 107 72 69 97 87 120 87 16 0 160 27 319 59 275 56 385 86 385
103 0 24 43 1 92 -49 69 -71 137 -177 180 -280 18 -43 35 -80 38 -83 7 -7 41
-159 42 -188 0 -30 -3 -32 -48 -38 -64 -7 -151 -25 -409 -84 -99 -22 -202 -46
-230 -52 -66 -14 -75 -23 -68 -61 10 -55 18 -57 123 -36 186 38 246 50 290 60
90 19 257 36 295 30 34 -5 40 -10 43 -34 2 -16 -3 -39 -12 -52 -15 -22 -14
-24 19 -44 52 -30 49 -66 -7 -91 -70 -31 -99 -55 -87 -67 17 -17 3 -30 -38
-36 -21 -4 -56 -16 -78 -27 -22 -11 -57 -23 -79 -27 -74 -12 -236 -198 -236
-271 0 -58 14 -72 73 -72 56 0 197 23 216 34 18 12 11 39 -28 101 -33 54 8 89
47 40 11 -14 25 -25 31 -25 32 0 46 120 18 163 -9 14 -14 27 -11 29 8 9 159
-4 172 -14 20 -17 15 -102 -8 -131 -11 -14 -23 -40 -26 -59 -4 -18 -19 -46
-34 -63 -15 -16 -31 -40 -34 -52 -4 -12 -18 -24 -34 -28 -35 -9 -62 -33 -62
-57 0 -13 -7 -18 -28 -18 -16 0 -37 -6 -48 -14 -17 -13 -18 -17 -6 -48 8 -18
20 -54 28 -79 23 -74 63 -105 103 -80 13 8 13 14 2 38 -29 62 -62 165 -56 171
9 9 42 -32 70 -89 47 -92 88 -123 138 -104 11 5 10 13 -7 48 -12 23 -34 60
-49 82 -15 22 -27 45 -27 51 0 6 -7 17 -15 24 -18 15 -20 50 -2 50 17 0 48
-29 83 -77 53 -72 93 -103 133 -103 40 0 78 21 68 37 -4 6 -19 13 -35 16 -28
6 -48 30 -150 183 -26 39 -22 60 9 43 11 -6 49 -34 83 -64 72 -61 108 -73 160
-51 20 8 36 17 36 20 0 2 -17 15 -37 27 -21 12 -67 52 -101 88 -35 36 -76 78
-90 93 -19 20 -24 30 -15 39 10 10 76 -19 161 -73 30 -19 38 -19 75 -8 41 12
77 36 77 50 0 4 -15 11 -32 14 -54 10 -178 84 -178 105 0 11 -15 28 -35 40
-22 13 -35 28 -35 41 0 24 -7 24 110 -13 64 -20 65 -20 119 -1 54 20 75 40 49
48 -163 48 -187 58 -190 84 -2 19 -14 32 -43 46 -22 12 -40 28 -40 36 0 12 16
15 90 12 85 -2 93 -1 138 28 26 16 47 35 47 40 0 6 -40 10 -100 10 l-100 0 0
29 0 29 92 1 c50 1 94 3 96 6 10 10 -89 27 -153 27 -123 -1 -150 9 -127 45 4
6 39 18 79 26 65 13 131 49 155 82 11 15 7 15 -67 -1 -79 -17 -111 -30 -142
-57 -26 -23 -43 -15 -43 19 0 19 5 24 25 24 14 0 29 8 35 19 9 19 49 35 153
61 26 7 47 16 47 20 0 9 -87 30 -118 30 -9 0 -48 -11 -86 -25 -74 -26 -86 -25
-86 5 0 11 -9 24 -20 30 -39 21 -14 100 31 100 8 0 52 22 99 50 47 27 89 52
95 54 25 9 -17 27 -76 32 -64 5 -64 5 -124 -40 -33 -25 -63 -46 -67 -46 -3 0
-9 9 -13 19 -3 11 -15 23 -26 26 -10 4 -19 12 -19 19 0 8 -3 27 -6 43 -6 30
-5 30 42 36 42 4 54 12 105 66 32 34 65 61 74 61 15 0 21 25 7 34 -4 2 -36 8
-70 12 -61 6 -62 6 -89 -26 -74 -88 -98 -111 -101 -102 -2 6 14 37 35 69 43
65 54 88 46 97 -3 3 -11 0 -17 -7 -20 -21 -76 -105 -76 -115 0 -6 -7 -13 -15
-16 -10 -4 -19 3 -25 18 -5 13 -15 26 -22 28 -22 8 11 38 41 38 28 0 46 19
102 105 14 22 33 46 42 54 35 28 20 41 -47 41 -72 0 -82 -8 -121 -98 -20 -46
-45 -74 -45 -51 0 13 18 65 48 141 9 22 8 30 -3 42 -20 19 -19 29 5 51 11 10
20 21 20 25 0 14 -32 21 -66 14 -29 -5 -37 -14 -59 -61 -13 -30 -29 -72 -35
-93 -6 -21 -17 -44 -26 -51 -15 -12 -16 -8 -9 41 3 30 13 80 21 111 17 68 17
79 3 79 -5 0 -19 -20 -30 -45 -20 -45 -44 -66 -66 -58 -9 3 -13 -5 -13 -24 -1
-15 -7 -39 -15 -53 -12 -22 -14 -23 -21 -7 -3 10 -4 65 -2 123 3 57 4 104 2
104 -1 0 -7 -15 -12 -32z m96 -216 c2 -7 -6 -12 -17 -12 -21 0 -27 11 -14 24
9 9 26 2 31 -12z m139 -48 c3 -9 0 -20 -8 -25 -17 -11 -21 -11 -38 0 -12 8
-12 12 -2 25 17 21 40 20 48 0z m-160 -31 c5 -14 -34 -36 -48 -27 -7 4 -4 13
7 25 18 20 35 21 41 2z m431 -731 c5 -15 -23 -26 -45 -17 -17 6 -17 7 2 21 21
16 37 14 43 -4z"/>
<path d="M3785 14075 c3 -22 5 -50 5 -62 0 -14 6 -23 16 -23 12 0 14 7 9 33
-4 17 -14 46 -21 62 l-14 30 5 -40z"/>
<path d="M4552 13718 c-14 -14 -16 -42 -2 -33 14 9 32 45 22 45 -4 0 -13 -5
-20 -12z"/>
<path d="M4645 13501 c-17 -10 -39 -30 -48 -45 l-18 -27 48 25 c48 25 86 66
61 66 -7 0 -27 -8 -43 -19z"/>
<path d="M2620 13050 c-12 -8 -12 -10 5 -10 11 0 27 5 35 10 12 8 12 10 -5 10
-11 0 -27 -5 -35 -10z"/>
<path d="M3165 12975 c-71 -25 -168 -54 -215 -66 -99 -24 -248 -67 -270 -78
-19 -10 -25 -65 -8 -78 9 -7 86 8 262 52 165 42 257 60 274 56 l26 -7 -30 -20
c-86 -58 -224 -91 -470 -110 -73 -6 -83 -5 -101 13 -24 24 -58 126 -50 147 4
9 2 18 -2 20 -5 3 -11 28 -15 56 -5 34 -11 50 -21 50 -10 0 -15 -11 -15 -34 0
-46 -12 -52 -34 -15 -22 37 -38 27 -55 -34 -16 -56 3 -120 37 -125 33 -5 47
-38 28 -67 -21 -31 -20 -37 4 -63 27 -29 80 -30 87 -2 6 22 16 25 42 10 12 -6
75 -5 176 1 110 7 176 7 218 0 61 -11 147 -46 147 -61 0 -5 -24 -20 -54 -34
-40 -19 -71 -26 -115 -26 -33 0 -62 -4 -66 -9 -5 -9 50 -81 68 -89 4 -2 7 -9
7 -16 0 -6 10 -18 22 -26 12 -8 37 -30 56 -48 27 -27 39 -32 62 -27 15 3 31 2
34 -3 3 -5 15 -8 28 -6 13 1 27 3 32 3 5 1 3 7 -3 15 -8 9 -11 44 -9 96 2 67
7 85 21 94 21 13 32 0 42 -51 3 -19 15 -43 26 -54 10 -10 19 -28 19 -39 0 -11
4 -20 9 -20 5 0 7 -10 3 -22 l-5 -23 22 20 c27 23 63 100 81 171 23 91 21 91
154 60 141 -32 152 -32 171 -2 13 19 28 26 75 31 71 8 198 49 182 59 -6 3 -32
2 -59 -3 -26 -5 -77 -15 -112 -22 -61 -12 -64 -11 -80 9 -14 20 -33 24 -154
36 -76 7 -141 16 -144 20 -3 3 -10 36 -14 73 -5 38 -11 85 -15 106 l-6 38 -54
-2 c-30 -1 -56 -1 -58 2 -2 2 -13 23 -25 47 -12 23 -22 42 -24 42 -1 0 -60
-21 -132 -45z"/>
<path d="M4096 12681 c-4 -5 3 -7 14 -4 23 6 26 13 6 13 -8 0 -17 -4 -20 -9z"/>
<path d="M5525 12400 c-3 -5 -1 -10 4 -10 6 0 11 5 11 10 0 6 -2 10 -4 10 -3
0 -8 -4 -11 -10z"/>
<path d="M3170 12316 c0 -13 13 -16 72 -16 78 0 87 14 10 15 -26 0 -55 4 -64
9 -13 6 -18 4 -18 -8z"/>
<path d="M4160 12239 c-34 -14 -34 -13 -15 -64 18 -46 46 -64 80 -51 12 4 14
10 5 25 -5 11 -11 33 -12 48 -2 28 -15 54 -27 52 -3 0 -17 -5 -31 -10z"/>
<path d="M11122 10705 c15 -17 24 -21 29 -13 12 19 -2 38 -27 38 l-24 0 22
-25z"/>
</g>
</svg>
