<svg xmlns="http://www.w3.org/2000/svg" xmlns:xlink="http://www.w3.org/1999/xlink" width="720" zoomAndPan="magnify" viewBox="0 0 540 540.000001" height="720" preserveAspectRatio="xMidYMid meet" version="1.0"><defs><clipPath id="554b0d528c"><path d="M 30.433594 57.863281 L 509.546875 57.863281 L 509.546875 480.832031 L 30.433594 480.832031 Z M 30.433594 57.863281 " clip-rule="nonzero"/></clipPath></defs><g clip-path="url(#554b0d528c)"><path fill="#573b8f" d="M 30.433594 112.878906 L 30.433594 66.003906 C 30.433594 61.515625 34.085938 57.867188 38.574219 57.867188 L 501.417969 57.867188 C 505.910156 57.867188 509.558594 61.515625 509.558594 66.003906 L 509.558594 112.878906 Z M 324.308594 202.136719 C 317.011719 202.136719 313.363281 193.433594 318.414062 188.101562 L 332.730469 174.066406 L 318.414062 159.753906 C 310.835938 152.175781 322.34375 140.667969 329.921875 148.246094 L 344.238281 162.558594 L 358.273438 148.246094 C 365.851562 140.667969 377.359375 152.175781 369.78125 159.753906 L 355.746094 174.066406 L 369.78125 188.101562 C 377.640625 195.960938 365.851562 207.1875 358.273438 199.609375 L 344.238281 185.574219 L 329.921875 199.609375 C 328.519531 201.292969 326.273438 202.136719 324.308594 202.136719 Z M 360.238281 403.105469 L 311.398438 403.105469 C 306.90625 403.105469 303.257812 399.457031 303.257812 394.964844 L 303.257812 368.300781 C 303.257812 363.808594 306.90625 360.160156 311.398438 360.160156 L 360.238281 360.160156 C 364.726562 360.160156 368.375 363.808594 368.375 368.300781 L 368.375 394.964844 C 368.375 399.457031 364.726562 403.105469 360.238281 403.105469 Z M 439.949219 403.105469 L 391.113281 403.105469 C 386.621094 403.105469 382.972656 399.457031 382.972656 394.964844 L 382.972656 368.300781 C 382.972656 363.808594 386.621094 360.160156 391.113281 360.160156 L 440.230469 360.160156 C 444.722656 360.160156 448.089844 363.808594 448.089844 368.300781 L 448.089844 394.964844 C 448.089844 399.457031 444.722656 403.105469 439.949219 403.105469 Z M 290.347656 355.949219 L 246 355.949219 C 235.332031 355.949219 235.332031 339.671875 246 339.671875 L 290.347656 339.671875 C 301.011719 339.671875 301.011719 355.949219 290.347656 355.949219 Z M 442.195312 327.039062 L 246 327.039062 C 235.332031 327.039062 235.332031 310.761719 246 310.761719 L 442.195312 310.761719 C 452.863281 310.761719 452.863281 327.039062 442.195312 327.039062 Z M 460.441406 277.640625 L 228.035156 277.640625 L 228.035156 415.453125 L 460.441406 415.453125 Z M 327.675781 256.589844 C 333.570312 256.589844 333.570312 247.605469 327.675781 247.605469 L 246 247.605469 C 240.386719 247.605469 240.386719 256.589844 246 256.589844 Z M 211.753906 234.695312 C 211.753906 230.203125 215.40625 226.554688 219.894531 226.554688 L 468.578125 226.554688 C 473.070312 226.554688 476.71875 230.203125 476.71875 234.695312 L 476.71875 423.59375 C 476.71875 428.085938 473.070312 431.734375 468.578125 431.734375 L 219.894531 431.734375 C 215.40625 431.734375 211.753906 428.085938 211.753906 423.59375 Z M 187.054688 481.132812 L 38.574219 481.132812 C 34.085938 481.132812 30.433594 477.484375 30.433594 472.996094 L 30.433594 121.300781 C 85.449219 121.300781 140.183594 121.300781 195.195312 121.300781 L 195.195312 464.855469 L 493.28125 464.855469 L 493.28125 121.300781 L 509.558594 121.300781 L 509.558594 472.996094 C 509.558594 477.484375 505.910156 481.132812 501.417969 481.132812 Z M 154.214844 299.253906 C 156.742188 299.253906 158.707031 297.289062 158.707031 294.761719 L 158.707031 177.996094 C 158.707031 175.472656 156.742188 173.507812 154.214844 173.507812 L 71.414062 173.507812 C 68.886719 173.507812 66.925781 175.472656 66.925781 177.996094 L 66.925781 294.761719 C 66.925781 297.289062 68.886719 299.253906 71.414062 299.253906 Z M 154.214844 404.226562 C 160.109375 404.226562 160.109375 395.527344 154.214844 395.527344 L 71.414062 395.527344 C 65.519531 395.527344 65.519531 404.226562 71.414062 404.226562 Z M 154.214844 367.738281 C 160.109375 367.738281 160.109375 359.039062 154.214844 359.039062 L 109.867188 359.039062 C 103.972656 359.039062 103.972656 367.738281 109.867188 367.738281 Z M 84.605469 367.738281 C 90.21875 367.738281 90.21875 359.039062 84.605469 359.039062 C 76.1875 359.039062 66.925781 357.351562 66.925781 363.527344 C 66.925781 369.703125 76.1875 367.738281 84.605469 367.738281 Z M 154.214844 331.53125 C 160.109375 331.53125 160.109375 322.828125 154.214844 322.828125 L 109.867188 322.828125 C 103.972656 322.828125 103.972656 331.53125 109.867188 331.53125 Z M 84.605469 331.53125 C 90.21875 331.53125 90.21875 322.828125 84.605469 322.828125 C 76.1875 322.828125 66.925781 321.144531 66.925781 327.039062 C 66.925781 333.214844 76.1875 331.53125 84.605469 331.53125 Z M 84.605469 331.53125 " fill-opacity="1" fill-rule="evenodd"/></g></svg>