<?xml version="1.0" encoding="UTF-8"?>
<!DOCTYPE svg PUBLIC "-//W3C//DTD SVG 1.1//EN" "http://www.w3.org/Graphics/SVG/1.1/DTD/svg11.dtd">
<svg xmlns="http://www.w3.org/2000/svg" version="1.1" width="2250px" height="2250px" style="shape-rendering:geometricPrecision; text-rendering:geometricPrecision; image-rendering:optimizeQuality; fill-rule:evenodd; clip-rule:evenodd" xmlns:xlink="http://www.w3.org/1999/xlink">
<g><path style="opacity:0.996" fill="#169b38" d="M 1236.5,111.5 C 1325.62,121.946 1411.62,144.279 1494.5,178.5C 1495.24,244.504 1495.58,310.504 1495.5,376.5C 1510.09,384.434 1524.43,392.768 1538.5,401.5C 1492.55,462.607 1445.71,522.941 1398,582.5C 1254.07,506.694 1104.23,492.527 948.5,540C 776.089,599.744 656.589,714.577 590,884.5C 570.697,937.18 559.531,991.513 556.5,1047.5C 480.204,1068.66 403.871,1089.66 327.5,1110.5C 327.833,1094.49 327.499,1078.49 326.5,1062.5C 269.253,1031.29 212.086,999.96 155,968.5C 164.949,879.373 187.115,793.373 221.5,710.5C 287.505,709.719 353.505,709.386 419.5,709.5C 459.709,633.431 510.875,565.431 573,505.5C 554.998,442.155 536.998,378.822 519,315.5C 589.034,260.206 665.534,215.206 748.5,180.5C 795.431,226.598 841.931,273.265 888,320.5C 947.694,301.428 1008.86,289.928 1071.5,286C 1095.16,285.043 1118.83,284.21 1142.5,283.5C 1173.85,226.14 1205.18,168.806 1236.5,111.5 Z"/></g>
<g><path style="opacity:0.996" fill="#169b38" d="M 1763.5,687.5 C 1767.75,691.927 1771.92,696.593 1776,701.5C 1783.59,712.344 1791.42,723.011 1799.5,733.5C 1864.43,724.259 1929.43,715.759 1994.5,708C 2038.86,786.064 2071.86,868.731 2093.5,956C 2040.33,994.5 1987.17,1033 1934,1071.5C 1946.13,1156.47 1944.96,1241.3 1930.5,1326C 1930.17,1328.67 1931.17,1330.67 1933.5,1332C 1984.67,1371.01 2035.67,1410.17 2086.5,1449.5C 2062.36,1535.6 2027.36,1616.93 1981.5,1693.5C 1976.85,1694.34 1972.18,1694.17 1967.5,1693C 1906.84,1682.89 1846.17,1673.22 1785.5,1664C 1733.8,1733.37 1672.63,1792.87 1602,1842.5C 1610.24,1907.85 1618.57,1973.18 1627,2038.5C 1548.74,2082.92 1465.91,2115.75 1378.5,2137C 1340.95,2085.78 1303.78,2034.28 1267,1982.5C 1265.58,1980.26 1263.74,1978.59 1261.5,1977.5C 1202.75,1986.28 1143.75,1988.45 1084.5,1984C 1058.05,1981.57 1031.72,1978.57 1005.5,1975C 965.66,2027 925.66,2078.83 885.5,2130.5C 799.779,2106.43 718.779,2071.6 642.5,2026C 641.426,2025.26 640.759,2024.26 640.5,2023C 651.417,1958.57 661.584,1894.07 671,1829.5C 601.775,1778.11 542.608,1717.11 493.5,1646.5C 492.5,1646.17 491.5,1645.83 490.5,1645.5C 426.116,1654.26 361.783,1662.76 297.5,1671C 252.55,1592.6 219.717,1509.44 199,1421.5C 252.255,1383.12 305.422,1344.62 358.5,1306C 355.257,1286.98 352.924,1267.82 351.5,1248.5C 427.114,1239.09 502.781,1230.09 578.5,1221.5C 587.882,1362.27 640.715,1483.6 737,1585.5C 860.156,1707.91 1008.99,1765.08 1183.5,1757C 1331.6,1744.69 1457.1,1685.52 1560,1579.5C 1680.21,1446.19 1729.87,1289.86 1709,1110.5C 1694.59,1012.69 1658.09,924.362 1599.5,845.5C 1653.88,792.448 1708.55,739.781 1763.5,687.5 Z"/></g>
<g><path style="opacity:0.987" fill="#169b38" d="M 1138.5,691.5 C 1185.13,690.901 1222.63,708.901 1251,745.5C 1351.09,917.343 1450.42,1089.68 1549,1262.5C 1568.07,1312.31 1561.07,1357.97 1528,1399.5C 1505.46,1424.69 1477.29,1439.19 1443.5,1443C 1244.83,1443.67 1046.17,1443.67 847.5,1443C 801.045,1436.54 766.878,1412.71 745,1371.5C 728.003,1334.26 727.67,1296.93 744,1259.5C 836.414,1098.34 929.081,937.337 1022,776.5C 1028.92,763.663 1036.58,751.33 1045,739.5C 1069.53,710.653 1100.69,694.653 1138.5,691.5 Z M 1140.5,749.5 C 1169.62,749.307 1192.12,761.307 1208,785.5C 1303,950.167 1398,1114.83 1493,1279.5C 1508.91,1314.53 1502.75,1345.03 1474.5,1371C 1462.92,1379.53 1449.92,1384.53 1435.5,1386C 1242.5,1386.67 1049.5,1386.67 856.5,1386C 823.786,1381.61 802.286,1363.78 792,1332.5C 787.398,1312.32 790.398,1293.32 801,1275.5C 896,1110.83 991,946.167 1086,781.5C 1099.61,763.05 1117.78,752.383 1140.5,749.5 Z"/></g>
<g><path style="opacity:0.979" fill="#169b38" d="M 1143.5,874.5 C 1159.33,874.846 1169.5,882.513 1174,897.5C 1174.67,991.5 1174.67,1085.5 1174,1179.5C 1167.48,1198.01 1154.64,1204.85 1135.5,1200C 1124.79,1195.29 1118.63,1187.12 1117,1175.5C 1116.33,1083.83 1116.33,992.167 1117,900.5C 1119.8,885.529 1128.64,876.862 1143.5,874.5 Z"/></g>
<g><path style="opacity:0.968" fill="#169b38" d="M 1139.5,1250.5 C 1157.37,1248.84 1168.87,1256.5 1174,1273.5C 1177.25,1287.8 1174.09,1300.3 1164.5,1311C 1148.79,1321.05 1134.62,1319.21 1122,1305.5C 1114.75,1291.13 1114.75,1276.8 1122,1262.5C 1126.43,1256.38 1132.26,1252.38 1139.5,1250.5 Z"/></g>
</svg>
