<svg xmlns="http://www.w3.org/2000/svg" xmlns:xlink="http://www.w3.org/1999/xlink" width="720" zoomAndPan="magnify" viewBox="0 0 540 540.000001" height="720" preserveAspectRatio="xMidYMid meet" version="1.0"><defs><clipPath id="9b3bc9fa85"><path d="M 57.488281 15.414062 L 482.152344 15.414062 L 482.152344 122 L 57.488281 122 Z M 57.488281 15.414062 " clip-rule="nonzero"/></clipPath><clipPath id="ea04962be3"><path d="M 88 159 L 452 159 L 452 523.722656 L 88 523.722656 Z M 88 159 " clip-rule="nonzero"/></clipPath></defs><g clip-path="url(#9b3bc9fa85)"><path fill="#283882" d="M 467.21875 60.890625 L 330.835938 60.890625 L 330.835938 30.390625 C 330.835938 21.820312 323.890625 15.414062 315.859375 15.414062 L 224.910156 15.414062 C 216.335938 15.414062 209.929688 22.363281 209.929688 30.390625 L 209.929688 60.890625 L 72.46875 60.890625 C 63.894531 60.890625 57.488281 67.835938 57.488281 75.867188 L 57.488281 106.363281 C 57.488281 114.890625 64.4375 121.34375 72.46875 121.34375 L 467.21875 121.34375 C 475.789062 121.34375 482.195312 114.394531 482.195312 106.363281 L 482.195312 75.867188 C 482.195312 67.835938 475.789062 60.890625 467.21875 60.890625 " fill-opacity="1" fill-rule="nonzero"/></g><g clip-path="url(#ea04962be3)"><path fill="#283882" d="M 337.785156 376.507812 C 344.734375 383.410156 344.734375 395.230469 337.785156 402.132812 C 334.039062 405.878906 329.753906 407.503906 324.925781 407.503906 C 320.144531 407.503906 315.859375 405.878906 312.113281 402.132812 L 269.84375 359.90625 L 227.570312 402.132812 C 223.824219 405.878906 219.585938 407.503906 214.757812 407.503906 C 209.929688 407.503906 205.644531 405.878906 201.898438 402.132812 C 194.953125 395.1875 194.953125 383.410156 201.898438 376.507812 L 244.171875 334.238281 L 201.898438 291.964844 C 194.953125 285.015625 194.953125 273.242188 201.898438 266.296875 C 208.847656 259.347656 220.621094 259.347656 227.570312 266.296875 L 269.84375 308.566406 L 312.113281 266.296875 C 319.0625 259.347656 330.835938 259.347656 337.785156 266.296875 C 344.734375 273.242188 344.734375 285.015625 337.785156 291.964844 L 295.511719 334.238281 Z M 443.171875 159.328125 L 96.558594 159.328125 C 91.730469 159.328125 88.527344 163.570312 89.023438 167.855469 L 128.09375 483.476562 C 130.753906 506.484375 150.558594 523.582031 173.570312 523.582031 L 366.160156 523.582031 C 389.125 523.582031 408.390625 506.484375 411.59375 483.476562 L 451.203125 167.855469 C 451.742188 163.027344 448 159.328125 443.171875 159.328125 " fill-opacity="1" fill-rule="nonzero"/></g></svg>