<?xml version="1.0" encoding="UTF-8"?>
<!DOCTYPE svg PUBLIC "-//W3C//DTD SVG 1.1//EN" "http://www.w3.org/Graphics/SVG/1.1/DTD/svg11.dtd">
<svg xmlns="http://www.w3.org/2000/svg" version="1.1" width="2250px" height="2250px" style="shape-rendering:geometricPrecision; text-rendering:geometricPrecision; image-rendering:optimizeQuality; fill-rule:evenodd; clip-rule:evenodd" xmlns:xlink="http://www.w3.org/1999/xlink">
<g><path style="opacity:0.98" fill="#1d3781" d="M 997.5,56.5 C 1013.14,56.5541 1022.31,64.2208 1025,79.5C 1025.67,248.833 1025.67,418.167 1025,587.5C 1022.67,601.326 1014.51,608.659 1000.5,609.5C 988.07,609.21 979.903,603.21 976,591.5C 975.333,419.167 975.333,246.833 976,74.5C 979.598,64.1323 986.765,58.1323 997.5,56.5 Z"/></g>
<g><path style="opacity:0.97" fill="#1d3781" d="M 844.5,95.5 C 859.077,93.5328 869.243,99.1995 875,112.5C 875.667,131.167 875.667,149.833 875,168.5C 872.632,177.203 867.132,183.037 858.5,186C 840.856,188.938 830.023,181.771 826,164.5C 825.088,147.128 825.421,129.794 827,112.5C 830.084,103.915 835.917,98.2483 844.5,95.5 Z"/></g>
<g><path style="opacity:0.976" fill="#1d3781" d="M 677.5,169.5 C 691.43,169.536 700.263,176.203 704,189.5C 704.667,236.833 704.667,284.167 704,331.5C 698.64,348.767 687.14,354.934 669.5,350C 662.091,346.261 657.257,340.428 655,332.5C 654.333,284.833 654.333,237.167 655,189.5C 658.027,177.631 665.527,170.965 677.5,169.5 Z"/></g>
<g><path style="opacity:0.976" fill="#1d3781" d="M 1108.5,181.5 C 1123.98,179.149 1134.48,185.149 1140,199.5C 1140.67,244.167 1140.67,288.833 1140,333.5C 1134.79,347.696 1124.62,353.529 1109.5,351C 1099.12,347.952 1092.95,341.119 1091,330.5C 1090.33,287.833 1090.33,245.167 1091,202.5C 1093.1,192.248 1098.93,185.248 1108.5,181.5 Z"/></g>
<g><path style="opacity:0.98" fill="#1d3781" d="M 848.5,235.5 C 861.755,235.197 870.589,241.197 875,253.5C 875.667,390.5 875.667,527.5 875,664.5C 868.886,679.141 858.053,684.641 842.5,681C 832.836,677.006 827.336,669.839 826,659.5C 825.333,525.833 825.333,392.167 826,258.5C 828.161,245.446 835.661,237.779 848.5,235.5 Z"/></g>
<g><path style="opacity:0.97" fill="#1d3781" d="M 1582.5,268.5 C 1597.98,266.149 1608.48,272.149 1614,286.5C 1614.67,304.5 1614.67,322.5 1614,340.5C 1608.96,354.943 1598.79,361.109 1583.5,359C 1573.56,356.058 1567.39,349.558 1565,339.5C 1564.33,322.5 1564.33,305.5 1565,288.5C 1567.52,278.822 1573.35,272.155 1582.5,268.5 Z"/></g>
<g><path style="opacity:0.978" fill="#1d3781" d="M 672.5,409.5 C 688.523,407.081 699.023,413.414 704,428.5C 704.667,506.5 704.667,584.5 704,662.5C 700.83,675.161 692.664,681.828 679.5,682.5C 666.336,681.828 658.17,675.161 655,662.5C 654.333,584.5 654.333,506.5 655,428.5C 657.251,418.753 663.084,412.42 672.5,409.5 Z"/></g>
<g><path style="opacity:0.981" fill="#1d3781" d="M 1109.5,411.5 C 1124.74,409.864 1134.91,416.197 1140,430.5C 1140.5,534.833 1140.67,639.166 1140.5,743.5C 1176.52,746.335 1212.52,749.502 1248.5,753C 1253.52,753.673 1258.19,755.34 1262.5,758C 1464,954.167 1665.5,1150.33 1867,1346.5C 1900.91,1427.89 1934.24,1509.56 1967,1591.5C 1971.03,1607.94 1965.2,1619.11 1949.5,1625C 1845.5,1625.33 1741.5,1625.67 1637.5,1626C 1526.53,1745.97 1415.2,1865.63 1303.5,1985C 1299.48,1987.34 1295.15,1988.67 1290.5,1989C 1170.51,1996.18 1050.51,2002.85 930.5,2009C 928.122,2008.49 925.788,2007.82 923.5,2007C 710.365,1808.2 497.532,1609.03 285,1409.5C 278.69,1398.72 279.356,1388.38 287,1378.5C 403.952,1238.76 520.786,1098.93 637.5,959C 605.333,928.167 573.167,897.333 541,866.5C 533.045,854.013 533.878,842.18 543.5,831C 546.339,829.08 549.339,827.413 552.5,826C 649.577,790.197 746.577,754.197 843.5,718C 846,717.5 848.5,717 851,716.5C 930.805,724.164 1010.64,731.497 1090.5,738.5C 1090.33,636.499 1090.5,534.499 1091,432.5C 1093.14,421.864 1099.31,414.864 1109.5,411.5 Z M 841.5,771.5 C 842.873,771.343 844.207,771.51 845.5,772C 1039.78,964.612 1233.78,1157.61 1427.5,1351C 1348.86,1375.44 1270.19,1399.44 1191.5,1423C 996.5,1235.33 801.5,1047.67 606.5,860C 684.971,830.569 763.304,801.069 841.5,771.5 Z M 918.5,774.5 C 919.964,773.84 921.631,773.507 923.5,773.5C 1010.56,781.339 1097.56,789.505 1184.5,798C 1154.37,823.125 1124.54,848.625 1095,874.5C 1087.84,888.021 1090,899.855 1101.5,910C 1110.32,914.272 1119.32,914.605 1128.5,911C 1167.17,878.333 1205.83,845.667 1244.5,813C 1245.5,812.333 1246.5,812.333 1247.5,813C 1426.83,987.667 1606.17,1162.33 1785.5,1337C 1685.17,1337.67 1584.83,1337.67 1484.5,1337C 1296.24,1148.91 1107.58,961.41 918.5,774.5 Z M 672.5,994.5 C 678.275,999.1 683.941,1003.93 689.5,1009C 849.56,1164.39 1010.23,1319.06 1171.5,1473C 1178.52,1476.79 1185.86,1477.46 1193.5,1475C 1261.74,1453.69 1330.07,1433.03 1398.5,1413C 1243.33,1591.5 1088.17,1770 933,1948.5C 735.595,1763.22 538.095,1578.05 340.5,1393C 451.378,1260.29 562.045,1127.46 672.5,994.5 Z M 1505.5,1387.5 C 1613.83,1387.33 1722.17,1387.5 1830.5,1388C 1855.83,1450.33 1881.17,1512.67 1906.5,1575C 1785.17,1575.67 1663.83,1575.67 1542.5,1575C 1530.11,1512.53 1517.77,1450.03 1505.5,1387.5 Z M 1459.5,1418.5 C 1472.67,1480.2 1485.17,1542.2 1497,1604.5C 1498.95,1615.12 1505.12,1621.95 1515.5,1625C 1533.17,1625.33 1550.83,1625.67 1568.5,1626C 1471.65,1730.02 1374.98,1834.18 1278.5,1938.5C 1264.23,1940.31 1249.9,1941.48 1235.5,1942C 1154.85,1946.93 1074.18,1951.26 993.5,1955C 1149.04,1776.29 1304.38,1597.46 1459.5,1418.5 Z"/></g>
<g><path style="opacity:0.975" fill="#1d3781" d="M 1582.5,422.5 C 1597.98,420.149 1608.48,426.149 1614,440.5C 1614.67,477.167 1614.67,513.833 1614,550.5C 1610.24,562.469 1602.07,568.802 1589.5,569.5C 1575.9,568.724 1567.73,561.724 1565,548.5C 1564.33,513.167 1564.33,477.833 1565,442.5C 1567.52,432.822 1573.35,426.155 1582.5,422.5 Z"/></g>
<g><path style="opacity:0.979" fill="#1d3781" d="M 1703.5,434.5 C 1719.58,432.34 1729.75,439.007 1734,454.5C 1734.67,560.5 1734.67,666.5 1734,772.5C 1729.48,787.683 1719.31,794.183 1703.5,792C 1693.97,789.14 1687.81,782.974 1685,773.5C 1684.33,666.833 1684.33,560.167 1685,453.5C 1688.01,443.992 1694.18,437.659 1703.5,434.5 Z"/></g>
<g><path style="opacity:0.979" fill="#1d3781" d="M 1585.5,602.5 C 1600.01,601.496 1609.51,607.829 1614,621.5C 1614.67,725.5 1614.67,829.5 1614,933.5C 1608.07,949.215 1596.9,955.049 1580.5,951C 1572.06,947.563 1566.89,941.396 1565,932.5C 1564.33,829.167 1564.33,725.833 1565,622.5C 1567.78,611.549 1574.62,604.882 1585.5,602.5 Z"/></g>
<g><path style="opacity:0.98" fill="#1d3781" d="M 1841.5,626.5 C 1857.63,624.346 1867.79,631.013 1872,646.5C 1872.67,843.167 1872.67,1039.83 1872,1236.5C 1866.07,1252.22 1854.9,1258.05 1838.5,1254C 1830.51,1250.67 1825.34,1244.84 1823,1236.5C 1822.33,1039.83 1822.33,843.167 1823,646.5C 1825.58,636.425 1831.74,629.759 1841.5,626.5 Z"/></g>
<g><path style="opacity:0.979" fill="#1d3781" d="M 1702.5,864.5 C 1719.04,862.006 1729.54,868.672 1734,884.5C 1734.67,969.833 1734.67,1055.17 1734,1140.5C 1728.7,1157.74 1717.2,1163.91 1699.5,1159C 1691.96,1155.44 1687.13,1149.61 1685,1141.5C 1684.33,1055.5 1684.33,969.5 1685,883.5C 1687.24,873.762 1693.07,867.429 1702.5,864.5 Z"/></g>
<g><path style="opacity:0.976" fill="#1d3781" d="M 299.5,2142.5 C 849.5,2142.33 1399.5,2142.5 1949.5,2143C 1965.72,2148.62 1971.55,2159.79 1967,2176.5C 1963.44,2185.36 1956.94,2190.53 1947.5,2192C 1399.17,2192.67 850.833,2192.67 302.5,2192C 288.708,2189.45 281.375,2181.11 280.5,2167C 281.465,2154.55 287.798,2146.38 299.5,2142.5 Z"/></g>
</svg>
