<?xml version="1.0" encoding="UTF-8"?>
<!DOCTYPE svg PUBLIC "-//W3C//DTD SVG 1.1//EN" "http://www.w3.org/Graphics/SVG/1.1/DTD/svg11.dtd">
<svg xmlns="http://www.w3.org/2000/svg" version="1.1" width="2250px" height="2250px" style="shape-rendering:geometricPrecision; text-rendering:geometricPrecision; image-rendering:optimizeQuality; fill-rule:evenodd; clip-rule:evenodd" xmlns:xlink="http://www.w3.org/1999/xlink">
<g><path style="opacity:0.993" fill="#af1916" d="M 1789.5,487.5 C 1796.01,487.009 1799.34,490.009 1799.5,496.5C 1794.63,538.13 1790.47,579.796 1787,621.5C 1813.33,643.833 1839.67,666.167 1866,688.5C 1896.61,671.781 1927.11,654.948 1957.5,638C 1962.19,595.816 1967.02,553.649 1972,511.5C 1976.01,506.834 1980.51,506.334 1985.5,510C 2046.38,554.607 2069.54,614.107 2055,688.5C 2038.98,750.189 2000.98,791.856 1941,813.5C 1920.13,1006.5 1899.3,1199.5 1878.5,1392.5C 1878.83,1393.83 1879.17,1395.17 1879.5,1396.5C 1945.81,1440.16 1972.65,1501.5 1960,1580.5C 1950,1626.48 1925.16,1661.98 1885.5,1687C 1875.14,1693.93 1863.98,1699.09 1852,1702.5C 1846.07,1702.18 1843.57,1699.02 1844.5,1693C 1849.17,1651.85 1853.33,1610.68 1857,1569.5C 1830.87,1547.71 1805.04,1525.54 1779.5,1503C 1776.3,1503.09 1773.3,1504.09 1770.5,1506C 1742.66,1521.42 1714.66,1536.59 1686.5,1551.5C 1681.67,1593.83 1676.83,1636.16 1672,1678.5C 1671.5,1680.33 1670.33,1681.5 1668.5,1682C 1665.83,1682.67 1663.17,1682.67 1660.5,1682C 1594.83,1634.67 1571.66,1571.5 1591,1492.5C 1609.29,1435.54 1646.63,1396.87 1703,1376.5C 1723.73,1183.32 1744.57,990.153 1765.5,797C 1765.41,795.893 1765.08,794.893 1764.5,794C 1701.41,753.539 1673.91,695.705 1682,620.5C 1688,579.19 1706.83,545.023 1738.5,518C 1753.97,505.264 1770.97,495.098 1789.5,487.5 Z"/></g>
<g><path style="opacity:0.991" fill="#af1916" d="M 222.5,497.5 C 224.328,532.819 225.162,568.486 225,604.5C 229.386,648.542 252.219,678.375 293.5,694C 339.324,705.837 376.824,693.337 406,656.5C 414.689,644.118 420.355,630.452 423,615.5C 424.112,576.186 424.945,536.852 425.5,497.5C 481.16,538.172 506.66,593.172 502,662.5C 494.004,725.374 462.504,772.208 407.5,803C 403.48,806.011 400.647,809.844 399,814.5C 397.681,879.122 397.014,943.789 397,1008.5C 387.249,1001.71 377.083,995.539 366.5,990C 358.61,988.231 351.61,989.898 345.5,995C 340.88,1000.41 336.38,1005.91 332,1011.5C 322.803,987.578 313.803,963.578 305,939.5C 300.699,932.601 294.532,928.601 286.5,927.5C 274.794,929.708 263.128,932.041 251.5,934.5C 251.977,894.119 251.477,853.786 250,813.5C 248.561,810.397 246.727,807.564 244.5,805C 172.623,763.756 140.457,701.589 148,618.5C 156.613,567.895 181.447,527.562 222.5,497.5 Z"/></g>
<g><path style="opacity:0.987" fill="#af1916" d="M 1270.5,749.5 C 1279.6,749.346 1288.26,751.18 1296.5,755C 1303.07,758.902 1309.07,763.569 1314.5,769C 1358.67,811.167 1402.83,853.333 1447,895.5C 1459.93,915.75 1459.59,935.75 1446,955.5C 1399.47,1000.37 1352.64,1044.87 1305.5,1089C 1292.07,1099.37 1277.07,1102.37 1260.5,1098C 1239.61,1090.06 1228.61,1074.89 1227.5,1052.5C 1227.98,1040.88 1231.82,1030.54 1239,1021.5C 1256.47,1005.7 1273.64,989.533 1290.5,973C 1168.17,972.667 1045.83,972.333 923.5,972C 896.395,967.728 882.062,951.895 880.5,924.5C 880.979,908.374 887.645,895.54 900.5,886C 905.849,882.823 911.516,880.49 917.5,879C 1041.8,877.678 1166.14,877.011 1290.5,877C 1273.64,860.467 1256.47,844.301 1239,828.5C 1224.56,808.99 1223.89,788.99 1237,768.5C 1245.83,757.84 1257,751.507 1270.5,749.5 Z"/></g>
<g><path style="opacity:0.992" fill="#af1916" d="M 902.5,1092.5 C 937.248,1094.41 954.081,1112.75 953,1147.5C 951.572,1156.02 948.238,1163.69 943,1170.5C 925.802,1187.37 908.302,1203.87 890.5,1220C 1013.83,1220.33 1137.17,1220.67 1260.5,1221C 1281.91,1225.41 1295.08,1238.25 1300,1259.5C 1302.91,1287.87 1290.74,1306.04 1263.5,1314C 1138.83,1314.33 1014.17,1314.67 889.5,1315C 907.969,1331.8 926.136,1348.97 944,1366.5C 956.667,1385.83 956.667,1405.17 944,1424.5C 926.963,1443.47 906.797,1447.63 883.5,1437C 878.546,1433.71 873.88,1430.05 869.5,1426C 825.302,1383.47 780.802,1341.3 736,1299.5C 724.737,1283.46 722.404,1266.13 729,1247.5C 731,1244.17 733,1240.83 735,1237.5C 783.071,1191.88 831.238,1146.38 879.5,1101C 886.754,1096.64 894.421,1093.81 902.5,1092.5 Z"/></g>
<g><path style="opacity:0.989" fill="#af1916" d="M 166.5,1185.5 C 191.272,1204.43 215.939,1223.59 240.5,1243C 253.206,1250.03 263.706,1247.53 272,1235.5C 275.011,1221.59 277.511,1207.59 279.5,1193.5C 292.487,1192.33 305.487,1192.17 318.5,1193C 346.916,1239.17 375.583,1285.17 404.5,1331C 407.789,1333.48 411.456,1335.14 415.5,1336C 474.968,1333.5 524.802,1354 565,1397.5C 605.9,1447.46 617.9,1503.79 601,1566.5C 598.727,1573.99 596.06,1581.32 593,1588.5C 575.749,1561 558.749,1533.33 542,1505.5C 515.845,1464.54 478.678,1448.38 430.5,1457C 382.91,1472.1 357.577,1504.6 354.5,1554.5C 354.803,1568.38 357.636,1581.71 363,1594.5C 382.238,1627.56 402.071,1660.23 422.5,1692.5C 368.993,1689.83 325.16,1667.83 291,1626.5C 251.394,1573.52 242.06,1515.52 263,1452.5C 267.453,1441.59 272.453,1430.93 278,1420.5C 278.667,1416.17 278.667,1411.83 278,1407.5C 236.502,1338.5 194.502,1269.83 152,1201.5C 151.333,1200.83 151.333,1200.17 152,1199.5C 157.336,1195.33 162.17,1190.66 166.5,1185.5 Z"/></g>
</svg>
