<svg xmlns="http://www.w3.org/2000/svg" xmlns:xlink="http://www.w3.org/1999/xlink" width="720" zoomAndPan="magnify" viewBox="0 0 540 540.000001" height="720" preserveAspectRatio="xMidYMid meet" version="1.0"><defs><clipPath id="6d8de78cd3"><path d="M 43 40.425781 L 498 40.425781 L 498 498.578125 L 43 498.578125 Z M 43 40.425781 " clip-rule="nonzero"/></clipPath></defs><g clip-path="url(#6d8de78cd3)"><path fill="#88bc6f" d="M 268.183594 40.425781 C 205.328125 40.425781 147.488281 65.480469 105.480469 108.015625 L 61.925781 76.746094 C 51.648438 69.347656 43.230469 73.667969 43.214844 86.339844 L 43.070312 247.210938 C 43.085938 259.910156 52.894531 266.921875 64.863281 262.871094 L 217.3125 211.414062 C 229.324219 207.363281 230.726562 197.988281 220.433594 190.585938 L 170.152344 154.460938 C 196.824219 131.640625 231.113281 118.28125 268.183594 118.28125 C 351.550781 118.28125 419.398438 186.117188 419.398438 269.488281 C 419.398438 352.871094 351.566406 420.71875 268.183594 420.71875 C 198.269531 420.71875 136.464844 371.484375 120.855469 303.519531 L 47.007812 328.429688 C 73.410156 427.492188 164.882812 498.578125 268.183594 498.578125 C 394.488281 498.578125 497.242188 395.808594 497.242188 269.472656 C 497.242188 143.164062 394.488281 40.425781 268.183594 40.425781 Z M 268.183594 40.425781 " fill-opacity="1" fill-rule="nonzero"/></g></svg>