<?xml version="1.0" encoding="UTF-8"?>
<!DOCTYPE svg PUBLIC "-//W3C//DTD SVG 1.1//EN" "http://www.w3.org/Graphics/SVG/1.1/DTD/svg11.dtd">
<svg xmlns="http://www.w3.org/2000/svg" version="1.1" width="2250px" height="2250px" style="shape-rendering:geometricPrecision; text-rendering:geometricPrecision; image-rendering:optimizeQuality; fill-rule:evenodd; clip-rule:evenodd" xmlns:xlink="http://www.w3.org/1999/xlink">
<g><path style="opacity:0.982" fill="#d51316" d="M 693.5,367.5 C 823.565,368.248 937.898,410.415 1036.5,494C 1068.86,522.69 1098.03,554.19 1124,588.5C 1203.09,481.995 1307.26,412.495 1436.5,380C 1553.59,353.536 1664.25,369.869 1768.5,429C 1842.94,470.106 1902.44,526.94 1947,599.5C 2004.87,701.07 2022.87,809.403 2001,924.5C 1980.11,1025.29 1934.78,1112.96 1865,1187.5C 1624.5,1427.33 1384,1667.17 1143.5,1907C 1129.42,1915.74 1115.75,1915.07 1102.5,1905C 859.585,1661.75 616.419,1418.92 373,1176.5C 298.319,1091.57 254.319,992.572 241,879.5C 228.765,672.315 313.265,519.482 494.5,421C 525.571,404.968 557.904,391.968 591.5,382C 625.165,373.738 659.165,368.905 693.5,367.5 Z M 681.5,422.5 C 810.502,419.874 922.168,462.041 1016.5,549C 1058.83,590.306 1094.66,636.473 1124,687.5C 1140.5,661.822 1157.5,636.489 1175,611.5C 1247.49,517.97 1341.66,457.803 1457.5,431C 1558.74,410.208 1654.08,425.541 1743.5,477C 1814.38,516.884 1869.55,572.384 1909,643.5C 1951.58,726.303 1964.91,813.636 1949,905.5C 1931,1000.52 1889,1082.85 1823,1152.5C 1590,1384.83 1357,1617.17 1124,1849.5C 887.64,1612.81 650.973,1376.47 414,1140.5C 343.153,1060.42 303.153,966.758 294,859.5C 288.419,693.124 356.253,566.957 497.5,481C 537.49,457.34 580.157,440.34 625.5,430C 644.163,426.335 662.83,423.835 681.5,422.5 Z"/></g>
<g><path style="opacity:0.98" fill="#d51316" d="M 1110.5,718.5 C 1231.87,716.97 1334.71,759.303 1419,845.5C 1435.87,831.633 1453.04,818.133 1470.5,805C 1488.05,799.735 1500.22,805.568 1507,822.5C 1508.5,830.373 1507.17,837.706 1503,844.5C 1381.39,968.107 1259.89,1091.61 1138.5,1215C 1124.14,1223.71 1111.3,1221.88 1100,1209.5C 1066.6,1154.43 1033.6,1099.09 1001,1043.5C 997.525,1026.28 1004.03,1014.78 1020.5,1009C 1027.15,1007.97 1033.49,1008.97 1039.5,1012C 1067.02,1037.02 1094.68,1061.85 1122.5,1086.5C 1207.15,1017.85 1291.48,948.848 1375.5,879.5C 1319.87,820.348 1251.54,784.848 1170.5,773C 1059.79,759.797 963.127,790.13 880.5,864C 793.501,948.982 757.334,1052.15 772,1173.5C 791.718,1288.45 851.885,1374.62 952.5,1432C 1036.23,1476.01 1123.9,1486.01 1215.5,1462C 1336.53,1424.31 1417.36,1345.47 1458,1225.5C 1475.82,1165.77 1478.15,1105.44 1465,1044.5C 1460.47,1027.07 1455.63,1009.74 1450.5,992.5C 1453.19,973.311 1464.19,964.811 1483.5,967C 1492.47,970.13 1499.13,975.963 1503.5,984.5C 1544.52,1105.97 1532.69,1221.97 1468,1332.5C 1400.6,1437.17 1305.1,1499.67 1181.5,1520C 1057.78,1535.08 949.117,1502.08 855.5,1421C 753.634,1324.44 710.467,1205.94 726,1065.5C 747.115,937.658 812.615,840.158 922.5,773C 980.88,739.703 1043.55,721.536 1110.5,718.5 Z"/></g>
<g><path style="opacity:0.961" fill="#d51316" d="M 1116.5,803.5 C 1132.68,802.662 1142.85,809.995 1147,825.5C 1147.67,833.167 1147.67,840.833 1147,848.5C 1141.15,866.676 1128.98,873.176 1110.5,868C 1101.83,863.827 1096.66,856.994 1095,847.5C 1093.89,837.679 1094.55,828.012 1097,818.5C 1101.28,810.461 1107.78,805.461 1116.5,803.5 Z"/></g>
<g><path style="opacity:0.961" fill="#d51316" d="M 824.5,1095.5 C 833.568,1095.12 842.568,1095.62 851.5,1097C 864.8,1102.32 870.633,1112.15 869,1126.5C 866.108,1139.03 858.274,1146.2 845.5,1148C 836.353,1149.05 827.353,1148.38 818.5,1146C 804.109,1138.03 799.609,1126.2 805,1110.5C 809.28,1102.46 815.78,1097.46 824.5,1095.5 Z"/></g>
<g><path style="opacity:0.961" fill="#d51316" d="M 1394.5,1095.5 C 1402.51,1095.33 1410.51,1095.5 1418.5,1096C 1434.23,1100.61 1441.06,1111.11 1439,1127.5C 1435.86,1139.64 1428.02,1146.47 1415.5,1148C 1409.17,1148.67 1402.83,1148.67 1396.5,1148C 1381.93,1145.43 1373.93,1136.76 1372.5,1122C 1373.55,1107.8 1380.88,1098.96 1394.5,1095.5 Z"/></g>
<g><path style="opacity:0.963" fill="#d51316" d="M 1118.5,1373.5 C 1139.37,1374.87 1149.04,1386.04 1147.5,1407C 1147.96,1431.88 1135.96,1442.55 1111.5,1439C 1098.25,1432.51 1092.59,1421.85 1094.5,1407C 1093.2,1388.84 1101.2,1377.68 1118.5,1373.5 Z"/></g>
</svg>
