<svg xmlns="http://www.w3.org/2000/svg" xmlns:xlink="http://www.w3.org/1999/xlink" width="720" zoomAndPan="magnify" viewBox="0 0 540 540.000001" height="720" preserveAspectRatio="xMidYMid meet" version="1.0"><defs><clipPath id="7efb06a94f"><path d="M 20.027344 25.777344 L 520 25.777344 L 520 513.125 L 20.027344 513.125 Z M 20.027344 25.777344 " clip-rule="nonzero"/></clipPath></defs><g clip-path="url(#7efb06a94f)"><path fill="#8b3170" d="M 70.902344 128.335938 C 70.902344 128.335938 91.585938 128.238281 91.585938 128.238281 C 92.957031 133.140625 94.917969 137.941406 97.566406 142.453125 L 82.960938 157.15625 C 81.195312 159.019531 81.195312 161.859375 82.960938 163.722656 L 99.917969 180.488281 C 101.683594 182.25 104.625 182.25 106.488281 180.488281 L 121.09375 165.78125 C 125.601562 168.332031 130.40625 170.292969 135.308594 171.566406 L 135.40625 192.25 C 135.40625 194.796875 137.464844 196.855469 140.011719 196.855469 L 163.832031 196.757812 C 166.382812 196.757812 168.441406 194.601562 168.441406 192.054688 L 168.34375 171.371094 C 173.242188 169.996094 177.949219 168.035156 182.457031 165.488281 L 197.164062 180.09375 C 198.925781 181.859375 201.867188 181.859375 203.730469 179.996094 L 220.492188 163.039062 C 222.257812 161.175781 222.257812 158.332031 220.492188 156.46875 L 205.789062 141.863281 C 208.339844 137.355469 210.296875 132.550781 211.574219 127.648438 L 232.257812 127.550781 C 234.414062 127.550781 236.179688 126.082031 236.667969 124.21875 C 236.765625 123.824219 236.863281 123.433594 236.863281 122.945312 L 236.765625 99.023438 C 236.667969 96.574219 234.707031 94.417969 232.160156 94.417969 L 211.476562 94.515625 C 210.101562 89.613281 208.140625 84.8125 205.496094 80.300781 L 220.101562 65.597656 C 221.867188 63.734375 221.867188 60.890625 220.101562 59.027344 L 203.144531 42.265625 C 201.28125 40.5 198.4375 40.5 196.574219 42.265625 L 181.96875 56.96875 C 177.460938 54.421875 172.65625 52.460938 167.753906 51.1875 L 167.65625 30.503906 C 167.65625 27.953125 165.597656 25.894531 163.050781 25.894531 L 139.128906 25.992188 C 136.582031 25.992188 134.523438 28.050781 134.523438 30.601562 L 134.621094 51.285156 C 129.71875 52.65625 125.015625 54.617188 120.503906 57.167969 L 105.800781 42.558594 C 103.9375 40.796875 101.09375 40.796875 99.234375 42.660156 L 82.46875 59.714844 C 80.707031 61.578125 80.707031 64.421875 82.46875 66.285156 L 97.175781 80.890625 C 94.625 85.398438 92.664062 90.203125 91.390625 95.105469 L 70.707031 95.203125 C 68.550781 95.203125 66.785156 96.574219 66.296875 98.535156 C 66.195312 98.925781 66.097656 99.417969 66.097656 99.808594 L 66.195312 123.726562 C 66.296875 126.277344 68.355469 128.335938 70.902344 128.335938 Z M 190.988281 111.375 C 190.988281 133.140625 173.34375 150.785156 151.578125 150.785156 C 129.816406 150.785156 112.171875 133.140625 112.171875 111.375 C 113.9375 59.226562 189.125 59.226562 190.988281 111.375 Z M 390.378906 450.457031 L 149.621094 450.457031 L 149.621094 413.597656 L 390.378906 413.597656 Z M 95.605469 503.980469 C 95.605469 508.980469 99.625 513.097656 104.625 513.097656 L 435.371094 513.097656 C 440.371094 513.097656 444.292969 508.980469 444.292969 503.980469 L 444.292969 378.308594 L 95.605469 378.308594 Z M 138.933594 408.207031 C 138.933594 405.265625 141.386719 402.816406 144.324219 402.816406 L 395.867188 402.816406 C 398.808594 402.816406 401.257812 405.265625 401.257812 408.207031 L 401.257812 455.847656 C 401.257812 458.789062 398.808594 461.238281 395.867188 461.238281 L 144.226562 461.238281 C 141.285156 461.238281 138.835938 458.789062 138.835938 455.847656 L 138.835938 408.207031 Z M 444.097656 306.746094 C 444.195312 306.84375 486.738281 368.601562 486.835938 368.703125 L 53.0625 368.703125 L 95.703125 306.746094 Z M 70.414062 326.449219 L 20.027344 336.84375 L 79.527344 313.117188 Z M 460.269531 313.019531 L 519.972656 336.84375 L 469.484375 326.449219 Z M 346.167969 148.628906 C 344.007812 143.53125 346.363281 137.648438 351.460938 135.492188 C 356.558594 133.335938 362.339844 135.6875 364.59375 140.785156 L 391.847656 204.796875 C 394.003906 209.894531 391.652344 215.679688 386.554688 217.933594 C 381.554688 220.089844 375.574219 217.738281 373.417969 212.640625 Z M 305.679688 165.878906 C 303.523438 160.78125 305.875 155 310.875 152.84375 C 315.972656 150.6875 321.757812 153.039062 324.011719 158.136719 L 351.265625 222.148438 C 353.421875 227.246094 351.066406 233.03125 345.96875 235.285156 C 340.972656 237.441406 335.089844 235.089844 332.933594 229.992188 Z M 265.097656 183.132812 C 262.941406 178.035156 265.292969 172.253906 270.390625 169.996094 C 275.390625 167.839844 281.269531 170.195312 283.527344 175.289062 L 310.777344 239.304688 C 312.933594 244.402344 310.582031 250.28125 305.484375 252.4375 C 300.386719 254.597656 294.601562 252.242188 292.347656 247.144531 Z M 242.84375 192.640625 L 270.097656 256.65625 C 272.253906 261.753906 269.898438 267.535156 264.800781 269.789062 C 259.707031 271.945312 253.921875 269.59375 251.667969 264.496094 L 224.414062 200.484375 C 222.257812 195.386719 224.609375 189.601562 229.707031 187.347656 C 234.804688 185.191406 240.6875 187.542969 242.84375 192.640625 Z M 394.886719 187.445312 L 379.300781 150.6875 L 384.789062 148.332031 L 400.375 185.191406 Z M 354.300781 204.699219 L 338.714844 168.035156 L 343.128906 166.175781 L 358.714844 202.835938 Z M 313.71875 221.953125 L 298.132812 185.191406 L 302.542969 183.328125 L 318.128906 219.992188 Z M 273.136719 239.207031 L 257.546875 202.542969 L 261.960938 200.679688 L 277.546875 237.34375 Z M 226.769531 258.910156 L 211.179688 222.148438 L 221.375 217.835938 L 236.960938 254.597656 Z M 170.5 228.324219 C 155.109375 234.890625 147.953125 252.539062 154.519531 268.027344 C 160.992188 283.417969 178.734375 290.472656 194.125 284.003906 L 221.964844 272.144531 L 198.242188 216.5625 Z M 188.046875 266.457031 C 174.222656 273.613281 163.34375 253.125 176.96875 245.675781 C 190.792969 238.519531 201.671875 258.910156 188.046875 266.457031 Z M 390.277344 136.765625 C 388.320312 132.058594 389.789062 126.667969 393.90625 123.628906 L 412.53125 110.003906 L 447.234375 191.761719 L 424.492188 195.777344 C 419.492188 196.660156 414.492188 194.015625 412.53125 189.308594 Z M 457.035156 189.996094 L 420.570312 104.121094 L 428.414062 102.75 C 438.605469 100.984375 448.703125 106.476562 452.820312 115.984375 L 470.957031 158.527344 C 474.976562 168.035156 471.9375 179.210938 463.605469 185.289062 Z M 479.777344 155.097656 L 492.523438 149.707031 C 504.480469 144.707031 509.972656 130.882812 504.875 119.023438 C 499.875 107.0625 486.054688 101.574219 474.191406 106.574219 L 461.449219 111.964844 C 461.644531 112.160156 479.582031 154.507812 479.679688 154.804688 C 479.777344 154.902344 479.777344 155 479.777344 155.097656 Z M 479.582031 119.707031 C 490.757812 115.199219 497.816406 131.765625 486.738281 136.570312 C 475.464844 141.175781 468.605469 124.707031 479.582031 119.707031 Z M 479.582031 119.707031 " fill-opacity="1" fill-rule="nonzero"/></g></svg>