<?xml version="1.0" standalone="no"?>
<!DOCTYPE svg PUBLIC "-//W3C//DTD SVG 20010904//EN"
 "http://www.w3.org/TR/2001/REC-SVG-20010904/DTD/svg10.dtd">
<svg version="1.0" xmlns="http://www.w3.org/2000/svg"
 width="2250.000000pt" height="2250.000000pt" viewBox="0 0 2250.000000 2250.000000"
 preserveAspectRatio="xMidYMid meet">

<g transform="translate(0.000000,2250.000000) scale(0.100000,-0.100000)"
fill="#000000" stroke="none">
<path d="M5507 16992 l-2377 -2377 0 -2737 0 -2737 -97 -58 c-907 -532 -1584
-1334 -1955 -2317 -284 -753 -355 -1636 -197 -2446 289 -1482 1345 -2751 2749
-3305 378 -149 790 -251 1205 -297 163 -18 759 -18 920 0 1229 138 2298 724
3063 1681 115 143 325 457 411 614 l65 117 2665 0 2666 0 2373 2373 2372 2372
0 3374 0 3373 -2377 2374 -2378 2373 -3365 1 -3365 0 -2378 -2378z m11145
-339 l2238 -2238 0 -3163 0 -3164 -2232 -2239 -2233 -2239 -2459 0 c-1962 0
-2457 3 -2453 12 13 36 107 329 117 366 l11 42 2302 0 2302 0 2113 2113 2112
2112 0 2995 0 2995 -2112 2112 -2113 2113 -2995 0 -2995 0 -2113 -2113 -2112
-2112 0 -2365 0 -2365 -193 -66 c-105 -36 -200 -70 -209 -74 -17 -7 -18 117
-18 2516 l0 2524 2237 2237 2238 2238 3165 0 3165 0 2237 -2237z m-9952 -2892
c275 -56 461 -151 630 -321 100 -99 170 -198 240 -338 57 -113 126 -310 113
-323 -9 -9 -732 -349 -742 -349 -3 0 -18 31 -33 68 -100 246 -268 408 -476
457 -57 14 -97 17 -185 12 -242 -13 -394 -92 -470 -246 l-32 -66 0 -200 0
-200 31 -65 c87 -178 247 -269 771 -435 347 -109 577 -205 724 -300 97 -63
231 -199 303 -307 134 -204 176 -392 176 -791 0 -294 -19 -439 -81 -607 -27
-72 -93 -203 -131 -258 -38 -55 -145 -169 -208 -222 l-48 -40 -114 54 c-356
170 -806 301 -1248 366 -234 33 -415 43 -733 38 l-299 -5 -24 55 c-28 63 -84
239 -84 262 0 10 123 68 393 186 l392 172 14 -32 c90 -201 128 -262 213 -343
103 -97 200 -148 338 -176 124 -26 216 -30 322 -13 206 33 335 111 402 244 40
80 48 141 45 347 l-4 190 -33 67 c-43 89 -126 163 -246 223 -87 42 -349 135
-540 190 -238 69 -574 209 -697 291 -160 106 -335 319 -400 487 -68 177 -95
392 -86 677 12 336 83 572 235 776 211 284 524 442 979 494 131 15 483 4 593
-19z m6235 4 c616 -109 1004 -467 1125 -1038 37 -175 42 -336 37 -1462 -4
-1033 -5 -1085 -24 -1185 -100 -523 -391 -872 -864 -1038 -333 -117 -799 -120
-1143 -8 -465 153 -778 505 -876 988 -37 178 -42 381 -37 1484 4 1022 5 1052
26 1163 84 446 319 771 691 957 160 79 378 139 580 158 92 8 397 -3 485 -19z
m-2055 -435 l0 -410 -515 0 -515 0 -2 -1957 -3 -1958 -427 -3 -428 -2 0 1960
0 1960 -515 0 -515 0 0 410 0 410 1460 0 1460 0 0 -410z m5883 382 c370 -84
616 -248 788 -527 145 -234 187 -477 176 -1005 -6 -283 -19 -391 -64 -535
-121 -388 -422 -662 -835 -760 -162 -38 -269 -45 -708 -45 l-410 0 0 -920 0
-920 -425 0 -425 0 0 2371 0 2370 903 -4 c887 -3 904 -4 1000 -25z m-10588
-6712 l885 885 460 -460 460 -460 -882 -882 -883 -883 885 -885 885 -885 -455
-455 c-250 -250 -458 -455 -461 -455 -3 0 -404 396 -891 879 l-885 880 -884
-885 -883 -885 -458 458 -458 458 603 605 c331 333 728 732 882 888 l280 283
-885 879 -885 878 460 461 460 461 882 -882 883 -883 885 885z"/>
<path d="M12474 12925 c-214 -47 -360 -191 -421 -415 -17 -61 -18 -139 -18
-1140 0 -1012 1 -1079 18 -1140 42 -147 131 -275 233 -335 117 -69 270 -99
419 -83 263 28 433 171 496 416 18 72 19 120 19 1142 0 1029 -1 1070 -20 1144
-69 271 -285 429 -582 425 -46 -1 -110 -7 -144 -14z"/>
<path d="M15710 12290 l0 -631 418 3 417 3 66 32 c111 55 188 155 226 296 25
90 25 491 0 591 -38 150 -126 259 -248 306 -64 24 -67 24 -471 28 l-408 3 0
-631z"/>
</g>
</svg>
