<svg xmlns="http://www.w3.org/2000/svg" xmlns:xlink="http://www.w3.org/1999/xlink" width="720" zoomAndPan="magnify" viewBox="0 0 540 540.000001" height="720" preserveAspectRatio="xMidYMid meet" version="1.0"><defs><clipPath id="a4b1549ae7"><path d="M 20 27.082031 L 520 27.082031 L 520 512 L 20 512 Z M 20 27.082031 " clip-rule="nonzero"/></clipPath></defs><g clip-path="url(#a4b1549ae7)"><path fill="#169b39" d="M 514.273438 448.261719 L 453.800781 343.515625 C 473.054688 327.953125 489.078125 308.332031 500.371094 286.375 C 513.359375 261.121094 519.945312 233.816406 519.945312 205.230469 C 519.945312 107.261719 440.242188 27.558594 342.273438 27.558594 C 244.308594 27.558594 164.605469 107.261719 164.605469 205.230469 C 164.605469 240.613281 175.007812 273.617188 192.910156 301.339844 L 149.855469 343.121094 C 146.207031 340.769531 141.96875 339.453125 137.503906 339.386719 C 131.21875 339.273438 125.289062 341.636719 120.804688 345.992188 L 27.65625 436.378906 C 18.367188 445.394531 18.148438 460.285156 27.160156 469.570312 L 60.789062 504.230469 C 65.382812 508.964844 71.507812 511.34375 77.636719 511.34375 C 83.53125 511.34375 89.429688 509.144531 93.980469 504.726562 L 187.125 414.34375 C 191.613281 409.988281 194.136719 404.128906 194.234375 397.847656 C 194.300781 393.382812 193.128906 389.097656 190.882812 385.378906 L 232.589844 344.90625 C 259.929688 366.421875 293.71875 380.085938 330.527344 382.5 L 292.558594 448.261719 C 284.960938 461.425781 284.960938 477.148438 292.5625 490.3125 C 300.164062 503.476562 313.777344 511.335938 328.976562 511.335938 L 477.859375 511.335938 C 493.0625 511.335938 506.675781 503.476562 514.273438 490.3125 C 521.875 477.148438 521.875 461.429688 514.273438 448.261719 Z M 175.910156 402.78125 L 82.765625 493.164062 C 79.851562 495.992188 75.179688 495.921875 72.351562 493.011719 L 38.722656 458.351562 C 35.894531 455.4375 35.964844 450.769531 38.878906 447.941406 L 132.023438 357.554688 C 133.394531 356.222656 135.210938 355.492188 137.148438 355.492188 C 137.183594 355.492188 137.222656 355.492188 137.261719 355.496094 C 139.242188 355.523438 141.082031 356.3125 142.4375 357.710938 L 176.066406 392.367188 C 177.425781 393.769531 178.15625 395.628906 178.125 397.605469 C 178.097656 399.585938 177.308594 401.425781 175.910156 402.78125 Z M 180.105469 373.394531 L 161.523438 354.246094 L 202.367188 314.613281 C 207.867188 321.628906 213.882812 328.222656 220.355469 334.335938 Z M 180.714844 205.230469 C 180.714844 116.144531 253.191406 43.667969 342.273438 43.667969 C 431.359375 43.667969 503.835938 116.144531 503.835938 205.230469 C 503.835938 253.832031 482.738281 298.589844 445.648438 329.394531 L 439.835938 319.324219 C 438.789062 317.515625 437.621094 315.816406 436.363281 314.214844 C 468.179688 286.816406 486.253906 247.589844 486.253906 205.230469 C 486.253906 125.839844 421.667969 61.25 342.277344 61.25 C 262.886719 61.25 198.296875 125.839844 198.296875 205.230469 C 198.296875 284.617188 262.886719 349.207031 342.277344 349.207031 C 344.808594 349.207031 347.339844 349.132812 349.871094 349 L 339.621094 366.753906 C 251.757812 365.328125 180.714844 293.425781 180.714844 205.230469 Z M 359.75 331.890625 C 353.980469 332.675781 348.125 333.097656 342.277344 333.097656 C 271.769531 333.097656 214.40625 275.734375 214.40625 205.230469 C 214.40625 134.722656 271.769531 77.359375 342.277344 77.359375 C 412.785156 77.359375 470.144531 134.722656 470.144531 205.230469 C 470.144531 243.671875 453.378906 279.203125 423.957031 303.597656 C 417.824219 300.175781 410.8125 298.300781 403.417969 298.300781 C 388.214844 298.300781 374.601562 306.160156 367.003906 319.324219 Z M 500.324219 482.257812 C 495.636719 490.378906 487.238281 495.226562 477.859375 495.226562 L 328.976562 495.226562 C 319.601562 495.226562 311.203125 490.378906 306.511719 482.257812 C 301.820312 474.132812 301.824219 464.4375 306.511719 456.316406 L 380.953125 327.378906 C 385.644531 319.257812 394.039062 314.410156 403.417969 314.410156 C 412.796875 314.410156 421.195312 319.257812 425.882812 327.378906 L 500.324219 456.316406 C 505.015625 464.4375 505.015625 474.136719 500.324219 482.257812 Z M 403.417969 447.769531 C 392.691406 447.769531 383.964844 456.5 383.964844 467.226562 C 383.964844 477.957031 392.691406 486.683594 403.417969 486.683594 C 414.148438 486.683594 422.875 477.957031 422.875 467.226562 C 422.875 456.5 414.148438 447.769531 403.417969 447.769531 Z M 403.417969 470.574219 C 401.574219 470.574219 400.074219 469.074219 400.074219 467.226562 C 400.074219 465.382812 401.574219 463.882812 403.417969 463.882812 C 405.265625 463.882812 406.765625 465.382812 406.765625 467.226562 C 406.765625 469.074219 405.265625 470.574219 403.417969 470.574219 Z M 403.417969 443.527344 C 412.589844 443.527344 420.03125 436.351562 420.363281 427.1875 L 422.613281 364.890625 C 422.78125 360.234375 421.101562 355.832031 417.882812 352.496094 C 414.667969 349.160156 410.328125 347.324219 405.667969 347.324219 L 401.167969 347.324219 C 396.507812 347.324219 392.171875 349.160156 388.953125 352.496094 C 385.738281 355.832031 384.058594 360.234375 384.226562 364.890625 L 386.472656 427.1875 C 386.808594 436.351562 394.25 443.527344 403.417969 443.527344 Z M 400.546875 363.679688 C 400.785156 363.433594 401.074219 363.433594 401.167969 363.433594 L 405.667969 363.433594 C 405.761719 363.433594 406.050781 363.433594 406.289062 363.679688 C 406.527344 363.925781 406.515625 364.214844 406.511719 364.308594 L 404.261719 426.605469 C 404.246094 427.0625 403.875 427.421875 403.417969 427.421875 C 402.960938 427.421875 402.589844 427.0625 402.574219 426.605469 L 400.324219 364.3125 C 400.320312 364.214844 400.3125 363.925781 400.546875 363.679688 Z M 388.359375 287.359375 C 391.050781 287.578125 393.761719 286.429688 395.460938 284.171875 C 397.714844 281.171875 397.601562 277.015625 395.1875 274.144531 C 394.058594 272.804688 393.476562 271.097656 393.550781 269.367188 L 394.414062 250.722656 C 394.605469 246.625 391.6875 243.039062 387.640625 242.394531 L 377.03125 240.699219 C 374.835938 240.347656 372.597656 240.921875 370.839844 242.277344 C 362.59375 248.644531 352.71875 252.007812 342.277344 252.007812 C 316.484375 252.007812 295.496094 231.023438 295.496094 205.226562 C 295.496094 200.585938 296.175781 196 297.515625 191.597656 C 298.191406 189.371094 297.871094 186.960938 296.636719 184.984375 C 295.402344 183.011719 293.375 181.667969 291.078125 181.300781 L 281.421875 179.757812 C 277.902344 179.199219 275.367188 176.105469 275.523438 172.574219 L 276.011719 162.085938 C 276.183594 158.382812 273.808594 155.042969 270.257812 153.992188 C 266.707031 152.9375 262.894531 154.441406 261.019531 157.636719 C 257.035156 164.421875 253.929688 171.660156 251.765625 179.199219 L 238.976562 184.121094 C 235.867188 185.316406 233.8125 188.304688 233.8125 191.636719 L 233.8125 218.816406 C 233.8125 222.148438 235.867188 225.136719 238.976562 226.332031 L 251.761719 231.257812 C 253.714844 238.066406 256.433594 244.617188 259.875 250.820312 L 254.308594 263.351562 C 252.957031 266.394531 253.617188 269.957031 255.972656 272.316406 L 275.191406 291.53125 C 277.546875 293.886719 281.109375 294.550781 284.15625 293.199219 L 296.691406 287.628906 C 302.894531 291.070312 309.445312 293.785156 316.25 295.738281 L 321.171875 308.53125 C 322.371094 311.640625 325.359375 313.691406 328.691406 313.691406 L 355.867188 313.691406 C 359.203125 313.691406 362.1875 311.640625 363.386719 308.53125 L 368.308594 295.746094 C 375.292969 293.738281 382.011719 290.929688 388.359375 287.359375 Z M 360.40625 281.167969 C 357.820312 281.78125 355.707031 283.628906 354.753906 286.109375 L 350.335938 297.582031 L 334.21875 297.582031 L 329.800781 286.105469 C 328.847656 283.628906 326.730469 281.777344 324.148438 281.164062 C 316.117188 279.25 308.46875 276.082031 301.414062 271.738281 C 299.148438 270.34375 296.347656 270.15625 293.921875 271.234375 L 282.667969 276.230469 L 271.273438 264.835938 L 276.269531 253.589844 C 277.347656 251.164062 277.160156 248.359375 275.765625 246.097656 C 271.421875 239.046875 268.25 231.394531 266.339844 223.359375 C 265.722656 220.773438 263.875 218.660156 261.398438 217.707031 L 249.921875 213.289062 L 249.921875 197.171875 L 261.398438 192.753906 C 263.320312 192.015625 264.863281 190.574219 265.746094 188.761719 C 269.140625 192.335938 273.691406 194.847656 278.890625 195.667969 L 280.082031 195.859375 C 279.621094 198.949219 279.386719 202.082031 279.386719 205.230469 C 279.386719 239.90625 307.601562 268.117188 342.277344 268.117188 C 355.117188 268.117188 367.320312 264.332031 377.796875 257.136719 L 377.988281 257.167969 L 377.457031 268.648438 C 377.371094 270.683594 377.550781 272.703125 377.984375 274.65625 C 372.40625 277.527344 366.515625 279.710938 360.40625 281.167969 Z M 291.003906 141.085938 L 290.140625 159.734375 C 289.949219 163.832031 292.867188 167.414062 296.914062 168.0625 L 307.523438 169.757812 C 309.714844 170.109375 311.957031 169.535156 313.714844 168.179688 C 321.957031 161.8125 331.832031 158.449219 342.273438 158.449219 C 368.070312 158.449219 389.058594 179.433594 389.058594 205.230469 C 389.058594 209.871094 388.378906 214.457031 387.039062 218.859375 C 386.363281 221.085938 386.683594 223.496094 387.914062 225.46875 C 389.148438 227.445312 391.175781 228.789062 393.476562 229.15625 L 403.128906 230.695312 C 406.648438 231.253906 409.1875 234.351562 409.027344 237.882812 L 408.542969 248.367188 C 408.371094 252.070312 410.746094 255.410156 414.296875 256.460938 C 415.054688 256.6875 415.828125 256.796875 416.589844 256.796875 C 419.386719 256.796875 422.0625 255.332031 423.535156 252.816406 C 427.519531 246.03125 430.621094 238.792969 432.785156 231.257812 L 445.578125 226.335938 C 448.6875 225.140625 450.738281 222.152344 450.738281 218.816406 L 450.738281 191.640625 C 450.738281 188.308594 448.6875 185.320312 445.578125 184.125 L 432.792969 179.199219 C 430.835938 172.390625 428.121094 165.839844 424.679688 159.636719 L 430.246094 147.105469 C 431.597656 144.0625 430.9375 140.496094 428.578125 138.140625 L 409.363281 118.921875 C 407.003906 116.566406 403.441406 115.902344 400.398438 117.257812 L 387.859375 122.824219 C 381.660156 119.386719 375.109375 116.671875 368.304688 114.714844 L 363.378906 101.925781 C 362.183594 98.816406 359.195312 96.761719 355.863281 96.761719 L 328.683594 96.761719 C 325.351562 96.761719 322.363281 98.816406 321.167969 101.925781 L 316.242188 114.714844 C 309.257812 116.722656 302.546875 119.527344 296.199219 123.09375 C 293.507812 122.863281 290.789062 124.019531 289.089844 126.28125 C 286.835938 129.28125 286.949219 133.4375 289.363281 136.308594 C 290.496094 137.652344 291.078125 139.359375 291.003906 141.085938 Z M 306.574219 135.804688 C 312.144531 132.929688 318.035156 130.75 324.148438 129.292969 C 326.730469 128.679688 328.847656 126.828125 329.800781 124.351562 L 334.21875 112.871094 L 350.335938 112.871094 L 354.753906 124.351562 C 355.707031 126.828125 357.820312 128.679688 360.40625 129.292969 C 368.4375 131.203125 376.089844 134.375 383.140625 138.71875 C 385.402344 140.113281 388.207031 140.300781 390.632812 139.222656 L 401.882812 134.222656 L 413.28125 145.621094 L 408.285156 156.867188 C 407.207031 159.292969 407.394531 162.097656 408.789062 164.359375 C 413.128906 171.410156 416.304688 179.0625 418.214844 187.097656 C 418.828125 189.683594 420.679688 191.796875 423.15625 192.75 L 434.628906 197.167969 L 434.628906 213.285156 L 423.152344 217.703125 C 421.230469 218.445312 419.6875 219.882812 418.804688 221.695312 C 415.414062 218.121094 410.863281 215.609375 405.660156 214.785156 L 404.46875 214.59375 C 404.933594 211.503906 405.164062 208.375 405.164062 205.230469 C 405.164062 170.550781 376.953125 142.335938 342.273438 142.335938 C 329.433594 142.335938 317.230469 146.121094 306.757812 153.320312 L 306.5625 153.289062 L 307.09375 141.808594 C 307.183594 139.773438 307.003906 137.757812 306.574219 135.804688 Z M 306.574219 135.804688 " fill-opacity="1" fill-rule="nonzero"/></g></svg>