<svg xmlns="http://www.w3.org/2000/svg" xmlns:xlink="http://www.w3.org/1999/xlink" width="720" zoomAndPan="magnify" viewBox="0 0 540 540.000001" height="720" preserveAspectRatio="xMidYMid meet" version="1.0"><defs><clipPath id="bd32b89423"><path d="M 55.113281 15.898438 L 485.566406 15.898438 L 485.566406 523.460938 L 55.113281 523.460938 Z M 55.113281 15.898438 " clip-rule="nonzero"/></clipPath></defs><g clip-path="url(#bd32b89423)"><path fill="#46acc5" d="M 110.472656 15.898438 C 80.074219 15.898438 55.34375 40.632812 55.34375 71.03125 L 55.34375 218.914062 C 55.34375 239.894531 62.738281 260.335938 76.578125 276.90625 L 176.628906 384.109375 L 176.628906 512.070312 C 176.628906 518.167969 181.558594 523.097656 187.65625 523.097656 L 397.152344 523.097656 L 397.152344 423.863281 C 397.152344 417.765625 402.078125 412.835938 408.175781 412.835938 C 414.273438 412.835938 419.203125 417.765625 419.203125 423.863281 L 419.203125 523.097656 L 474.332031 523.097656 C 480.429688 523.097656 485.359375 518.167969 485.359375 512.070312 L 485.359375 407.667969 C 485.359375 345.789062 446.675781 302.578125 391.292969 302.578125 L 258.378906 302.578125 L 165.605469 209.804688 L 165.605469 71.03125 C 165.605469 40.632812 140.871094 15.898438 110.472656 15.898438 Z M 320.164062 60.003906 C 318.359375 60.003906 316.554688 60.046875 314.753906 60.136719 C 312.949219 60.226562 311.152344 60.359375 309.355469 60.535156 C 307.558594 60.710938 305.769531 60.933594 303.984375 61.199219 C 302.199219 61.460938 300.421875 61.769531 298.652344 62.121094 C 296.882812 62.476562 295.121094 62.871094 293.371094 63.308594 C 291.621094 63.746094 289.882812 64.226562 288.15625 64.753906 C 286.429688 65.277344 284.714844 65.839844 283.015625 66.449219 C 281.316406 67.058594 279.636719 67.707031 277.96875 68.398438 C 276.300781 69.089844 274.652344 69.820312 273.019531 70.589844 C 271.390625 71.363281 269.777344 72.171875 268.1875 73.023438 C 266.59375 73.875 265.023438 74.761719 263.476562 75.691406 C 261.929688 76.617188 260.40625 77.582031 258.90625 78.585938 C 257.40625 79.589844 255.929688 80.628906 254.480469 81.703125 C 253.03125 82.777344 251.609375 83.886719 250.214844 85.03125 C 248.820312 86.175781 247.453125 87.355469 246.117188 88.566406 C 244.777344 89.777344 243.472656 91.023438 242.195312 92.296875 C 240.921875 93.574219 239.675781 94.882812 238.464844 96.21875 C 237.253906 97.554688 236.074219 98.921875 234.929688 100.316406 C 233.785156 101.710938 232.675781 103.132812 231.601562 104.582031 C 230.527344 106.03125 229.488281 107.507812 228.484375 109.007812 C 227.480469 110.507812 226.515625 112.03125 225.589844 113.578125 C 224.660156 115.128906 223.773438 116.695312 222.921875 118.289062 C 222.070312 119.878906 221.261719 121.492188 220.488281 123.121094 C 219.71875 124.753906 218.984375 126.402344 218.296875 128.070312 C 217.605469 129.738281 216.957031 131.421875 216.347656 133.117188 C 215.738281 134.816406 215.171875 136.53125 214.648438 138.257812 C 214.125 139.984375 213.644531 141.722656 213.207031 143.472656 C 212.769531 145.222656 212.371094 146.984375 212.019531 148.753906 C 211.667969 150.523438 211.359375 152.300781 211.09375 154.085938 C 210.832031 155.871094 210.609375 157.660156 210.433594 159.457031 C 210.257812 161.253906 210.125 163.050781 210.035156 164.855469 C 209.945312 166.65625 209.902344 168.460938 209.902344 170.265625 C 209.902344 172.070312 209.945312 173.871094 210.035156 175.675781 C 210.125 177.476562 210.257812 179.277344 210.433594 181.070312 C 210.609375 182.867188 210.832031 184.65625 211.09375 186.441406 C 211.359375 188.226562 211.667969 190.003906 212.019531 191.773438 C 212.371094 193.546875 212.769531 195.304688 213.207031 197.054688 C 213.644531 198.804688 214.125 200.542969 214.648438 202.269531 C 215.171875 204 215.738281 205.710938 216.347656 207.410156 C 216.957031 209.109375 217.605469 210.792969 218.296875 212.460938 C 218.984375 214.125 219.71875 215.777344 220.488281 217.40625 C 221.261719 219.039062 222.070312 220.648438 222.921875 222.242188 C 223.773438 223.832031 224.660156 225.402344 225.589844 226.949219 C 226.515625 228.496094 227.480469 230.023438 228.484375 231.523438 C 229.488281 233.023438 230.527344 234.496094 231.601562 235.945312 C 232.675781 237.394531 233.785156 238.816406 234.929688 240.214844 C 236.074219 241.609375 237.253906 242.972656 238.464844 244.3125 C 239.675781 245.648438 240.921875 246.953125 242.195312 248.230469 C 243.472656 249.507812 244.777344 250.75 246.117188 251.960938 C 247.453125 253.175781 248.820312 254.351562 250.214844 255.496094 C 251.609375 256.640625 253.03125 257.75 254.480469 258.828125 C 255.929688 259.902344 257.40625 260.941406 258.90625 261.941406 C 260.40625 262.945312 261.929688 263.910156 263.476562 264.839844 C 265.023438 265.765625 266.59375 266.65625 268.1875 267.503906 C 269.777344 268.355469 271.390625 269.167969 273.019531 269.9375 C 274.652344 270.710938 276.300781 271.441406 277.96875 272.132812 C 279.636719 272.824219 281.316406 273.472656 283.015625 274.078125 C 284.714844 274.6875 286.429688 275.253906 288.15625 275.777344 C 289.882812 276.300781 291.621094 276.78125 293.371094 277.21875 C 295.121094 277.660156 296.882812 278.054688 298.652344 278.40625 C 300.421875 278.757812 302.199219 279.066406 303.984375 279.332031 C 305.769531 279.597656 307.558594 279.816406 309.355469 279.992188 C 311.152344 280.171875 312.949219 280.304688 314.753906 280.390625 C 316.554688 280.480469 318.359375 280.523438 320.164062 280.523438 C 321.96875 280.523438 323.769531 280.480469 325.574219 280.390625 C 327.375 280.304688 329.175781 280.171875 330.96875 279.992188 C 332.765625 279.816406 334.554688 279.597656 336.339844 279.332031 C 338.125 279.066406 339.902344 278.757812 341.671875 278.40625 C 343.441406 278.054688 345.203125 277.660156 346.953125 277.21875 C 348.703125 276.78125 350.441406 276.300781 352.167969 275.777344 C 353.894531 275.253906 355.609375 274.6875 357.308594 274.078125 C 359.007812 273.472656 360.691406 272.824219 362.355469 272.132812 C 364.023438 271.441406 365.671875 270.710938 367.304688 269.9375 C 368.9375 269.167969 370.546875 268.355469 372.140625 267.503906 C 373.730469 266.65625 375.300781 265.765625 376.847656 264.839844 C 378.394531 263.910156 379.917969 262.945312 381.417969 261.941406 C 382.921875 260.941406 384.394531 259.902344 385.84375 258.828125 C 387.292969 257.75 388.714844 256.640625 390.109375 255.496094 C 391.503906 254.351562 392.871094 253.175781 394.207031 251.960938 C 395.546875 250.75 396.851562 249.507812 398.128906 248.230469 C 399.402344 246.953125 400.648438 245.648438 401.859375 244.3125 C 403.070312 242.972656 404.25 241.609375 405.394531 240.214844 C 406.539062 238.816406 407.648438 237.394531 408.722656 235.945312 C 409.800781 234.496094 410.839844 233.023438 411.839844 231.523438 C 412.84375 230.023438 413.808594 228.496094 414.734375 226.949219 C 415.664062 225.402344 416.554688 223.832031 417.402344 222.242188 C 418.253906 220.648438 419.066406 219.039062 419.835938 217.40625 C 420.609375 215.777344 421.339844 214.125 422.03125 212.460938 C 422.71875 210.792969 423.371094 209.109375 423.976562 207.410156 C 424.585938 205.710938 425.152344 204 425.675781 202.269531 C 426.199219 200.542969 426.679688 198.804688 427.117188 197.054688 C 427.558594 195.304688 427.953125 193.546875 428.304688 191.773438 C 428.65625 190.003906 428.964844 188.226562 429.230469 186.441406 C 429.496094 184.65625 429.714844 182.867188 429.890625 181.070312 C 430.070312 179.277344 430.203125 177.476562 430.289062 175.675781 C 430.378906 173.871094 430.421875 172.070312 430.421875 170.265625 C 430.421875 168.460938 430.378906 166.65625 430.289062 164.855469 C 430.203125 163.050781 430.070312 161.253906 429.890625 159.457031 C 429.714844 157.660156 429.496094 155.871094 429.230469 154.085938 C 428.964844 152.300781 428.65625 150.523438 428.304688 148.753906 C 427.953125 146.984375 427.558594 145.222656 427.117188 143.472656 C 426.679688 141.722656 426.199219 139.984375 425.675781 138.257812 C 425.152344 136.53125 424.585938 134.816406 423.976562 133.117188 C 423.371094 131.421875 422.71875 129.738281 422.03125 128.070312 C 421.339844 126.402344 420.609375 124.753906 419.835938 123.121094 C 419.066406 121.492188 418.253906 119.878906 417.402344 118.289062 C 416.554688 116.695312 415.664062 115.128906 414.734375 113.578125 C 413.808594 112.03125 412.84375 110.507812 411.839844 109.007812 C 410.839844 107.507812 409.800781 106.03125 408.722656 104.582031 C 407.648438 103.132812 406.539062 101.710938 405.394531 100.316406 C 404.25 98.921875 403.070312 97.554688 401.859375 96.21875 C 400.648438 94.882812 399.402344 93.574219 398.128906 92.296875 C 396.851562 91.023438 395.546875 89.777344 394.207031 88.566406 C 392.871094 87.355469 391.503906 86.175781 390.109375 85.03125 C 388.714844 83.886719 387.292969 82.777344 385.84375 81.703125 C 384.394531 80.628906 382.921875 79.589844 381.417969 78.585938 C 379.917969 77.582031 378.394531 76.617188 376.847656 75.691406 C 375.300781 74.761719 373.730469 73.875 372.140625 73.023438 C 370.546875 72.171875 368.9375 71.363281 367.304688 70.589844 C 365.671875 69.820312 364.023438 69.089844 362.355469 68.398438 C 360.691406 67.707031 359.007812 67.058594 357.308594 66.449219 C 355.609375 65.839844 353.894531 65.277344 352.167969 64.753906 C 350.441406 64.226562 348.703125 63.746094 346.953125 63.308594 C 345.203125 62.871094 343.441406 62.476562 341.671875 62.121094 C 339.902344 61.769531 338.125 61.460938 336.339844 61.199219 C 334.554688 60.933594 332.765625 60.710938 330.96875 60.535156 C 329.175781 60.359375 327.375 60.226562 325.574219 60.136719 C 323.769531 60.046875 321.96875 60.003906 320.164062 60.003906 Z M 320.164062 60.003906 " fill-opacity="1" fill-rule="nonzero"/></g></svg>