<?xml version="1.0" encoding="UTF-8"?>
<!DOCTYPE svg PUBLIC "-//W3C//DTD SVG 1.1//EN" "http://www.w3.org/Graphics/SVG/1.1/DTD/svg11.dtd">
<svg xmlns="http://www.w3.org/2000/svg" version="1.1" width="2250px" height="2250px" style="shape-rendering:geometricPrecision; text-rendering:geometricPrecision; image-rendering:optimizeQuality; fill-rule:evenodd; clip-rule:evenodd" xmlns:xlink="http://www.w3.org/1999/xlink">
<g><path style="opacity:0.997" fill="#d51316" d="M 1232.5,129.5 C 1472.17,129.333 1711.83,129.5 1951.5,130C 2020.76,135.857 2070.93,169.69 2102,231.5C 2109.85,249.046 2114.85,267.379 2117,286.5C 2118.15,371.32 2118.65,456.154 2118.5,541C 2118.65,625.514 2118.15,710.014 2117,794.5C 2106.21,864.26 2068.71,913.427 2004.5,942C 1988.37,948.093 1971.7,951.76 1954.5,953C 1840.83,953.333 1727.17,953.667 1613.5,954C 1540.17,1027.33 1466.83,1100.67 1393.5,1174C 1369.68,1190.24 1345.68,1190.57 1321.5,1175C 1310.71,1166.55 1303.54,1155.71 1300,1142.5C 1298.52,1079.54 1298.02,1016.54 1298.5,953.5C 1275.16,953.667 1251.83,953.5 1228.5,953C 1160.95,945.427 1112.11,911.26 1082,850.5C 1073.4,831.378 1068.07,811.378 1066,790.5C 1065.33,622.5 1065.33,454.5 1066,286.5C 1075.82,217.997 1112.32,169.83 1175.5,142C 1194.04,135.111 1213.04,130.944 1232.5,129.5 Z M 1700.5,425.5 C 1726.25,424.621 1745.42,435.288 1758,457.5C 1768.1,481.622 1764.77,503.622 1748,523.5C 1689.17,582.333 1630.33,641.167 1571.5,700C 1554.56,714.657 1535.22,718.99 1513.5,713C 1505.21,710.192 1497.88,705.859 1491.5,700C 1461.67,670.167 1431.83,640.333 1402,610.5C 1382.54,585.881 1381.54,560.548 1399,534.5C 1421.47,511.142 1446.97,506.975 1475.5,522C 1494.94,539.439 1513.77,557.606 1532,576.5C 1578.42,530.081 1624.92,483.581 1671.5,437C 1680.46,431.076 1690.12,427.243 1700.5,425.5 Z"/></g>
<g><path style="opacity:0.996" fill="#d51316" d="M 636.5,483.5 C 742.539,479.284 828.039,518.617 893,601.5C 948.503,680.704 963.169,767.038 937,860.5C 904.76,957.851 840.26,1023.35 743.5,1057C 723.299,1063.37 702.632,1067.37 681.5,1069C 758.833,1069.33 836.167,1069.67 913.5,1070C 1025.11,1082.33 1105.94,1138.5 1156,1238.5C 1165.3,1259.05 1172.14,1280.38 1176.5,1302.5C 1042.5,1302.33 908.5,1302.5 774.5,1303C 748.89,1303.88 731.057,1316.05 721,1339.5C 699.065,1405.3 676.732,1470.97 654,1536.5C 596.905,1535.5 539.738,1535.17 482.5,1535.5C 482.667,1473.83 482.5,1412.17 482,1350.5C 477.231,1327.06 463.397,1311.9 440.5,1305C 405.095,1298.79 381.262,1312.62 369,1346.5C 367.35,1431.47 367.016,1516.47 368,1601.5C 373.165,1629.33 389.665,1645.83 417.5,1651C 483.832,1651.5 550.166,1651.67 616.5,1651.5C 590.841,1729.48 565.174,1807.48 539.5,1885.5C 497.165,1885.67 454.832,1885.5 412.5,1885C 308.216,1876.47 227.716,1828.63 171,1741.5C 145.634,1699.4 131.967,1653.73 130,1604.5C 129.333,1517.83 129.333,1431.17 130,1344.5C 140.011,1237.91 191.177,1158.08 283.5,1105C 317.333,1086.83 353.333,1075.5 391.5,1071C 472.484,1069.7 553.484,1069.03 634.5,1069C 530.174,1056.45 452.341,1004.62 401,913.5C 357.659,826.907 355.326,739.24 394,650.5C 444.737,551.363 525.571,495.697 636.5,483.5 Z"/></g>
<g><path style="opacity:0.994" fill="#d51316" d="M 816.5,1418.5 C 949.196,1418.01 1081.86,1418.51 1214.5,1420C 1242.47,1428.38 1257.8,1447.21 1260.5,1476.5C 1259.82,1483.25 1258.66,1489.92 1257,1496.5C 1251.79,1512.62 1246.29,1528.62 1240.5,1544.5C 1211.82,1537.12 1182.66,1534.12 1153,1535.5C 1087.79,1529.44 1033.46,1550.44 990,1598.5C 966.467,1627.25 953.133,1660.25 950,1697.5C 949.833,1720.5 949.667,1743.5 949.5,1766.5C 949.391,1793.52 949.891,1820.52 951,1847.5C 961.705,1916.2 999.205,1963.7 1063.5,1990C 1071.7,1992.8 1080.04,1995.13 1088.5,1997C 1089.02,1997.56 1089.36,1998.23 1089.5,1999C 1080.33,2026.5 1071.17,2054 1062,2081.5C 1052.02,2103.08 1035.19,2115.25 1011.5,2118C 868.834,2118.5 726.167,2118.67 583.5,2118.5C 660.769,1885.03 738.436,1651.69 816.5,1418.5 Z"/></g>
<g><path style="opacity:0.991" fill="#d51316" d="M 1116.5,1651.5 C 1142.17,1651.33 1167.84,1651.5 1193.5,1652C 1232.44,1656.64 1262.27,1675.48 1283,1708.5C 1306.43,1753.28 1304.1,1796.62 1276,1838.5C 1255.98,1864.17 1229.81,1879.34 1197.5,1884C 1171.19,1885.57 1144.86,1885.9 1118.5,1885C 1089.65,1880.48 1072.15,1863.98 1066,1835.5C 1065.02,1788.8 1065.36,1742.13 1067,1695.5C 1074.91,1671.09 1091.41,1656.42 1116.5,1651.5 Z"/></g>
<g><path style="opacity:0.986" fill="#d51316" d="M 250.5,1960.5 C 298.039,1984.14 348.373,1997.3 401.5,2000C 434.505,2000.17 467.505,2000.67 500.5,2001.5C 487.367,2040.07 474.533,2078.73 462,2117.5C 409.237,2118.66 356.404,2118.83 303.5,2118C 274.848,2113.78 257.348,2097.61 251,2069.5C 250.5,2033.17 250.333,1996.83 250.5,1960.5 Z"/></g>
</svg>
