<svg xmlns="http://www.w3.org/2000/svg" xmlns:xlink="http://www.w3.org/1999/xlink" width="720" zoomAndPan="magnify" viewBox="0 0 540 540.000001" height="720" preserveAspectRatio="xMidYMid meet" version="1.0"><defs><clipPath id="8b0f795795"><path d="M 28 234 L 503.222656 234 L 503.222656 508.902344 L 28 508.902344 Z M 28 234 " clip-rule="nonzero"/></clipPath><clipPath id="1ab1c9fc14"><path d="M 296.546875 304.84375 L 512.148438 304.84375 L 512.148438 520.441406 L 296.546875 520.441406 Z M 296.546875 304.84375 " clip-rule="nonzero"/></clipPath></defs><g clip-path="url(#8b0f795795)"><path fill="#b01917" d="M 502.820312 350.621094 L 465.746094 239.398438 C 465.5 238.660156 465.148438 237.976562 464.6875 237.351562 C 464.226562 236.722656 463.679688 236.183594 463.050781 235.730469 C 462.417969 235.273438 461.734375 234.925781 460.992188 234.6875 C 460.253906 234.449219 459.492188 234.328125 458.714844 234.332031 L 73.144531 234.332031 C 72.367188 234.332031 71.609375 234.449219 70.867188 234.6875 C 70.125 234.925781 69.441406 235.273438 68.808594 235.730469 C 68.179688 236.183594 67.632812 236.726562 67.171875 237.351562 C 66.710938 237.980469 66.355469 238.660156 66.109375 239.398438 L 29.035156 350.621094 C 28.945312 350.898438 28.867188 351.179688 28.808594 351.46875 C 28.75 351.753906 28.707031 352.042969 28.683594 352.335938 C 28.65625 352.628906 28.648438 352.917969 28.660156 353.210938 C 28.667969 353.503906 28.695312 353.796875 28.742188 354.085938 C 28.785156 354.375 28.84375 354.660156 28.921875 354.941406 C 29 355.222656 29.097656 355.5 29.207031 355.773438 C 29.316406 356.042969 29.445312 356.304688 29.585938 356.5625 C 29.726562 356.816406 29.882812 357.066406 30.054688 357.300781 C 30.226562 357.539062 30.410156 357.765625 30.609375 357.980469 C 30.808594 358.199219 31.015625 358.402344 31.238281 358.589844 C 31.460938 358.78125 31.695312 358.960938 31.9375 359.121094 C 32.179688 359.285156 32.429688 359.433594 32.691406 359.566406 C 32.953125 359.699219 33.21875 359.816406 33.496094 359.921875 C 33.769531 360.023438 34.046875 360.105469 34.332031 360.175781 C 34.617188 360.246094 34.90625 360.296875 35.195312 360.332031 C 35.488281 360.363281 35.777344 360.382812 36.070312 360.382812 L 73.144531 360.382812 L 73.144531 501.265625 C 73.144531 501.75 73.191406 502.234375 73.285156 502.710938 C 73.382812 503.1875 73.523438 503.652344 73.707031 504.101562 C 73.894531 504.550781 74.125 504.980469 74.394531 505.382812 C 74.664062 505.789062 74.972656 506.164062 75.316406 506.507812 C 75.660156 506.851562 76.035156 507.160156 76.441406 507.429688 C 76.84375 507.699219 77.273438 507.929688 77.722656 508.113281 C 78.171875 508.300781 78.636719 508.441406 79.113281 508.535156 C 79.589844 508.632812 80.074219 508.679688 80.558594 508.679688 L 451.300781 508.679688 C 451.789062 508.679688 452.269531 508.632812 452.746094 508.535156 C 453.226562 508.441406 453.6875 508.300781 454.140625 508.117188 C 454.589844 507.929688 455.015625 507.699219 455.421875 507.429688 C 455.824219 507.160156 456.199219 506.851562 456.546875 506.507812 C 456.890625 506.164062 457.195312 505.789062 457.46875 505.382812 C 457.738281 504.980469 457.964844 504.550781 458.152344 504.101562 C 458.339844 503.652344 458.480469 503.1875 458.574219 502.710938 C 458.667969 502.234375 458.714844 501.75 458.714844 501.265625 L 458.714844 360.382812 L 495.789062 360.382812 C 496.082031 360.382812 496.375 360.367188 496.664062 360.332031 C 496.957031 360.296875 497.242188 360.246094 497.527344 360.175781 C 497.8125 360.109375 498.09375 360.023438 498.367188 359.921875 C 498.640625 359.820312 498.910156 359.703125 499.171875 359.570312 C 499.429688 359.4375 499.683594 359.289062 499.925781 359.125 C 500.167969 358.960938 500.402344 358.785156 500.625 358.59375 C 500.847656 358.402344 501.054688 358.199219 501.253906 357.984375 C 501.453125 357.769531 501.636719 357.542969 501.808594 357.304688 C 501.980469 357.066406 502.136719 356.820312 502.277344 356.5625 C 502.417969 356.308594 502.546875 356.042969 502.65625 355.773438 C 502.765625 355.5 502.859375 355.226562 502.9375 354.941406 C 503.015625 354.660156 503.078125 354.375 503.121094 354.085938 C 503.164062 353.796875 503.191406 353.503906 503.199219 353.210938 C 503.210938 352.917969 503.203125 352.628906 503.175781 352.335938 C 503.152344 352.042969 503.109375 351.753906 503.050781 351.46875 C 502.988281 351.179688 502.914062 350.898438 502.820312 350.621094 Z M 78.488281 249.160156 L 307.542969 249.160156 L 275.417969 345.550781 L 46.355469 345.550781 Z M 87.972656 360.382812 L 280.761719 360.382812 C 281.539062 360.382812 282.296875 360.261719 283.039062 360.023438 C 283.777344 359.785156 284.464844 359.4375 285.09375 358.984375 C 285.726562 358.527344 286.269531 357.988281 286.730469 357.359375 C 287.191406 356.734375 287.546875 356.050781 287.789062 355.3125 L 310.417969 287.429688 L 310.417969 493.847656 L 87.972656 493.847656 Z M 443.886719 493.847656 L 325.25 493.847656 L 325.25 287.429688 L 347.878906 355.3125 C 348.121094 356.050781 348.476562 356.734375 348.9375 357.359375 C 349.398438 357.988281 349.941406 358.527344 350.574219 358.984375 C 351.203125 359.4375 351.890625 359.785156 352.628906 360.023438 C 353.371094 360.261719 354.128906 360.382812 354.90625 360.382812 L 443.886719 360.382812 Z M 360.253906 345.550781 L 328.125 249.160156 L 453.371094 249.160156 L 485.5 345.550781 Z M 360.253906 345.550781 " fill-opacity="1" fill-rule="nonzero"/></g><path fill="#b01917" d="M 87.972656 226.914062 C 88.460938 226.914062 88.945312 226.867188 89.421875 226.773438 C 89.898438 226.679688 90.363281 226.539062 90.8125 226.351562 C 91.261719 226.164062 91.691406 225.9375 92.09375 225.667969 C 92.5 225.394531 92.875 225.089844 93.21875 224.746094 C 93.5625 224.398438 93.871094 224.027344 94.140625 223.621094 C 94.410156 223.214844 94.640625 222.789062 94.824219 222.339844 C 95.011719 221.886719 95.152344 221.425781 95.246094 220.949219 C 95.34375 220.46875 95.390625 219.988281 95.390625 219.5 L 95.390625 204.671875 L 120.316406 204.671875 C 121.152344 204.671875 121.964844 204.535156 122.75 204.261719 C 123.539062 203.984375 124.261719 203.589844 124.917969 203.070312 C 125.570312 202.554688 126.121094 201.945312 126.570312 201.238281 C 127.019531 200.535156 127.339844 199.777344 127.53125 198.964844 C 129.730469 189.683594 133.339844 180.988281 138.359375 172.875 C 138.796875 172.164062 139.105469 171.402344 139.285156 170.585938 C 139.46875 169.773438 139.507812 168.949219 139.414062 168.121094 C 139.316406 167.292969 139.085938 166.5 138.722656 165.75 C 138.359375 165 137.878906 164.328125 137.289062 163.738281 L 119.652344 146.097656 L 140.625 125.121094 L 158.261719 142.761719 C 158.851562 143.351562 159.523438 143.828125 160.277344 144.191406 C 161.027344 144.558594 161.816406 144.789062 162.648438 144.882812 C 163.476562 144.980469 164.300781 144.9375 165.113281 144.757812 C 165.929688 144.574219 166.691406 144.265625 167.402344 143.824219 C 175.515625 138.8125 184.210938 135.203125 193.492188 133 C 194.304688 132.808594 195.0625 132.488281 195.765625 132.039062 C 196.46875 131.59375 197.082031 131.039062 197.597656 130.386719 C 198.117188 129.730469 198.511719 129.011719 198.785156 128.222656 C 199.0625 127.433594 199.199219 126.621094 199.195312 125.789062 L 199.195312 100.863281 L 228.855469 100.863281 L 228.855469 125.789062 C 228.855469 126.621094 228.992188 127.433594 229.265625 128.222656 C 229.539062 129.011719 229.9375 129.730469 230.453125 130.386719 C 230.972656 131.039062 231.582031 131.59375 232.289062 132.039062 C 232.992188 132.488281 233.75 132.808594 234.5625 133 C 243.839844 135.203125 252.539062 138.8125 260.652344 143.824219 C 261.359375 144.265625 262.125 144.578125 262.9375 144.761719 C 263.753906 144.945312 264.578125 144.988281 265.40625 144.890625 C 266.238281 144.792969 267.027344 144.5625 267.777344 144.195312 C 268.53125 143.832031 269.199219 143.351562 269.789062 142.761719 L 287.429688 125.121094 L 308.40625 146.097656 L 290.765625 163.738281 C 290.175781 164.328125 289.699219 165 289.335938 165.75 C 288.96875 166.5 288.742188 167.292969 288.644531 168.121094 C 288.546875 168.949219 288.589844 169.773438 288.769531 170.589844 C 288.953125 171.402344 289.261719 172.164062 289.703125 172.875 C 294.714844 180.988281 298.324219 189.6875 300.527344 198.964844 C 300.71875 199.777344 301.039062 200.535156 301.488281 201.238281 C 301.933594 201.945312 302.488281 202.554688 303.140625 203.074219 C 303.796875 203.589844 304.515625 203.988281 305.304688 204.261719 C 306.09375 204.535156 306.90625 204.671875 307.738281 204.671875 L 332.664062 204.671875 L 332.664062 219.5 C 332.664062 219.988281 332.710938 220.46875 332.804688 220.945312 C 332.902344 221.425781 333.042969 221.886719 333.226562 222.339844 C 333.414062 222.789062 333.644531 223.214844 333.914062 223.621094 C 334.183594 224.023438 334.492188 224.398438 334.835938 224.742188 C 335.179688 225.089844 335.554688 225.394531 335.960938 225.664062 C 336.363281 225.9375 336.792969 226.164062 337.242188 226.351562 C 337.691406 226.539062 338.15625 226.679688 338.632812 226.773438 C 339.109375 226.867188 339.589844 226.914062 340.078125 226.914062 C 340.566406 226.914062 341.046875 226.867188 341.523438 226.773438 C 342.003906 226.679688 342.464844 226.539062 342.917969 226.351562 C 343.367188 226.164062 343.792969 225.9375 344.199219 225.664062 C 344.601562 225.394531 344.976562 225.089844 345.320312 224.742188 C 345.664062 224.398438 345.972656 224.023438 346.242188 223.621094 C 346.515625 223.214844 346.742188 222.789062 346.929688 222.339844 C 347.113281 221.886719 347.253906 221.425781 347.351562 220.945312 C 347.445312 220.46875 347.492188 219.988281 347.492188 219.5 L 347.492188 197.257812 C 347.492188 196.769531 347.445312 196.285156 347.351562 195.808594 C 347.257812 195.332031 347.117188 194.867188 346.929688 194.417969 C 346.742188 193.96875 346.515625 193.539062 346.246094 193.136719 C 345.972656 192.730469 345.667969 192.355469 345.324219 192.011719 C 344.976562 191.667969 344.605469 191.359375 344.199219 191.089844 C 343.792969 190.820312 343.367188 190.589844 342.917969 190.40625 C 342.464844 190.21875 342.003906 190.078125 341.523438 189.984375 C 341.046875 189.886719 340.566406 189.839844 340.078125 189.839844 L 313.429688 189.839844 C 311.390625 183.011719 308.675781 176.464844 305.277344 170.195312 L 324.132812 151.339844 C 324.476562 150.996094 324.785156 150.621094 325.054688 150.21875 C 325.328125 149.8125 325.554688 149.386719 325.742188 148.933594 C 325.929688 148.484375 326.070312 148.023438 326.164062 147.542969 C 326.257812 147.066406 326.304688 146.585938 326.304688 146.097656 C 326.304688 145.609375 326.257812 145.128906 326.164062 144.652344 C 326.070312 144.175781 325.929688 143.710938 325.742188 143.261719 C 325.554688 142.8125 325.328125 142.382812 325.054688 141.980469 C 324.785156 141.574219 324.476562 141.199219 324.132812 140.855469 L 292.671875 109.394531 C 292.328125 109.050781 291.953125 108.742188 291.546875 108.472656 C 291.144531 108.199219 290.714844 107.972656 290.265625 107.785156 C 289.816406 107.597656 289.351562 107.457031 288.875 107.363281 C 288.398438 107.269531 287.917969 107.222656 287.429688 107.222656 C 286.941406 107.222656 286.460938 107.269531 285.984375 107.363281 C 285.503906 107.457031 285.042969 107.597656 284.589844 107.785156 C 284.140625 107.972656 283.714844 108.199219 283.308594 108.472656 C 282.90625 108.742188 282.53125 109.050781 282.1875 109.394531 L 263.332031 128.25 C 257.0625 124.855469 250.515625 122.136719 243.6875 120.097656 L 243.6875 93.449219 C 243.6875 92.960938 243.636719 92.480469 243.542969 92.003906 C 243.449219 91.523438 243.308594 91.0625 243.121094 90.609375 C 242.9375 90.160156 242.707031 89.734375 242.4375 89.328125 C 242.167969 88.925781 241.859375 88.550781 241.515625 88.207031 C 241.171875 87.859375 240.796875 87.554688 240.390625 87.28125 C 239.984375 87.011719 239.558594 86.785156 239.109375 86.597656 C 238.660156 86.410156 238.195312 86.269531 237.71875 86.175781 C 237.238281 86.082031 236.757812 86.035156 236.269531 86.035156 L 191.78125 86.035156 C 191.296875 86.035156 190.8125 86.082031 190.335938 86.175781 C 189.859375 86.269531 189.394531 86.410156 188.945312 86.597656 C 188.496094 86.785156 188.066406 87.011719 187.664062 87.28125 C 187.257812 87.554688 186.882812 87.859375 186.539062 88.207031 C 186.195312 88.550781 185.886719 88.925781 185.617188 89.328125 C 185.347656 89.734375 185.117188 90.160156 184.929688 90.609375 C 184.746094 91.0625 184.605469 91.523438 184.507812 92.003906 C 184.414062 92.480469 184.367188 92.960938 184.367188 93.449219 L 184.367188 120.097656 C 177.539062 122.136719 170.988281 124.855469 164.722656 128.25 L 145.867188 109.394531 C 145.515625 109.0625 145.136719 108.765625 144.730469 108.503906 C 144.320312 108.246094 143.894531 108.027344 143.445312 107.847656 C 142.996094 107.667969 142.535156 107.535156 142.058594 107.445312 C 141.585938 107.351562 141.105469 107.308594 140.625 107.308594 C 140.140625 107.308594 139.664062 107.351562 139.1875 107.445312 C 138.714844 107.535156 138.25 107.667969 137.804688 107.847656 C 137.355469 108.027344 136.925781 108.246094 136.519531 108.503906 C 136.113281 108.765625 135.734375 109.0625 135.382812 109.394531 L 103.921875 140.855469 C 103.578125 141.199219 103.269531 141.574219 103 141.980469 C 102.730469 142.382812 102.5 142.8125 102.316406 143.261719 C 102.128906 143.710938 101.988281 144.175781 101.894531 144.652344 C 101.796875 145.128906 101.75 145.609375 101.75 146.097656 C 101.75 146.585938 101.796875 147.066406 101.894531 147.542969 C 101.988281 148.023438 102.128906 148.484375 102.316406 148.933594 C 102.5 149.386719 102.730469 149.8125 103 150.21875 C 103.269531 150.621094 103.578125 150.996094 103.921875 151.339844 L 122.777344 170.195312 C 119.378906 176.460938 116.664062 183.011719 114.625 189.839844 L 87.972656 189.839844 C 87.488281 189.839844 87.003906 189.890625 86.527344 189.984375 C 86.050781 190.078125 85.585938 190.21875 85.136719 190.40625 C 84.6875 190.589844 84.257812 190.820312 83.855469 191.089844 C 83.449219 191.359375 83.074219 191.667969 82.730469 192.011719 C 82.386719 192.355469 82.078125 192.730469 81.808594 193.136719 C 81.539062 193.542969 81.308594 193.96875 81.125 194.417969 C 80.9375 194.867188 80.796875 195.332031 80.703125 195.808594 C 80.605469 196.289062 80.558594 196.769531 80.558594 197.257812 L 80.558594 219.5 C 80.558594 219.988281 80.605469 220.46875 80.703125 220.949219 C 80.796875 221.425781 80.9375 221.886719 81.125 222.339844 C 81.308594 222.789062 81.539062 223.214844 81.808594 223.621094 C 82.078125 224.027344 82.386719 224.398438 82.730469 224.746094 C 83.074219 225.089844 83.449219 225.394531 83.855469 225.667969 C 84.257812 225.9375 84.6875 226.164062 85.136719 226.351562 C 85.585938 226.539062 86.050781 226.679688 86.527344 226.773438 C 87.003906 226.867188 87.488281 226.914062 87.972656 226.914062 Z M 87.972656 226.914062 " fill-opacity="1" fill-rule="nonzero"/><path fill="#b01917" d="M 169.539062 219.5 C 169.539062 219.988281 169.585938 220.46875 169.679688 220.945312 C 169.773438 221.425781 169.914062 221.886719 170.101562 222.339844 C 170.289062 222.789062 170.515625 223.214844 170.789062 223.621094 C 171.058594 224.023438 171.363281 224.398438 171.710938 224.742188 C 172.054688 225.089844 172.429688 225.394531 172.832031 225.664062 C 173.238281 225.9375 173.664062 226.164062 174.113281 226.351562 C 174.566406 226.539062 175.027344 226.679688 175.507812 226.773438 C 175.984375 226.867188 176.464844 226.914062 176.953125 226.914062 C 177.4375 226.914062 177.921875 226.867188 178.398438 226.773438 C 178.875 226.679688 179.339844 226.539062 179.789062 226.351562 C 180.238281 226.164062 180.667969 225.9375 181.070312 225.664062 C 181.476562 225.394531 181.851562 225.089844 182.195312 224.742188 C 182.539062 224.398438 182.847656 224.023438 183.117188 223.621094 C 183.386719 223.214844 183.617188 222.789062 183.804688 222.339844 C 183.988281 221.886719 184.128906 221.425781 184.226562 220.945312 C 184.320312 220.46875 184.367188 219.988281 184.367188 219.5 C 184.367188 218.53125 184.414062 217.558594 184.511719 216.59375 C 184.605469 215.625 184.746094 214.667969 184.9375 213.714844 C 185.125 212.761719 185.363281 211.820312 185.644531 210.890625 C 185.925781 209.960938 186.253906 209.046875 186.625 208.152344 C 186.996094 207.253906 187.410156 206.375 187.871094 205.519531 C 188.328125 204.664062 188.824219 203.832031 189.367188 203.023438 C 189.90625 202.214844 190.484375 201.4375 191.097656 200.683594 C 191.714844 199.933594 192.367188 199.214844 193.054688 198.527344 C 193.742188 197.839844 194.460938 197.191406 195.210938 196.574219 C 195.960938 195.957031 196.742188 195.378906 197.546875 194.839844 C 198.355469 194.300781 199.1875 193.800781 200.046875 193.34375 C 200.902344 192.886719 201.777344 192.472656 202.675781 192.097656 C 203.574219 191.726562 204.488281 191.402344 205.417969 191.117188 C 206.347656 190.835938 207.289062 190.601562 208.242188 190.410156 C 209.191406 190.222656 210.152344 190.078125 211.121094 189.984375 C 212.085938 189.890625 213.054688 189.839844 214.027344 189.839844 C 214.996094 189.839844 215.96875 189.890625 216.933594 189.984375 C 217.898438 190.078125 218.859375 190.222656 219.8125 190.410156 C 220.765625 190.601562 221.707031 190.835938 222.636719 191.117188 C 223.566406 191.402344 224.480469 191.726562 225.375 192.097656 C 226.273438 192.472656 227.152344 192.886719 228.007812 193.34375 C 228.863281 193.800781 229.695312 194.300781 230.503906 194.839844 C 231.3125 195.378906 232.089844 195.957031 232.84375 196.574219 C 233.59375 197.191406 234.3125 197.839844 235 198.527344 C 235.6875 199.214844 236.335938 199.933594 236.953125 200.683594 C 237.570312 201.4375 238.148438 202.214844 238.6875 203.023438 C 239.226562 203.832031 239.726562 204.664062 240.183594 205.519531 C 240.640625 206.375 241.054688 207.253906 241.429688 208.152344 C 241.800781 209.046875 242.125 209.960938 242.410156 210.890625 C 242.691406 211.820312 242.925781 212.761719 243.117188 213.714844 C 243.304688 214.667969 243.449219 215.625 243.542969 216.59375 C 243.636719 217.558594 243.6875 218.53125 243.6875 219.5 C 243.6875 219.988281 243.734375 220.46875 243.828125 220.945312 C 243.921875 221.425781 244.0625 221.886719 244.25 222.339844 C 244.4375 222.789062 244.664062 223.214844 244.933594 223.621094 C 245.207031 224.023438 245.511719 224.398438 245.859375 224.742188 C 246.203125 225.089844 246.578125 225.394531 246.980469 225.664062 C 247.386719 225.9375 247.8125 226.164062 248.261719 226.351562 C 248.714844 226.539062 249.175781 226.679688 249.652344 226.773438 C 250.132812 226.867188 250.613281 226.914062 251.101562 226.914062 C 251.585938 226.914062 252.070312 226.867188 252.546875 226.773438 C 253.023438 226.679688 253.488281 226.539062 253.9375 226.351562 C 254.386719 226.164062 254.816406 225.9375 255.21875 225.664062 C 255.625 225.394531 256 225.089844 256.34375 224.742188 C 256.6875 224.398438 256.996094 224.023438 257.265625 223.621094 C 257.535156 223.214844 257.765625 222.789062 257.949219 222.339844 C 258.136719 221.886719 258.277344 221.425781 258.371094 220.945312 C 258.46875 220.46875 258.515625 219.988281 258.515625 219.5 C 258.515625 218.042969 258.445312 216.589844 258.300781 215.140625 C 258.160156 213.691406 257.945312 212.25 257.660156 210.820312 C 257.375 209.390625 257.023438 207.980469 256.601562 206.585938 C 256.175781 205.191406 255.6875 203.820312 255.128906 202.476562 C 254.570312 201.128906 253.949219 199.8125 253.261719 198.527344 C 252.574219 197.242188 251.828125 195.996094 251.019531 194.785156 C 250.207031 193.574219 249.339844 192.402344 248.417969 191.277344 C 247.492188 190.152344 246.515625 189.074219 245.484375 188.042969 C 244.453125 187.011719 243.375 186.035156 242.25 185.109375 C 241.125 184.1875 239.953125 183.320312 238.742188 182.507812 C 237.53125 181.699219 236.285156 180.953125 235 180.265625 C 233.714844 179.578125 232.398438 178.957031 231.050781 178.398438 C 229.707031 177.839844 228.335938 177.351562 226.941406 176.925781 C 225.546875 176.503906 224.136719 176.152344 222.707031 175.867188 C 221.277344 175.582031 219.835938 175.367188 218.386719 175.226562 C 216.9375 175.082031 215.484375 175.011719 214.027344 175.011719 C 212.570312 175.011719 211.117188 175.082031 209.664062 175.226562 C 208.214844 175.367188 206.777344 175.582031 205.347656 175.867188 C 203.917969 176.152344 202.507812 176.503906 201.113281 176.925781 C 199.71875 177.351562 198.347656 177.839844 197 178.398438 C 195.65625 178.957031 194.339844 179.578125 193.054688 180.265625 C 191.769531 180.953125 190.519531 181.699219 189.308594 182.507812 C 188.097656 183.320312 186.929688 184.1875 185.804688 185.109375 C 184.675781 186.035156 183.597656 187.011719 182.566406 188.042969 C 181.539062 189.074219 180.558594 190.152344 179.636719 191.277344 C 178.710938 192.402344 177.84375 193.574219 177.035156 194.785156 C 176.226562 195.996094 175.476562 197.242188 174.789062 198.527344 C 174.105469 199.8125 173.480469 201.128906 172.925781 202.476562 C 172.367188 203.820312 171.875 205.191406 171.453125 206.585938 C 171.03125 207.980469 170.675781 209.390625 170.390625 210.820312 C 170.109375 212.25 169.894531 213.691406 169.75 215.140625 C 169.609375 216.589844 169.539062 218.042969 169.539062 219.5 Z M 169.539062 219.5 " fill-opacity="1" fill-rule="nonzero"/><path fill="#b01917" d="M 377.152344 161.363281 L 377.152344 219.5 C 377.152344 219.988281 377.199219 220.46875 377.296875 220.945312 C 377.390625 221.425781 377.53125 221.886719 377.71875 222.339844 C 377.902344 222.789062 378.132812 223.214844 378.402344 223.621094 C 378.671875 224.023438 378.980469 224.398438 379.324219 224.742188 C 379.667969 225.089844 380.042969 225.394531 380.449219 225.664062 C 380.851562 225.9375 381.28125 226.164062 381.730469 226.351562 C 382.179688 226.539062 382.644531 226.679688 383.121094 226.773438 C 383.597656 226.867188 384.082031 226.914062 384.566406 226.914062 C 385.054688 226.914062 385.535156 226.867188 386.015625 226.773438 C 386.492188 226.679688 386.957031 226.539062 387.40625 226.351562 C 387.855469 226.164062 388.28125 225.9375 388.6875 225.664062 C 389.089844 225.394531 389.464844 225.089844 389.808594 224.742188 C 390.15625 224.398438 390.460938 224.023438 390.734375 223.621094 C 391.003906 223.214844 391.230469 222.789062 391.417969 222.339844 C 391.605469 221.886719 391.746094 221.425781 391.839844 220.945312 C 391.933594 220.46875 391.980469 219.988281 391.980469 219.5 L 391.980469 156.328125 C 391.980469 155.5625 391.867188 154.816406 391.632812 154.085938 C 391.402344 153.355469 391.066406 152.679688 390.625 152.054688 C 390.183594 151.429688 389.65625 150.882812 389.046875 150.421875 C 388.4375 149.960938 387.773438 149.597656 387.050781 149.34375 C 385.617188 148.832031 384.207031 148.269531 382.816406 147.652344 C 381.425781 147.035156 380.0625 146.363281 378.722656 145.640625 C 377.386719 144.921875 376.078125 144.148438 374.796875 143.324219 C 373.519531 142.503906 372.273438 141.632812 371.0625 140.714844 C 369.847656 139.796875 368.671875 138.832031 367.535156 137.824219 C 366.394531 136.816406 365.296875 135.765625 364.238281 134.671875 C 363.179688 133.578125 362.167969 132.449219 361.195312 131.277344 C 360.226562 130.105469 359.300781 128.902344 358.421875 127.660156 C 357.542969 126.417969 356.714844 125.144531 355.933594 123.839844 C 355.152344 122.535156 354.421875 121.203125 353.742188 119.839844 C 353.0625 118.480469 352.4375 117.09375 351.867188 115.683594 C 351.292969 114.277344 350.777344 112.847656 350.3125 111.398438 C 349.851562 109.949219 349.445312 108.484375 349.09375 107.003906 C 348.742188 105.527344 348.449219 104.035156 348.214844 102.53125 C 347.976562 101.03125 347.800781 99.519531 347.679688 98.003906 C 347.558594 96.488281 347.496094 94.96875 347.492188 93.449219 C 347.515625 90.738281 347.703125 88.039062 348.050781 85.351562 C 348.402344 82.664062 348.917969 80.007812 349.589844 77.382812 C 350.265625 74.753906 351.097656 72.179688 352.085938 69.65625 C 353.074219 67.132812 354.210938 64.679688 355.5 62.292969 C 356.789062 59.90625 358.214844 57.609375 359.78125 55.398438 C 361.351562 53.1875 363.046875 51.078125 364.871094 49.074219 C 366.695312 47.070312 368.636719 45.183594 370.691406 43.414062 C 372.746094 41.644531 374.898438 40.007812 377.152344 38.503906 L 377.152344 93.449219 C 377.152344 94.433594 377.339844 95.378906 377.71875 96.285156 C 378.09375 97.195312 378.628906 97.996094 379.324219 98.691406 L 401.570312 120.933594 C 401.914062 121.28125 402.289062 121.585938 402.691406 121.859375 C 403.097656 122.128906 403.523438 122.355469 403.976562 122.542969 C 404.425781 122.730469 404.886719 122.871094 405.367188 122.964844 C 405.84375 123.058594 406.324219 123.109375 406.8125 123.109375 C 407.300781 123.109375 407.78125 123.058594 408.257812 122.964844 C 408.734375 122.871094 409.199219 122.730469 409.648438 122.542969 C 410.097656 122.355469 410.527344 122.128906 410.929688 121.859375 C 411.335938 121.585938 411.710938 121.28125 412.054688 120.933594 L 434.300781 98.691406 C 434.996094 97.996094 435.53125 97.195312 435.90625 96.285156 C 436.285156 95.378906 436.472656 94.433594 436.472656 93.449219 L 436.472656 38.503906 C 438.726562 40.007812 440.878906 41.644531 442.933594 43.414062 C 444.988281 45.183594 446.929688 47.070312 448.753906 49.074219 C 450.578125 51.078125 452.273438 53.1875 453.839844 55.398438 C 455.410156 57.609375 456.835938 59.90625 458.125 62.292969 C 459.410156 64.679688 460.550781 67.132812 461.539062 69.65625 C 462.527344 72.179688 463.359375 74.753906 464.03125 77.382812 C 464.707031 80.007812 465.21875 82.664062 465.570312 85.351562 C 465.921875 88.039062 466.109375 90.738281 466.128906 93.449219 C 466.125 94.96875 466.066406 96.488281 465.945312 98.003906 C 465.824219 99.519531 465.644531 101.03125 465.410156 102.53125 C 465.175781 104.035156 464.878906 105.527344 464.53125 107.003906 C 464.179688 108.484375 463.773438 109.949219 463.308594 111.398438 C 462.847656 112.847656 462.332031 114.277344 461.757812 115.683594 C 461.183594 117.09375 460.558594 118.480469 459.882812 119.839844 C 459.203125 121.203125 458.472656 122.535156 457.691406 123.839844 C 456.910156 125.144531 456.082031 126.417969 455.203125 127.660156 C 454.324219 128.902344 453.398438 130.105469 452.429688 131.277344 C 451.457031 132.449219 450.441406 133.578125 449.382812 134.671875 C 448.328125 135.765625 447.226562 136.816406 446.089844 137.824219 C 444.949219 138.832031 443.777344 139.796875 442.5625 140.714844 C 441.351562 141.632812 440.105469 142.503906 438.824219 143.324219 C 437.546875 144.148438 436.238281 144.921875 434.898438 145.640625 C 433.5625 146.363281 432.195312 147.035156 430.808594 147.652344 C 429.417969 148.269531 428.003906 148.832031 426.574219 149.34375 C 425.851562 149.597656 425.1875 149.957031 424.574219 150.421875 C 423.964844 150.882812 423.441406 151.429688 423 152.054688 C 422.558594 152.679688 422.222656 153.355469 421.988281 154.085938 C 421.757812 154.816406 421.640625 155.5625 421.640625 156.328125 L 421.640625 219.5 C 421.640625 219.988281 421.6875 220.46875 421.785156 220.945312 C 421.878906 221.425781 422.019531 221.886719 422.207031 222.339844 C 422.390625 222.789062 422.621094 223.214844 422.890625 223.621094 C 423.160156 224.023438 423.46875 224.398438 423.8125 224.742188 C 424.15625 225.089844 424.53125 225.394531 424.9375 225.664062 C 425.339844 225.9375 425.769531 226.164062 426.21875 226.351562 C 426.667969 226.539062 427.132812 226.679688 427.609375 226.773438 C 428.085938 226.867188 428.570312 226.914062 429.054688 226.914062 C 429.542969 226.914062 430.027344 226.867188 430.503906 226.773438 C 430.980469 226.679688 431.445312 226.539062 431.894531 226.351562 C 432.34375 226.164062 432.769531 225.9375 433.175781 225.664062 C 433.582031 225.394531 433.957031 225.089844 434.300781 224.742188 C 434.644531 224.398438 434.949219 224.023438 435.222656 223.621094 C 435.492188 223.214844 435.71875 222.789062 435.90625 222.339844 C 436.09375 221.886719 436.234375 221.425781 436.328125 220.945312 C 436.421875 220.46875 436.472656 219.988281 436.472656 219.5 L 436.472656 161.363281 C 438.109375 160.644531 439.722656 159.867188 441.304688 159.03125 C 442.886719 158.195312 444.441406 157.304688 445.957031 156.359375 C 447.476562 155.410156 448.960938 154.410156 450.40625 153.355469 C 451.855469 152.300781 453.261719 151.195312 454.628906 150.039062 C 455.992188 148.882812 457.316406 147.679688 458.597656 146.429688 C 459.875 145.175781 461.109375 143.882812 462.296875 142.539062 C 463.480469 141.199219 464.617188 139.816406 465.703125 138.394531 C 466.792969 136.972656 467.824219 135.511719 468.804688 134.015625 C 469.785156 132.519531 470.710938 130.988281 471.582031 129.421875 C 472.453125 127.859375 473.265625 126.265625 474.019531 124.640625 C 474.777344 123.019531 475.472656 121.371094 476.109375 119.699219 C 476.746094 118.023438 477.320312 116.332031 477.832031 114.617188 C 478.347656 112.902344 478.796875 111.171875 479.1875 109.421875 C 479.574219 107.675781 479.902344 105.917969 480.160156 104.144531 C 480.421875 102.375 480.621094 100.597656 480.753906 98.8125 C 480.886719 97.027344 480.957031 95.238281 480.960938 93.449219 C 480.972656 91.484375 480.910156 89.523438 480.773438 87.5625 C 480.640625 85.601562 480.429688 83.648438 480.152344 81.703125 C 479.871094 79.761719 479.515625 77.828125 479.09375 75.910156 C 478.667969 73.992188 478.171875 72.09375 477.605469 70.210938 C 477.039062 68.328125 476.402344 66.472656 475.699219 64.636719 C 474.992188 62.804688 474.222656 61 473.382812 59.222656 C 472.542969 57.449219 471.636719 55.703125 470.667969 53.996094 C 469.699219 52.289062 468.664062 50.617188 467.570312 48.984375 C 466.476562 47.355469 465.324219 45.765625 464.109375 44.21875 C 462.898438 42.671875 461.628906 41.175781 460.304688 39.722656 C 458.980469 38.273438 457.601562 36.871094 456.175781 35.523438 C 454.746094 34.175781 453.269531 32.882812 451.742188 31.644531 C 450.21875 30.40625 448.648438 29.226562 447.035156 28.105469 C 445.421875 26.984375 443.769531 25.925781 442.074219 24.925781 C 440.382812 23.929688 438.65625 22.996094 436.894531 22.128906 C 435.132812 21.257812 433.339844 20.457031 431.519531 19.71875 C 431.238281 19.621094 430.957031 19.539062 430.667969 19.476562 C 430.378906 19.414062 430.089844 19.367188 429.792969 19.335938 C 429.5 19.304688 429.207031 19.292969 428.910156 19.300781 C 428.617188 19.304688 428.320312 19.328125 428.027344 19.371094 C 427.738281 19.410156 427.449219 19.46875 427.160156 19.542969 C 426.875 19.621094 426.597656 19.710938 426.320312 19.820312 C 426.046875 19.929688 425.78125 20.054688 425.519531 20.195312 C 425.261719 20.335938 425.011719 20.492188 424.769531 20.660156 C 424.527344 20.832031 424.296875 21.015625 424.078125 21.214844 C 423.859375 21.414062 423.652344 21.625 423.460938 21.847656 C 423.265625 22.070312 423.085938 22.304688 422.921875 22.546875 C 422.753906 22.792969 422.605469 23.046875 422.46875 23.308594 C 422.332031 23.570312 422.214844 23.839844 422.109375 24.117188 C 422.007812 24.394531 421.921875 24.675781 421.851562 24.960938 C 421.78125 25.25 421.730469 25.539062 421.695312 25.832031 C 421.660156 26.125 421.640625 26.421875 421.640625 26.714844 L 421.640625 90.378906 L 406.8125 105.207031 L 391.980469 90.378906 L 391.980469 26.714844 C 391.984375 26.421875 391.964844 26.125 391.929688 25.832031 C 391.894531 25.539062 391.84375 25.25 391.773438 24.960938 C 391.703125 24.675781 391.617188 24.394531 391.511719 24.117188 C 391.410156 23.839844 391.289062 23.570312 391.15625 23.308594 C 391.019531 23.046875 390.867188 22.792969 390.703125 22.546875 C 390.535156 22.304688 390.355469 22.070312 390.164062 21.847656 C 389.96875 21.625 389.761719 21.414062 389.542969 21.214844 C 389.324219 21.015625 389.09375 20.832031 388.855469 20.660156 C 388.613281 20.492188 388.363281 20.335938 388.101562 20.195312 C 387.84375 20.054688 387.578125 19.929688 387.300781 19.820312 C 387.027344 19.710938 386.746094 19.621094 386.460938 19.542969 C 386.175781 19.46875 385.886719 19.410156 385.59375 19.371094 C 385.300781 19.328125 385.007812 19.304688 384.710938 19.300781 C 384.417969 19.292969 384.121094 19.304688 383.828125 19.335938 C 383.535156 19.367188 383.246094 19.414062 382.957031 19.476562 C 382.667969 19.539062 382.382812 19.621094 382.105469 19.71875 C 380.285156 20.457031 378.492188 21.257812 376.730469 22.128906 C 374.96875 22.996094 373.242188 23.929688 371.546875 24.925781 C 369.855469 25.925781 368.203125 26.984375 366.589844 28.105469 C 364.976562 29.226562 363.40625 30.40625 361.882812 31.644531 C 360.355469 32.882812 358.878906 34.175781 357.449219 35.523438 C 356.019531 36.871094 354.644531 38.273438 353.320312 39.722656 C 351.996094 41.175781 350.726562 42.671875 349.511719 44.21875 C 348.300781 45.765625 347.148438 47.355469 346.050781 48.984375 C 344.957031 50.617188 343.925781 52.289062 342.957031 53.996094 C 341.988281 55.703125 341.082031 57.449219 340.242188 59.222656 C 339.402344 61 338.628906 62.804688 337.925781 64.636719 C 337.21875 66.472656 336.585938 68.328125 336.019531 70.210938 C 335.453125 72.09375 334.957031 73.992188 334.53125 75.910156 C 334.105469 77.828125 333.753906 79.761719 333.472656 81.703125 C 333.191406 83.648438 332.984375 85.601562 332.847656 87.5625 C 332.714844 89.523438 332.652344 91.484375 332.664062 93.449219 C 332.667969 95.238281 332.738281 97.027344 332.871094 98.8125 C 333.003906 100.597656 333.199219 102.375 333.460938 104.144531 C 333.722656 105.917969 334.046875 107.675781 334.4375 109.421875 C 334.824219 111.171875 335.277344 112.902344 335.789062 114.617188 C 336.304688 116.332031 336.878906 118.023438 337.515625 119.699219 C 338.152344 121.371094 338.847656 123.019531 339.601562 124.640625 C 340.359375 126.265625 341.171875 127.859375 342.042969 129.421875 C 342.910156 130.988281 343.835938 132.519531 344.816406 134.015625 C 345.796875 135.511719 346.832031 136.972656 347.917969 138.394531 C 349.003906 139.816406 350.140625 141.199219 351.328125 142.539062 C 352.515625 143.882812 353.746094 145.175781 355.027344 146.429688 C 356.304688 147.679688 357.628906 148.882812 358.996094 150.039062 C 360.363281 151.195312 361.769531 152.300781 363.21875 153.355469 C 364.664062 154.410156 366.144531 155.410156 367.664062 156.359375 C 369.183594 157.304688 370.734375 158.195312 372.320312 159.03125 C 373.902344 159.867188 375.511719 160.644531 377.152344 161.363281 Z M 377.152344 161.363281 " fill-opacity="1" fill-rule="nonzero"/><g clip-path="url(#1ab1c9fc14)"><path fill="#b01917" d="M 512.179688 412.667969 C 512.179688 472.207031 463.914062 520.472656 404.375 520.472656 C 344.835938 520.472656 296.570312 472.207031 296.570312 412.667969 C 296.570312 353.128906 344.835938 304.863281 404.375 304.863281 C 463.914062 304.863281 512.179688 353.128906 512.179688 412.667969 " fill-opacity="1" fill-rule="nonzero"/></g><path fill="#ffffff" d="M 400.644531 462.640625 C 397.054688 467.121094 390.53125 467.878906 386.007812 464.351562 L 337.527344 426.519531 C 331.660156 421.941406 330.613281 413.46875 335.195312 407.601562 C 339.773438 401.730469 348.246094 400.6875 354.113281 405.265625 L 386.609375 430.621094 C 388.359375 431.992188 390.890625 431.695312 392.28125 429.957031 L 452.410156 354.914062 C 457.0625 349.105469 465.546875 348.167969 471.355469 352.820312 C 477.167969 357.476562 478.101562 365.960938 473.449219 371.769531 L 400.644531 462.640625 " fill-opacity="1" fill-rule="nonzero"/></svg>