<svg xmlns="http://www.w3.org/2000/svg" xmlns:xlink="http://www.w3.org/1999/xlink" width="720" zoomAndPan="magnify" viewBox="0 0 540 540.000001" height="720" preserveAspectRatio="xMidYMid meet" version="1.0"><defs><clipPath id="8f940bed88"><path d="M 285 145 L 440.726562 145 L 440.726562 320 L 285 320 Z M 285 145 " clip-rule="nonzero"/></clipPath><clipPath id="b6a19d6934"><path d="M 142.78125 34.117188 L 398 34.117188 L 398 430.882812 L 142.78125 430.882812 Z M 142.78125 34.117188 " clip-rule="nonzero"/></clipPath><clipPath id="0d60d12ac4"><path d="M 48.851562 336.082031 L 210.550781 336.082031 L 210.550781 497.785156 L 48.851562 497.785156 Z M 48.851562 336.082031 " clip-rule="nonzero"/></clipPath></defs><g clip-path="url(#8f940bed88)"><path fill="#009872" d="M 421.972656 145.796875 L 304.09375 145.796875 C 293.855469 145.796875 285.480469 154.171875 285.480469 164.410156 L 285.480469 300.902344 C 285.480469 311.140625 293.855469 319.515625 304.09375 319.515625 L 421.972656 319.515625 C 432.210938 319.515625 440.585938 311.140625 440.585938 300.902344 L 440.585938 164.410156 C 440.585938 154.171875 432.210938 145.796875 421.972656 145.796875 Z M 428.179688 300.902344 C 428.179688 304.316406 425.386719 307.109375 421.972656 307.109375 L 304.09375 307.109375 C 300.679688 307.109375 297.886719 304.316406 297.886719 300.902344 L 297.886719 164.410156 C 297.886719 160.996094 300.679688 158.203125 304.09375 158.203125 L 421.972656 158.203125 C 425.386719 158.203125 428.179688 160.996094 428.179688 164.410156 Z M 428.179688 300.902344 " fill-opacity="1" fill-rule="nonzero"/></g><path fill="#009872" d="M 204.824219 169.683594 C 204.824219 162.859375 199.238281 157.273438 192.414062 157.273438 L 180.003906 157.273438 C 173.179688 157.273438 167.597656 162.859375 167.597656 169.683594 L 167.597656 182.089844 C 167.597656 188.914062 173.179688 194.5 180.003906 194.5 L 192.414062 194.5 C 199.238281 194.5 204.824219 188.914062 204.824219 182.089844 Z M 180.003906 182.089844 L 180.003906 169.683594 L 192.414062 169.683594 L 192.414062 182.089844 Z M 180.003906 182.089844 " fill-opacity="1" fill-rule="nonzero"/><path fill="#009872" d="M 266.867188 161.304688 L 223.4375 161.304688 C 220.023438 161.304688 217.230469 164.097656 217.230469 167.511719 C 217.230469 170.921875 220.023438 173.714844 223.4375 173.714844 L 266.867188 173.714844 C 270.277344 173.714844 273.070312 170.921875 273.070312 167.511719 C 273.070312 164.097656 270.277344 161.304688 266.867188 161.304688 Z M 266.867188 161.304688 " fill-opacity="1" fill-rule="nonzero"/><path fill="#009872" d="M 223.4375 192.328125 L 254.457031 192.328125 C 257.871094 192.328125 260.660156 189.535156 260.660156 186.125 C 260.660156 182.710938 257.871094 179.917969 254.457031 179.917969 L 223.4375 179.917969 C 220.023438 179.917969 217.230469 182.710938 217.230469 186.125 C 217.230469 189.535156 220.023438 192.328125 223.4375 192.328125 Z M 223.4375 192.328125 " fill-opacity="1" fill-rule="nonzero"/><path fill="#009872" d="M 204.824219 219.316406 C 204.824219 212.492188 199.238281 206.910156 192.414062 206.910156 L 180.003906 206.910156 C 173.179688 206.910156 167.597656 212.492188 167.597656 219.316406 L 167.597656 231.726562 C 167.597656 238.550781 173.179688 244.132812 180.003906 244.132812 L 192.414062 244.132812 C 199.238281 244.132812 204.824219 238.550781 204.824219 231.726562 Z M 180.003906 231.726562 L 180.003906 219.316406 L 192.414062 219.316406 L 192.414062 231.726562 Z M 180.003906 231.726562 " fill-opacity="1" fill-rule="nonzero"/><path fill="#009872" d="M 223.4375 223.351562 L 266.867188 223.351562 C 270.277344 223.351562 273.070312 220.558594 273.070312 217.144531 C 273.070312 213.734375 270.277344 210.941406 266.867188 210.941406 L 223.4375 210.941406 C 220.023438 210.941406 217.230469 213.734375 217.230469 217.144531 C 217.230469 220.558594 220.023438 223.351562 223.4375 223.351562 Z M 223.4375 223.351562 " fill-opacity="1" fill-rule="nonzero"/><path fill="#009872" d="M 223.4375 241.960938 L 254.457031 241.960938 C 257.871094 241.960938 260.660156 239.171875 260.660156 235.757812 C 260.660156 232.347656 257.871094 229.554688 254.457031 229.554688 L 223.4375 229.554688 C 220.023438 229.554688 217.230469 232.347656 217.230469 235.757812 C 217.230469 239.171875 220.023438 241.960938 223.4375 241.960938 Z M 223.4375 241.960938 " fill-opacity="1" fill-rule="nonzero"/><path fill="#009872" d="M 204.824219 268.953125 C 204.824219 262.125 199.238281 256.542969 192.414062 256.542969 L 180.003906 256.542969 C 173.179688 256.542969 167.597656 262.125 167.597656 268.953125 L 167.597656 281.359375 C 167.597656 288.183594 173.179688 293.769531 180.003906 293.769531 L 192.414062 293.769531 C 199.238281 293.769531 204.824219 288.183594 204.824219 281.359375 Z M 180.003906 281.359375 L 180.003906 268.953125 L 192.414062 268.953125 L 192.414062 281.359375 Z M 180.003906 281.359375 " fill-opacity="1" fill-rule="nonzero"/><path fill="#009872" d="M 223.4375 272.984375 L 266.867188 272.984375 C 270.277344 272.984375 273.070312 270.191406 273.070312 266.78125 C 273.070312 263.367188 270.277344 260.574219 266.867188 260.574219 L 223.4375 260.574219 C 220.023438 260.574219 217.230469 263.367188 217.230469 266.78125 C 217.230469 270.191406 220.023438 272.984375 223.4375 272.984375 Z M 223.4375 272.984375 " fill-opacity="1" fill-rule="nonzero"/><path fill="#009872" d="M 223.4375 291.597656 L 254.457031 291.597656 C 257.871094 291.597656 260.660156 288.804688 260.660156 285.394531 C 260.660156 281.980469 257.871094 279.1875 254.457031 279.1875 L 223.4375 279.1875 C 220.023438 279.1875 217.230469 281.980469 217.230469 285.394531 C 217.230469 288.804688 220.023438 291.597656 223.4375 291.597656 Z M 223.4375 291.597656 " fill-opacity="1" fill-rule="nonzero"/><path fill="#009872" d="M 204.824219 318.585938 C 204.824219 311.761719 199.238281 306.175781 192.414062 306.175781 L 180.003906 306.175781 C 173.179688 306.175781 167.597656 311.761719 167.597656 318.585938 L 167.597656 330.996094 C 167.597656 337.820312 173.179688 343.402344 180.003906 343.402344 L 192.414062 343.402344 C 199.238281 343.402344 204.824219 337.820312 204.824219 330.996094 Z M 180.003906 330.996094 L 180.003906 318.585938 L 192.414062 318.585938 L 192.414062 330.996094 Z M 180.003906 330.996094 " fill-opacity="1" fill-rule="nonzero"/><path fill="#009872" d="M 223.4375 322.617188 L 266.867188 322.617188 C 270.277344 322.617188 273.070312 319.828125 273.070312 316.414062 C 273.070312 313.003906 270.277344 310.210938 266.867188 310.210938 L 223.4375 310.210938 C 220.023438 310.210938 217.230469 313.003906 217.230469 316.414062 C 217.230469 319.828125 220.023438 322.617188 223.4375 322.617188 Z M 223.4375 322.617188 " fill-opacity="1" fill-rule="nonzero"/><path fill="#009872" d="M 223.4375 341.230469 L 254.457031 341.230469 C 257.871094 341.230469 260.660156 338.441406 260.660156 335.027344 C 260.660156 331.617188 257.871094 328.824219 254.457031 328.824219 L 223.4375 328.824219 C 220.023438 328.824219 217.230469 331.617188 217.230469 335.027344 C 217.230469 338.441406 220.023438 341.230469 223.4375 341.230469 Z M 223.4375 341.230469 " fill-opacity="1" fill-rule="nonzero"/><path fill="#009872" d="M 192.414062 355.8125 L 180.003906 355.8125 C 173.179688 355.8125 167.597656 361.394531 167.597656 368.222656 L 167.597656 380.628906 C 167.597656 387.453125 173.179688 393.039062 180.003906 393.039062 L 192.414062 393.039062 C 199.238281 393.039062 204.824219 387.453125 204.824219 380.628906 L 204.824219 368.222656 C 204.824219 361.394531 199.238281 355.8125 192.414062 355.8125 Z M 180.003906 380.628906 L 180.003906 368.222656 L 192.414062 368.222656 L 192.414062 380.628906 Z M 180.003906 380.628906 " fill-opacity="1" fill-rule="nonzero"/><path fill="#009872" d="M 328.910156 359.84375 L 223.4375 359.84375 C 220.023438 359.84375 217.230469 362.636719 217.230469 366.050781 C 217.230469 369.460938 220.023438 372.253906 223.4375 372.253906 L 328.910156 372.253906 C 332.320312 372.253906 335.113281 369.460938 335.113281 366.050781 C 335.113281 362.636719 332.320312 359.84375 328.910156 359.84375 Z M 328.910156 359.84375 " fill-opacity="1" fill-rule="nonzero"/><path fill="#009872" d="M 217.230469 384.664062 C 217.230469 388.074219 220.023438 390.867188 223.4375 390.867188 L 353.726562 390.867188 C 357.140625 390.867188 359.929688 388.074219 359.929688 384.664062 C 359.929688 381.25 357.140625 378.457031 353.726562 378.457031 L 223.4375 378.457031 C 220.023438 378.457031 217.230469 381.25 217.230469 384.664062 Z M 217.230469 384.664062 " fill-opacity="1" fill-rule="nonzero"/><path fill="#009872" d="M 401.808594 194.1875 L 342.871094 257.785156 L 324.257812 237.929688 C 321.773438 235.449219 318.050781 235.136719 315.570312 237.621094 C 313.089844 240.101562 312.777344 243.824219 315.261719 246.304688 L 338.527344 271.125 C 339.765625 272.363281 341.316406 272.984375 343.179688 272.984375 C 345.039062 272.984375 346.59375 272.363281 347.832031 271.125 L 411.425781 202.875 C 413.910156 200.394531 413.597656 196.359375 411.117188 194.1875 C 408.324219 191.707031 404.292969 191.707031 401.808594 194.1875 Z M 401.808594 194.1875 " fill-opacity="1" fill-rule="nonzero"/><g clip-path="url(#b6a19d6934)"><path fill="#009872" d="M 384.75 412.582031 C 384.75 415.996094 381.957031 418.785156 378.542969 418.785156 L 161.394531 418.785156 C 157.980469 418.785156 155.1875 415.996094 155.1875 412.582031 L 155.1875 114.773438 C 155.1875 111.363281 157.980469 108.570312 161.394531 108.570312 L 198.617188 108.570312 L 198.617188 124.082031 C 198.617188 127.492188 201.410156 130.285156 204.824219 130.285156 L 335.113281 130.285156 C 338.527344 130.285156 341.316406 127.492188 341.316406 124.082031 L 341.316406 108.570312 L 378.542969 108.570312 C 381.957031 108.570312 384.75 111.363281 384.75 114.773438 L 384.75 133.386719 L 397.15625 133.386719 L 397.15625 114.773438 C 397.15625 104.535156 388.78125 96.160156 378.542969 96.160156 L 341.316406 96.160156 L 341.316406 80.648438 C 341.316406 77.238281 338.527344 74.445312 335.113281 74.445312 L 313.089844 74.445312 C 311.539062 51.800781 292.925781 34.117188 269.96875 34.117188 C 247.011719 34.117188 228.398438 51.800781 226.847656 74.445312 L 204.824219 74.445312 C 201.410156 74.445312 198.617188 77.238281 198.617188 80.648438 L 198.617188 96.160156 L 161.394531 96.160156 C 151.15625 96.160156 142.78125 104.535156 142.78125 114.773438 L 142.78125 412.582031 C 142.78125 422.820312 151.15625 431.195312 161.394531 431.195312 L 378.542969 431.195312 C 388.78125 431.195312 397.15625 422.820312 397.15625 412.582031 L 397.15625 331.925781 L 384.75 331.925781 Z M 269.96875 46.527344 C 286.101562 46.527344 299.128906 58.933594 300.679688 74.445312 L 239.257812 74.445312 C 240.808594 58.933594 253.835938 46.527344 269.96875 46.527344 Z M 211.027344 86.855469 L 328.910156 86.855469 L 328.910156 117.875 L 211.027344 117.875 Z M 211.027344 86.855469 " fill-opacity="1" fill-rule="nonzero"/></g><g clip-path="url(#0d60d12ac4)"><path fill="#009872" d="M 129.699219 336.082031 C 85.046875 336.082031 48.851562 372.28125 48.851562 416.933594 C 48.851562 461.585938 85.046875 497.785156 129.699219 497.785156 C 174.355469 497.785156 210.550781 461.585938 210.550781 416.933594 C 210.550781 372.28125 174.355469 336.082031 129.699219 336.082031 Z M 150.609375 449.273438 L 123.984375 422.648438 C 122.464844 421.128906 121.617188 419.078125 121.617188 416.933594 L 121.617188 376.507812 C 121.617188 372.046875 125.238281 368.421875 129.699219 368.421875 C 134.164062 368.421875 137.785156 372.046875 137.785156 376.507812 L 137.785156 413.585938 L 162.042969 437.839844 C 165.195312 440.996094 165.195312 446.121094 162.042969 449.273438 C 158.886719 452.425781 153.761719 452.425781 150.609375 449.273438 Z M 150.609375 449.273438 " fill-opacity="1" fill-rule="nonzero"/></g></svg>