<?xml version="1.0" encoding="UTF-8"?>
<!DOCTYPE svg PUBLIC "-//W3C//DTD SVG 1.1//EN" "http://www.w3.org/Graphics/SVG/1.1/DTD/svg11.dtd">
<svg xmlns="http://www.w3.org/2000/svg" version="1.1" width="2250px" height="2250px" style="shape-rendering:geometricPrecision; text-rendering:geometricPrecision; image-rendering:optimizeQuality; fill-rule:evenodd; clip-rule:evenodd" xmlns:xlink="http://www.w3.org/1999/xlink">
<g><path style="opacity:0.979" fill="#513c8f" d="M 1115.5,295.5 C 1135.21,292.74 1148.04,300.74 1154,319.5C 1154.67,353.5 1154.67,387.5 1154,421.5C 1147.29,442.772 1133.13,450.272 1111.5,444C 1102,439.83 1096.16,432.663 1094,422.5C 1093.33,387.833 1093.33,353.167 1094,318.5C 1097.26,307.08 1104.42,299.414 1115.5,295.5 Z"/></g>
<g><path style="opacity:0.979" fill="#513c8f" d="M 650.5,420.5 C 663.053,418.529 673.22,422.529 681,432.5C 697.333,460.5 713.667,488.5 730,516.5C 736.274,537.452 729.107,551.619 708.5,559C 696.069,561.08 685.902,557.246 678,547.5C 661.081,518.663 644.414,489.663 628,460.5C 623.847,440.463 631.347,427.129 650.5,420.5 Z"/></g>
<g><path style="opacity:0.978" fill="#513c8f" d="M 1584.5,420.5 C 1605.81,419.482 1618.14,429.482 1621.5,450.5C 1620.98,454.242 1620.15,457.909 1619,461.5C 1602.34,491.494 1585.17,521.16 1567.5,550.5C 1552.9,562.458 1538.24,562.458 1523.5,550.5C 1514.55,540.364 1512.72,529.03 1518,516.5C 1534.59,488.33 1550.92,459.997 1567,431.5C 1571.88,426.152 1577.71,422.486 1584.5,420.5 Z"/></g>
<g><path style="opacity:0.986" fill="#513c8f" d="M 1116.5,551.5 C 1136.18,549.381 1148.68,557.714 1154,576.5C 1162.61,678.959 1174.94,780.959 1191,882.5C 1193.21,893.861 1195.54,905.194 1198,916.5C 1211.39,960.352 1225.39,1004.02 1240,1047.5C 1242.22,1053.67 1243.72,1060 1244.5,1066.5C 1244.12,1071.68 1242.96,1076.68 1241,1081.5C 1210.61,1151.95 1179.94,1222.28 1149,1292.5C 1138.13,1306.09 1124.63,1309.26 1108.5,1302C 1103.62,1298.79 1099.79,1294.62 1097,1289.5C 1066.33,1218.83 1035.67,1148.17 1005,1077.5C 1002.46,1070.92 1002.12,1064.25 1004,1057.5C 1018.2,1018.91 1031.2,979.91 1043,940.5C 1047.22,923.633 1050.89,906.633 1054,889.5C 1070.53,784.912 1083.87,679.912 1094,574.5C 1097.68,562.984 1105.18,555.317 1116.5,551.5 Z M 1123.5,846.5 C 1128.68,877.23 1134.85,907.897 1142,938.5C 1154.7,981.273 1168.2,1023.77 1182.5,1066C 1162.87,1110.09 1143.37,1154.26 1124,1198.5C 1104.5,1154.17 1085,1109.83 1065.5,1065.5C 1080.63,1023.93 1094.47,981.933 1107,939.5C 1114.44,908.835 1119.94,877.835 1123.5,846.5 Z"/></g>
<g><path style="opacity:0.984" fill="#513c8f" d="M 1027.5,602.5 C 1028.5,602.5 1029.5,602.5 1030.5,602.5C 1029.61,623.486 1027.61,644.319 1024.5,665C 841.37,699.232 699.537,794.065 599,949.5C 507.624,1101.79 483.958,1264.13 528,1436.5C 574.373,1597.48 668.873,1721.31 811.5,1808C 951.499,1887.94 1100.5,1911.28 1258.5,1878C 1411.73,1840.99 1534.56,1759.16 1627,1632.5C 1728.8,1484.53 1762.13,1322.19 1727,1145.5C 1693.03,996.297 1615.86,875.13 1495.5,782C 1414.21,721.157 1323.21,682.324 1222.5,665.5C 1221.29,644.74 1219.29,624.073 1216.5,603.5C 1328.49,618.434 1430.16,658.934 1521.5,725C 1660.11,828.063 1748.61,964.229 1787,1133.5C 1826.02,1332.04 1787.02,1513.37 1670,1677.5C 1569.68,1810.63 1438.18,1897.13 1275.5,1937C 1076.98,1978.83 894.647,1942.16 728.5,1827C 566.456,1706.5 473.289,1545.34 449,1343.5C 431.987,1143.21 489.654,968.211 622,818.5C 732.007,700.234 867.174,628.234 1027.5,602.5 Z M 1123.5,846.5 C 1119.94,877.835 1114.44,908.835 1107,939.5C 1094.47,981.933 1080.63,1023.93 1065.5,1065.5C 1085,1109.83 1104.5,1154.17 1124,1198.5C 1143.37,1154.26 1162.87,1110.09 1182.5,1066C 1168.2,1023.77 1154.7,981.273 1142,938.5C 1134.85,907.897 1128.68,877.23 1123.5,846.5 Z"/></g>
<g><path style="opacity:0.978" fill="#513c8f" d="M 309.5,762.5 C 318.519,762.005 326.852,764.171 334.5,769C 361.167,784.667 387.833,800.333 414.5,816C 427.21,832.492 426.21,848.159 411.5,863C 402.77,868.506 393.436,869.839 383.5,867C 354.337,850.586 325.337,833.919 296.5,817C 280.323,800.401 280.656,784.067 297.5,768C 301.284,765.471 305.284,763.638 309.5,762.5 Z"/></g>
<g><path style="opacity:0.977" fill="#513c8f" d="M 1927.5,762.5 C 1948.32,761.987 1960.32,771.987 1963.5,792.5C 1963.03,803.949 1958.03,812.782 1948.5,819C 1920.5,835 1892.5,851 1864.5,867C 1841.24,871.364 1827.57,861.864 1823.5,838.5C 1824.47,826.386 1830.14,817.22 1840.5,811C 1866.76,796.399 1892.76,781.399 1918.5,766C 1921.57,764.704 1924.57,763.538 1927.5,762.5 Z"/></g>
<g><path style="opacity:0.983" fill="#513c8f" d="M 991.5,889.5 C 992.5,889.5 993.5,889.5 994.5,889.5C 988.449,914.037 981.615,938.37 974,962.5C 875.373,1012.81 812.706,1091.81 786,1199.5C 762.45,1322.14 793.116,1428.81 878,1519.5C 962.442,1600.43 1062.94,1632.93 1179.5,1617C 1289.65,1596.12 1372.49,1537.28 1428,1440.5C 1471.88,1356.91 1481.21,1269.58 1456,1178.5C 1425.15,1081.11 1364.48,1008.78 1274,961.5C 1265.02,938.068 1258.19,914.068 1253.5,889.5C 1368.08,929.577 1449.92,1005.24 1499,1116.5C 1546.55,1236.74 1540.89,1354.41 1482,1469.5C 1410.68,1593.04 1303.85,1663.54 1161.5,1681C 1017.24,1690.42 898.742,1640.26 806,1530.5C 723.187,1421.78 698.187,1300.78 731,1167.5C 767.028,1047.15 841.528,959.647 954.5,905C 966.893,899.71 979.226,894.544 991.5,889.5 Z"/></g>
<g><path style="opacity:0.982" fill="#513c8f" d="M 184.5,1229.5 C 219.549,1229.03 254.549,1229.53 289.5,1231C 306.612,1237.72 313.446,1250.22 310,1268.5C 306.512,1279.83 299.012,1287 287.5,1290C 252.5,1290.67 217.5,1290.67 182.5,1290C 163.645,1282.79 156.478,1269.29 161,1249.5C 165.642,1238.95 173.475,1232.28 184.5,1229.5 Z"/></g>
<g><path style="opacity:0.981" fill="#513c8f" d="M 1961.5,1229.5 C 1996.88,1229.03 2032.22,1229.53 2067.5,1231C 2084.72,1238.27 2091.22,1251.1 2087,1269.5C 2083.32,1280.51 2075.82,1287.35 2064.5,1290C 2029.83,1290.67 1995.17,1290.67 1960.5,1290C 1945.62,1285.59 1937.62,1275.59 1936.5,1260C 1938.14,1244.17 1946.47,1234.01 1961.5,1229.5 Z"/></g>
<g><path style="opacity:0.978" fill="#513c8f" d="M 389.5,1651.5 C 406.576,1650.62 417.743,1658.28 423,1674.5C 425.476,1687.07 421.976,1697.57 412.5,1706C 382.996,1723.25 353.33,1740.25 323.5,1757C 304.293,1760.47 291.459,1752.97 285,1734.5C 282.762,1719.81 287.928,1708.65 300.5,1701C 321.167,1689 341.833,1677 362.5,1665C 371.237,1659.71 380.237,1655.21 389.5,1651.5 Z"/></g>
<g><path style="opacity:0.978" fill="#513c8f" d="M 1846.5,1652.5 C 1854.5,1651.71 1862.17,1652.87 1869.5,1656C 1897.5,1672.33 1925.5,1688.67 1953.5,1705C 1967.04,1721.21 1966.37,1736.87 1951.5,1752C 1942.19,1758.53 1932.19,1759.86 1921.5,1756C 1892.17,1739 1862.83,1722 1833.5,1705C 1819.4,1687.81 1820.73,1671.81 1837.5,1657C 1840.59,1655.45 1843.59,1653.95 1846.5,1652.5 Z"/></g>
</svg>
