<?xml version="1.0" encoding="UTF-8"?>
<!DOCTYPE svg PUBLIC "-//W3C//DTD SVG 1.1//EN" "http://www.w3.org/Graphics/SVG/1.1/DTD/svg11.dtd">
<svg xmlns="http://www.w3.org/2000/svg" version="1.1" width="2250px" height="2250px" style="shape-rendering:geometricPrecision; text-rendering:geometricPrecision; image-rendering:optimizeQuality; fill-rule:evenodd; clip-rule:evenodd" xmlns:xlink="http://www.w3.org/1999/xlink">
<g><path style="opacity:0.994" fill="#88bd6d" d="M 562.5,410.5 C 626.349,410.488 672.516,438.821 701,495.5C 707.527,511.61 711.861,528.276 714,545.5C 752.833,590.333 791.667,635.167 830.5,680C 856.107,678.443 879.607,684.609 901,698.5C 912.155,688.68 923.322,678.846 934.5,669C 949.285,661.185 962.952,662.852 975.5,674C 1010.83,704.667 1046.17,735.333 1081.5,766C 1087.53,771.564 1091.37,778.398 1093,786.5C 1093.97,823.206 1093.63,859.872 1092,896.5C 1083.07,915.381 1068.57,921.881 1048.5,916C 1038.68,911.513 1032.51,904.013 1030,893.5C 1029.67,864.167 1029.33,834.833 1029,805.5C 1003.33,783.167 977.667,760.833 952,738.5C 948.328,741.342 944.828,744.342 941.5,747.5C 959.812,796.746 950.145,839.58 912.5,876C 877.029,903.639 838.196,909.473 796,893.5C 792.625,896.539 789.458,899.872 786.5,903.5C 808.275,929.444 830.608,954.944 853.5,980C 881.5,980.333 909.5,980.667 937.5,981C 960.35,986.18 969.516,1000.35 965,1023.5C 960.644,1033.86 953.144,1040.69 942.5,1044C 904.44,1044.98 866.44,1044.65 828.5,1043C 821.865,1040.37 816.365,1036.2 812,1030.5C 783.04,996.538 753.706,962.871 724,929.5C 710.511,914.89 709.177,899.223 720,882.5C 729.391,872.945 738.224,862.945 746.5,852.5C 733.806,832.731 727.139,811.065 726.5,787.5C 680.004,756.751 633.338,726.251 586.5,696C 576.207,696.565 565.873,696.565 555.5,696C 546.838,694.597 538.172,693.597 529.5,693C 479.924,716.705 430.424,740.538 381,764.5C 380.5,882.5 380.333,1000.5 380.5,1118.5C 454.834,1118.33 529.167,1118.5 603.5,1119C 633.47,1124.3 651.636,1141.8 658,1171.5C 659.44,1208.14 659.94,1244.81 659.5,1281.5C 677.5,1281.5 695.5,1281.5 713.5,1281.5C 713.333,1246.17 713.5,1210.83 714,1175.5C 719.382,1143.78 737.882,1124.95 769.5,1119C 867.167,1118.33 964.833,1118.33 1062.5,1119C 1092.8,1124.63 1111.3,1142.47 1118,1172.5C 1118.5,1208.83 1118.67,1245.17 1118.5,1281.5C 1162.83,1281.5 1207.17,1281.5 1251.5,1281.5C 1251.5,1149.5 1251.5,1017.5 1251.5,885.5C 1547.5,885.167 1843.5,885.5 2139.5,886.5C 2139.96,1132.75 2139.96,1386.09 2139.5,1646.5C 1843.5,1646.5 1547.5,1646.5 1251.5,1646.5C 1251.5,1599.17 1251.5,1551.83 1251.5,1504.5C 905.167,1504.67 558.833,1504.5 212.5,1504C 162.693,1498.51 129.859,1472.01 114,1424.5C 103.736,1384.9 111.736,1349.57 138,1318.5C 138.667,1129.5 138.667,940.5 138,751.5C 116.529,701.804 122.529,655.804 156,613.5C 176.17,590.66 201.337,576.493 231.5,571C 308.167,534 384.833,497 461.5,460C 488.625,430.104 522.291,413.604 562.5,410.5 Z M 425.5,548.5 C 426.247,587.746 439.581,622.079 465.5,651.5C 437.531,665.484 409.531,679.484 381.5,693.5C 380.303,653.276 364.303,620.442 333.5,595C 364.383,579.726 395.05,564.226 425.5,548.5 Z M 694.5,623.5 C 696.017,623.511 697.184,624.177 698,625.5C 720.793,652.628 743.96,679.462 767.5,706C 760.968,712.198 754.801,718.698 749,725.5C 718.577,706.04 688.41,686.206 658.5,666C 673.218,654.016 685.218,639.85 694.5,623.5 Z M 314.5,806.5 C 315.499,910.999 315.833,1015.67 315.5,1120.5C 288.267,1122.23 269.1,1135.57 258,1160.5C 255.714,1166.98 254.381,1173.64 254,1180.5C 253.5,1214.17 253.333,1247.83 253.5,1281.5C 238.83,1281.33 224.163,1281.5 209.5,1282C 207.236,1282.24 205.069,1282.74 203,1283.5C 202.333,1126.5 202.333,969.5 203,812.5C 241.279,828.585 278.446,826.585 314.5,806.5 Z M 1647.5,949.5 C 1742.83,949.333 1838.17,949.5 1933.5,950C 1949.73,951.353 1959.9,959.853 1964,975.5C 1964.67,1063.83 1964.67,1152.17 1964,1240.5C 1960.5,1253.33 1952.33,1261.5 1939.5,1265C 1840.17,1265.67 1740.83,1265.67 1641.5,1265C 1627.78,1261.28 1619.61,1252.45 1617,1238.5C 1616.33,1151.17 1616.33,1063.83 1617,976.5C 1621.15,960.508 1631.32,951.508 1647.5,949.5 Z M 318.5,1182.5 C 354.167,1182.5 389.833,1182.5 425.5,1182.5C 425.333,1197.17 425.5,1211.84 426,1226.5C 433.308,1246.74 447.475,1254.24 468.5,1249C 480.159,1244.34 486.992,1235.84 489,1223.5C 489.5,1209.84 489.667,1196.17 489.5,1182.5C 524.5,1182.5 559.5,1182.5 594.5,1182.5C 594.5,1215.5 594.5,1248.5 594.5,1281.5C 502.5,1281.5 410.5,1281.5 318.5,1281.5C 318.5,1248.5 318.5,1215.5 318.5,1182.5 Z M 778.5,1182.5 C 813.833,1182.5 849.167,1182.5 884.5,1182.5C 884.333,1195.17 884.5,1207.84 885,1220.5C 887.306,1239.47 897.972,1249.47 917,1250.5C 935.11,1249.73 945.777,1240.39 949,1222.5C 949.5,1209.17 949.667,1195.84 949.5,1182.5C 984.5,1182.5 1019.5,1182.5 1054.5,1182.5C 1054.5,1215.5 1054.5,1248.5 1054.5,1281.5C 962.5,1281.5 870.5,1281.5 778.5,1281.5C 778.5,1248.5 778.5,1215.5 778.5,1182.5 Z"/></g>
<g><path style="opacity:0.989" fill="#88bd6d" d="M 1309.5,695.5 C 1569.52,695.007 1829.52,695.507 2089.5,697C 2121.03,705.871 2137.86,726.704 2140,759.5C 2140.67,780.5 2140.67,801.5 2140,822.5C 1843.9,823.5 1547.74,823.833 1251.5,823.5C 1251.33,798.831 1251.5,774.164 1252,749.5C 1259.16,718.502 1278.33,700.502 1309.5,695.5 Z"/></g>
<g><path style="opacity:0.989" fill="#88bd6d" d="M 232.5,1566.5 C 342.869,1566.01 453.202,1566.51 563.5,1568C 581.522,1575.21 588.689,1588.37 585,1607.5C 581.401,1619.43 573.568,1626.93 561.5,1630C 516.835,1630.5 472.168,1630.67 427.5,1630.5C 427.667,1690.5 427.5,1750.5 427,1810.5C 422.988,1827.01 412.488,1835.68 395.5,1836.5C 378.955,1835.79 368.455,1827.46 364,1811.5C 363.5,1751.17 363.333,1690.83 363.5,1630.5C 317.453,1630.98 271.453,1630.48 225.5,1629C 209.001,1620.83 202.501,1607.67 206,1589.5C 210.702,1576.96 219.535,1569.29 232.5,1566.5 Z"/></g>
<g><path style="opacity:0.984" fill="#88bd6d" d="M 834.5,1566.5 C 944.877,1566.01 1055.21,1566.51 1165.5,1568C 1180,1573.18 1187.67,1583.51 1188.5,1599C 1188.17,1613.67 1181.17,1623.67 1167.5,1629C 1121.88,1630.48 1076.21,1630.98 1030.5,1630.5C 1030.67,1689.5 1030.5,1748.5 1030,1807.5C 1024.76,1830.37 1010.59,1839.54 987.5,1835C 975.545,1830.05 968.378,1821.21 966,1808.5C 965.5,1749.17 965.333,1689.83 965.5,1630.5C 921.165,1630.67 876.832,1630.5 832.5,1630C 813.63,1624.11 805.463,1611.28 808,1591.5C 811.883,1577.78 820.717,1569.45 834.5,1566.5 Z"/></g>
<g><path style="opacity:0.995" fill="#88bd6d" d="M 1251.5,1709.5 C 1547.83,1709.5 1844.17,1709.5 2140.5,1709.5C 2140.95,1743.86 2140.45,1778.2 2139,1812.5C 2135.1,1824.74 2126.93,1832.57 2114.5,1836C 1975,1836.17 1835.5,1836.33 1696,1836.5C 1555.12,1836.66 1414.29,1836.16 1273.5,1835C 1262.16,1830.99 1254.99,1823.16 1252,1811.5C 1251.5,1777.5 1251.33,1743.5 1251.5,1709.5 Z"/></g>
</svg>
