<svg xmlns="http://www.w3.org/2000/svg" xmlns:xlink="http://www.w3.org/1999/xlink" width="720" zoomAndPan="magnify" viewBox="0 0 540 540.000001" height="720" preserveAspectRatio="xMidYMid meet" version="1.0"><defs><clipPath id="f48cd7a93a"><path d="M 118.082031 38.445312 L 421 38.445312 L 421 500.339844 L 118.082031 500.339844 Z M 118.082031 38.445312 " clip-rule="nonzero"/></clipPath></defs><g clip-path="url(#f48cd7a93a)"><path fill="#2b6caf" d="M 260.894531 343.015625 L 260.894531 93.109375 C 260.894531 62.988281 236.410156 38.503906 206.289062 38.503906 C 176.167969 38.503906 151.683594 62.988281 151.683594 93.109375 L 151.683594 343.015625 C 130.523438 359.554688 118.082031 384.960938 118.082031 412.28125 C 118.082031 460.914062 157.65625 500.488281 206.289062 500.488281 C 254.921875 500.488281 294.496094 460.914062 294.496094 412.28125 C 294.496094 384.960938 282.054688 359.554688 260.894531 343.015625 Z M 206.289062 475.296875 C 171.546875 475.296875 143.304688 447.023438 143.304688 412.3125 C 143.304688 391.121094 153.746094 371.566406 171.238281 359.984375 C 174.78125 357.644531 176.90625 353.699219 176.90625 349.480469 L 176.90625 93.109375 C 176.90625 76.910156 190.089844 63.699219 206.320312 63.699219 C 222.550781 63.699219 235.730469 76.878906 235.730469 93.109375 L 235.730469 349.480469 C 235.730469 353.699219 237.855469 357.644531 241.398438 359.984375 C 258.894531 371.566406 269.332031 391.089844 269.332031 412.3125 C 269.304688 447.023438 241.03125 475.296875 206.289062 475.296875 Z M 244.078125 412.28125 C 244.078125 433.101562 227.109375 450.070312 206.289062 450.070312 C 185.4375 450.070312 168.5 433.101562 168.5 412.28125 C 168.5 395.894531 179.0625 382.035156 193.691406 376.800781 L 193.691406 101.488281 C 193.691406 94.527344 199.328125 88.890625 206.289062 88.890625 C 213.25 88.890625 218.886719 94.527344 218.886719 101.488281 L 218.886719 376.800781 C 233.515625 382.035156 244.078125 395.894531 244.078125 412.28125 Z M 417.230469 147.070312 C 421.882812 152.246094 421.480469 160.191406 416.304688 164.84375 C 406.542969 173.679688 393.886719 178.515625 380.703125 178.515625 C 351.351562 178.515625 327.480469 154.648438 327.480469 125.296875 C 327.480469 95.945312 351.351562 72.074219 380.703125 72.074219 C 393.886719 72.074219 406.511719 76.941406 416.304688 85.75 C 421.480469 90.402344 421.910156 98.378906 417.230469 103.550781 C 412.550781 108.726562 404.601562 109.15625 399.429688 104.476562 C 394.285156 99.824219 387.601562 97.269531 380.671875 97.269531 C 365.210938 97.269531 352.644531 109.835938 352.644531 125.296875 C 352.644531 140.757812 365.210938 153.324219 380.671875 153.324219 C 387.632812 153.324219 394.285156 150.765625 399.429688 146.148438 C 404.570312 141.496094 412.578125 141.867188 417.230469 147.070312 Z M 307.09375 44.816406 C 294.375 44.816406 283.996094 55.199219 283.996094 67.917969 C 283.996094 80.636719 294.375 91.015625 307.09375 91.015625 C 319.8125 91.015625 330.191406 80.636719 330.191406 67.917969 C 330.191406 55.199219 319.8125 44.816406 307.09375 44.816406 Z M 307.09375 78.390625 C 301.304688 78.390625 296.589844 73.675781 296.589844 67.886719 C 296.589844 62.097656 301.304688 57.382812 307.09375 57.382812 C 312.882812 57.382812 317.597656 62.097656 317.597656 67.886719 C 317.597656 73.675781 312.882812 78.390625 307.09375 78.390625 Z M 307.09375 78.390625 " fill-opacity="1" fill-rule="nonzero"/></g></svg>