<svg xmlns="http://www.w3.org/2000/svg" xmlns:xlink="http://www.w3.org/1999/xlink" width="720" zoomAndPan="magnify" viewBox="0 0 540 540.000001" height="720" preserveAspectRatio="xMidYMid meet" version="1.0"><path fill="#89bd6f" d="M 270.421875 79.378906 C 268.597656 79.378906 266.773438 79.425781 264.949219 79.515625 C 263.128906 79.605469 261.308594 79.738281 259.492188 79.917969 C 257.675781 80.097656 255.863281 80.320312 254.058594 80.585938 C 252.253906 80.855469 250.457031 81.167969 248.664062 81.523438 C 246.875 81.878906 245.09375 82.277344 243.324219 82.722656 C 241.554688 83.167969 239.792969 83.652344 238.046875 84.183594 C 236.300781 84.710938 234.566406 85.285156 232.851562 85.898438 C 231.132812 86.515625 229.429688 87.171875 227.742188 87.871094 C 226.054688 88.570312 224.386719 89.308594 222.738281 90.089844 C 221.085938 90.867188 219.457031 91.6875 217.847656 92.550781 C 216.238281 93.410156 214.648438 94.308594 213.085938 95.25 C 211.519531 96.1875 209.976562 97.164062 208.460938 98.175781 C 206.941406 99.191406 205.449219 100.242188 203.984375 101.328125 C 202.519531 102.417969 201.078125 103.539062 199.667969 104.695312 C 198.257812 105.855469 196.875 107.046875 195.523438 108.273438 C 194.171875 109.5 192.847656 110.757812 191.558594 112.046875 C 190.269531 113.339844 189.007812 114.660156 187.785156 116.011719 C 186.558594 117.363281 185.367188 118.746094 184.207031 120.15625 C 183.050781 121.566406 181.925781 123.007812 180.839844 124.472656 C 179.753906 125.9375 178.703125 127.429688 177.6875 128.949219 C 176.675781 130.464844 175.699219 132.007812 174.757812 133.574219 C 173.820312 135.140625 172.921875 136.726562 172.0625 138.335938 C 171.199219 139.945312 170.378906 141.578125 169.601562 143.226562 C 168.820312 144.875 168.078125 146.542969 167.382812 148.230469 C 166.683594 149.917969 166.027344 151.621094 165.410156 153.339844 C 164.796875 155.058594 164.222656 156.789062 163.695312 158.535156 C 163.164062 160.28125 162.675781 162.042969 162.234375 163.8125 C 161.789062 165.582031 161.390625 167.363281 161.035156 169.152344 C 160.679688 170.945312 160.367188 172.742188 160.097656 174.546875 C 159.832031 176.351562 159.609375 178.164062 159.429688 179.980469 C 159.25 181.796875 159.117188 183.617188 159.027344 185.441406 C 158.9375 187.261719 158.890625 189.085938 158.890625 190.914062 C 158.890625 192.738281 158.9375 194.5625 159.027344 196.386719 C 159.117188 198.207031 159.25 200.027344 159.429688 201.84375 C 159.609375 203.660156 159.832031 205.472656 160.097656 207.277344 C 160.367188 209.082031 160.679688 210.882812 161.035156 212.671875 C 161.390625 214.460938 161.789062 216.242188 162.234375 218.011719 C 162.675781 219.78125 163.164062 221.542969 163.695312 223.289062 C 164.222656 225.035156 164.796875 226.769531 165.410156 228.488281 C 166.027344 230.203125 166.683594 231.90625 167.382812 233.59375 C 168.078125 235.28125 168.820312 236.949219 169.601562 238.597656 C 170.378906 240.25 171.199219 241.878906 172.0625 243.488281 C 172.921875 245.097656 173.820312 246.6875 174.757812 248.25 C 175.699219 249.816406 176.675781 251.359375 177.6875 252.875 C 178.703125 254.394531 179.753906 255.886719 180.839844 257.351562 C 181.925781 258.816406 183.050781 260.257812 184.207031 261.667969 C 185.367188 263.078125 186.558594 264.460938 187.785156 265.8125 C 189.007812 267.164062 190.269531 268.488281 191.558594 269.777344 C 192.847656 271.066406 194.171875 272.328125 195.523438 273.550781 C 196.875 274.777344 198.257812 275.96875 199.667969 277.128906 C 201.078125 278.285156 202.519531 279.410156 203.984375 280.496094 C 205.449219 281.582031 206.941406 282.632812 208.460938 283.648438 C 209.976562 284.660156 211.519531 285.636719 213.085938 286.578125 C 214.648438 287.515625 216.238281 288.414062 217.847656 289.273438 C 219.457031 290.136719 221.085938 290.957031 222.738281 291.734375 C 224.386719 292.515625 226.054688 293.257812 227.742188 293.953125 C 229.429688 294.652344 231.132812 295.308594 232.851562 295.925781 C 234.566406 296.539062 236.300781 297.113281 238.046875 297.640625 C 239.792969 298.171875 241.554688 298.660156 243.324219 299.101562 C 245.09375 299.546875 246.875 299.945312 248.664062 300.300781 C 250.457031 300.65625 252.253906 300.96875 254.058594 301.238281 C 255.863281 301.503906 257.675781 301.730469 259.492188 301.90625 C 261.308594 302.085938 263.128906 302.21875 264.949219 302.308594 C 266.773438 302.398438 268.597656 302.445312 270.421875 302.445312 C 272.25 302.445312 274.074219 302.398438 275.894531 302.308594 C 277.71875 302.21875 279.539062 302.085938 281.355469 301.90625 C 283.171875 301.730469 284.984375 301.503906 286.789062 301.238281 C 288.59375 300.96875 290.390625 300.65625 292.183594 300.300781 C 293.972656 299.945312 295.753906 299.546875 297.523438 299.101562 C 299.292969 298.660156 301.054688 298.171875 302.800781 297.640625 C 304.546875 297.113281 306.277344 296.539062 307.996094 295.925781 C 309.714844 295.308594 311.417969 294.652344 313.105469 293.953125 C 314.792969 293.257812 316.460938 292.515625 318.109375 291.734375 C 319.761719 290.957031 321.390625 290.136719 323 289.273438 C 324.609375 288.414062 326.195312 287.515625 327.761719 286.578125 C 329.328125 285.636719 330.871094 284.660156 332.386719 283.648438 C 333.90625 282.632812 335.398438 281.582031 336.863281 280.496094 C 338.328125 279.410156 339.769531 278.285156 341.179688 277.128906 C 342.589844 275.96875 343.972656 274.777344 345.324219 273.550781 C 346.675781 272.328125 348 271.066406 349.289062 269.777344 C 350.578125 268.488281 351.835938 267.164062 353.0625 265.8125 C 354.289062 264.460938 355.480469 263.078125 356.640625 261.667969 C 357.796875 260.257812 358.917969 258.816406 360.007812 257.351562 C 361.09375 255.886719 362.144531 254.394531 363.160156 252.875 C 364.171875 251.359375 365.148438 249.816406 366.089844 248.25 C 367.027344 246.6875 367.925781 245.097656 368.785156 243.488281 C 369.648438 241.878906 370.46875 240.25 371.246094 238.597656 C 372.027344 236.949219 372.765625 235.28125 373.464844 233.59375 C 374.164062 231.90625 374.820312 230.203125 375.4375 228.488281 C 376.050781 226.769531 376.625 225.035156 377.152344 223.289062 C 377.683594 221.542969 378.171875 219.78125 378.613281 218.011719 C 379.058594 216.242188 379.457031 214.460938 379.8125 212.671875 C 380.167969 210.882812 380.480469 209.082031 380.75 207.277344 C 381.015625 205.472656 381.238281 203.660156 381.417969 201.84375 C 381.597656 200.027344 381.730469 198.207031 381.820312 196.386719 C 381.910156 194.5625 381.957031 192.738281 381.957031 190.914062 C 381.957031 189.085938 381.910156 187.261719 381.820312 185.441406 C 381.730469 183.617188 381.597656 181.796875 381.417969 179.980469 C 381.238281 178.164062 381.015625 176.351562 380.75 174.546875 C 380.480469 172.742188 380.167969 170.945312 379.8125 169.152344 C 379.457031 167.363281 379.058594 165.582031 378.613281 163.8125 C 378.171875 162.042969 377.683594 160.28125 377.152344 158.535156 C 376.625 156.789062 376.050781 155.058594 375.4375 153.339844 C 374.820312 151.621094 374.164062 149.917969 373.464844 148.230469 C 372.765625 146.542969 372.027344 144.875 371.246094 143.226562 C 370.46875 141.578125 369.648438 139.945312 368.785156 138.335938 C 367.925781 136.726562 367.027344 135.140625 366.089844 133.574219 C 365.148438 132.007812 364.171875 130.464844 363.160156 128.949219 C 362.144531 127.429688 361.09375 125.9375 360.007812 124.472656 C 358.917969 123.007812 357.796875 121.566406 356.640625 120.15625 C 355.480469 118.746094 354.289062 117.363281 353.0625 116.011719 C 351.835938 114.660156 350.578125 113.339844 349.289062 112.046875 C 348 110.757812 346.675781 109.5 345.324219 108.273438 C 343.972656 107.046875 342.589844 105.855469 341.179688 104.695312 C 339.769531 103.539062 338.328125 102.417969 336.863281 101.328125 C 335.398438 100.242188 333.90625 99.191406 332.386719 98.175781 C 330.871094 97.164062 329.328125 96.1875 327.761719 95.25 C 326.195312 94.308594 324.609375 93.410156 323 92.550781 C 321.390625 91.6875 319.761719 90.867188 318.109375 90.089844 C 316.460938 89.308594 314.792969 88.570312 313.105469 87.871094 C 311.417969 87.171875 309.714844 86.515625 307.996094 85.898438 C 306.277344 85.285156 304.546875 84.710938 302.800781 84.183594 C 301.054688 83.652344 299.292969 83.167969 297.523438 82.722656 C 295.753906 82.277344 293.972656 81.878906 292.183594 81.523438 C 290.390625 81.167969 288.59375 80.855469 286.789062 80.585938 C 284.984375 80.320312 283.171875 80.097656 281.355469 79.917969 C 279.539062 79.738281 277.71875 79.605469 275.894531 79.515625 C 274.074219 79.425781 272.25 79.378906 270.421875 79.378906 Z M 339.058594 157.710938 L 255.410156 247.191406 C 254.644531 248.046875 253.742188 248.707031 252.695312 249.167969 C 251.644531 249.632812 250.550781 249.859375 249.402344 249.851562 C 248.355469 249.839844 247.34375 249.640625 246.367188 249.257812 C 245.394531 248.871094 244.515625 248.328125 243.742188 247.621094 L 201.789062 208.242188 C 201.425781 207.851562 201.097656 207.425781 200.8125 206.972656 C 200.527344 206.519531 200.289062 206.042969 200.09375 205.542969 C 199.898438 205.042969 199.75 204.53125 199.648438 204.003906 C 199.550781 203.476562 199.5 202.945312 199.5 202.410156 C 199.5 201.871094 199.550781 201.339844 199.648438 200.8125 C 199.75 200.289062 199.898438 199.773438 200.09375 199.273438 C 200.289062 198.777344 200.527344 198.300781 200.8125 197.84375 C 201.097656 197.390625 201.425781 196.96875 201.789062 196.574219 C 202.167969 196.1875 202.582031 195.84375 203.027344 195.535156 C 203.472656 195.230469 203.945312 194.964844 204.441406 194.75 C 204.9375 194.53125 205.449219 194.359375 205.976562 194.242188 C 206.503906 194.121094 207.039062 194.050781 207.582031 194.027344 C 208.121094 194.007812 208.660156 194.039062 209.195312 194.121094 C 209.730469 194.203125 210.253906 194.335938 210.761719 194.519531 C 211.273438 194.699219 211.761719 194.925781 212.230469 195.199219 C 212.699219 195.472656 213.136719 195.789062 213.542969 196.144531 L 249.574219 229.863281 L 327.992188 146.386719 C 328.144531 146.09375 328.3125 145.808594 328.5 145.535156 C 328.683594 145.261719 328.882812 145 329.101562 144.75 C 329.316406 144.5 329.542969 144.261719 329.789062 144.035156 C 330.03125 143.8125 330.285156 143.605469 330.554688 143.410156 C 330.820312 143.214844 331.097656 143.035156 331.386719 142.875 C 331.671875 142.710938 331.96875 142.566406 332.273438 142.4375 C 332.578125 142.308594 332.890625 142.199219 333.207031 142.105469 C 333.523438 142.015625 333.847656 141.941406 334.171875 141.886719 C 334.496094 141.832031 334.824219 141.792969 335.15625 141.777344 C 335.484375 141.761719 335.816406 141.761719 336.144531 141.78125 C 336.476562 141.804688 336.804688 141.84375 337.128906 141.902344 C 337.453125 141.960938 337.773438 142.039062 338.089844 142.132812 C 338.40625 142.230469 338.714844 142.34375 339.019531 142.476562 C 339.324219 142.605469 339.617188 142.757812 339.902344 142.921875 C 340.1875 143.085938 340.464844 143.269531 340.730469 143.464844 C 340.996094 143.664062 341.246094 143.875 341.488281 144.101562 C 341.726562 144.328125 341.957031 144.570312 342.167969 144.824219 C 342.378906 145.074219 342.578125 145.339844 342.761719 145.617188 C 342.941406 145.890625 343.109375 146.175781 343.257812 146.472656 C 343.40625 146.765625 343.539062 147.070312 343.652344 147.378906 C 343.765625 147.6875 343.863281 148.003906 343.941406 148.324219 C 344.019531 148.648438 344.078125 148.972656 344.117188 149.300781 C 344.160156 149.628906 344.179688 149.957031 344.183594 150.289062 C 344.183594 150.617188 344.167969 150.949219 344.132812 151.277344 C 344.09375 151.605469 344.039062 151.929688 343.96875 152.253906 C 343.894531 152.574219 343.800781 152.890625 343.691406 153.203125 C 343.582031 153.515625 343.453125 153.820312 343.308594 154.117188 C 343.164062 154.414062 343 154.699219 342.824219 154.976562 C 342.644531 155.257812 342.449219 155.523438 342.242188 155.777344 C 342.03125 156.035156 341.808594 156.277344 341.570312 156.507812 C 341.332031 156.738281 341.085938 156.953125 340.820312 157.152344 C 340.558594 157.355469 340.285156 157.539062 340.003906 157.710938 Z M 339.058594 157.710938 " fill-opacity="1" fill-rule="nonzero"/><path fill="#89bd6f" d="M 115.222656 230.722656 C 116.320312 232.046875 117.285156 233.46875 118.113281 234.976562 C 118.945312 236.484375 119.628906 238.058594 120.164062 239.695312 C 120.699219 241.332031 121.078125 243.003906 121.300781 244.710938 C 121.523438 246.417969 121.585938 248.132812 121.484375 249.851562 L 120.628906 265.039062 C 120.554688 266.304688 120.535156 267.570312 120.570312 268.835938 C 120.609375 270.105469 120.699219 271.367188 120.84375 272.625 C 120.988281 273.886719 121.183594 275.136719 121.4375 276.378906 C 121.6875 277.621094 121.992188 278.847656 122.351562 280.066406 C 122.707031 281.28125 123.117188 282.480469 123.574219 283.660156 C 124.035156 284.839844 124.546875 286 125.105469 287.136719 C 125.664062 288.273438 126.273438 289.386719 126.929688 290.46875 C 127.582031 291.554688 128.285156 292.609375 129.03125 293.636719 C 129.777344 294.660156 130.5625 295.652344 131.394531 296.609375 C 132.226562 297.566406 133.097656 298.484375 134.007812 299.367188 C 134.917969 300.25 135.863281 301.089844 136.84375 301.890625 C 137.828125 302.691406 138.839844 303.449219 139.890625 304.164062 C 140.9375 304.878906 142.011719 305.546875 143.117188 306.167969 C 144.222656 306.789062 145.351562 307.363281 146.503906 307.886719 C 147.65625 308.410156 148.832031 308.882812 150.027344 309.308594 C 151.222656 309.730469 152.433594 310.105469 153.65625 310.421875 L 168.242188 314.285156 C 169.914062 314.722656 171.53125 315.3125 173.09375 316.050781 C 174.65625 316.789062 176.140625 317.664062 177.539062 318.675781 C 178.941406 319.6875 180.238281 320.820312 181.429688 322.074219 C 182.621094 323.324219 183.6875 324.675781 184.628906 326.125 L 184.628906 326.722656 L 123.628906 470.6875 C 123.507812 471.039062 123.40625 471.394531 123.328125 471.757812 C 123.25 472.121094 123.195312 472.492188 123.164062 472.863281 C 123.136719 473.230469 123.128906 473.605469 123.148438 473.976562 C 123.167969 474.347656 123.207031 474.714844 123.273438 475.082031 C 123.339844 475.449219 123.429688 475.808594 123.542969 476.164062 C 123.65625 476.519531 123.792969 476.863281 123.953125 477.203125 C 124.109375 477.539062 124.289062 477.863281 124.488281 478.175781 C 124.691406 478.492188 124.910156 478.789062 125.148438 479.074219 C 125.390625 479.359375 125.648438 479.628906 125.921875 479.878906 C 126.195312 480.128906 126.484375 480.363281 126.789062 480.578125 C 127.09375 480.789062 127.414062 480.984375 127.742188 481.15625 C 128.070312 481.328125 128.410156 481.480469 128.761719 481.605469 C 129.109375 481.734375 129.46875 481.839844 129.832031 481.921875 C 130.195312 482.003906 130.558594 482.0625 130.929688 482.097656 C 131.300781 482.128906 131.671875 482.140625 132.046875 482.125 C 132.417969 482.113281 132.785156 482.074219 133.152344 482.011719 L 182.914062 470.34375 L 222.292969 517.101562 C 223.097656 518.015625 224.050781 518.726562 225.15625 519.234375 C 226.261719 519.742188 227.425781 520.003906 228.640625 520.019531 C 229.328125 520.101562 230.015625 520.101562 230.699219 520.019531 C 231.445312 519.804688 232.148438 519.492188 232.808594 519.085938 C 233.46875 518.683594 234.0625 518.195312 234.59375 517.628906 C 235.121094 517.0625 235.566406 516.4375 235.921875 515.75 C 236.28125 515.0625 236.542969 514.339844 236.707031 513.582031 L 268.878906 349.117188 C 270.738281 348.945312 272.597656 348.945312 274.457031 349.117188 L 306.542969 513.324219 C 306.707031 514.082031 306.96875 514.804688 307.328125 515.492188 C 307.683594 516.179688 308.128906 516.804688 308.65625 517.371094 C 309.1875 517.9375 309.78125 518.425781 310.441406 518.828125 C 311.101562 519.234375 311.804688 519.546875 312.546875 519.761719 C 313.261719 519.84375 313.980469 519.84375 314.695312 519.761719 C 315.910156 519.746094 317.070312 519.484375 318.179688 518.976562 C 319.285156 518.46875 320.238281 517.757812 321.042969 516.84375 L 360.335938 470.085938 L 410.097656 481.753906 C 410.839844 481.878906 411.585938 481.902344 412.339844 481.832031 C 413.089844 481.757812 413.816406 481.589844 414.523438 481.324219 C 415.230469 481.058594 415.890625 480.707031 416.503906 480.269531 C 417.117188 479.828125 417.660156 479.316406 418.140625 478.734375 C 418.617188 478.152344 419.011719 477.515625 419.324219 476.832031 C 419.636719 476.144531 419.851562 475.425781 419.972656 474.683594 C 420.097656 473.9375 420.121094 473.191406 420.046875 472.441406 C 419.972656 471.691406 419.800781 470.964844 419.535156 470.257812 L 355.617188 327.152344 L 356.21875 326.125 C 357.152344 324.660156 358.214844 323.292969 359.402344 322.023438 C 360.589844 320.757812 361.882812 319.609375 363.285156 318.582031 C 364.6875 317.554688 366.171875 316.667969 367.738281 315.914062 C 369.304688 315.164062 370.925781 314.5625 372.605469 314.113281 L 387.1875 310.25 C 388.414062 309.929688 389.625 309.558594 390.816406 309.132812 C 392.011719 308.707031 393.183594 308.230469 394.335938 307.707031 C 395.488281 307.179688 396.617188 306.605469 397.722656 305.984375 C 398.824219 305.363281 399.898438 304.691406 400.945312 303.980469 C 401.992188 303.265625 403.007812 302.507812 403.988281 301.703125 C 404.96875 300.902344 405.914062 300.0625 406.824219 299.179688 C 407.734375 298.296875 408.601562 297.378906 409.433594 296.421875 C 410.261719 295.464844 411.050781 294.472656 411.796875 293.449219 C 412.542969 292.425781 413.242188 291.371094 413.898438 290.285156 C 414.554688 289.203125 415.160156 288.089844 415.722656 286.953125 C 416.28125 285.816406 416.792969 284.660156 417.253906 283.480469 C 417.710938 282.300781 418.121094 281.101562 418.480469 279.886719 C 418.839844 278.671875 419.144531 277.441406 419.398438 276.199219 C 419.648438 274.960938 419.847656 273.710938 419.996094 272.449219 C 420.140625 271.191406 420.230469 269.929688 420.269531 268.664062 C 420.308594 267.398438 420.289062 266.132812 420.21875 264.867188 L 419.363281 249.679688 C 419.265625 247.960938 419.332031 246.25 419.554688 244.542969 C 419.777344 242.835938 420.160156 241.164062 420.695312 239.527344 C 421.230469 237.890625 421.914062 236.316406 422.742188 234.808594 C 423.570312 233.296875 424.53125 231.878906 425.625 230.550781 L 435.234375 218.796875 C 436.035156 217.8125 436.789062 216.796875 437.503906 215.75 C 438.21875 214.699219 438.882812 213.625 439.503906 212.519531 C 440.125 211.414062 440.699219 210.285156 441.222656 209.128906 C 441.75 207.976562 442.222656 206.800781 442.648438 205.605469 C 443.074219 204.414062 443.445312 203.203125 443.765625 201.976562 C 444.085938 200.75 444.355469 199.511719 444.570312 198.261719 C 444.785156 197.011719 444.949219 195.757812 445.054688 194.492188 C 445.164062 193.230469 445.21875 191.964844 445.21875 190.699219 C 445.21875 189.429688 445.164062 188.164062 445.054688 186.902344 C 444.949219 185.636719 444.785156 184.382812 444.570312 183.132812 C 444.355469 181.882812 444.085938 180.644531 443.765625 179.417969 C 443.445312 178.195312 443.074219 176.984375 442.648438 175.789062 C 442.222656 174.59375 441.75 173.417969 441.222656 172.265625 C 440.699219 171.113281 440.125 169.980469 439.503906 168.878906 C 438.882812 167.773438 438.21875 166.695312 437.503906 165.648438 C 436.789062 164.597656 436.035156 163.582031 435.234375 162.601562 L 425.625 151.105469 C 424.53125 149.773438 423.570312 148.355469 422.742188 146.84375 C 421.914062 145.335938 421.230469 143.761719 420.695312 142.125 C 420.160156 140.492188 419.777344 138.820312 419.554688 137.113281 C 419.332031 135.40625 419.265625 133.691406 419.363281 131.972656 L 420.21875 116.785156 C 420.292969 115.519531 420.3125 114.253906 420.277344 112.984375 C 420.242188 111.714844 420.152344 110.449219 420.007812 109.191406 C 419.863281 107.929688 419.667969 106.675781 419.414062 105.433594 C 419.164062 104.191406 418.859375 102.960938 418.503906 101.742188 C 418.144531 100.523438 417.738281 99.324219 417.277344 98.140625 C 416.816406 96.960938 416.308594 95.796875 415.75 94.660156 C 415.1875 93.519531 414.582031 92.410156 413.925781 91.320312 C 413.269531 90.234375 412.570312 89.179688 411.824219 88.152344 C 411.078125 87.125 410.292969 86.132812 409.460938 85.175781 C 408.628906 84.214844 407.757812 83.292969 406.847656 82.410156 C 405.9375 81.523438 404.992188 80.679688 404.011719 79.878906 C 403.027344 79.074219 402.011719 78.316406 400.964844 77.601562 C 399.917969 76.882812 398.839844 76.214844 397.738281 75.589844 C 396.632812 74.96875 395.503906 74.390625 394.347656 73.867188 C 393.191406 73.339844 392.019531 72.863281 390.824219 72.4375 C 389.628906 72.011719 388.417969 71.636719 387.1875 71.316406 L 372.605469 67.539062 C 370.921875 67.097656 369.300781 66.5 367.730469 65.75 C 366.160156 65 364.675781 64.113281 363.273438 63.085938 C 361.871094 62.058594 360.578125 60.910156 359.390625 59.640625 C 358.207031 58.367188 357.148438 57 356.21875 55.53125 L 347.636719 42.832031 C 346.949219 41.769531 346.214844 40.738281 345.433594 39.742188 C 344.65625 38.742188 343.835938 37.777344 342.976562 36.847656 C 342.113281 35.921875 341.214844 35.03125 340.277344 34.175781 C 339.339844 33.324219 338.367188 32.515625 337.363281 31.746094 C 336.355469 30.976562 335.320312 30.253906 334.25 29.570312 C 333.183594 28.890625 332.085938 28.257812 330.964844 27.671875 C 329.839844 27.085938 328.695312 26.546875 327.527344 26.058594 C 326.359375 25.570312 325.171875 25.132812 323.964844 24.746094 C 322.757812 24.359375 321.539062 24.023438 320.304688 23.738281 C 319.070312 23.457031 317.824219 23.226562 316.570312 23.050781 C 315.316406 22.875 314.058594 22.753906 312.792969 22.683594 C 311.527344 22.613281 310.261719 22.601562 308.996094 22.640625 C 307.730469 22.679688 306.46875 22.773438 305.210938 22.921875 C 303.953125 23.066406 302.703125 23.269531 301.464844 23.523438 C 300.222656 23.777344 298.996094 24.082031 297.78125 24.441406 C 296.566406 24.800781 295.367188 25.210938 294.1875 25.671875 L 280.546875 30.992188 C 278.929688 31.609375 277.273438 32.074219 275.570312 32.386719 C 273.871094 32.703125 272.152344 32.859375 270.421875 32.859375 C 268.695312 32.859375 266.976562 32.703125 265.277344 32.386719 C 263.574219 32.074219 261.917969 31.609375 260.300781 30.992188 L 246.230469 25.414062 C 245.050781 24.953125 243.851562 24.542969 242.640625 24.183594 C 241.425781 23.824219 240.195312 23.519531 238.957031 23.265625 C 237.714844 23.011719 236.464844 22.808594 235.207031 22.664062 C 233.949219 22.515625 232.6875 22.421875 231.421875 22.382812 C 230.15625 22.34375 228.890625 22.359375 227.625 22.425781 C 226.359375 22.496094 225.101562 22.617188 223.847656 22.792969 C 222.59375 22.96875 221.347656 23.199219 220.113281 23.484375 C 218.878906 23.765625 217.660156 24.101562 216.453125 24.488281 C 215.246094 24.875 214.058594 25.3125 212.890625 25.800781 C 211.722656 26.289062 210.578125 26.828125 209.453125 27.414062 C 208.332031 28 207.238281 28.632812 206.167969 29.316406 C 205.101562 29.996094 204.0625 30.71875 203.054688 31.488281 C 202.050781 32.257812 201.078125 33.066406 200.140625 33.921875 C 199.203125 34.773438 198.304688 35.664062 197.441406 36.589844 C 196.582031 37.519531 195.761719 38.484375 194.984375 39.484375 C 194.207031 40.480469 193.472656 41.511719 192.78125 42.574219 L 184.628906 55.53125 C 183.695312 56.992188 182.636719 58.351562 181.445312 59.613281 C 180.257812 60.878906 178.964844 62.019531 177.5625 63.039062 C 176.160156 64.058594 174.675781 64.941406 173.109375 65.683594 C 171.542969 66.425781 169.921875 67.015625 168.242188 67.453125 L 153.65625 71.230469 C 152.429688 71.554688 151.21875 71.929688 150.023438 72.359375 C 148.824219 72.785156 147.652344 73.265625 146.496094 73.792969 C 145.339844 74.320312 144.210938 74.898438 143.105469 75.523438 C 142 76.148438 140.921875 76.820312 139.875 77.539062 C 138.828125 78.257812 137.8125 79.019531 136.828125 79.824219 C 135.847656 80.628906 134.902344 81.472656 133.992188 82.359375 C 133.082031 83.246094 132.210938 84.171875 131.378906 85.128906 C 130.546875 86.089844 129.761719 87.085938 129.015625 88.113281 C 128.269531 89.144531 127.570312 90.203125 126.914062 91.289062 C 126.257812 92.378906 125.652344 93.492188 125.09375 94.632812 C 124.53125 95.773438 124.023438 96.9375 123.5625 98.121094 C 123.105469 99.304688 122.695312 100.503906 122.339844 101.726562 C 121.984375 102.945312 121.679688 104.175781 121.429688 105.421875 C 121.175781 106.667969 120.980469 107.917969 120.835938 109.183594 C 120.691406 110.445312 120.605469 111.710938 120.570312 112.980469 C 120.535156 114.25 120.554688 115.519531 120.628906 116.785156 L 121.484375 131.972656 C 121.582031 133.691406 121.515625 135.40625 121.292969 137.113281 C 121.066406 138.820312 120.6875 140.492188 120.152344 142.125 C 119.617188 143.761719 118.933594 145.335938 118.105469 146.84375 C 117.277344 148.355469 116.316406 149.773438 115.222656 151.105469 L 105.613281 162.859375 C 104.8125 163.839844 104.058594 164.855469 103.34375 165.90625 C 102.628906 166.953125 101.964844 168.03125 101.34375 169.132812 C 100.722656 170.238281 100.148438 171.371094 99.625 172.523438 C 99.097656 173.675781 98.625 174.851562 98.199219 176.046875 C 97.773438 177.242188 97.402344 178.449219 97.082031 179.675781 C 96.761719 180.902344 96.492188 182.140625 96.277344 183.390625 C 96.0625 184.640625 95.898438 185.894531 95.792969 187.160156 C 95.683594 188.421875 95.628906 189.6875 95.628906 190.957031 C 95.628906 192.222656 95.683594 193.488281 95.792969 194.75 C 95.898438 196.015625 96.0625 197.269531 96.277344 198.519531 C 96.492188 199.769531 96.761719 201.007812 97.082031 202.234375 C 97.402344 203.460938 97.773438 204.671875 98.199219 205.863281 C 98.625 207.058594 99.097656 208.234375 99.625 209.386719 C 100.148438 210.542969 100.722656 211.671875 101.34375 212.777344 C 101.964844 213.882812 102.628906 214.957031 103.34375 216.003906 C 104.058594 217.054688 104.8125 218.070312 105.613281 219.054688 Z M 270.421875 318.917969 C 268.328125 318.917969 266.234375 318.867188 264.136719 318.761719 C 262.042969 318.660156 259.953125 318.503906 257.867188 318.300781 C 255.78125 318.09375 253.703125 317.839844 251.628906 317.53125 C 249.554688 317.222656 247.492188 316.863281 245.433594 316.457031 C 243.378906 316.046875 241.332031 315.585938 239.300781 315.078125 C 237.265625 314.570312 235.246094 314.011719 233.242188 313.402344 C 231.234375 312.792969 229.246094 312.136719 227.269531 311.429688 C 225.296875 310.722656 223.34375 309.96875 221.40625 309.167969 C 219.46875 308.363281 217.554688 307.515625 215.65625 306.617188 C 213.761719 305.722656 211.890625 304.78125 210.042969 303.792969 C 208.195312 302.804688 206.371094 301.769531 204.570312 300.691406 C 202.773438 299.617188 201.003906 298.496094 199.261719 297.328125 C 197.515625 296.164062 195.804688 294.957031 194.121094 293.710938 C 192.4375 292.460938 190.785156 291.171875 189.164062 289.84375 C 187.542969 288.511719 185.957031 287.144531 184.402344 285.734375 C 182.851562 284.328125 181.332031 282.882812 179.851562 281.398438 C 178.367188 279.917969 176.921875 278.398438 175.515625 276.847656 C 174.105469 275.292969 172.738281 273.707031 171.410156 272.085938 C 170.078125 270.464844 168.789062 268.8125 167.539062 267.128906 C 166.292969 265.445312 165.085938 263.734375 163.921875 261.988281 C 162.757812 260.246094 161.632812 258.476562 160.558594 256.679688 C 159.480469 254.878906 158.445312 253.058594 157.457031 251.207031 C 156.46875 249.359375 155.527344 247.488281 154.632812 245.59375 C 153.734375 243.695312 152.886719 241.78125 152.082031 239.84375 C 151.28125 237.90625 150.527344 235.953125 149.820312 233.980469 C 149.113281 232.003906 148.457031 230.015625 147.847656 228.007812 C 147.242188 226.003906 146.679688 223.984375 146.171875 221.949219 C 145.664062 219.917969 145.203125 217.871094 144.792969 215.816406 C 144.386719 213.761719 144.027344 211.695312 143.71875 209.621094 C 143.414062 207.546875 143.15625 205.46875 142.949219 203.382812 C 142.746094 201.296875 142.589844 199.207031 142.488281 197.113281 C 142.386719 195.019531 142.332031 192.921875 142.332031 190.828125 C 142.332031 188.730469 142.386719 186.636719 142.488281 184.542969 C 142.589844 182.449219 142.746094 180.359375 142.949219 178.273438 C 143.15625 176.183594 143.414062 174.105469 143.71875 172.03125 C 144.027344 169.957031 144.386719 167.894531 144.792969 165.835938 C 145.203125 163.78125 145.664062 161.738281 146.171875 159.703125 C 146.679688 157.667969 147.242188 155.648438 147.847656 153.644531 C 148.457031 151.636719 149.113281 149.648438 149.820312 147.675781 C 150.527344 145.699219 151.28125 143.746094 152.082031 141.808594 C 152.886719 139.871094 153.734375 137.957031 154.632812 136.0625 C 155.527344 134.164062 156.46875 132.292969 157.457031 130.445312 C 158.445312 128.597656 159.480469 126.773438 160.558594 124.976562 C 161.632812 123.175781 162.757812 121.40625 163.921875 119.664062 C 165.085938 117.921875 166.292969 116.207031 167.539062 114.523438 C 168.789062 112.839844 170.078125 111.1875 171.410156 109.566406 C 172.738281 107.945312 174.105469 106.359375 175.515625 104.804688 C 176.921875 103.253906 178.367188 101.734375 179.851562 100.253906 C 181.332031 98.769531 182.851562 97.324219 184.402344 95.917969 C 185.957031 94.511719 187.542969 93.140625 189.164062 91.8125 C 190.785156 90.480469 192.4375 89.191406 194.121094 87.945312 C 195.804688 86.695312 197.515625 85.488281 199.261719 84.324219 C 201.003906 83.160156 202.773438 82.039062 204.570312 80.960938 C 206.371094 79.882812 208.195312 78.847656 210.042969 77.859375 C 211.890625 76.871094 213.761719 75.929688 215.65625 75.035156 C 217.554688 74.136719 219.46875 73.289062 221.40625 72.488281 C 223.34375 71.683594 225.296875 70.929688 227.269531 70.222656 C 229.246094 69.519531 231.234375 68.859375 233.242188 68.25 C 235.246094 67.644531 237.265625 67.085938 239.300781 66.574219 C 241.332031 66.066406 243.378906 65.605469 245.433594 65.199219 C 247.492188 64.789062 249.554688 64.429688 251.628906 64.121094 C 253.703125 63.816406 255.78125 63.558594 257.867188 63.351562 C 259.953125 63.148438 262.042969 62.992188 264.136719 62.890625 C 266.234375 62.789062 268.328125 62.734375 270.421875 62.734375 C 272.519531 62.734375 274.613281 62.789062 276.707031 62.890625 C 278.800781 62.992188 280.894531 63.148438 282.980469 63.351562 C 285.066406 63.558594 287.144531 63.816406 289.21875 64.121094 C 291.292969 64.429688 293.355469 64.789062 295.414062 65.199219 C 297.46875 65.605469 299.515625 66.066406 301.546875 66.574219 C 303.582031 67.085938 305.601562 67.644531 307.605469 68.25 C 309.613281 68.859375 311.601562 69.519531 313.574219 70.222656 C 315.550781 70.929688 317.503906 71.683594 319.441406 72.488281 C 321.378906 73.289062 323.292969 74.136719 325.1875 75.035156 C 327.085938 75.929688 328.957031 76.871094 330.804688 77.859375 C 332.652344 78.847656 334.476562 79.882812 336.273438 80.960938 C 338.074219 82.039062 339.84375 83.160156 341.585938 84.324219 C 343.328125 85.488281 345.042969 86.695312 346.726562 87.945312 C 348.410156 89.191406 350.0625 90.480469 351.683594 91.8125 C 353.304688 93.140625 354.890625 94.511719 356.445312 95.917969 C 357.996094 97.324219 359.515625 98.769531 360.996094 100.253906 C 362.480469 101.734375 363.925781 103.253906 365.332031 104.804688 C 366.738281 106.359375 368.109375 107.945312 369.4375 109.566406 C 370.769531 111.1875 372.058594 112.839844 373.308594 114.523438 C 374.554688 116.207031 375.761719 117.921875 376.925781 119.664062 C 378.089844 121.40625 379.210938 123.175781 380.289062 124.976562 C 381.367188 126.773438 382.402344 128.597656 383.390625 130.445312 C 384.378906 132.292969 385.320312 134.164062 386.214844 136.0625 C 387.113281 137.957031 387.960938 139.871094 388.765625 141.808594 C 389.566406 143.746094 390.320312 145.699219 391.027344 147.675781 C 391.734375 149.648438 392.390625 151.636719 393 153.644531 C 393.605469 155.648438 394.167969 157.667969 394.675781 159.703125 C 395.183594 161.738281 395.644531 163.78125 396.054688 165.835938 C 396.460938 167.894531 396.820312 169.957031 397.128906 172.03125 C 397.433594 174.105469 397.691406 176.183594 397.898438 178.273438 C 398.101562 180.359375 398.257812 182.449219 398.359375 184.542969 C 398.460938 186.636719 398.515625 188.730469 398.515625 190.828125 C 398.503906 192.921875 398.445312 195.011719 398.332031 197.101562 C 398.21875 199.195312 398.058594 201.28125 397.84375 203.363281 C 397.628906 205.445312 397.367188 207.523438 397.050781 209.589844 C 396.734375 211.660156 396.371094 213.722656 395.953125 215.773438 C 395.539062 217.828125 395.074219 219.867188 394.558594 221.894531 C 394.042969 223.925781 393.476562 225.941406 392.863281 227.941406 C 392.25 229.945312 391.589844 231.929688 390.878906 233.898438 C 390.167969 235.867188 389.410156 237.820312 388.605469 239.753906 C 387.800781 241.683594 386.945312 243.597656 386.046875 245.488281 C 385.148438 247.378906 384.203125 249.246094 383.214844 251.089844 C 382.222656 252.933594 381.1875 254.753906 380.109375 256.546875 C 379.03125 258.34375 377.910156 260.109375 376.742188 261.847656 C 375.578125 263.589844 374.371094 265.296875 373.125 266.980469 C 371.875 268.660156 370.585938 270.308594 369.257812 271.925781 C 367.925781 273.542969 366.558594 275.128906 365.152344 276.679688 C 363.746094 278.230469 362.304688 279.746094 360.824219 281.226562 C 359.34375 282.707031 357.828125 284.148438 356.277344 285.554688 C 354.726562 286.960938 353.140625 288.332031 351.523438 289.660156 C 349.90625 290.988281 348.257812 292.277344 346.574219 293.527344 C 344.894531 294.773438 343.183594 295.980469 341.445312 297.148438 C 339.707031 298.3125 337.941406 299.433594 336.144531 300.511719 C 334.351562 301.59375 332.53125 302.625 330.6875 303.617188 C 328.84375 304.605469 326.976562 305.550781 325.082031 306.449219 C 323.191406 307.347656 321.28125 308.203125 319.347656 309.007812 C 317.417969 309.8125 315.464844 310.570312 313.496094 311.28125 C 311.527344 311.992188 309.542969 312.652344 307.539062 313.269531 C 305.539062 313.882812 303.523438 314.445312 301.492188 314.960938 C 299.464844 315.476562 297.421875 315.941406 295.371094 316.355469 C 293.320312 316.773438 291.257812 317.136719 289.1875 317.453125 C 287.117188 317.769531 285.042969 318.03125 282.960938 318.246094 C 280.878906 318.460938 278.789062 318.621094 276.699219 318.734375 C 274.609375 318.847656 272.515625 318.90625 270.421875 318.917969 Z M 270.421875 318.917969 " fill-opacity="1" fill-rule="nonzero"/></svg>