<?xml version="1.0" standalone="no"?>
<!DOCTYPE svg PUBLIC "-//W3C//DTD SVG 20010904//EN"
 "http://www.w3.org/TR/2001/REC-SVG-20010904/DTD/svg10.dtd">
<svg version="1.0" xmlns="http://www.w3.org/2000/svg"
 width="2250.000000pt" height="2250.000000pt" viewBox="0 0 2250.000000 2250.000000"
 preserveAspectRatio="xMidYMid meet">

<g transform="translate(0.000000,2250.000000) scale(0.100000,-0.100000)"
fill="#000000" stroke="none">
<path d="M11110 17269 c-661 -39 -1270 -401 -1653 -984 -189 -289 -315 -631
-364 -990 -20 -152 -20 -466 1 -620 97 -703 478 -1302 1056 -1660 822 -509
1887 -380 2576 311 188 189 313 363 433 604 255 513 315 1076 177 1645 -75
307 -251 659 -454 910 -32 38 -98 110 -149 161 -439 438 -1013 658 -1623 623z"/>
<path d="M18942 14339 c-74 -37 -77 -49 -77 -329 0 -279 3 -293 80 -330 53
-26 81 -25 129 3 72 41 76 60 76 327 0 268 -5 288 -75 327 -50 28 -79 29 -133
2z"/>
<path d="M2445 14180 c-248 -22 -483 -104 -684 -238 -112 -75 -290 -252 -368
-367 -162 -240 -254 -512 -269 -800 -11 -200 28 -337 121 -431 119 -119 353
-166 519 -103 107 39 200 151 240 288 9 29 23 106 31 171 21 160 37 219 92
330 114 233 328 352 607 337 177 -9 338 -79 452 -194 131 -133 205 -407 163
-605 -41 -193 -198 -374 -559 -641 -160 -119 -232 -189 -293 -283 -124 -193
-171 -370 -184 -696 l-6 -168 410 0 411 0 4 118 c6 141 34 237 104 357 62 105
213 255 364 362 396 280 613 584 697 975 25 116 24 379 -1 498 -57 264 -169
473 -351 655 -220 220 -487 352 -845 415 -139 24 -489 35 -655 20z"/>
<path d="M17392 13699 c-45 -9 -90 -54 -103 -103 -19 -70 3 -104 184 -283 89
-89 175 -166 190 -172 67 -26 139 -1 177 61 24 40 26 88 4 131 -17 33 -277
303 -327 339 -36 26 -83 36 -125 27z"/>
<path d="M20552 13699 c-40 -8 -38 -6 -226 -197 -154 -156 -175 -184 -176
-237 0 -65 72 -135 138 -135 59 0 96 27 264 198 146 148 166 172 172 208 17
100 -72 185 -172 163z"/>
<path d="M18894 13278 c-320 -21 -651 -190 -860 -440 -211 -251 -318 -542
-316 -858 1 -165 22 -302 67 -437 74 -221 173 -372 371 -568 44 -44 102 -109
128 -145 45 -61 116 -189 116 -209 0 -4 -14 -11 -31 -15 -122 -24 -173 -204
-85 -303 18 -21 18 -24 3 -41 -60 -66 -60 -198 0 -264 15 -17 15 -19 0 -36
-47 -52 -60 -148 -28 -217 33 -73 72 -93 227 -120 l101 -18 6 -66 c13 -140
101 -260 237 -325 59 -28 74 -31 165 -31 82 0 111 4 158 23 77 31 174 122 211
197 16 33 32 55 40 52 6 -3 53 -11 103 -18 112 -15 157 -5 202 46 58 66 64
168 15 240 -13 20 -24 38 -24 40 0 2 11 20 24 40 46 68 41 180 -11 237 -14 15
-15 22 -5 36 53 76 62 156 24 229 -25 48 -53 69 -114 88 l-43 12 3 44 c12 144
148 391 322 583 121 133 173 208 240 341 105 211 146 401 136 635 -13 309 -99
549 -281 785 -190 245 -469 414 -776 469 -106 19 -197 23 -325 14z"/>
<path d="M9000 12474 c-466 -122 -877 -376 -1212 -748 -54 -60 -129 -151 -167
-200 -123 -165 -1358 -1973 -1829 -2677 -240 -360 -286 -415 -382 -464 -114
-57 -24 -54 -1875 -54 -1145 0 -1731 -4 -1795 -11 -236 -27 -410 -91 -567
-209 -145 -109 -256 -283 -310 -486 -24 -90 -27 -118 -27 -280 -1 -200 13
-291 65 -425 122 -317 373 -510 768 -592 41 -8 608 -12 2150 -15 1829 -3 2110
-2 2212 12 308 40 540 154 744 367 79 82 139 162 286 379 178 262 393 572 908
1304 127 182 244 340 259 352 37 31 109 31 147 1 58 -45 55 42 55 -1585 0
-1606 -2 -1537 50 -1647 62 -130 215 -235 373 -256 112 -14 4637 -14 4744 1
202 28 358 164 408 356 13 49 15 255 15 1515 0 1209 2 1464 14 1491 15 37 47
61 93 71 64 14 92 -11 272 -243 444 -573 799 -1052 1031 -1391 73 -107 162
-230 197 -272 214 -258 504 -405 864 -438 89 -8 703 -10 2179 -8 2286 5 2100
-1 2328 73 397 129 648 451 669 861 28 535 -271 939 -782 1057 -89 20 -101 20
-1855 18 -1562 -2 -1772 0 -1822 13 -90 24 -144 54 -201 111 -32 32 -202 274
-442 631 -363 540 -1174 1742 -1413 2094 -257 378 -430 574 -707 805 -175 146
-433 297 -665 390 -139 56 -347 115 -407 115 -61 0 -95 -17 -198 -100 -198
-159 -478 -330 -697 -425 -743 -321 -1555 -345 -2302 -68 -145 53 -431 192
-536 260 -128 82 -272 183 -345 244 -39 32 -87 65 -108 74 -44 18 -114 18
-187 -1z"/>
<path d="M16705 12107 c-44 -25 -75 -75 -75 -122 0 -47 31 -97 75 -122 38 -22
50 -23 270 -23 206 0 234 2 273 20 33 15 47 29 62 62 11 24 20 52 20 63 0 11
-9 39 -20 63 -15 33 -29 47 -62 62 -39 18 -67 20 -273 20 -220 0 -232 -1 -270
-23z"/>
<path d="M20765 12110 c-105 -52 -105 -199 0 -250 38 -18 63 -20 271 -20 256
0 278 5 321 69 46 69 19 165 -57 203 -30 16 -66 18 -265 18 -210 0 -234 -2
-270 -20z"/>
<path d="M2596 10415 c-197 -54 -349 -214 -391 -412 -20 -93 -19 -156 5 -247
47 -184 167 -315 350 -381 107 -38 243 -38 350 0 183 66 303 197 350 381 24
91 25 154 5 247 -42 200 -195 359 -395 412 -68 18 -208 18 -274 0z"/>
</g>
</svg>
