<?xml version="1.0" encoding="UTF-8"?>
<!DOCTYPE svg PUBLIC "-//W3C//DTD SVG 1.1//EN" "http://www.w3.org/Graphics/SVG/1.1/DTD/svg11.dtd">
<svg xmlns="http://www.w3.org/2000/svg" version="1.1" width="2250px" height="2250px" style="shape-rendering:geometricPrecision; text-rendering:geometricPrecision; image-rendering:optimizeQuality; fill-rule:evenodd; clip-rule:evenodd" xmlns:xlink="http://www.w3.org/1999/xlink">
<g><path style="opacity:0.994" fill="#af1916" d="M 594.5,709.5 C 652.845,709.852 711.178,710.852 769.5,712.5C 800.168,761.165 830.335,810.165 860,859.5C 889.041,810.584 918.207,761.751 947.5,713C 1008.4,713.181 1069.24,714.014 1130,715.5C 1132.81,933.164 1135.31,1150.83 1137.5,1368.5C 1080.18,1366.83 1022.84,1365.33 965.5,1364C 964.874,1363.25 964.374,1362.42 964,1361.5C 959.714,1238.83 955.381,1116.16 951,993.5C 920.914,1038.67 890.581,1083.67 860,1128.5C 831.606,1085.77 803.606,1042.77 776,999.5C 775.667,999.833 775.333,1000.17 775,1000.5C 770.734,1120.86 766.234,1241.19 761.5,1361.5C 702.823,1363.68 644.157,1366.01 585.5,1368.5C 588.972,1148.84 591.972,929.177 594.5,709.5 Z"/></g>
<g><path style="opacity:0.992" fill="#af1916" d="M 1169.5,709.5 C 1298.17,713.334 1426.84,717.334 1555.5,721.5C 1553.81,771.832 1552.14,822.166 1550.5,872.5C 1480.16,872.337 1409.83,871.67 1339.5,870.5C 1339.5,897.5 1339.5,924.5 1339.5,951.5C 1384.79,954.674 1430.12,957.341 1475.5,959.5C 1475.5,1007.83 1475.5,1056.17 1475.5,1104.5C 1429.87,1101.36 1384.2,1098.7 1338.5,1096.5C 1338.11,1133.5 1337.78,1170.5 1337.5,1207.5C 1411.48,1211.87 1485.48,1215.87 1559.5,1219.5C 1562.54,1269.16 1565.54,1318.83 1568.5,1368.5C 1435.5,1368.5 1302.5,1368.5 1169.5,1368.5C 1169.5,1148.83 1169.5,929.167 1169.5,709.5 Z"/></g>
<g><path style="opacity:0.991" fill="#af1916" d="M 168.5,710.5 C 296.844,714.156 425.178,718.156 553.5,722.5C 552.642,772.516 551.309,822.516 549.5,872.5C 480.131,871.333 410.797,870 341.5,868.5C 340.5,896.825 340.167,925.159 340.5,953.5C 385.083,955.697 429.583,958.364 474,961.5C 474.5,1009.17 474.667,1056.83 474.5,1104.5C 429.785,1102.41 385.118,1099.75 340.5,1096.5C 339.647,1184.83 338.981,1273.16 338.5,1361.5C 281.843,1364.37 225.177,1367.03 168.5,1369.5C 168.5,1149.83 168.5,930.167 168.5,710.5 Z"/></g>
<g><path style="opacity:0.994" fill="#af1916" d="M 2011.5,711.5 C 2013.79,711.244 2015.96,711.577 2018,712.5C 2033.94,736.774 2050.28,760.774 2067,784.5C 2071.99,979.084 2076.16,1173.58 2079.5,1368C 2022.5,1369.14 1965.5,1370.31 1908.5,1371.5C 1906.3,1303.19 1904.63,1234.86 1903.5,1166.5C 1860.18,1169.33 1816.84,1172 1773.5,1174.5C 1768.77,1238.8 1764.44,1303.14 1760.5,1367.5C 1707.16,1368.31 1653.83,1369.31 1600.5,1370.5C 1608.78,1168.44 1617.61,966.439 1627,764.5C 1637.17,752.333 1647.33,740.167 1657.5,728C 1659.83,727.667 1662.17,727.333 1664.5,727C 1780.34,722.159 1896.01,716.993 2011.5,711.5 Z M 1887.5,878.5 C 1891.17,878.5 1894.83,878.5 1898.5,878.5C 1899.53,932.51 1900.87,986.51 1902.5,1040.5C 1862.48,1038.02 1822.48,1035.36 1782.5,1032.5C 1784.87,984.118 1787.87,935.785 1791.5,887.5C 1823.64,884.601 1855.64,881.601 1887.5,878.5 Z"/></g>
</svg>
