<svg xmlns="http://www.w3.org/2000/svg" xmlns:xlink="http://www.w3.org/1999/xlink" width="720" zoomAndPan="magnify" viewBox="0 0 540 540.000001" height="720" preserveAspectRatio="xMidYMid meet" version="1.0"><defs><clipPath id="67436c14df"><path d="M 21.425781 189.734375 L 231.785156 189.734375 L 231.785156 403.992188 L 21.425781 403.992188 Z M 21.425781 189.734375 " clip-rule="nonzero"/></clipPath><clipPath id="fcf04f4fe6"><path d="M 163.308594 159.613281 L 373.667969 159.613281 L 373.667969 373.871094 L 163.308594 373.871094 Z M 163.308594 159.613281 " clip-rule="nonzero"/></clipPath><clipPath id="f7a02b12da"><path d="M 308.363281 135.039062 L 518.726562 135.039062 L 518.726562 349.296875 L 308.363281 349.296875 Z M 308.363281 135.039062 " clip-rule="nonzero"/></clipPath></defs><g clip-path="url(#67436c14df)"><path fill="#009b66" d="M 231.328125 231.109375 L 231.464844 230.726562 L 126.546875 189.734375 L 21.785156 231.152344 L 21.4375 231.011719 L 21.4375 231.277344 L 21.425781 231.289062 L 21.4375 231.332031 L 21.4375 362.816406 L 126.492188 403.992188 L 231.5625 362.808594 L 231.5625 231.011719 Z M 126.441406 197.796875 L 162.035156 210.542969 L 65.007812 248.199219 L 32.152344 235.242188 Z M 122.753906 394.707031 L 83.40625 378.816406 L 63.660156 371.402344 L 28.945312 357.707031 L 28.945312 242.050781 L 63.308594 255.605469 L 63.308594 284.519531 L 66.371094 283.667969 L 68.441406 286.503906 L 71.320312 285.835938 L 74.113281 288.789062 L 76.546875 287.9375 L 80.476562 291.835938 L 80.476562 262.371094 L 83.535156 263.582031 L 122.753906 279.046875 Z M 126.503906 272.460938 L 88.136719 257.324219 L 182.75 218.976562 L 221.777344 234.878906 Z M 224.0625 357.707031 L 130.253906 394.707031 L 130.253906 279.046875 L 224.050781 242.039062 L 224.050781 357.707031 Z M 224.0625 357.707031 " fill-opacity="1" fill-rule="nonzero"/></g><g clip-path="url(#fcf04f4fe6)"><path fill="#009b66" d="M 373.210938 200.988281 L 373.351562 200.605469 L 268.429688 159.613281 L 163.671875 201.03125 L 163.320312 200.890625 L 163.320312 201.15625 L 163.308594 201.167969 L 163.320312 201.210938 L 163.320312 332.695312 L 268.378906 373.871094 L 373.445312 332.6875 L 373.445312 200.890625 Z M 268.324219 167.675781 L 303.921875 180.421875 L 206.894531 218.078125 L 174.039062 205.121094 Z M 264.636719 364.585938 L 225.292969 348.695312 L 205.542969 341.28125 L 170.832031 327.585938 L 170.832031 211.929688 L 205.195312 225.484375 L 205.195312 254.398438 L 208.253906 253.546875 L 210.324219 256.382812 L 213.203125 255.714844 L 215.996094 258.667969 L 218.429688 257.820312 L 222.359375 261.71875 L 222.359375 232.25 L 225.417969 233.460938 L 264.636719 248.925781 Z M 268.386719 242.339844 L 230.019531 227.203125 L 324.632812 188.855469 L 363.660156 204.757812 Z M 365.945312 327.585938 L 272.136719 364.585938 L 272.136719 248.925781 L 365.933594 211.917969 L 365.933594 327.585938 Z M 365.945312 327.585938 " fill-opacity="1" fill-rule="nonzero"/></g><g clip-path="url(#f7a02b12da)"><path fill="#009b66" d="M 518.265625 176.414062 L 518.40625 176.03125 L 413.484375 135.039062 L 308.726562 176.457031 L 308.375 176.320312 L 308.375 176.585938 L 308.363281 176.597656 L 308.375 176.636719 L 308.375 308.125 L 413.433594 349.296875 L 518.5 308.113281 L 518.5 176.320312 Z M 413.378906 143.101562 L 448.976562 155.851562 L 351.949219 193.507812 L 319.09375 180.546875 Z M 409.691406 340.015625 L 370.347656 324.121094 L 350.601562 316.707031 L 315.886719 303.015625 L 315.886719 187.355469 L 350.25 200.910156 L 350.25 229.824219 L 353.308594 228.976562 L 355.378906 231.8125 L 358.257812 231.144531 L 361.050781 234.097656 L 363.484375 233.246094 L 367.414062 237.144531 L 367.414062 207.679688 L 370.472656 208.890625 L 409.691406 224.355469 Z M 413.441406 217.769531 L 375.074219 202.632812 L 469.691406 164.285156 L 508.71875 180.1875 Z M 511 303.015625 L 417.191406 340.015625 L 417.191406 224.355469 L 510.988281 187.347656 L 510.988281 303.015625 Z M 511 303.015625 " fill-opacity="1" fill-rule="nonzero"/></g></svg>