<?xml version="1.0" standalone="no"?>
<!DOCTYPE svg PUBLIC "-//W3C//DTD SVG 20010904//EN"
 "http://www.w3.org/TR/2001/REC-SVG-20010904/DTD/svg10.dtd">
<svg version="1.0" xmlns="http://www.w3.org/2000/svg"
 width="2250.000000pt" height="2250.000000pt" viewBox="0 0 2250.000000 2250.000000"
 preserveAspectRatio="xMidYMid meet">

<g transform="translate(0.000000,2250.000000) scale(0.100000,-0.100000)"
fill="#000000" stroke="none">
<path d="M11836 20334 c-58 -21 -118 -75 -151 -135 -23 -43 -30 -69 -33 -135
-8 -156 42 -253 163 -314 l69 -35 608 -3 608 -3 0 -674 0 -675 -22 -4 c-13 -3
-84 -7 -158 -11 -232 -10 -656 -62 -949 -115 -966 -177 -1870 -513 -2681 -996
-587 -349 -1145 -786 -1613 -1263 -219 -224 -239 -254 -245 -368 -5 -97 16
-158 78 -227 94 -102 232 -135 352 -85 43 18 91 60 248 214 406 398 757 684
1190 970 374 247 691 423 1046 580 858 381 1612 570 2584 646 190 15 793 15
990 0 651 -51 1212 -161 1799 -353 590 -193 1106 -433 1633 -759 314 -195 621
-417 912 -662 l120 -101 113 120 c62 65 163 171 223 235 l110 117 -67 63 c-95
88 -416 343 -615 488 -844 612 -1827 1062 -2844 1300 -445 104 -971 178 -1414
199 l-145 7 -3 677 -2 677 617 4 c451 2 628 6 655 15 70 24 130 74 167 143 34
61 36 69 36 160 0 90 -2 100 -35 165 -38 74 -95 123 -168 144 -25 6 -561 10
-1587 9 -1317 0 -1556 -3 -1589 -15z"/>
<path d="M13010 16989 c-972 -61 -2012 -371 -2869 -856 -296 -168 -627 -387
-692 -460 -99 -109 -106 -313 -15 -419 88 -103 255 -135 392 -75 24 11 78 46
121 79 194 147 539 355 828 497 684 336 1442 538 2237 595 311 22 828 10 1138
-26 1194 -138 2298 -612 3229 -1388 l84 -70 134 140 c283 296 308 324 292 338
-43 39 -298 244 -384 308 -373 277 -674 461 -1106 673 -667 326 -1398 542
-2134 629 -360 43 -896 58 -1255 35z"/>
<path d="M19524 15690 c-81 -21 -157 -57 -225 -105 -71 -51 -1172 -1166 -1930
-1955 -401 -419 -720 -752 -1694 -1775 -935 -982 -1708 -1784 -2465 -2558
l-57 -59 -1214 1028 c-668 565 -1232 1041 -1254 1057 -204 149 -491 169 -718
50 -136 -72 -265 -227 -317 -383 -30 -90 -37 -250 -16 -350 20 -94 81 -219
140 -286 63 -71 3003 -2561 3078 -2607 103 -62 204 -90 333 -91 128 -1 201 16
315 71 67 33 100 61 294 253 452 446 1656 1688 2626 2710 102 107 356 375 565
595 1361 1434 1950 2045 2745 2850 251 253 472 483 492 510 86 120 128 251
128 398 0 112 -20 198 -71 302 -134 276 -457 423 -755 345z"/>
<path d="M20619 13870 c-19 -21 -123 -131 -231 -243 l-197 -204 68 -154 c316
-716 518 -1476 595 -2244 50 -497 50 -1030 1 -1530 -139 -1397 -696 -2765
-1579 -3875 -563 -708 -1254 -1315 -2016 -1772 -907 -544 -1860 -874 -2925
-1013 -478 -62 -1121 -70 -1655 -20 -959 91 -1921 380 -2761 830 -617 331
-1125 699 -1667 1211 -197 186 -232 207 -347 207 -68 0 -88 -4 -134 -27 -123
-63 -186 -171 -179 -306 7 -107 29 -144 172 -285 495 -489 1106 -945 1736
-1297 940 -525 2014 -861 3090 -968 1827 -180 3626 242 5150 1209 2059 1306
3417 3426 3730 5821 97 749 89 1526 -26 2280 -99 651 -284 1310 -537 1905
-118 278 -231 515 -246 515 -5 0 -24 -18 -42 -40z"/>
<path d="M3020 13402 c-75 -22 -159 -104 -185 -181 -26 -78 -18 -208 17 -277
34 -66 92 -116 162 -143 l57 -21 2867 2 2867 3 50 23 c110 51 166 139 173 272
3 70 0 95 -18 144 -28 75 -85 137 -153 167 l-52 24 -2865 2 c-2608 1 -2870 0
-2920 -15z"/>
<path d="M19431 12631 l-241 -250 35 -98 c118 -325 224 -753 280 -1126 190
-1275 -15 -2558 -590 -3692 -632 -1245 -1668 -2239 -2935 -2815 -863 -393
-1814 -579 -2759 -540 -596 25 -1057 100 -1588 261 -543 163 -1123 442 -1556
747 -113 79 -196 105 -312 100 -145 -7 -229 -63 -274 -183 -41 -108 -24 -222
46 -314 73 -95 723 -475 1132 -661 1276 -580 2726 -743 4121 -464 849 170
1684 517 2415 1004 624 416 1205 967 1661 1575 601 800 1020 1738 1218 2725
231 1148 154 2371 -218 3485 -61 183 -171 472 -186 488 -4 4 -116 -104 -249
-242z"/>
<path d="M1165 10696 c-89 -28 -143 -74 -186 -156 -33 -63 -35 -222 -3 -291
31 -66 78 -114 142 -146 l57 -28 2845 -3 c2116 -2 2859 0 2900 8 151 32 242
147 242 308 0 148 -67 256 -186 301 l-57 21 -2857 -1 c-2274 0 -2865 -3 -2897
-13z"/>
<path d="M3001 7978 c-72 -28 -132 -89 -161 -164 -31 -83 -26 -216 12 -290 33
-63 90 -116 154 -140 48 -18 128 -19 2924 -19 l2875 0 57 28 c71 35 119 88
148 163 18 49 21 74 18 144 -7 141 -71 237 -184 280 -55 20 -58 20 -2922 19
l-2867 0 -54 -21z"/>
</g>
</svg>
