<?xml version="1.0" standalone="no"?>
<!DOCTYPE svg PUBLIC "-//W3C//DTD SVG 20010904//EN"
 "http://www.w3.org/TR/2001/REC-SVG-20010904/DTD/svg10.dtd">
<svg version="1.0" xmlns="http://www.w3.org/2000/svg"
 width="2250.000000pt" height="2250.000000pt" viewBox="0 0 2250.000000 2250.000000"
 preserveAspectRatio="xMidYMid meet">

<g transform="translate(0.000000,2250.000000) scale(0.100000,-0.100000)"
fill="#000000" stroke="none">
<path d="M16270 20113 c-47 -2 -159 -10 -250 -19 -992 -93 -1927 -461 -2715
-1069 -646 -498 -1154 -1118 -1515 -1850 -461 -934 -629 -1949 -490 -2967 101
-736 384 -1479 816 -2140 l82 -126 -209 -1669 c-115 -917 -208 -1678 -207
-1690 3 -20 124 30 1575 652 l1572 674 123 -38 c381 -119 731 -199 1048 -238
175 -21 663 -24 860 -5 835 84 1544 316 2250 737 904 540 1651 1383 2089 2355
425 944 555 1959 386 3000 -174 1065 -688 2070 -1450 2835 -273 274 -511 471
-825 680 -437 291 -843 485 -1355 648 -551 176 -1146 252 -1785 230z m725
-1332 c197 -26 347 -54 491 -91 1510 -390 2645 -1619 2904 -3145 46 -274 55
-386 55 -710 0 -312 -6 -393 -50 -650 -99 -574 -334 -1140 -664 -1602 -202
-280 -500 -598 -751 -797 -588 -468 -1226 -737 -1995 -841 -159 -22 -597 -31
-780 -16 -403 32 -772 121 -1208 290 -87 33 -164 61 -171 61 -7 0 -332 -137
-723 -304 -391 -167 -719 -307 -730 -310 -18 -6 -14 36 79 783 l99 789 -153
203 c-190 252 -285 402 -405 635 -228 446 -351 857 -415 1394 -20 169 -17 714
5 880 86 641 298 1207 649 1728 370 549 888 1005 1482 1306 452 229 935 365
1471 415 166 16 636 5 810 -18z"/>
<path d="M15850 15850 l0 -1640 655 0 655 0 0 1640 0 1640 -655 0 -655 0 0
-1640z"/>
<path d="M15850 12895 l0 -655 655 0 655 0 0 655 0 655 -655 0 -655 0 0 -655z"/>
<path d="M5675 14193 c-615 -51 -1088 -179 -1579 -427 -506 -256 -916 -600
-1252 -1051 -432 -582 -684 -1239 -771 -2017 -20 -184 -23 -640 -4 -823 92
-895 397 -1637 929 -2258 134 -157 210 -215 628 -480 l108 -68 -125 -65 c-362
-190 -680 -401 -1004 -670 -169 -139 -541 -513 -676 -679 -434 -532 -727
-1058 -934 -1680 -157 -470 -255 -1038 -255 -1477 l0 -118 648 0 649 0 6 158
c59 1420 871 2695 2130 3342 602 310 1231 454 1912 437 623 -15 1177 -156
1720 -436 995 -513 1721 -1425 2004 -2515 59 -225 105 -521 116 -741 3 -66 8
-148 11 -182 l6 -63 650 0 651 0 -6 183 c-29 851 -274 1684 -709 2414 -241
404 -472 699 -817 1044 -220 219 -364 346 -571 500 -241 181 -544 371 -781
489 -54 28 -99 54 -99 58 1 10 24 26 210 142 316 197 419 284 594 504 739 928
1028 2198 776 3421 -198 963 -720 1794 -1469 2335 -572 415 -1245 654 -2026
720 -109 9 -573 11 -670 3z m660 -1314 c646 -52 1228 -332 1621 -781 172 -197
264 -335 379 -570 123 -251 211 -534 255 -824 28 -178 38 -548 20 -720 -85
-838 -476 -1528 -1102 -1945 -198 -131 -430 -234 -684 -304 -466 -128 -1057
-139 -1554 -28 -823 182 -1447 744 -1742 1567 -299 835 -193 1819 273 2531
357 546 877 896 1529 1028 302 62 623 76 1005 46z"/>
</g>
</svg>
